%TF.GenerationSoftware,KiCad,Pcbnew,10.0.1*%
%TF.CreationDate,2026-09-02T21:13:54-04:00*%
%TF.ProjectId,TMR-26-1-14 ODrive S1 Breakout Board V1.2,544d522d-3236-42d3-912d-3134204f4472,rev?*%
%TF.SameCoordinates,Original*%
%TF.FileFunction,Copper,L2,Bot*%
%TF.FilePolarity,Positive*%
%FSLAX46Y46*%
G04 Gerber Fmt 4.6, Leading zero omitted, Abs format (unit mm)*
G04 Created by KiCad (PCBNEW 10.0.1) date 2026-09-02 21:13:54*
%MOMM*%
%LPD*%
G01*
G04 APERTURE LIST*
G04 Aperture macros list*
%AMRoundRect*
0 Rectangle with rounded corners*
0 $1 Rounding radius*
0 $2 $3 $4 $5 $6 $7 $8 $9 X,Y pos of 4 corners*
0 Add a 4 corners polygon primitive as box body*
4,1,4,$2,$3,$4,$5,$6,$7,$8,$9,$2,$3,0*
0 Add four circle primitives for the rounded corners*
1,1,$1+$1,$2,$3*
1,1,$1+$1,$4,$5*
1,1,$1+$1,$6,$7*
1,1,$1+$1,$8,$9*
0 Add four rect primitives between the rounded corners*
20,1,$1+$1,$2,$3,$4,$5,0*
20,1,$1+$1,$4,$5,$6,$7,0*
20,1,$1+$1,$6,$7,$8,$9,0*
20,1,$1+$1,$8,$9,$2,$3,0*%
G04 Aperture macros list end*
%TA.AperFunction,ComponentPad*%
%ADD10RoundRect,0.250000X-0.600000X-0.725000X0.600000X-0.725000X0.600000X0.725000X-0.600000X0.725000X0*%
%TD*%
%TA.AperFunction,ComponentPad*%
%ADD11O,1.700000X1.950000*%
%TD*%
%TA.AperFunction,ComponentPad*%
%ADD12RoundRect,0.250000X-0.725000X0.600000X-0.725000X-0.600000X0.725000X-0.600000X0.725000X0.600000X0*%
%TD*%
%TA.AperFunction,ComponentPad*%
%ADD13O,1.950000X1.700000*%
%TD*%
%TA.AperFunction,ComponentPad*%
%ADD14R,1.700000X1.700000*%
%TD*%
%TA.AperFunction,ComponentPad*%
%ADD15C,1.700000*%
%TD*%
%TA.AperFunction,ComponentPad*%
%ADD16C,1.574800*%
%TD*%
%TA.AperFunction,ComponentPad*%
%ADD17R,1.200000X1.200000*%
%TD*%
%TA.AperFunction,ComponentPad*%
%ADD18C,1.200000*%
%TD*%
%TA.AperFunction,ViaPad*%
%ADD19C,2.000000*%
%TD*%
%TA.AperFunction,ViaPad*%
%ADD20C,0.700000*%
%TD*%
%TA.AperFunction,Conductor*%
%ADD21C,1.000000*%
%TD*%
%TA.AperFunction,Conductor*%
%ADD22C,0.350000*%
%TD*%
G04 APERTURE END LIST*
D10*
%TO.P,J10,1,Pin_1*%
%TO.N,/G04\u002C THERMISTOR+*%
X142163000Y-97973000D03*
D11*
%TO.P,J10,2,Pin_2*%
%TO.N,/THERMISTOR-*%
X144663000Y-97973000D03*
%TD*%
D10*
%TO.P,J2,1,Pin_1*%
%TO.N,/GND*%
X120663000Y-97473000D03*
D11*
%TO.P,J2,2,Pin_2*%
%TO.N,/G02\u002C HALL_C*%
X123163000Y-97473000D03*
%TO.P,J2,3,Pin_3*%
%TO.N,/G11\u002C HALL_B\u002C ANALOG_IN*%
X125663000Y-97473000D03*
%TO.P,J2,4,Pin_4*%
%TO.N,/G01\u002C HALL_A\u002C ANALOG_IN*%
X128163000Y-97473000D03*
%TO.P,J2,5,Pin_5*%
%TO.N,/G04\u002C THERMISTOR+*%
X130663000Y-97473000D03*
%TO.P,J2,6,Pin_6*%
%TO.N,/5V (1)*%
X133163000Y-97473000D03*
%TD*%
D12*
%TO.P,J4,1,Pin_1*%
%TO.N,/5V (1)*%
X106858000Y-97123000D03*
D13*
%TO.P,J4,2,Pin_2*%
%TO.N,/G0\u002C (+)\u002C RS485_A*%
X106858000Y-99623000D03*
%TO.P,J4,3,Pin_3*%
%TO.N,/G0\u002C (\u002C)\u002C RS485_B*%
X106858000Y-102123000D03*
%TO.P,J4,4,Pin_4*%
%TO.N,/GND*%
X106858000Y-104623000D03*
%TD*%
D14*
%TO.P,J1,1,Pin_1*%
%TO.N,/CAN_H_1*%
X150813000Y-84573000D03*
D15*
%TO.P,J1,2,Pin_2*%
%TO.N,/CAN_L_1*%
X150813000Y-87113000D03*
%TO.P,J1,3,Pin_3*%
%TO.N,/CAN_H_2*%
X148273000Y-84573000D03*
%TO.P,J1,4,Pin_4*%
%TO.N,/CAN_L_2*%
X148273000Y-87113000D03*
%TO.P,J1,5,Pin_5*%
%TO.N,/12V IN (2)*%
X145733000Y-84573000D03*
%TO.P,J1,6,Pin_6*%
%TO.N,/3.3V (1)*%
X145733000Y-87113000D03*
%TO.P,J1,7,Pin_7*%
%TO.N,/G06\u002C UART_TX\u002C ERROR*%
X143193000Y-84573000D03*
%TO.P,J1,8,Pin_8*%
%TO.N,/G07\u002C UART_RX\u002C ENABLE*%
X143193000Y-87113000D03*
%TO.P,J1,9,Pin_9*%
%TO.N,/ISO_VDD*%
X140653000Y-84573000D03*
%TO.P,J1,10,Pin_10*%
%TO.N,/ISO_GND*%
X140653000Y-87113000D03*
%TO.P,J1,11,Pin_11*%
%TO.N,/G05\u002C DIR*%
X138113000Y-84573000D03*
%TO.P,J1,12,Pin_12*%
%TO.N,/G08\u002C STEP\u002C PWM_IN*%
X138113000Y-87113000D03*
%TO.P,J1,13,Pin_13*%
%TO.N,/G04\u002C THERMISTOR+*%
X135573000Y-84573000D03*
%TO.P,J1,14,Pin_14*%
%TO.N,/THERMISTOR-*%
X135573000Y-87113000D03*
%TO.P,J1,15,Pin_15*%
%TO.N,/5V (1)*%
X133033000Y-84573000D03*
%TO.P,J1,16,Pin_16*%
%TO.N,/GND*%
X133033000Y-87113000D03*
%TO.P,J1,17,Pin_17*%
%TO.N,/G03\u002C ENC0_A*%
X130493000Y-84573000D03*
%TO.P,J1,18,Pin_18*%
%TO.N,/G09\u002C ENC0_B*%
X130493000Y-87113000D03*
%TO.P,J1,19,Pin_19*%
%TO.N,/G02\u002C HALL_C*%
X127953000Y-84573000D03*
%TO.P,J1,20,Pin_20*%
%TO.N,/G10\u002C ENC0_Z*%
X127953000Y-87113000D03*
%TO.P,J1,21,Pin_21*%
%TO.N,/G01\u002C HALL_A\u002C ANALOG_IN*%
X125413000Y-84573000D03*
%TO.P,J1,22,Pin_22*%
%TO.N,/G11\u002C HALL_B\u002C ANALOG_IN*%
X125413000Y-87113000D03*
%TO.P,J1,23,Pin_23*%
%TO.N,/G0\u002C (+)\u002C RS485_A*%
X122873000Y-84573000D03*
%TO.P,J1,24,Pin_24*%
%TO.N,/G0\u002C (\u002C)\u002C RS485_B*%
X122873000Y-87113000D03*
%TO.P,J1,25,Pin_25*%
%TO.N,/5V (1)*%
X120333000Y-84573000D03*
%TO.P,J1,26,Pin_26*%
%TO.N,/GND*%
X120333000Y-87113000D03*
%TO.P,J1,27,Pin_27*%
%TO.N,/SPI_MOSI*%
X117793000Y-84573000D03*
%TO.P,J1,28,Pin_28*%
%TO.N,/SPI_MISO*%
X117793000Y-87113000D03*
%TO.P,J1,29,Pin_29*%
%TO.N,/SPI_SCK*%
X115253000Y-84573000D03*
%TO.P,J1,30,Pin_30*%
%TO.N,/G12\u002C SPI_nCS*%
X115253000Y-87113000D03*
%TD*%
D16*
%TO.P,J8,1,1*%
%TO.N,/CAN_H_2*%
X153913000Y-89033400D03*
%TO.P,J8,2,2*%
%TO.N,/CAN_L_2*%
X153913000Y-92033399D03*
%TD*%
%TO.P,J7,1,1*%
%TO.N,/CAN_H_1*%
X153940001Y-77033400D03*
%TO.P,J7,2,2*%
%TO.N,/CAN_L_1*%
X153940001Y-80033399D03*
%TD*%
D17*
%TO.P,J9,1,1*%
%TO.N,/CAN_H_1*%
X147513000Y-77673000D03*
D18*
%TO.P,J9,2,2*%
%TO.N,/CAN_L_1*%
X147513000Y-75673000D03*
%TO.P,J9,3,3*%
%TO.N,/CAN_H_2*%
X145513000Y-77673000D03*
%TO.P,J9,4,4*%
%TO.N,/CAN_L_2*%
X145513000Y-75673000D03*
%TO.P,J9,5,5*%
%TO.N,/12V IN (2)*%
X143513000Y-77673000D03*
%TO.P,J9,6,6*%
%TO.N,/3.3V (1)*%
X143513000Y-75673000D03*
%TO.P,J9,7,7*%
%TO.N,/G06\u002C UART_TX\u002C ERROR*%
X141513000Y-77673000D03*
%TO.P,J9,8,8*%
%TO.N,/G07\u002C UART_RX\u002C ENABLE*%
X141513000Y-75673000D03*
%TO.P,J9,9,9*%
%TO.N,/ISO_VDD*%
X139513000Y-77673000D03*
%TO.P,J9,10,10*%
%TO.N,/ISO_GND*%
X139513000Y-75673000D03*
%TO.P,J9,11,11*%
%TO.N,/G05\u002C DIR*%
X137513000Y-77673000D03*
%TO.P,J9,12,12*%
%TO.N,/G08\u002C STEP\u002C PWM_IN*%
X137513000Y-75673000D03*
%TO.P,J9,13,13*%
%TO.N,/G04\u002C THERMISTOR+*%
X135513000Y-77673000D03*
%TO.P,J9,14,14*%
%TO.N,/THERMISTOR-*%
X135513000Y-75673000D03*
%TO.P,J9,15,15*%
%TO.N,/5V (1)*%
X133513000Y-77673000D03*
%TO.P,J9,16,16*%
%TO.N,/GND*%
X133513000Y-75673000D03*
%TO.P,J9,17,17*%
%TO.N,/G03\u002C ENC0_A*%
X131513000Y-77673000D03*
%TO.P,J9,18,18*%
%TO.N,/G09\u002C ENC0_B*%
X131513000Y-75673000D03*
%TO.P,J9,19,19*%
%TO.N,/G02\u002C HALL_C*%
X129513000Y-77673000D03*
%TO.P,J9,20,20*%
%TO.N,/G10\u002C ENC0_Z*%
X129513000Y-75673000D03*
%TO.P,J9,21,21*%
%TO.N,/G01\u002C HALL_A\u002C ANALOG_IN*%
X127513000Y-77673000D03*
%TO.P,J9,22,22*%
%TO.N,/G11\u002C HALL_B\u002C ANALOG_IN*%
X127513000Y-75673000D03*
%TO.P,J9,23,23*%
%TO.N,/G0\u002C (+)\u002C RS485_A*%
X125513000Y-77673000D03*
%TO.P,J9,24,24*%
%TO.N,/G0\u002C (\u002C)\u002C RS485_B*%
X125513000Y-75673000D03*
%TO.P,J9,25,25*%
%TO.N,/5V (1)*%
X123513000Y-77673000D03*
%TO.P,J9,26,26*%
%TO.N,/GND*%
X123513000Y-75673000D03*
%TO.P,J9,27,27*%
%TO.N,/SPI_MOSI*%
X121513000Y-77673000D03*
%TO.P,J9,28,28*%
%TO.N,/SPI_MISO*%
X121513000Y-75673000D03*
%TO.P,J9,29,29*%
%TO.N,/SPI_SCK*%
X119513000Y-77673000D03*
%TO.P,J9,30,30*%
%TO.N,/G12\u002C SPI_nCS*%
X119513000Y-75673000D03*
%TD*%
D12*
%TO.P,J3,1,Pin_1*%
%TO.N,/5V (1)*%
X107143000Y-77873000D03*
D13*
%TO.P,J3,2,Pin_2*%
%TO.N,/GND*%
X107143000Y-80373000D03*
%TO.P,J3,3,Pin_3*%
%TO.N,/G01\u002C HALL_A\u002C ANALOG_IN*%
X107143000Y-82873000D03*
%TO.P,J3,4,Pin_4*%
%TO.N,/G11\u002C HALL_B\u002C ANALOG_IN*%
X107143000Y-85373000D03*
%TO.P,J3,5,Pin_5*%
%TO.N,/G02\u002C HALL_C*%
X107143000Y-87873000D03*
%TD*%
D19*
%TO.N,/5V (1)*%
X113413000Y-77873000D03*
D20*
%TO.N,/G01\u002C HALL_A\u002C ANALOG_IN*%
X111000000Y-85887000D03*
%TO.N,/G0\u002C (\u002C)\u002C RS485_B*%
X116413000Y-92873000D03*
%TO.N,/THERMISTOR-*%
X139913000Y-91373000D03*
%TO.N,/G0\u002C (+)\u002C RS485_A*%
X117000000Y-89500000D03*
X114000000Y-92500000D03*
%TO.N,/G02\u002C HALL_C*%
X118488000Y-92798000D03*
%TD*%
%TO.N,/5V (1)*%
D21*
X116413000Y-80873000D02*
X120413000Y-80873000D01*
X120333000Y-84573000D02*
X120333000Y-80953000D01*
X123513000Y-77673000D02*
X123513000Y-77773000D01*
X113413000Y-77873000D02*
X116413000Y-80873000D01*
X133513000Y-77673000D02*
X130313000Y-80873000D01*
X120333000Y-80953000D02*
X120413000Y-80873000D01*
X130313000Y-80873000D02*
X129333000Y-80873000D01*
X129333000Y-80873000D02*
X133033000Y-84573000D01*
X123513000Y-77773000D02*
X120413000Y-80873000D01*
X120413000Y-80873000D02*
X129333000Y-80873000D01*
%TO.N,/G01\u002C HALL_A\u002C ANALOG_IN*%
D22*
X111000000Y-85887000D02*
X124099000Y-85887000D01*
X124099000Y-85887000D02*
X125413000Y-84573000D01*
%TO.N,/G0\u002C (\u002C)\u002C RS485_B*%
X122173000Y-87113000D02*
X122873000Y-87113000D01*
X116413000Y-92873000D02*
X122173000Y-87113000D01*
%TO.N,/THERMISTOR-*%
X139913000Y-91373000D02*
X135653000Y-87113000D01*
X135653000Y-87113000D02*
X135573000Y-87113000D01*
%TO.N,/G0\u002C (+)\u002C RS485_A*%
X114000000Y-92500000D02*
X117000000Y-89500000D01*
%TO.N,/G02\u002C HALL_C*%
X126639000Y-85887000D02*
X127953000Y-84573000D01*
X121461826Y-92798000D02*
X126639000Y-87620826D01*
X118488000Y-92798000D02*
X121461826Y-92798000D01*
X126639000Y-87620826D02*
X126639000Y-85887000D01*
%TD*%
%TA.AperFunction,Conductor*%
%TO.N,/GND*%
G36*
X160416472Y-65573694D02*
G01*
X160719503Y-65590712D01*
X160733301Y-65592266D01*
X161029088Y-65642522D01*
X161042627Y-65645612D01*
X161330930Y-65728671D01*
X161344048Y-65733261D01*
X161621230Y-65848074D01*
X161633744Y-65854100D01*
X161896344Y-65999234D01*
X161908099Y-66006621D01*
X162152779Y-66180231D01*
X162163641Y-66188892D01*
X162387353Y-66388812D01*
X162397184Y-66398643D01*
X162554164Y-66574305D01*
X162597102Y-66622352D01*
X162605768Y-66633220D01*
X162761653Y-66852919D01*
X162779371Y-66877889D01*
X162786767Y-66889659D01*
X162887820Y-67072500D01*
X162931894Y-67152247D01*
X162937927Y-67164775D01*
X163052736Y-67441948D01*
X163057329Y-67455073D01*
X163140383Y-67743360D01*
X163143477Y-67756917D01*
X163193730Y-68052687D01*
X163195287Y-68066505D01*
X163212305Y-68369526D01*
X163212500Y-68376479D01*
X163212500Y-112369519D01*
X163212305Y-112376472D01*
X163195288Y-112679491D01*
X163193731Y-112693309D01*
X163143477Y-112989081D01*
X163140383Y-113002638D01*
X163057329Y-113290925D01*
X163052736Y-113304050D01*
X162937928Y-113581222D01*
X162931895Y-113593750D01*
X162786773Y-113856327D01*
X162779375Y-113868101D01*
X162605768Y-114112778D01*
X162597098Y-114123650D01*
X162397186Y-114347352D01*
X162387353Y-114357185D01*
X162163651Y-114557097D01*
X162152779Y-114565767D01*
X161908102Y-114739374D01*
X161896328Y-114746772D01*
X161633751Y-114891894D01*
X161621223Y-114897927D01*
X161344051Y-115012735D01*
X161330926Y-115017328D01*
X161042639Y-115100382D01*
X161029082Y-115103476D01*
X160733310Y-115153730D01*
X160719491Y-115155287D01*
X160433634Y-115171339D01*
X160409324Y-115170313D01*
X160120756Y-115129516D01*
X160106898Y-115126743D01*
X159959333Y-115088356D01*
X159811771Y-115049969D01*
X159798318Y-115045637D01*
X159513848Y-114935777D01*
X159500974Y-114929942D01*
X159230842Y-114788417D01*
X159218717Y-114781154D01*
X158966466Y-114609821D01*
X158955245Y-114601226D01*
X158724117Y-114402289D01*
X158713955Y-114392481D01*
X158506963Y-114168529D01*
X158497984Y-114157629D01*
X158317823Y-113911577D01*
X158310137Y-113899716D01*
X158170014Y-113653831D01*
X158159152Y-113634770D01*
X158152867Y-113622115D01*
X158149325Y-113613829D01*
X158033014Y-113341709D01*
X158028208Y-113328417D01*
X158017025Y-113290925D01*
X157941039Y-113036177D01*
X157937781Y-113022435D01*
X157933075Y-112995945D01*
X157915530Y-112897191D01*
X157923184Y-112827745D01*
X157967170Y-112773458D01*
X158033523Y-112751571D01*
X158101176Y-112769030D01*
X158148650Y-112820295D01*
X158157393Y-112843409D01*
X158229914Y-113114061D01*
X158345314Y-113392660D01*
X158345318Y-113392670D01*
X158496099Y-113653830D01*
X158679679Y-113893077D01*
X158679685Y-113893084D01*
X158892914Y-114106313D01*
X158892921Y-114106319D01*
X159132168Y-114289899D01*
X159393328Y-114440680D01*
X159393329Y-114440680D01*
X159393332Y-114440682D01*
X159579072Y-114517618D01*
X159671939Y-114556085D01*
X159671940Y-114556085D01*
X159671942Y-114556086D01*
X159963232Y-114634137D01*
X160262217Y-114673499D01*
X160262224Y-114673499D01*
X160563776Y-114673499D01*
X160563783Y-114673499D01*
X160862768Y-114634137D01*
X161154058Y-114556086D01*
X161432668Y-114440682D01*
X161693832Y-114289899D01*
X161933080Y-114106318D01*
X162146319Y-113893079D01*
X162329900Y-113653831D01*
X162480683Y-113392667D01*
X162596087Y-113114057D01*
X162674138Y-112822767D01*
X162713500Y-112523782D01*
X162713500Y-112222216D01*
X162674138Y-111923231D01*
X162596087Y-111631941D01*
X162480683Y-111353331D01*
X162460107Y-111317693D01*
X162329900Y-111092167D01*
X162146320Y-110852920D01*
X162146314Y-110852913D01*
X161933085Y-110639684D01*
X161933078Y-110639678D01*
X161693831Y-110456098D01*
X161432671Y-110305317D01*
X161432661Y-110305313D01*
X161154060Y-110189912D01*
X160862766Y-110111860D01*
X160563793Y-110072500D01*
X160563788Y-110072499D01*
X160563783Y-110072499D01*
X160262217Y-110072499D01*
X160262211Y-110072499D01*
X160262206Y-110072500D01*
X159963233Y-110111860D01*
X159671939Y-110189912D01*
X159393338Y-110305313D01*
X159393328Y-110305317D01*
X159132168Y-110456098D01*
X158892921Y-110639678D01*
X158892914Y-110639684D01*
X158679685Y-110852913D01*
X158679679Y-110852920D01*
X158496099Y-111092167D01*
X158345318Y-111353327D01*
X158345314Y-111353337D01*
X158229913Y-111631938D01*
X158151861Y-111923232D01*
X158112501Y-112222205D01*
X158112500Y-112222222D01*
X158112500Y-112409098D01*
X158103693Y-112439088D01*
X158096756Y-112469568D01*
X158093929Y-112472340D01*
X158092815Y-112476137D01*
X158069196Y-112496602D01*
X158046878Y-112518496D01*
X158043002Y-112519300D01*
X158040011Y-112521892D01*
X158009067Y-112526341D01*
X157978465Y-112532691D01*
X157974771Y-112531272D01*
X157970853Y-112531836D01*
X157942414Y-112518848D01*
X157913239Y-112507646D01*
X157910898Y-112504455D01*
X157907297Y-112502811D01*
X157890396Y-112476512D01*
X157871907Y-112451313D01*
X157870813Y-112446040D01*
X157869523Y-112444033D01*
X157864737Y-112416755D01*
X157863737Y-112400591D01*
X157863500Y-112392934D01*
X157863500Y-109239890D01*
X157851142Y-109138117D01*
X157831412Y-108975623D01*
X157767704Y-108717147D01*
X157673304Y-108468235D01*
X157549589Y-108232516D01*
X157517284Y-108185714D01*
X157398366Y-108013430D01*
X157398361Y-108013424D01*
X157221834Y-107814166D01*
X157221832Y-107814164D01*
X157022574Y-107637637D01*
X157022568Y-107637632D01*
X156803489Y-107486414D01*
X156803484Y-107486411D01*
X156803483Y-107486410D01*
X156695005Y-107429476D01*
X156567771Y-107362698D01*
X156567766Y-107362696D01*
X156567764Y-107362695D01*
X156498550Y-107336445D01*
X156318857Y-107268296D01*
X156060381Y-107204588D01*
X156060379Y-107204587D01*
X156060376Y-107204587D01*
X155897056Y-107184756D01*
X155796108Y-107172499D01*
X155796106Y-107172499D01*
X155702882Y-107172499D01*
X105202881Y-107172499D01*
X105162999Y-107172499D01*
X105029893Y-107172499D01*
X105029891Y-107172499D01*
X104897758Y-107188543D01*
X104765623Y-107204588D01*
X104507155Y-107268295D01*
X104507143Y-107268298D01*
X104258233Y-107362698D01*
X104122810Y-107433773D01*
X104022517Y-107486411D01*
X104022514Y-107486412D01*
X104022514Y-107486413D01*
X103803424Y-107637640D01*
X103604168Y-107814165D01*
X103604166Y-107814167D01*
X103427641Y-108013423D01*
X103427638Y-108013428D01*
X103427637Y-108013429D01*
X103276412Y-108232516D01*
X103223774Y-108332809D01*
X103152699Y-108468232D01*
X103058299Y-108717142D01*
X103058298Y-108717145D01*
X103058298Y-108717146D01*
X102994591Y-108975617D01*
X102994589Y-108975624D01*
X102962500Y-109239889D01*
X102962500Y-112379887D01*
X102962297Y-112386977D01*
X102961297Y-112404438D01*
X102937812Y-112470242D01*
X102882478Y-112512903D01*
X102812864Y-112518876D01*
X102751072Y-112486265D01*
X102716720Y-112425423D01*
X102713500Y-112397348D01*
X102713500Y-112222222D01*
X102713500Y-112222216D01*
X102674138Y-111923231D01*
X102596087Y-111631941D01*
X102480683Y-111353331D01*
X102460107Y-111317693D01*
X102329900Y-111092167D01*
X102146320Y-110852920D01*
X102146314Y-110852913D01*
X101933085Y-110639684D01*
X101933078Y-110639678D01*
X101693831Y-110456098D01*
X101432671Y-110305317D01*
X101432661Y-110305313D01*
X101154060Y-110189912D01*
X100862766Y-110111860D01*
X100563793Y-110072500D01*
X100563788Y-110072499D01*
X100563783Y-110072499D01*
X100262217Y-110072499D01*
X100262211Y-110072499D01*
X100262206Y-110072500D01*
X99963233Y-110111860D01*
X99671939Y-110189912D01*
X99393338Y-110305313D01*
X99393328Y-110305317D01*
X99132168Y-110456098D01*
X98892921Y-110639678D01*
X98892914Y-110639684D01*
X98679685Y-110852913D01*
X98679679Y-110852920D01*
X98496099Y-111092167D01*
X98345318Y-111353327D01*
X98345314Y-111353337D01*
X98229913Y-111631938D01*
X98151861Y-111923232D01*
X98112501Y-112222205D01*
X98112500Y-112222222D01*
X98112500Y-112523775D01*
X98112501Y-112523792D01*
X98151861Y-112822765D01*
X98229913Y-113114059D01*
X98345314Y-113392660D01*
X98345318Y-113392670D01*
X98496099Y-113653830D01*
X98679679Y-113893077D01*
X98679685Y-113893084D01*
X98892914Y-114106313D01*
X98892921Y-114106319D01*
X99132168Y-114289899D01*
X99393328Y-114440680D01*
X99393329Y-114440680D01*
X99393332Y-114440682D01*
X99579072Y-114517618D01*
X99671939Y-114556085D01*
X99671940Y-114556085D01*
X99671942Y-114556086D01*
X99963232Y-114634137D01*
X100262217Y-114673499D01*
X100262224Y-114673499D01*
X100563776Y-114673499D01*
X100563783Y-114673499D01*
X100862768Y-114634137D01*
X101154058Y-114556086D01*
X101432668Y-114440682D01*
X101693832Y-114289899D01*
X101933080Y-114106318D01*
X102146319Y-113893079D01*
X102329900Y-113653831D01*
X102480683Y-113392667D01*
X102596087Y-113114057D01*
X102668814Y-112842634D01*
X102684201Y-112817390D01*
X102697254Y-112790860D01*
X102702183Y-112787889D01*
X102705178Y-112782976D01*
X102731767Y-112770059D01*
X102757096Y-112754795D01*
X102762849Y-112754960D01*
X102768025Y-112752447D01*
X102797377Y-112755956D01*
X102826937Y-112756809D01*
X102831687Y-112760058D01*
X102837400Y-112760742D01*
X102860197Y-112779565D01*
X102884602Y-112796262D01*
X102886840Y-112801563D01*
X102891278Y-112805227D01*
X102900281Y-112833390D01*
X102911783Y-112860627D01*
X102911551Y-112868647D01*
X102912553Y-112871779D01*
X102910766Y-112895907D01*
X102890739Y-113011451D01*
X102887523Y-113025260D01*
X102801206Y-113318758D01*
X102796434Y-113332111D01*
X102677178Y-113613829D01*
X102670913Y-113626549D01*
X102520275Y-113892809D01*
X102512599Y-113904731D01*
X102332544Y-114152061D01*
X102323556Y-114163029D01*
X102116447Y-114388179D01*
X102106267Y-114398048D01*
X101874807Y-114598085D01*
X101863566Y-114606728D01*
X101610793Y-114779025D01*
X101598639Y-114786329D01*
X101327827Y-114928653D01*
X101314919Y-114934521D01*
X101029645Y-115044992D01*
X101016151Y-115049348D01*
X100720122Y-115126531D01*
X100706220Y-115129318D01*
X100416677Y-115170309D01*
X100392342Y-115171338D01*
X100106507Y-115155286D01*
X100092689Y-115153729D01*
X99796918Y-115103475D01*
X99783361Y-115100381D01*
X99495074Y-115017327D01*
X99481950Y-115012734D01*
X99204777Y-114897926D01*
X99192248Y-114891893D01*
X98929671Y-114746771D01*
X98917897Y-114739373D01*
X98673214Y-114565762D01*
X98662342Y-114557091D01*
X98661217Y-114556086D01*
X98514479Y-114424952D01*
X98438652Y-114357188D01*
X98428819Y-114347356D01*
X98228902Y-114123649D01*
X98220232Y-114112777D01*
X98046625Y-113868100D01*
X98039227Y-113856326D01*
X98005986Y-113796182D01*
X97894101Y-113593742D01*
X97888072Y-113581220D01*
X97773265Y-113304049D01*
X97768672Y-113290925D01*
X97685616Y-113002634D01*
X97682522Y-112989077D01*
X97668313Y-112905450D01*
X97632267Y-112693299D01*
X97630713Y-112679501D01*
X97613695Y-112376470D01*
X97613500Y-112369517D01*
X97613500Y-105123001D01*
X105475985Y-105123001D01*
X105481903Y-105141215D01*
X105578379Y-105330557D01*
X105703272Y-105502459D01*
X105703276Y-105502464D01*
X105853535Y-105652723D01*
X105853540Y-105652727D01*
X106025442Y-105777620D01*
X106214779Y-105874094D01*
X106214785Y-105874096D01*
X106357999Y-105920628D01*
X107358000Y-105920628D01*
X107501214Y-105874096D01*
X107501220Y-105874094D01*
X107690557Y-105777620D01*
X107862459Y-105652727D01*
X107862464Y-105652723D01*
X108012723Y-105502464D01*
X108012727Y-105502459D01*
X108137620Y-105330557D01*
X108234096Y-105141215D01*
X108240014Y-105123001D01*
X108240014Y-105123000D01*
X107358000Y-105123000D01*
X107358000Y-105920628D01*
X106357999Y-105920628D01*
X106358000Y-105920627D01*
X106358000Y-105123000D01*
X105475986Y-105123000D01*
X105475985Y-105123001D01*
X97613500Y-105123001D01*
X97613500Y-104560465D01*
X106383000Y-104560465D01*
X106383000Y-104685535D01*
X106415370Y-104806343D01*
X106477905Y-104914657D01*
X106566343Y-105003095D01*
X106674657Y-105065630D01*
X106795465Y-105098000D01*
X106920535Y-105098000D01*
X107041343Y-105065630D01*
X107149657Y-105003095D01*
X107238095Y-104914657D01*
X107300630Y-104806343D01*
X107333000Y-104685535D01*
X107333000Y-104560465D01*
X107300630Y-104439657D01*
X107238095Y-104331343D01*
X107149657Y-104242905D01*
X107041343Y-104180370D01*
X106920535Y-104148000D01*
X106795465Y-104148000D01*
X106674657Y-104180370D01*
X106566343Y-104242905D01*
X106477905Y-104331343D01*
X106415370Y-104439657D01*
X106383000Y-104560465D01*
X97613500Y-104560465D01*
X97613500Y-96472983D01*
X105382500Y-96472983D01*
X105382500Y-97773001D01*
X105382501Y-97773018D01*
X105393000Y-97875796D01*
X105393001Y-97875799D01*
X105448185Y-98042331D01*
X105448187Y-98042336D01*
X105540289Y-98191657D01*
X105664344Y-98315712D01*
X105819120Y-98411178D01*
X105865845Y-98463126D01*
X105877068Y-98532088D01*
X105849224Y-98596171D01*
X105841706Y-98604398D01*
X105702889Y-98743215D01*
X105577951Y-98915179D01*
X105481444Y-99104585D01*
X105415753Y-99306760D01*
X105382500Y-99516713D01*
X105382500Y-99729286D01*
X105415753Y-99939239D01*
X105481444Y-100141414D01*
X105577951Y-100330820D01*
X105702890Y-100502786D01*
X105853209Y-100653105D01*
X105853214Y-100653109D01*
X106017793Y-100772682D01*
X106060459Y-100828011D01*
X106066438Y-100897625D01*
X106033833Y-100959420D01*
X106017793Y-100973318D01*
X105853214Y-101092890D01*
X105853209Y-101092894D01*
X105702890Y-101243213D01*
X105577951Y-101415179D01*
X105481444Y-101604585D01*
X105415753Y-101806760D01*
X105382500Y-102016713D01*
X105382500Y-102229286D01*
X105415753Y-102439239D01*
X105481444Y-102641414D01*
X105577951Y-102830820D01*
X105702890Y-103002786D01*
X105853209Y-103153105D01*
X105853214Y-103153109D01*
X106018218Y-103272991D01*
X106060884Y-103328320D01*
X106066863Y-103397934D01*
X106034258Y-103459729D01*
X106018218Y-103473627D01*
X105853540Y-103593272D01*
X105853535Y-103593276D01*
X105703276Y-103743535D01*
X105703272Y-103743540D01*
X105578379Y-103915442D01*
X105481903Y-104104784D01*
X105475985Y-104122998D01*
X105475986Y-104123000D01*
X108240014Y-104123000D01*
X108240014Y-104122998D01*
X108234096Y-104104784D01*
X108137620Y-103915442D01*
X108012727Y-103743540D01*
X108012723Y-103743535D01*
X107862464Y-103593276D01*
X107862459Y-103593272D01*
X107697781Y-103473627D01*
X107655115Y-103418297D01*
X107649136Y-103348684D01*
X107681741Y-103286889D01*
X107697776Y-103272994D01*
X107862792Y-103153104D01*
X108013104Y-103002792D01*
X108013106Y-103002788D01*
X108013109Y-103002786D01*
X108138048Y-102830820D01*
X108138047Y-102830820D01*
X108138051Y-102830816D01*
X108234557Y-102641412D01*
X108300246Y-102439243D01*
X108333500Y-102229287D01*
X108333500Y-102016713D01*
X108300246Y-101806757D01*
X108234557Y-101604588D01*
X108138051Y-101415184D01*
X108138049Y-101415181D01*
X108138048Y-101415179D01*
X108013109Y-101243213D01*
X107862792Y-101092896D01*
X107862784Y-101092890D01*
X107698204Y-100973316D01*
X107655540Y-100917989D01*
X107649561Y-100848376D01*
X107682166Y-100786580D01*
X107698199Y-100772686D01*
X107862792Y-100653104D01*
X108013104Y-100502792D01*
X108013106Y-100502788D01*
X108013109Y-100502786D01*
X108138048Y-100330820D01*
X108138047Y-100330820D01*
X108138051Y-100330816D01*
X108234557Y-100141412D01*
X108300246Y-99939243D01*
X108333500Y-99729287D01*
X108333500Y-99516713D01*
X108300246Y-99306757D01*
X108234557Y-99104588D01*
X108138051Y-98915184D01*
X108138049Y-98915181D01*
X108138048Y-98915179D01*
X108013109Y-98743213D01*
X107874294Y-98604398D01*
X107840809Y-98543075D01*
X107845793Y-98473383D01*
X107887665Y-98417450D01*
X107896879Y-98411178D01*
X107902331Y-98407814D01*
X107902334Y-98407814D01*
X108051656Y-98315712D01*
X108119382Y-98247986D01*
X119313001Y-98247986D01*
X119323494Y-98350697D01*
X119378641Y-98517119D01*
X119378643Y-98517124D01*
X119470684Y-98666345D01*
X119594654Y-98790315D01*
X119743875Y-98882356D01*
X119743880Y-98882358D01*
X119910302Y-98937505D01*
X119910309Y-98937506D01*
X120013019Y-98947999D01*
X120162999Y-98947999D01*
X120163000Y-98947998D01*
X120163000Y-97973000D01*
X119313001Y-97973000D01*
X119313001Y-98247986D01*
X108119382Y-98247986D01*
X108175712Y-98191656D01*
X108267814Y-98042334D01*
X108322999Y-97875797D01*
X108333500Y-97773009D01*
X108333500Y-97410465D01*
X120188000Y-97410465D01*
X120188000Y-97535535D01*
X120220370Y-97656343D01*
X120282905Y-97764657D01*
X120371343Y-97853095D01*
X120479657Y-97915630D01*
X120600465Y-97948000D01*
X120725535Y-97948000D01*
X120846343Y-97915630D01*
X120954657Y-97853095D01*
X121043095Y-97764657D01*
X121105630Y-97656343D01*
X121138000Y-97535535D01*
X121138000Y-97410465D01*
X121105630Y-97289657D01*
X121043095Y-97181343D01*
X120954657Y-97092905D01*
X120846343Y-97030370D01*
X120725535Y-96998000D01*
X120600465Y-96998000D01*
X120479657Y-97030370D01*
X120371343Y-97092905D01*
X120282905Y-97181343D01*
X120220370Y-97289657D01*
X120188000Y-97410465D01*
X108333500Y-97410465D01*
X108333499Y-96698013D01*
X119313000Y-96698013D01*
X119313000Y-96973000D01*
X120163000Y-96973000D01*
X120163000Y-95998000D01*
X121163000Y-95998000D01*
X121163000Y-98947999D01*
X121312972Y-98947999D01*
X121312986Y-98947998D01*
X121415697Y-98937505D01*
X121582119Y-98882358D01*
X121582124Y-98882356D01*
X121731345Y-98790315D01*
X121855317Y-98666343D01*
X121950815Y-98511516D01*
X122002763Y-98464791D01*
X122071725Y-98453568D01*
X122135808Y-98481412D01*
X122144035Y-98488931D01*
X122283213Y-98628109D01*
X122455179Y-98753048D01*
X122455181Y-98753049D01*
X122455184Y-98753051D01*
X122644588Y-98849557D01*
X122846757Y-98915246D01*
X123056713Y-98948500D01*
X123056714Y-98948500D01*
X123269286Y-98948500D01*
X123269287Y-98948500D01*
X123479243Y-98915246D01*
X123681412Y-98849557D01*
X123870816Y-98753051D01*
X123892789Y-98737086D01*
X124042786Y-98628109D01*
X124042788Y-98628106D01*
X124042792Y-98628104D01*
X124193104Y-98477792D01*
X124312683Y-98313204D01*
X124368011Y-98270540D01*
X124437624Y-98264561D01*
X124499420Y-98297166D01*
X124513313Y-98313199D01*
X124615296Y-98453568D01*
X124632896Y-98477792D01*
X124783213Y-98628109D01*
X124955179Y-98753048D01*
X124955181Y-98753049D01*
X124955184Y-98753051D01*
X125144588Y-98849557D01*
X125346757Y-98915246D01*
X125556713Y-98948500D01*
X125556714Y-98948500D01*
X125769286Y-98948500D01*
X125769287Y-98948500D01*
X125979243Y-98915246D01*
X126181412Y-98849557D01*
X126370816Y-98753051D01*
X126392789Y-98737086D01*
X126542786Y-98628109D01*
X126542788Y-98628106D01*
X126542792Y-98628104D01*
X126693104Y-98477792D01*
X126812683Y-98313204D01*
X126868011Y-98270540D01*
X126937624Y-98264561D01*
X126999420Y-98297166D01*
X127013313Y-98313199D01*
X127115296Y-98453568D01*
X127132896Y-98477792D01*
X127283213Y-98628109D01*
X127455179Y-98753048D01*
X127455181Y-98753049D01*
X127455184Y-98753051D01*
X127644588Y-98849557D01*
X127846757Y-98915246D01*
X128056713Y-98948500D01*
X128056714Y-98948500D01*
X128269286Y-98948500D01*
X128269287Y-98948500D01*
X128479243Y-98915246D01*
X128681412Y-98849557D01*
X128870816Y-98753051D01*
X128892789Y-98737086D01*
X129042786Y-98628109D01*
X129042788Y-98628106D01*
X129042792Y-98628104D01*
X129193104Y-98477792D01*
X129312683Y-98313204D01*
X129368011Y-98270540D01*
X129437624Y-98264561D01*
X129499420Y-98297166D01*
X129513313Y-98313199D01*
X129615296Y-98453568D01*
X129632896Y-98477792D01*
X129783213Y-98628109D01*
X129955179Y-98753048D01*
X129955181Y-98753049D01*
X129955184Y-98753051D01*
X130144588Y-98849557D01*
X130346757Y-98915246D01*
X130556713Y-98948500D01*
X130556714Y-98948500D01*
X130769286Y-98948500D01*
X130769287Y-98948500D01*
X130979243Y-98915246D01*
X131181412Y-98849557D01*
X131370816Y-98753051D01*
X131392789Y-98737086D01*
X131542786Y-98628109D01*
X131542788Y-98628106D01*
X131542792Y-98628104D01*
X131693104Y-98477792D01*
X131812683Y-98313204D01*
X131868011Y-98270540D01*
X131937624Y-98264561D01*
X131999420Y-98297166D01*
X132013313Y-98313199D01*
X132115296Y-98453568D01*
X132132896Y-98477792D01*
X132283213Y-98628109D01*
X132455179Y-98753048D01*
X132455181Y-98753049D01*
X132455184Y-98753051D01*
X132644588Y-98849557D01*
X132846757Y-98915246D01*
X133056713Y-98948500D01*
X133056714Y-98948500D01*
X133269286Y-98948500D01*
X133269287Y-98948500D01*
X133479243Y-98915246D01*
X133681412Y-98849557D01*
X133870816Y-98753051D01*
X133892789Y-98737086D01*
X134042786Y-98628109D01*
X134042788Y-98628106D01*
X134042792Y-98628104D01*
X134193104Y-98477792D01*
X134193106Y-98477788D01*
X134193109Y-98477786D01*
X134318048Y-98305820D01*
X134318047Y-98305820D01*
X134318051Y-98305816D01*
X134414557Y-98116412D01*
X134480246Y-97914243D01*
X134513500Y-97704287D01*
X134513500Y-97241713D01*
X134506574Y-97197983D01*
X140812500Y-97197983D01*
X140812500Y-98748001D01*
X140812501Y-98748018D01*
X140823000Y-98850796D01*
X140823001Y-98850799D01*
X140868894Y-98989294D01*
X140878186Y-99017334D01*
X140970288Y-99166656D01*
X141094344Y-99290712D01*
X141243666Y-99382814D01*
X141410203Y-99437999D01*
X141512991Y-99448500D01*
X142813008Y-99448499D01*
X142915797Y-99437999D01*
X143082334Y-99382814D01*
X143231656Y-99290712D01*
X143355712Y-99166656D01*
X143447814Y-99017334D01*
X143447814Y-99017331D01*
X143451178Y-99011879D01*
X143503126Y-98965154D01*
X143572088Y-98953931D01*
X143636170Y-98981774D01*
X143644398Y-98989294D01*
X143783213Y-99128109D01*
X143955179Y-99253048D01*
X143955181Y-99253049D01*
X143955184Y-99253051D01*
X144144588Y-99349557D01*
X144346757Y-99415246D01*
X144556713Y-99448500D01*
X144556714Y-99448500D01*
X144769286Y-99448500D01*
X144769287Y-99448500D01*
X144979243Y-99415246D01*
X145181412Y-99349557D01*
X145370816Y-99253051D01*
X145392789Y-99237086D01*
X145542786Y-99128109D01*
X145542788Y-99128106D01*
X145542792Y-99128104D01*
X145693104Y-98977792D01*
X145693106Y-98977788D01*
X145693109Y-98977786D01*
X145818048Y-98805820D01*
X145818047Y-98805820D01*
X145818051Y-98805816D01*
X145914557Y-98616412D01*
X145980246Y-98414243D01*
X146013500Y-98204287D01*
X146013500Y-97741713D01*
X145980246Y-97531757D01*
X145914557Y-97329588D01*
X145818051Y-97140184D01*
X145818049Y-97140181D01*
X145818048Y-97140179D01*
X145693109Y-96968213D01*
X145542786Y-96817890D01*
X145370820Y-96692951D01*
X145181414Y-96596444D01*
X145181413Y-96596443D01*
X145181412Y-96596443D01*
X144979243Y-96530754D01*
X144979241Y-96530753D01*
X144979240Y-96530753D01*
X144817957Y-96505208D01*
X144769287Y-96497500D01*
X144556713Y-96497500D01*
X144508042Y-96505208D01*
X144346760Y-96530753D01*
X144144585Y-96596444D01*
X143955179Y-96692951D01*
X143783215Y-96817889D01*
X143644398Y-96956706D01*
X143583075Y-96990190D01*
X143513383Y-96985206D01*
X143457450Y-96943334D01*
X143451178Y-96934120D01*
X143355712Y-96779344D01*
X143231657Y-96655289D01*
X143231656Y-96655288D01*
X143082334Y-96563186D01*
X142915797Y-96508001D01*
X142915795Y-96508000D01*
X142813010Y-96497500D01*
X141512998Y-96497500D01*
X141512981Y-96497501D01*
X141410203Y-96508000D01*
X141410200Y-96508001D01*
X141243668Y-96563185D01*
X141243663Y-96563187D01*
X141094342Y-96655289D01*
X140970289Y-96779342D01*
X140878187Y-96928663D01*
X140878185Y-96928668D01*
X140873325Y-96943334D01*
X140823001Y-97095203D01*
X140823001Y-97095204D01*
X140823000Y-97095204D01*
X140812500Y-97197983D01*
X134506574Y-97197983D01*
X134480246Y-97031757D01*
X134414557Y-96829588D01*
X134318051Y-96640184D01*
X134318049Y-96640181D01*
X134318048Y-96640179D01*
X134193109Y-96468213D01*
X134042786Y-96317890D01*
X133870820Y-96192951D01*
X133681414Y-96096444D01*
X133681413Y-96096443D01*
X133681412Y-96096443D01*
X133479243Y-96030754D01*
X133479241Y-96030753D01*
X133479240Y-96030753D01*
X133317957Y-96005208D01*
X133269287Y-95997500D01*
X133056713Y-95997500D01*
X133008042Y-96005208D01*
X132846760Y-96030753D01*
X132644585Y-96096444D01*
X132455179Y-96192951D01*
X132283213Y-96317890D01*
X132132894Y-96468209D01*
X132132890Y-96468214D01*
X132013318Y-96632793D01*
X131957989Y-96675459D01*
X131888375Y-96681438D01*
X131826580Y-96648833D01*
X131812682Y-96632793D01*
X131693109Y-96468214D01*
X131693105Y-96468209D01*
X131542786Y-96317890D01*
X131370820Y-96192951D01*
X131181414Y-96096444D01*
X131181413Y-96096443D01*
X131181412Y-96096443D01*
X130979243Y-96030754D01*
X130979241Y-96030753D01*
X130979240Y-96030753D01*
X130817957Y-96005208D01*
X130769287Y-95997500D01*
X130556713Y-95997500D01*
X130508042Y-96005208D01*
X130346760Y-96030753D01*
X130144585Y-96096444D01*
X129955179Y-96192951D01*
X129783213Y-96317890D01*
X129632894Y-96468209D01*
X129632890Y-96468214D01*
X129513318Y-96632793D01*
X129457989Y-96675459D01*
X129388375Y-96681438D01*
X129326580Y-96648833D01*
X129312682Y-96632793D01*
X129193109Y-96468214D01*
X129193105Y-96468209D01*
X129042786Y-96317890D01*
X128870820Y-96192951D01*
X128681414Y-96096444D01*
X128681413Y-96096443D01*
X128681412Y-96096443D01*
X128479243Y-96030754D01*
X128479241Y-96030753D01*
X128479240Y-96030753D01*
X128317957Y-96005208D01*
X128269287Y-95997500D01*
X128056713Y-95997500D01*
X128008042Y-96005208D01*
X127846760Y-96030753D01*
X127644585Y-96096444D01*
X127455179Y-96192951D01*
X127283213Y-96317890D01*
X127132894Y-96468209D01*
X127132890Y-96468214D01*
X127013318Y-96632793D01*
X126957989Y-96675459D01*
X126888375Y-96681438D01*
X126826580Y-96648833D01*
X126812682Y-96632793D01*
X126693109Y-96468214D01*
X126693105Y-96468209D01*
X126542786Y-96317890D01*
X126370820Y-96192951D01*
X126181414Y-96096444D01*
X126181413Y-96096443D01*
X126181412Y-96096443D01*
X125979243Y-96030754D01*
X125979241Y-96030753D01*
X125979240Y-96030753D01*
X125817957Y-96005208D01*
X125769287Y-95997500D01*
X125556713Y-95997500D01*
X125508042Y-96005208D01*
X125346760Y-96030753D01*
X125144585Y-96096444D01*
X124955179Y-96192951D01*
X124783213Y-96317890D01*
X124632894Y-96468209D01*
X124632890Y-96468214D01*
X124513318Y-96632793D01*
X124457989Y-96675459D01*
X124388375Y-96681438D01*
X124326580Y-96648833D01*
X124312682Y-96632793D01*
X124193109Y-96468214D01*
X124193105Y-96468209D01*
X124042786Y-96317890D01*
X123870820Y-96192951D01*
X123681414Y-96096444D01*
X123681413Y-96096443D01*
X123681412Y-96096443D01*
X123479243Y-96030754D01*
X123479241Y-96030753D01*
X123479240Y-96030753D01*
X123317957Y-96005208D01*
X123269287Y-95997500D01*
X123056713Y-95997500D01*
X123008042Y-96005208D01*
X122846760Y-96030753D01*
X122644585Y-96096444D01*
X122455179Y-96192951D01*
X122283215Y-96317889D01*
X122144035Y-96457069D01*
X122082712Y-96490553D01*
X122013020Y-96485569D01*
X121957087Y-96443697D01*
X121950815Y-96434484D01*
X121855315Y-96279654D01*
X121731345Y-96155684D01*
X121582124Y-96063643D01*
X121582119Y-96063641D01*
X121415697Y-96008494D01*
X121415690Y-96008493D01*
X121312986Y-95998000D01*
X121163000Y-95998000D01*
X120163000Y-95998000D01*
X120013027Y-95998000D01*
X120013012Y-95998001D01*
X119910302Y-96008494D01*
X119743880Y-96063641D01*
X119743875Y-96063643D01*
X119594654Y-96155684D01*
X119470684Y-96279654D01*
X119378643Y-96428875D01*
X119378641Y-96428880D01*
X119323494Y-96595302D01*
X119323493Y-96595309D01*
X119313000Y-96698013D01*
X108333499Y-96698013D01*
X108333499Y-96472992D01*
X108333010Y-96468209D01*
X108322999Y-96370203D01*
X108322998Y-96370200D01*
X108292994Y-96279654D01*
X108267814Y-96203666D01*
X108175712Y-96054344D01*
X108051656Y-95930288D01*
X107902334Y-95838186D01*
X107735797Y-95783001D01*
X107735795Y-95783000D01*
X107633010Y-95772500D01*
X106082998Y-95772500D01*
X106082981Y-95772501D01*
X105980203Y-95783000D01*
X105980200Y-95783001D01*
X105813668Y-95838185D01*
X105813663Y-95838187D01*
X105664342Y-95930289D01*
X105540289Y-96054342D01*
X105448187Y-96203663D01*
X105448186Y-96203666D01*
X105393001Y-96370203D01*
X105393001Y-96370204D01*
X105393000Y-96370204D01*
X105382500Y-96472983D01*
X97613500Y-96472983D01*
X97613500Y-92416228D01*
X113149500Y-92416228D01*
X113149500Y-92583771D01*
X113182182Y-92748074D01*
X113182184Y-92748082D01*
X113246295Y-92902860D01*
X113339373Y-93042162D01*
X113457837Y-93160626D01*
X113550494Y-93222537D01*
X113597137Y-93253703D01*
X113751918Y-93317816D01*
X113916228Y-93350499D01*
X113916232Y-93350500D01*
X113916233Y-93350500D01*
X114083768Y-93350500D01*
X114083769Y-93350499D01*
X114248082Y-93317816D01*
X114402863Y-93253703D01*
X114542162Y-93160626D01*
X114660626Y-93042162D01*
X114753703Y-92902863D01*
X114817816Y-92748082D01*
X114837939Y-92646912D01*
X114870323Y-92585004D01*
X114871819Y-92583480D01*
X117083426Y-90371873D01*
X117144747Y-90338390D01*
X117146821Y-90337957D01*
X117248082Y-90317816D01*
X117402863Y-90253703D01*
X117542162Y-90160626D01*
X117660626Y-90042162D01*
X117753703Y-89902863D01*
X117817816Y-89748082D01*
X117850500Y-89583767D01*
X117850500Y-89416233D01*
X117817816Y-89251918D01*
X117753703Y-89097137D01*
X117707452Y-89027918D01*
X117660626Y-88957837D01*
X117542162Y-88839373D01*
X117402860Y-88746295D01*
X117248082Y-88682184D01*
X117248074Y-88682182D01*
X117083771Y-88649500D01*
X117083767Y-88649500D01*
X116916233Y-88649500D01*
X116916228Y-88649500D01*
X116751925Y-88682182D01*
X116751917Y-88682184D01*
X116597139Y-88746295D01*
X116457837Y-88839373D01*
X116339373Y-88957837D01*
X116246295Y-89097139D01*
X116182184Y-89251917D01*
X116182182Y-89251923D01*
X116162060Y-89353084D01*
X116129675Y-89414995D01*
X116128124Y-89416573D01*
X113916573Y-91628124D01*
X113855250Y-91661609D01*
X113853084Y-91662060D01*
X113751923Y-91682182D01*
X113751917Y-91682184D01*
X113597139Y-91746295D01*
X113457837Y-91839373D01*
X113339373Y-91957837D01*
X113246295Y-92097139D01*
X113182184Y-92251917D01*
X113182182Y-92251925D01*
X113149500Y-92416228D01*
X97613500Y-92416228D01*
X97613500Y-82766713D01*
X105667500Y-82766713D01*
X105667500Y-82979286D01*
X105700331Y-83186576D01*
X105700754Y-83189243D01*
X105729984Y-83279204D01*
X105766444Y-83391414D01*
X105862951Y-83580820D01*
X105987890Y-83752786D01*
X106138209Y-83903105D01*
X106138214Y-83903109D01*
X106302793Y-84022682D01*
X106345459Y-84078011D01*
X106351438Y-84147625D01*
X106318833Y-84209420D01*
X106302793Y-84223318D01*
X106138214Y-84342890D01*
X106138209Y-84342894D01*
X105987890Y-84493213D01*
X105862951Y-84665179D01*
X105766444Y-84854585D01*
X105700753Y-85056760D01*
X105676245Y-85211500D01*
X105667500Y-85266713D01*
X105667500Y-85479287D01*
X105669129Y-85489569D01*
X105700753Y-85689239D01*
X105700753Y-85689241D01*
X105700754Y-85689243D01*
X105756705Y-85861443D01*
X105766444Y-85891414D01*
X105862951Y-86080820D01*
X105987890Y-86252786D01*
X106138209Y-86403105D01*
X106138214Y-86403109D01*
X106302793Y-86522682D01*
X106345459Y-86578011D01*
X106351438Y-86647625D01*
X106318833Y-86709420D01*
X106302793Y-86723318D01*
X106138214Y-86842890D01*
X106138209Y-86842894D01*
X105987890Y-86993213D01*
X105862951Y-87165179D01*
X105766444Y-87354585D01*
X105700753Y-87556760D01*
X105667500Y-87766713D01*
X105667500Y-87979286D01*
X105700443Y-88187284D01*
X105700754Y-88189243D01*
X105764629Y-88385830D01*
X105766444Y-88391414D01*
X105862951Y-88580820D01*
X105987890Y-88752786D01*
X106138213Y-88903109D01*
X106310179Y-89028048D01*
X106310181Y-89028049D01*
X106310184Y-89028051D01*
X106499588Y-89124557D01*
X106701757Y-89190246D01*
X106911713Y-89223500D01*
X106911714Y-89223500D01*
X107374286Y-89223500D01*
X107374287Y-89223500D01*
X107584243Y-89190246D01*
X107786412Y-89124557D01*
X107975816Y-89028051D01*
X108072458Y-88957837D01*
X108147786Y-88903109D01*
X108147788Y-88903106D01*
X108147792Y-88903104D01*
X108298104Y-88752792D01*
X108298106Y-88752788D01*
X108298109Y-88752786D01*
X108423048Y-88580820D01*
X108423047Y-88580820D01*
X108423051Y-88580816D01*
X108519557Y-88391412D01*
X108585246Y-88189243D01*
X108618500Y-87979287D01*
X108618500Y-87766713D01*
X108585246Y-87556757D01*
X108519557Y-87354588D01*
X108423051Y-87165184D01*
X108423049Y-87165181D01*
X108423048Y-87165179D01*
X108298109Y-86993213D01*
X108147792Y-86842896D01*
X108096999Y-86805993D01*
X107983204Y-86723316D01*
X107940540Y-86667989D01*
X107934561Y-86598376D01*
X107967166Y-86536580D01*
X107983199Y-86522686D01*
X108147792Y-86403104D01*
X108298104Y-86252792D01*
X108298106Y-86252788D01*
X108298109Y-86252786D01*
X108423048Y-86080820D01*
X108423047Y-86080820D01*
X108423051Y-86080816D01*
X108519557Y-85891412D01*
X108548210Y-85803228D01*
X110149500Y-85803228D01*
X110149500Y-85970771D01*
X110182182Y-86135074D01*
X110182184Y-86135082D01*
X110246295Y-86289860D01*
X110339373Y-86429162D01*
X110457837Y-86547626D01*
X110503312Y-86578011D01*
X110597137Y-86640703D01*
X110751918Y-86704816D01*
X110916228Y-86737499D01*
X110916232Y-86737500D01*
X110916233Y-86737500D01*
X111083768Y-86737500D01*
X111083769Y-86737499D01*
X111248082Y-86704816D01*
X111402863Y-86640703D01*
X111488626Y-86583398D01*
X111555303Y-86562520D01*
X111557517Y-86562500D01*
X113841198Y-86562500D01*
X113908237Y-86582185D01*
X113953992Y-86634989D01*
X113963936Y-86704147D01*
X113959130Y-86724812D01*
X113955008Y-86737500D01*
X113935753Y-86796760D01*
X113928446Y-86842896D01*
X113902500Y-87006713D01*
X113902500Y-87219287D01*
X113935754Y-87429243D01*
X113939312Y-87440194D01*
X114001444Y-87631414D01*
X114097951Y-87820820D01*
X114222890Y-87992786D01*
X114373213Y-88143109D01*
X114545179Y-88268048D01*
X114545181Y-88268049D01*
X114545184Y-88268051D01*
X114734588Y-88364557D01*
X114936757Y-88430246D01*
X115146713Y-88463500D01*
X115146714Y-88463500D01*
X115359286Y-88463500D01*
X115359287Y-88463500D01*
X115569243Y-88430246D01*
X115771412Y-88364557D01*
X115960816Y-88268051D01*
X116014999Y-88228685D01*
X116132786Y-88143109D01*
X116132788Y-88143106D01*
X116132792Y-88143104D01*
X116283104Y-87992792D01*
X116283106Y-87992788D01*
X116283109Y-87992786D01*
X116408048Y-87820820D01*
X116408050Y-87820817D01*
X116408051Y-87820816D01*
X116412514Y-87812054D01*
X116460488Y-87761259D01*
X116528308Y-87744463D01*
X116594444Y-87766999D01*
X116633486Y-87812056D01*
X116637951Y-87820820D01*
X116762890Y-87992786D01*
X116913213Y-88143109D01*
X117085179Y-88268048D01*
X117085181Y-88268049D01*
X117085184Y-88268051D01*
X117274588Y-88364557D01*
X117476757Y-88430246D01*
X117686713Y-88463500D01*
X117686714Y-88463500D01*
X117899286Y-88463500D01*
X117899287Y-88463500D01*
X118109243Y-88430246D01*
X118311412Y-88364557D01*
X118500816Y-88268051D01*
X118554999Y-88228685D01*
X118672786Y-88143109D01*
X118672788Y-88143106D01*
X118672792Y-88143104D01*
X118823104Y-87992792D01*
X118823106Y-87992788D01*
X118823109Y-87992786D01*
X118948050Y-87820817D01*
X118948051Y-87820816D01*
X118999138Y-87720551D01*
X119047109Y-87669758D01*
X119076386Y-87662507D01*
X119891766Y-86847128D01*
X119917156Y-86833263D01*
X119867075Y-86920007D01*
X119833000Y-87047174D01*
X119833000Y-87178826D01*
X119867075Y-87305993D01*
X119932901Y-87420007D01*
X120025993Y-87513099D01*
X120140007Y-87578925D01*
X120267174Y-87613000D01*
X120398826Y-87613000D01*
X120525993Y-87578925D01*
X120616634Y-87526592D01*
X120598871Y-87554233D01*
X119797708Y-88355396D01*
X119800497Y-88373000D01*
X119814082Y-88385830D01*
X119830878Y-88453651D01*
X119808342Y-88519786D01*
X119794673Y-88536023D01*
X116329573Y-92001124D01*
X116268250Y-92034609D01*
X116266084Y-92035060D01*
X116164923Y-92055182D01*
X116164917Y-92055184D01*
X116010139Y-92119295D01*
X115870837Y-92212373D01*
X115752373Y-92330837D01*
X115659295Y-92470139D01*
X115595184Y-92624917D01*
X115595182Y-92624925D01*
X115562500Y-92789228D01*
X115562500Y-92956771D01*
X115595182Y-93121074D01*
X115595184Y-93121082D01*
X115659295Y-93275860D01*
X115752373Y-93415162D01*
X115870837Y-93533626D01*
X115963494Y-93595537D01*
X116010137Y-93626703D01*
X116164918Y-93690816D01*
X116329228Y-93723499D01*
X116329232Y-93723500D01*
X116329233Y-93723500D01*
X116496768Y-93723500D01*
X116496769Y-93723499D01*
X116661082Y-93690816D01*
X116815863Y-93626703D01*
X116955162Y-93533626D01*
X117073626Y-93415162D01*
X117166703Y-93275863D01*
X117230816Y-93121082D01*
X117250939Y-93019912D01*
X117259704Y-93003156D01*
X117263724Y-92984678D01*
X117282466Y-92959641D01*
X117283323Y-92958004D01*
X117284819Y-92956480D01*
X117427344Y-92813955D01*
X117488665Y-92780472D01*
X117558357Y-92785456D01*
X117614290Y-92827328D01*
X117636640Y-92877447D01*
X117670182Y-93046074D01*
X117670184Y-93046082D01*
X117734295Y-93200860D01*
X117827373Y-93340162D01*
X117945837Y-93458626D01*
X117968098Y-93473500D01*
X118085137Y-93551703D01*
X118239918Y-93615816D01*
X118404228Y-93648499D01*
X118404232Y-93648500D01*
X118404233Y-93648500D01*
X118571768Y-93648500D01*
X118571769Y-93648499D01*
X118736082Y-93615816D01*
X118890863Y-93551703D01*
X118976626Y-93494398D01*
X119043303Y-93473520D01*
X119045517Y-93473500D01*
X121528358Y-93473500D01*
X121528359Y-93473499D01*
X121658862Y-93447541D01*
X121781795Y-93396620D01*
X121892432Y-93322695D01*
X126997636Y-88217489D01*
X127058957Y-88184006D01*
X127128649Y-88188990D01*
X127158200Y-88204854D01*
X127168135Y-88212072D01*
X127245184Y-88268051D01*
X127434588Y-88364557D01*
X127636757Y-88430246D01*
X127846713Y-88463500D01*
X127846714Y-88463500D01*
X128059286Y-88463500D01*
X128059287Y-88463500D01*
X128269243Y-88430246D01*
X128471412Y-88364557D01*
X128660816Y-88268051D01*
X128714999Y-88228685D01*
X128832786Y-88143109D01*
X128832788Y-88143106D01*
X128832792Y-88143104D01*
X128983104Y-87992792D01*
X128983106Y-87992788D01*
X128983109Y-87992786D01*
X129108048Y-87820820D01*
X129108050Y-87820817D01*
X129108051Y-87820816D01*
X129112514Y-87812054D01*
X129160488Y-87761259D01*
X129228308Y-87744463D01*
X129294444Y-87766999D01*
X129333486Y-87812056D01*
X129337951Y-87820820D01*
X129462890Y-87992786D01*
X129613213Y-88143109D01*
X129785179Y-88268048D01*
X129785181Y-88268049D01*
X129785184Y-88268051D01*
X129974588Y-88364557D01*
X130176757Y-88430246D01*
X130386713Y-88463500D01*
X130386714Y-88463500D01*
X130599286Y-88463500D01*
X130599287Y-88463500D01*
X130809243Y-88430246D01*
X131011412Y-88364557D01*
X131029392Y-88355396D01*
X132497708Y-88355396D01*
X132514780Y-88364094D01*
X132716871Y-88429757D01*
X132926754Y-88463000D01*
X133139246Y-88463000D01*
X133349127Y-88429757D01*
X133349130Y-88429757D01*
X133551218Y-88364094D01*
X133551220Y-88364093D01*
X133568289Y-88355395D01*
X133568290Y-88355395D01*
X133033001Y-87820106D01*
X133033000Y-87820106D01*
X132497708Y-88355396D01*
X131029392Y-88355396D01*
X131200816Y-88268051D01*
X131277865Y-88212071D01*
X131277867Y-88212071D01*
X131372785Y-88143109D01*
X131372783Y-88143109D01*
X131372792Y-88143104D01*
X131523104Y-87992792D01*
X131523106Y-87992788D01*
X131523109Y-87992786D01*
X131648050Y-87820817D01*
X131648051Y-87820816D01*
X131699138Y-87720551D01*
X131747109Y-87669758D01*
X131776386Y-87662507D01*
X132357467Y-87081425D01*
X132533000Y-87078499D01*
X132533000Y-87178826D01*
X132567075Y-87305993D01*
X132632901Y-87420007D01*
X132725993Y-87513099D01*
X132840007Y-87578925D01*
X132967174Y-87613000D01*
X133098826Y-87613000D01*
X133225993Y-87578925D01*
X133340007Y-87513099D01*
X133433099Y-87420007D01*
X133498925Y-87305993D01*
X133533000Y-87178826D01*
X133533000Y-87047174D01*
X133498925Y-86920007D01*
X133433099Y-86805993D01*
X133340007Y-86712901D01*
X133225993Y-86647075D01*
X133098826Y-86613000D01*
X133011823Y-86613000D01*
X133100746Y-86338146D01*
X133580978Y-85857915D01*
X133583328Y-85839729D01*
X133628322Y-85786276D01*
X133640541Y-85779143D01*
X133740816Y-85728051D01*
X133827138Y-85665335D01*
X133912786Y-85603109D01*
X133912788Y-85603106D01*
X133912792Y-85603104D01*
X134063104Y-85452792D01*
X134063106Y-85452788D01*
X134063109Y-85452786D01*
X134188048Y-85280820D01*
X134188047Y-85280820D01*
X134188051Y-85280816D01*
X134192514Y-85272054D01*
X134240488Y-85221259D01*
X134308308Y-85204463D01*
X134374444Y-85226999D01*
X134413486Y-85272056D01*
X134417951Y-85280820D01*
X134542890Y-85452786D01*
X134693213Y-85603109D01*
X134865182Y-85728050D01*
X134873946Y-85732516D01*
X134924742Y-85780491D01*
X134941536Y-85848312D01*
X134918998Y-85914447D01*
X134873946Y-85953484D01*
X134865182Y-85957949D01*
X134693213Y-86082890D01*
X134542890Y-86233213D01*
X134417949Y-86405182D01*
X134366861Y-86505447D01*
X134318887Y-86556242D01*
X134289614Y-86563490D01*
X133740106Y-87112999D01*
X133740106Y-87113001D01*
X134288082Y-87660977D01*
X134306269Y-87663327D01*
X134359722Y-87708321D01*
X134366862Y-87720552D01*
X134417951Y-87820820D01*
X134542890Y-87992786D01*
X134693213Y-88143109D01*
X134865179Y-88268048D01*
X134865181Y-88268049D01*
X134865184Y-88268051D01*
X135054588Y-88364557D01*
X135256757Y-88430246D01*
X135466713Y-88463500D01*
X135466714Y-88463500D01*
X135679286Y-88463500D01*
X135679287Y-88463500D01*
X135889243Y-88430246D01*
X135911851Y-88422899D01*
X135981690Y-88420905D01*
X136037849Y-88453150D01*
X139041124Y-91456425D01*
X139074609Y-91517748D01*
X139075060Y-91519915D01*
X139095182Y-91621074D01*
X139095184Y-91621082D01*
X139159295Y-91775860D01*
X139252373Y-91915162D01*
X139370837Y-92033626D01*
X139449492Y-92086181D01*
X139510137Y-92126703D01*
X139664918Y-92190816D01*
X139829228Y-92223499D01*
X139829232Y-92223500D01*
X139829233Y-92223500D01*
X139996768Y-92223500D01*
X139996769Y-92223499D01*
X140161082Y-92190816D01*
X140315863Y-92126703D01*
X140455162Y-92033626D01*
X140556749Y-91932039D01*
X152625100Y-91932039D01*
X152625100Y-92134758D01*
X152643657Y-92251925D01*
X152656813Y-92334983D01*
X152719457Y-92527781D01*
X152747985Y-92583771D01*
X152811492Y-92708408D01*
X152930639Y-92872403D01*
X153073995Y-93015759D01*
X153218952Y-93121074D01*
X153237994Y-93134909D01*
X153418618Y-93226942D01*
X153611416Y-93289586D01*
X153811640Y-93321299D01*
X153811641Y-93321299D01*
X154014359Y-93321299D01*
X154014360Y-93321299D01*
X154214584Y-93289586D01*
X154407382Y-93226942D01*
X154588006Y-93134909D01*
X154710278Y-93046074D01*
X154752004Y-93015759D01*
X154752006Y-93015756D01*
X154752010Y-93015754D01*
X154895355Y-92872409D01*
X154895357Y-92872405D01*
X154895360Y-92872403D01*
X154955789Y-92789228D01*
X155014510Y-92708405D01*
X155106543Y-92527781D01*
X155169187Y-92334983D01*
X155200900Y-92134759D01*
X155200900Y-91932039D01*
X155169187Y-91731815D01*
X155106543Y-91539017D01*
X155014510Y-91358393D01*
X154964262Y-91289232D01*
X154895360Y-91194394D01*
X154752004Y-91051038D01*
X154588009Y-90931891D01*
X154588008Y-90931890D01*
X154588006Y-90931889D01*
X154407382Y-90839856D01*
X154214584Y-90777212D01*
X154214582Y-90777211D01*
X154214580Y-90777211D01*
X154074782Y-90755069D01*
X154014360Y-90745499D01*
X153811640Y-90745499D01*
X153765224Y-90752850D01*
X153611419Y-90777211D01*
X153611416Y-90777212D01*
X153446373Y-90830838D01*
X153418615Y-90839857D01*
X153237990Y-90931891D01*
X153073995Y-91051038D01*
X152930639Y-91194394D01*
X152811492Y-91358389D01*
X152719458Y-91539014D01*
X152656812Y-91731818D01*
X152625100Y-91932039D01*
X140556749Y-91932039D01*
X140573626Y-91915162D01*
X140589011Y-91892136D01*
X140611636Y-91858277D01*
X140611636Y-91858276D01*
X140666703Y-91775863D01*
X140730816Y-91621082D01*
X140763500Y-91456767D01*
X140763500Y-91289233D01*
X140730816Y-91124918D01*
X140666703Y-90970137D01*
X140629063Y-90913805D01*
X140573626Y-90830837D01*
X140455162Y-90712373D01*
X140315860Y-90619295D01*
X140161082Y-90555184D01*
X140161074Y-90555182D01*
X140059915Y-90535060D01*
X139998004Y-90502675D01*
X139996425Y-90501124D01*
X139900850Y-90405549D01*
X156608499Y-90405549D01*
X156608499Y-90661251D01*
X156626866Y-90777212D01*
X156648500Y-90913805D01*
X156727517Y-91156995D01*
X156807349Y-91313674D01*
X156830135Y-91358393D01*
X156843604Y-91384826D01*
X156993894Y-91591684D01*
X156993898Y-91591689D01*
X157174709Y-91772500D01*
X157174714Y-91772504D01*
X157355147Y-91903595D01*
X157381576Y-91922797D01*
X157494201Y-91980182D01*
X157609403Y-92038881D01*
X157609405Y-92038881D01*
X157609408Y-92038883D01*
X157852594Y-92117899D01*
X158105148Y-92157900D01*
X158105149Y-92157900D01*
X158360849Y-92157900D01*
X158360850Y-92157900D01*
X158613404Y-92117899D01*
X158856590Y-92038883D01*
X159084422Y-91922797D01*
X159291290Y-91772499D01*
X159472098Y-91591691D01*
X159622396Y-91384823D01*
X159738482Y-91156991D01*
X159817498Y-90913805D01*
X159857499Y-90661251D01*
X159857499Y-90405549D01*
X159817498Y-90152995D01*
X159738482Y-89909809D01*
X159738480Y-89909806D01*
X159738480Y-89909804D01*
X159656074Y-89748074D01*
X159622396Y-89681977D01*
X159603194Y-89655548D01*
X159472103Y-89475115D01*
X159472099Y-89475110D01*
X159291288Y-89294299D01*
X159291283Y-89294295D01*
X159084425Y-89144005D01*
X159084424Y-89144004D01*
X159084422Y-89144003D01*
X158992442Y-89097137D01*
X158856594Y-89027918D01*
X158613404Y-88948901D01*
X158360850Y-88908900D01*
X158105148Y-88908900D01*
X157978871Y-88928900D01*
X157852593Y-88948901D01*
X157609403Y-89027918D01*
X157381572Y-89144005D01*
X157174714Y-89294295D01*
X157174709Y-89294299D01*
X156993898Y-89475110D01*
X156993894Y-89475115D01*
X156843604Y-89681973D01*
X156727517Y-89909804D01*
X156654377Y-90134907D01*
X156648500Y-90152995D01*
X156608499Y-90405549D01*
X139900850Y-90405549D01*
X138427341Y-88932040D01*
X152625100Y-88932040D01*
X152625100Y-89134760D01*
X152656813Y-89334984D01*
X152719457Y-89527782D01*
X152747983Y-89583768D01*
X152811492Y-89708409D01*
X152930639Y-89872404D01*
X153073995Y-90015760D01*
X153227456Y-90127254D01*
X153237994Y-90134910D01*
X153418618Y-90226943D01*
X153611416Y-90289587D01*
X153811640Y-90321300D01*
X153811641Y-90321300D01*
X154014359Y-90321300D01*
X154014360Y-90321300D01*
X154214584Y-90289587D01*
X154407382Y-90226943D01*
X154588006Y-90134910D01*
X154715664Y-90042162D01*
X154752004Y-90015760D01*
X154752006Y-90015757D01*
X154752010Y-90015755D01*
X154895355Y-89872410D01*
X154895357Y-89872406D01*
X154895360Y-89872404D01*
X154947610Y-89800485D01*
X155014510Y-89708406D01*
X155106543Y-89527782D01*
X155169187Y-89334984D01*
X155200900Y-89134760D01*
X155200900Y-88932040D01*
X155169187Y-88731816D01*
X155106543Y-88539018D01*
X155014510Y-88358394D01*
X154973822Y-88302391D01*
X154895360Y-88194395D01*
X154752004Y-88051039D01*
X154588009Y-87931892D01*
X154588008Y-87931891D01*
X154588006Y-87931890D01*
X154407382Y-87839857D01*
X154214584Y-87777213D01*
X154214582Y-87777212D01*
X154214580Y-87777212D01*
X154074782Y-87755070D01*
X154014360Y-87745500D01*
X153811640Y-87745500D01*
X153765224Y-87752851D01*
X153611419Y-87777212D01*
X153611416Y-87777213D01*
X153504181Y-87812056D01*
X153418615Y-87839858D01*
X153237990Y-87931892D01*
X153073995Y-88051039D01*
X152930639Y-88194395D01*
X152811492Y-88358390D01*
X152719458Y-88539015D01*
X152656812Y-88731819D01*
X152639777Y-88839373D01*
X152625100Y-88932040D01*
X138427341Y-88932040D01*
X138166500Y-88671199D01*
X138133015Y-88609876D01*
X138137999Y-88540184D01*
X138179871Y-88484251D01*
X138234780Y-88461046D01*
X138429243Y-88430246D01*
X138631412Y-88364557D01*
X138820816Y-88268051D01*
X138874999Y-88228685D01*
X138992786Y-88143109D01*
X138992788Y-88143106D01*
X138992792Y-88143104D01*
X139143104Y-87992792D01*
X139143106Y-87992788D01*
X139143109Y-87992786D01*
X139268048Y-87820820D01*
X139268050Y-87820817D01*
X139268051Y-87820816D01*
X139272514Y-87812054D01*
X139320488Y-87761259D01*
X139388308Y-87744463D01*
X139454444Y-87766999D01*
X139493486Y-87812056D01*
X139497951Y-87820820D01*
X139622890Y-87992786D01*
X139773213Y-88143109D01*
X139945179Y-88268048D01*
X139945181Y-88268049D01*
X139945184Y-88268051D01*
X140134588Y-88364557D01*
X140336757Y-88430246D01*
X140546713Y-88463500D01*
X140546714Y-88463500D01*
X140759286Y-88463500D01*
X140759287Y-88463500D01*
X140969243Y-88430246D01*
X141171412Y-88364557D01*
X141360816Y-88268051D01*
X141414999Y-88228685D01*
X141532786Y-88143109D01*
X141532788Y-88143106D01*
X141532792Y-88143104D01*
X141683104Y-87992792D01*
X141683106Y-87992788D01*
X141683109Y-87992786D01*
X141808048Y-87820820D01*
X141808050Y-87820817D01*
X141808051Y-87820816D01*
X141812514Y-87812054D01*
X141860488Y-87761259D01*
X141928308Y-87744463D01*
X141994444Y-87766999D01*
X142033486Y-87812056D01*
X142037951Y-87820820D01*
X142162890Y-87992786D01*
X142313213Y-88143109D01*
X142485179Y-88268048D01*
X142485181Y-88268049D01*
X142485184Y-88268051D01*
X142674588Y-88364557D01*
X142876757Y-88430246D01*
X143086713Y-88463500D01*
X143086714Y-88463500D01*
X143299286Y-88463500D01*
X143299287Y-88463500D01*
X143509243Y-88430246D01*
X143711412Y-88364557D01*
X143900816Y-88268051D01*
X143954999Y-88228685D01*
X144072786Y-88143109D01*
X144072788Y-88143106D01*
X144072792Y-88143104D01*
X144223104Y-87992792D01*
X144223106Y-87992788D01*
X144223109Y-87992786D01*
X144348048Y-87820820D01*
X144348050Y-87820817D01*
X144348051Y-87820816D01*
X144352514Y-87812054D01*
X144400488Y-87761259D01*
X144468308Y-87744463D01*
X144534444Y-87766999D01*
X144573486Y-87812056D01*
X144577951Y-87820820D01*
X144702890Y-87992786D01*
X144853213Y-88143109D01*
X145025179Y-88268048D01*
X145025181Y-88268049D01*
X145025184Y-88268051D01*
X145214588Y-88364557D01*
X145416757Y-88430246D01*
X145626713Y-88463500D01*
X145626714Y-88463500D01*
X145839286Y-88463500D01*
X145839287Y-88463500D01*
X146049243Y-88430246D01*
X146251412Y-88364557D01*
X146440816Y-88268051D01*
X146494999Y-88228685D01*
X146612786Y-88143109D01*
X146612788Y-88143106D01*
X146612792Y-88143104D01*
X146763104Y-87992792D01*
X146763106Y-87992788D01*
X146763109Y-87992786D01*
X146888048Y-87820820D01*
X146888050Y-87820817D01*
X146888051Y-87820816D01*
X146892514Y-87812054D01*
X146940488Y-87761259D01*
X147008308Y-87744463D01*
X147074444Y-87766999D01*
X147113486Y-87812056D01*
X147117951Y-87820820D01*
X147242890Y-87992786D01*
X147393213Y-88143109D01*
X147565179Y-88268048D01*
X147565181Y-88268049D01*
X147565184Y-88268051D01*
X147754588Y-88364557D01*
X147956757Y-88430246D01*
X148166713Y-88463500D01*
X148166714Y-88463500D01*
X148379286Y-88463500D01*
X148379287Y-88463500D01*
X148589243Y-88430246D01*
X148791412Y-88364557D01*
X148980816Y-88268051D01*
X149034999Y-88228685D01*
X149152786Y-88143109D01*
X149152788Y-88143106D01*
X149152792Y-88143104D01*
X149303104Y-87992792D01*
X149303106Y-87992788D01*
X149303109Y-87992786D01*
X149428048Y-87820820D01*
X149428050Y-87820817D01*
X149428051Y-87820816D01*
X149432514Y-87812054D01*
X149480488Y-87761259D01*
X149548308Y-87744463D01*
X149614444Y-87766999D01*
X149653486Y-87812056D01*
X149657951Y-87820820D01*
X149782890Y-87992786D01*
X149933213Y-88143109D01*
X150105179Y-88268048D01*
X150105181Y-88268049D01*
X150105184Y-88268051D01*
X150294588Y-88364557D01*
X150496757Y-88430246D01*
X150706713Y-88463500D01*
X150706714Y-88463500D01*
X150919286Y-88463500D01*
X150919287Y-88463500D01*
X151129243Y-88430246D01*
X151331412Y-88364557D01*
X151520816Y-88268051D01*
X151574999Y-88228685D01*
X151692786Y-88143109D01*
X151692788Y-88143106D01*
X151692792Y-88143104D01*
X151843104Y-87992792D01*
X151843106Y-87992788D01*
X151843109Y-87992786D01*
X151968048Y-87820820D01*
X151968050Y-87820817D01*
X151968051Y-87820816D01*
X152064557Y-87631412D01*
X152130246Y-87429243D01*
X152163500Y-87219287D01*
X152163500Y-87006713D01*
X152130246Y-86796757D01*
X152064557Y-86594588D01*
X151968051Y-86405184D01*
X151968049Y-86405181D01*
X151968048Y-86405179D01*
X151843109Y-86233213D01*
X151729569Y-86119673D01*
X151696084Y-86058350D01*
X151701068Y-85988658D01*
X151742940Y-85932725D01*
X151773915Y-85915810D01*
X151905331Y-85866796D01*
X152020546Y-85780546D01*
X152106796Y-85665331D01*
X152157091Y-85530483D01*
X152163500Y-85470873D01*
X152163499Y-83675128D01*
X152157091Y-83615517D01*
X152155810Y-83612083D01*
X152106797Y-83480671D01*
X152106793Y-83480664D01*
X152020547Y-83365455D01*
X152020544Y-83365452D01*
X151905335Y-83279206D01*
X151905328Y-83279202D01*
X151770482Y-83228908D01*
X151770483Y-83228908D01*
X151710883Y-83222501D01*
X151710881Y-83222500D01*
X151710873Y-83222500D01*
X151710864Y-83222500D01*
X149915129Y-83222500D01*
X149915123Y-83222501D01*
X149855516Y-83228908D01*
X149720671Y-83279202D01*
X149720664Y-83279206D01*
X149605455Y-83365452D01*
X149605452Y-83365455D01*
X149519206Y-83480664D01*
X149519203Y-83480669D01*
X149470189Y-83612083D01*
X149428317Y-83668016D01*
X149362853Y-83692433D01*
X149294580Y-83677581D01*
X149266326Y-83656430D01*
X149152786Y-83542890D01*
X148980820Y-83417951D01*
X148791414Y-83321444D01*
X148791413Y-83321443D01*
X148791412Y-83321443D01*
X148589243Y-83255754D01*
X148589241Y-83255753D01*
X148589240Y-83255753D01*
X148427957Y-83230208D01*
X148379287Y-83222500D01*
X148166713Y-83222500D01*
X148118042Y-83230208D01*
X147956760Y-83255753D01*
X147754585Y-83321444D01*
X147565179Y-83417951D01*
X147393213Y-83542890D01*
X147242890Y-83693213D01*
X147117949Y-83865182D01*
X147113484Y-83873946D01*
X147065509Y-83924742D01*
X146997688Y-83941536D01*
X146931553Y-83918998D01*
X146892516Y-83873946D01*
X146888050Y-83865182D01*
X146763109Y-83693213D01*
X146612786Y-83542890D01*
X146440820Y-83417951D01*
X146251414Y-83321444D01*
X146251413Y-83321443D01*
X146251412Y-83321443D01*
X146049243Y-83255754D01*
X146049241Y-83255753D01*
X146049240Y-83255753D01*
X145887957Y-83230208D01*
X145839287Y-83222500D01*
X145626713Y-83222500D01*
X145578042Y-83230208D01*
X145416760Y-83255753D01*
X145214585Y-83321444D01*
X145025179Y-83417951D01*
X144853213Y-83542890D01*
X144702890Y-83693213D01*
X144577949Y-83865182D01*
X144573484Y-83873946D01*
X144525509Y-83924742D01*
X144457688Y-83941536D01*
X144391553Y-83918998D01*
X144352516Y-83873946D01*
X144348050Y-83865182D01*
X144223109Y-83693213D01*
X144072786Y-83542890D01*
X143900820Y-83417951D01*
X143711414Y-83321444D01*
X143711413Y-83321443D01*
X143711412Y-83321443D01*
X143509243Y-83255754D01*
X143509241Y-83255753D01*
X143509240Y-83255753D01*
X143347957Y-83230208D01*
X143299287Y-83222500D01*
X143086713Y-83222500D01*
X143038042Y-83230208D01*
X142876760Y-83255753D01*
X142674585Y-83321444D01*
X142485179Y-83417951D01*
X142313213Y-83542890D01*
X142162890Y-83693213D01*
X142037949Y-83865182D01*
X142033484Y-83873946D01*
X141985509Y-83924742D01*
X141917688Y-83941536D01*
X141851553Y-83918998D01*
X141812516Y-83873946D01*
X141808050Y-83865182D01*
X141683109Y-83693213D01*
X141532786Y-83542890D01*
X141360820Y-83417951D01*
X141171414Y-83321444D01*
X141171413Y-83321443D01*
X141171412Y-83321443D01*
X140969243Y-83255754D01*
X140969241Y-83255753D01*
X140969240Y-83255753D01*
X140807957Y-83230208D01*
X140759287Y-83222500D01*
X140546713Y-83222500D01*
X140498042Y-83230208D01*
X140336760Y-83255753D01*
X140134585Y-83321444D01*
X139945179Y-83417951D01*
X139773213Y-83542890D01*
X139622890Y-83693213D01*
X139497949Y-83865182D01*
X139493484Y-83873946D01*
X139445509Y-83924742D01*
X139377688Y-83941536D01*
X139311553Y-83918998D01*
X139272516Y-83873946D01*
X139268050Y-83865182D01*
X139143109Y-83693213D01*
X138992786Y-83542890D01*
X138820820Y-83417951D01*
X138631414Y-83321444D01*
X138631413Y-83321443D01*
X138631412Y-83321443D01*
X138429243Y-83255754D01*
X138429241Y-83255753D01*
X138429240Y-83255753D01*
X138267957Y-83230208D01*
X138219287Y-83222500D01*
X138006713Y-83222500D01*
X137958042Y-83230208D01*
X137796760Y-83255753D01*
X137594585Y-83321444D01*
X137405179Y-83417951D01*
X137233213Y-83542890D01*
X137082890Y-83693213D01*
X136957949Y-83865182D01*
X136953484Y-83873946D01*
X136905509Y-83924742D01*
X136837688Y-83941536D01*
X136771553Y-83918998D01*
X136732516Y-83873946D01*
X136728050Y-83865182D01*
X136603109Y-83693213D01*
X136452786Y-83542890D01*
X136280820Y-83417951D01*
X136091414Y-83321444D01*
X136091413Y-83321443D01*
X136091412Y-83321443D01*
X135889243Y-83255754D01*
X135889241Y-83255753D01*
X135889240Y-83255753D01*
X135727957Y-83230208D01*
X135679287Y-83222500D01*
X135466713Y-83222500D01*
X135418042Y-83230208D01*
X135256760Y-83255753D01*
X135054585Y-83321444D01*
X134865179Y-83417951D01*
X134693213Y-83542890D01*
X134542890Y-83693213D01*
X134417949Y-83865182D01*
X134413484Y-83873946D01*
X134365509Y-83924742D01*
X134297688Y-83941536D01*
X134231553Y-83918998D01*
X134192516Y-83873946D01*
X134188050Y-83865182D01*
X134063109Y-83693213D01*
X133912786Y-83542890D01*
X133740820Y-83417951D01*
X133551414Y-83321444D01*
X133551413Y-83321443D01*
X133551412Y-83321443D01*
X133349243Y-83255754D01*
X133349241Y-83255753D01*
X133349240Y-83255753D01*
X133182544Y-83229351D01*
X133139287Y-83222500D01*
X133139286Y-83222500D01*
X133134475Y-83221738D01*
X133134641Y-83220683D01*
X133074151Y-83197622D01*
X133061496Y-83186576D01*
X131325601Y-81450681D01*
X131292116Y-81389358D01*
X131297100Y-81319666D01*
X131325601Y-81275319D01*
X131936263Y-80664657D01*
X132668881Y-79932039D01*
X152652101Y-79932039D01*
X152652101Y-80134758D01*
X152679930Y-80310465D01*
X152683814Y-80334983D01*
X152746458Y-80527781D01*
X152816200Y-80664657D01*
X152838493Y-80708408D01*
X152957640Y-80872403D01*
X153100996Y-81015759D01*
X153190185Y-81080557D01*
X153264995Y-81134909D01*
X153445619Y-81226942D01*
X153638417Y-81289586D01*
X153838641Y-81321299D01*
X153838642Y-81321299D01*
X154041360Y-81321299D01*
X154041361Y-81321299D01*
X154241585Y-81289586D01*
X154434383Y-81226942D01*
X154615007Y-81134909D01*
X154707086Y-81068009D01*
X154779005Y-81015759D01*
X154779007Y-81015756D01*
X154779011Y-81015754D01*
X154922356Y-80872409D01*
X154922358Y-80872405D01*
X154922361Y-80872403D01*
X155009042Y-80753095D01*
X155041511Y-80708405D01*
X155133544Y-80527781D01*
X155196188Y-80334983D01*
X155227901Y-80134759D01*
X155227901Y-79932039D01*
X155196188Y-79731815D01*
X155133544Y-79539017D01*
X155041511Y-79358393D01*
X155032827Y-79346441D01*
X154922361Y-79194394D01*
X154779005Y-79051038D01*
X154615010Y-78931891D01*
X154615009Y-78931890D01*
X154615007Y-78931889D01*
X154434383Y-78839856D01*
X154241585Y-78777212D01*
X154241583Y-78777211D01*
X154241581Y-78777211D01*
X154101783Y-78755069D01*
X154041361Y-78745499D01*
X153838641Y-78745499D01*
X153792225Y-78752850D01*
X153638420Y-78777211D01*
X153445616Y-78839857D01*
X153264991Y-78931891D01*
X153100996Y-79051038D01*
X152957640Y-79194394D01*
X152838493Y-79358389D01*
X152746459Y-79539014D01*
X152683813Y-79731818D01*
X152652101Y-79932039D01*
X132668881Y-79932039D01*
X133873811Y-78727108D01*
X133923173Y-78696860D01*
X133935445Y-78692873D01*
X134089788Y-78614232D01*
X134229928Y-78512414D01*
X134352414Y-78389928D01*
X134412682Y-78306975D01*
X134468012Y-78264311D01*
X134537626Y-78258332D01*
X134599421Y-78290938D01*
X134613315Y-78306973D01*
X134673586Y-78389928D01*
X134796072Y-78512414D01*
X134936212Y-78614232D01*
X135090555Y-78692873D01*
X135255299Y-78746402D01*
X135426389Y-78773500D01*
X135426390Y-78773500D01*
X135599610Y-78773500D01*
X135599611Y-78773500D01*
X135770701Y-78746402D01*
X135935445Y-78692873D01*
X136089788Y-78614232D01*
X136229928Y-78512414D01*
X136352414Y-78389928D01*
X136412682Y-78306975D01*
X136468012Y-78264311D01*
X136537626Y-78258332D01*
X136599421Y-78290938D01*
X136613315Y-78306973D01*
X136673586Y-78389928D01*
X136796072Y-78512414D01*
X136936212Y-78614232D01*
X137090555Y-78692873D01*
X137255299Y-78746402D01*
X137426389Y-78773500D01*
X137426390Y-78773500D01*
X137599610Y-78773500D01*
X137599611Y-78773500D01*
X137770701Y-78746402D01*
X137935445Y-78692873D01*
X138089788Y-78614232D01*
X138229928Y-78512414D01*
X138352414Y-78389928D01*
X138412682Y-78306975D01*
X138468012Y-78264311D01*
X138537626Y-78258332D01*
X138599421Y-78290938D01*
X138613315Y-78306973D01*
X138673586Y-78389928D01*
X138796072Y-78512414D01*
X138936212Y-78614232D01*
X139090555Y-78692873D01*
X139255299Y-78746402D01*
X139426389Y-78773500D01*
X139426390Y-78773500D01*
X139599610Y-78773500D01*
X139599611Y-78773500D01*
X139770701Y-78746402D01*
X139935445Y-78692873D01*
X140089788Y-78614232D01*
X140229928Y-78512414D01*
X140352414Y-78389928D01*
X140412682Y-78306975D01*
X140468012Y-78264311D01*
X140537626Y-78258332D01*
X140599421Y-78290938D01*
X140613315Y-78306973D01*
X140673586Y-78389928D01*
X140796072Y-78512414D01*
X140936212Y-78614232D01*
X141090555Y-78692873D01*
X141255299Y-78746402D01*
X141426389Y-78773500D01*
X141426390Y-78773500D01*
X141599610Y-78773500D01*
X141599611Y-78773500D01*
X141770701Y-78746402D01*
X141935445Y-78692873D01*
X142089788Y-78614232D01*
X142229928Y-78512414D01*
X142352414Y-78389928D01*
X142412682Y-78306975D01*
X142468012Y-78264311D01*
X142537626Y-78258332D01*
X142599421Y-78290938D01*
X142613315Y-78306973D01*
X142673586Y-78389928D01*
X142796072Y-78512414D01*
X142936212Y-78614232D01*
X143090555Y-78692873D01*
X143255299Y-78746402D01*
X143426389Y-78773500D01*
X143426390Y-78773500D01*
X143599610Y-78773500D01*
X143599611Y-78773500D01*
X143770701Y-78746402D01*
X143935445Y-78692873D01*
X144089788Y-78614232D01*
X144229928Y-78512414D01*
X144352414Y-78389928D01*
X144412682Y-78306975D01*
X144468012Y-78264311D01*
X144537626Y-78258332D01*
X144599421Y-78290938D01*
X144613315Y-78306973D01*
X144673586Y-78389928D01*
X144796072Y-78512414D01*
X144936212Y-78614232D01*
X145090555Y-78692873D01*
X145255299Y-78746402D01*
X145426389Y-78773500D01*
X145426390Y-78773500D01*
X145599610Y-78773500D01*
X145599611Y-78773500D01*
X145770701Y-78746402D01*
X145935445Y-78692873D01*
X146089788Y-78614232D01*
X146229928Y-78512414D01*
X146266976Y-78475365D01*
X146328296Y-78441881D01*
X146397988Y-78446865D01*
X146453922Y-78488735D01*
X146464368Y-78507865D01*
X146464953Y-78507546D01*
X146469206Y-78515335D01*
X146555452Y-78630544D01*
X146555455Y-78630547D01*
X146670664Y-78716793D01*
X146670671Y-78716797D01*
X146805517Y-78767091D01*
X146805516Y-78767091D01*
X146812444Y-78767835D01*
X146865127Y-78773500D01*
X148160872Y-78773499D01*
X148220483Y-78767091D01*
X148355331Y-78716796D01*
X148470546Y-78630546D01*
X148556796Y-78515331D01*
X148597742Y-78405549D01*
X156635500Y-78405549D01*
X156635500Y-78661251D01*
X156653867Y-78777212D01*
X156675501Y-78913805D01*
X156754518Y-79156995D01*
X156823993Y-79293345D01*
X156857136Y-79358393D01*
X156870605Y-79384826D01*
X157020895Y-79591684D01*
X157020899Y-79591689D01*
X157201710Y-79772500D01*
X157201715Y-79772504D01*
X157314965Y-79854784D01*
X157408577Y-79922797D01*
X157546172Y-79992905D01*
X157636404Y-80038881D01*
X157636406Y-80038881D01*
X157636409Y-80038883D01*
X157879595Y-80117899D01*
X158132149Y-80157900D01*
X158132150Y-80157900D01*
X158387850Y-80157900D01*
X158387851Y-80157900D01*
X158640405Y-80117899D01*
X158883591Y-80038883D01*
X159111423Y-79922797D01*
X159318291Y-79772499D01*
X159499099Y-79591691D01*
X159649397Y-79384823D01*
X159765483Y-79156991D01*
X159844499Y-78913805D01*
X159884500Y-78661251D01*
X159884500Y-78405549D01*
X159844499Y-78152995D01*
X159765483Y-77909809D01*
X159765481Y-77909806D01*
X159765481Y-77909804D01*
X159688953Y-77759611D01*
X159649397Y-77681977D01*
X159630195Y-77655548D01*
X159499104Y-77475115D01*
X159499100Y-77475110D01*
X159318289Y-77294299D01*
X159318284Y-77294295D01*
X159111426Y-77144005D01*
X159111425Y-77144004D01*
X159111423Y-77144003D01*
X159017626Y-77096211D01*
X158883595Y-77027918D01*
X158640405Y-76948901D01*
X158387851Y-76908900D01*
X158132149Y-76908900D01*
X158005872Y-76928900D01*
X157879594Y-76948901D01*
X157636404Y-77027918D01*
X157408573Y-77144005D01*
X157201715Y-77294295D01*
X157201710Y-77294299D01*
X157020899Y-77475110D01*
X157020895Y-77475115D01*
X156870605Y-77681973D01*
X156754518Y-77909804D01*
X156675501Y-78152994D01*
X156657870Y-78264311D01*
X156635500Y-78405549D01*
X148597742Y-78405549D01*
X148607091Y-78380483D01*
X148613500Y-78320873D01*
X148613499Y-77025128D01*
X148607091Y-76965517D01*
X148594605Y-76932040D01*
X152652101Y-76932040D01*
X152652101Y-77134760D01*
X152683814Y-77334984D01*
X152744459Y-77521631D01*
X152746459Y-77527784D01*
X152838493Y-77708409D01*
X152957640Y-77872404D01*
X153100996Y-78015760D01*
X153210678Y-78095447D01*
X153264995Y-78134910D01*
X153445619Y-78226943D01*
X153638417Y-78289587D01*
X153838641Y-78321300D01*
X153838642Y-78321300D01*
X154041360Y-78321300D01*
X154041361Y-78321300D01*
X154241585Y-78289587D01*
X154434383Y-78226943D01*
X154615007Y-78134910D01*
X154707086Y-78068010D01*
X154779005Y-78015760D01*
X154779007Y-78015757D01*
X154779011Y-78015755D01*
X154922356Y-77872410D01*
X154922358Y-77872406D01*
X154922361Y-77872404D01*
X154974611Y-77800485D01*
X155041511Y-77708406D01*
X155133544Y-77527782D01*
X155196188Y-77334984D01*
X155227901Y-77134760D01*
X155227901Y-76932040D01*
X155196188Y-76731816D01*
X155133544Y-76539018D01*
X155041511Y-76358394D01*
X155000163Y-76301483D01*
X154922361Y-76194395D01*
X154779005Y-76051039D01*
X154615010Y-75931892D01*
X154615009Y-75931891D01*
X154615007Y-75931890D01*
X154434383Y-75839857D01*
X154241585Y-75777213D01*
X154241583Y-75777212D01*
X154241581Y-75777212D01*
X154101783Y-75755070D01*
X154041361Y-75745500D01*
X153838641Y-75745500D01*
X153792225Y-75752851D01*
X153638420Y-75777212D01*
X153445616Y-75839858D01*
X153264991Y-75931892D01*
X153100996Y-76051039D01*
X152957640Y-76194395D01*
X152838493Y-76358390D01*
X152746459Y-76539015D01*
X152683813Y-76731819D01*
X152655766Y-76908900D01*
X152652101Y-76932040D01*
X148594605Y-76932040D01*
X148556797Y-76830671D01*
X148556793Y-76830664D01*
X148470547Y-76715455D01*
X148470544Y-76715452D01*
X148355335Y-76629206D01*
X148347546Y-76624953D01*
X148348794Y-76622665D01*
X148303775Y-76588960D01*
X148279362Y-76523494D01*
X148294219Y-76455222D01*
X148315364Y-76426977D01*
X148352414Y-76389928D01*
X148454232Y-76249788D01*
X148532873Y-76095445D01*
X148586402Y-75930701D01*
X148613500Y-75759611D01*
X148613500Y-75586389D01*
X148586402Y-75415299D01*
X148532873Y-75250555D01*
X148454232Y-75096212D01*
X148352414Y-74956072D01*
X148229928Y-74833586D01*
X148089788Y-74731768D01*
X147935445Y-74653127D01*
X147770701Y-74599598D01*
X147770699Y-74599597D01*
X147770698Y-74599597D01*
X147639271Y-74578781D01*
X147599611Y-74572500D01*
X147426389Y-74572500D01*
X147386728Y-74578781D01*
X147255302Y-74599597D01*
X147090552Y-74653128D01*
X146936211Y-74731768D01*
X146889755Y-74765521D01*
X146796072Y-74833586D01*
X146796070Y-74833588D01*
X146796069Y-74833588D01*
X146673588Y-74956069D01*
X146673581Y-74956078D01*
X146613317Y-75039023D01*
X146557987Y-75081689D01*
X146488374Y-75087667D01*
X146426579Y-75055061D01*
X146412683Y-75039023D01*
X146352418Y-74956078D01*
X146352414Y-74956072D01*
X146229928Y-74833586D01*
X146089788Y-74731768D01*
X145935445Y-74653127D01*
X145770701Y-74599598D01*
X145770699Y-74599597D01*
X145770698Y-74599597D01*
X145639271Y-74578781D01*
X145599611Y-74572500D01*
X145426389Y-74572500D01*
X145386728Y-74578781D01*
X145255302Y-74599597D01*
X145090552Y-74653128D01*
X144936211Y-74731768D01*
X144889755Y-74765521D01*
X144796072Y-74833586D01*
X144796070Y-74833588D01*
X144796069Y-74833588D01*
X144673588Y-74956069D01*
X144673581Y-74956078D01*
X144613317Y-75039023D01*
X144557987Y-75081689D01*
X144488374Y-75087667D01*
X144426579Y-75055061D01*
X144412683Y-75039023D01*
X144352418Y-74956078D01*
X144352414Y-74956072D01*
X144229928Y-74833586D01*
X144089788Y-74731768D01*
X143935445Y-74653127D01*
X143770701Y-74599598D01*
X143770699Y-74599597D01*
X143770698Y-74599597D01*
X143639271Y-74578781D01*
X143599611Y-74572500D01*
X143426389Y-74572500D01*
X143386728Y-74578781D01*
X143255302Y-74599597D01*
X143090552Y-74653128D01*
X142936211Y-74731768D01*
X142889755Y-74765521D01*
X142796072Y-74833586D01*
X142796070Y-74833588D01*
X142796069Y-74833588D01*
X142673588Y-74956069D01*
X142673581Y-74956078D01*
X142613317Y-75039023D01*
X142557987Y-75081689D01*
X142488374Y-75087667D01*
X142426579Y-75055061D01*
X142412683Y-75039023D01*
X142352418Y-74956078D01*
X142352414Y-74956072D01*
X142229928Y-74833586D01*
X142089788Y-74731768D01*
X141935445Y-74653127D01*
X141770701Y-74599598D01*
X141770699Y-74599597D01*
X141770698Y-74599597D01*
X141639271Y-74578781D01*
X141599611Y-74572500D01*
X141426389Y-74572500D01*
X141386728Y-74578781D01*
X141255302Y-74599597D01*
X141090552Y-74653128D01*
X140936211Y-74731768D01*
X140889755Y-74765521D01*
X140796072Y-74833586D01*
X140796070Y-74833588D01*
X140796069Y-74833588D01*
X140673588Y-74956069D01*
X140673581Y-74956078D01*
X140613317Y-75039023D01*
X140557987Y-75081689D01*
X140488374Y-75087667D01*
X140426579Y-75055061D01*
X140412683Y-75039023D01*
X140352418Y-74956078D01*
X140352414Y-74956072D01*
X140229928Y-74833586D01*
X140089788Y-74731768D01*
X139935445Y-74653127D01*
X139770701Y-74599598D01*
X139770699Y-74599597D01*
X139770698Y-74599597D01*
X139639271Y-74578781D01*
X139599611Y-74572500D01*
X139426389Y-74572500D01*
X139386728Y-74578781D01*
X139255302Y-74599597D01*
X139090552Y-74653128D01*
X138936211Y-74731768D01*
X138889755Y-74765521D01*
X138796072Y-74833586D01*
X138796070Y-74833588D01*
X138796069Y-74833588D01*
X138673588Y-74956069D01*
X138673581Y-74956078D01*
X138613317Y-75039023D01*
X138557987Y-75081689D01*
X138488374Y-75087667D01*
X138426579Y-75055061D01*
X138412683Y-75039023D01*
X138352418Y-74956078D01*
X138352414Y-74956072D01*
X138229928Y-74833586D01*
X138089788Y-74731768D01*
X137935445Y-74653127D01*
X137770701Y-74599598D01*
X137770699Y-74599597D01*
X137770698Y-74599597D01*
X137639271Y-74578781D01*
X137599611Y-74572500D01*
X137426389Y-74572500D01*
X137386728Y-74578781D01*
X137255302Y-74599597D01*
X137090552Y-74653128D01*
X136936211Y-74731768D01*
X136889755Y-74765521D01*
X136796072Y-74833586D01*
X136796070Y-74833588D01*
X136796069Y-74833588D01*
X136673588Y-74956069D01*
X136673581Y-74956078D01*
X136613317Y-75039023D01*
X136557987Y-75081689D01*
X136488374Y-75087667D01*
X136426579Y-75055061D01*
X136412683Y-75039023D01*
X136352418Y-74956078D01*
X136352414Y-74956072D01*
X136229928Y-74833586D01*
X136089788Y-74731768D01*
X135935445Y-74653127D01*
X135770701Y-74599598D01*
X135770699Y-74599597D01*
X135770698Y-74599597D01*
X135639271Y-74578781D01*
X135599611Y-74572500D01*
X135426389Y-74572500D01*
X135386728Y-74578781D01*
X135255302Y-74599597D01*
X135090552Y-74653128D01*
X134936211Y-74731768D01*
X134889755Y-74765521D01*
X134796072Y-74833586D01*
X134796070Y-74833588D01*
X134796069Y-74833588D01*
X134673588Y-74956069D01*
X134673588Y-74956070D01*
X134673586Y-74956072D01*
X134673582Y-74956078D01*
X134571768Y-75096211D01*
X134493128Y-75250552D01*
X134439597Y-75415302D01*
X134438708Y-75420914D01*
X134408774Y-75484046D01*
X134403917Y-75489188D01*
X134220105Y-75673000D01*
X133863000Y-75673000D01*
X133863000Y-75626922D01*
X133839148Y-75537905D01*
X133793070Y-75458095D01*
X133727905Y-75392930D01*
X133648095Y-75346852D01*
X133559078Y-75323000D01*
X133466922Y-75323000D01*
X133377905Y-75346852D01*
X133298095Y-75392930D01*
X133232930Y-75458095D01*
X133186852Y-75537905D01*
X133163000Y-75626922D01*
X133163000Y-75673000D01*
X132805893Y-75673000D01*
X132622082Y-75489189D01*
X132588597Y-75427866D01*
X132587290Y-75420905D01*
X132586402Y-75415300D01*
X132586402Y-75415299D01*
X132532871Y-75250550D01*
X132454231Y-75096211D01*
X132352414Y-74956072D01*
X132229928Y-74833586D01*
X132136245Y-74765521D01*
X132136243Y-74765519D01*
X132089791Y-74731770D01*
X132089790Y-74731769D01*
X132089788Y-74731768D01*
X131935445Y-74653127D01*
X131853881Y-74626625D01*
X133173733Y-74626625D01*
X133173733Y-74626626D01*
X133513000Y-74965893D01*
X133513001Y-74965893D01*
X133852266Y-74626626D01*
X133852266Y-74626625D01*
X133770586Y-74600086D01*
X133599571Y-74573000D01*
X133426429Y-74573000D01*
X133255414Y-74600086D01*
X133173733Y-74626625D01*
X131853881Y-74626625D01*
X131770701Y-74599598D01*
X131770699Y-74599597D01*
X131770698Y-74599597D01*
X131639271Y-74578781D01*
X131599611Y-74572500D01*
X131426389Y-74572500D01*
X131386728Y-74578781D01*
X131255302Y-74599597D01*
X131090552Y-74653128D01*
X130936211Y-74731768D01*
X130889755Y-74765521D01*
X130796072Y-74833586D01*
X130796070Y-74833588D01*
X130796069Y-74833588D01*
X130673588Y-74956069D01*
X130673581Y-74956078D01*
X130613317Y-75039023D01*
X130557987Y-75081689D01*
X130488374Y-75087667D01*
X130426579Y-75055061D01*
X130412683Y-75039023D01*
X130352418Y-74956078D01*
X130352414Y-74956072D01*
X130229928Y-74833586D01*
X130089788Y-74731768D01*
X129935445Y-74653127D01*
X129770701Y-74599598D01*
X129770699Y-74599597D01*
X129770698Y-74599597D01*
X129639271Y-74578781D01*
X129599611Y-74572500D01*
X129426389Y-74572500D01*
X129386728Y-74578781D01*
X129255302Y-74599597D01*
X129090552Y-74653128D01*
X128936211Y-74731768D01*
X128889755Y-74765521D01*
X128796072Y-74833586D01*
X128796070Y-74833588D01*
X128796069Y-74833588D01*
X128673588Y-74956069D01*
X128673581Y-74956078D01*
X128613317Y-75039023D01*
X128557987Y-75081689D01*
X128488374Y-75087667D01*
X128426579Y-75055061D01*
X128412683Y-75039023D01*
X128352418Y-74956078D01*
X128352414Y-74956072D01*
X128229928Y-74833586D01*
X128089788Y-74731768D01*
X127935445Y-74653127D01*
X127770701Y-74599598D01*
X127770699Y-74599597D01*
X127770698Y-74599597D01*
X127639271Y-74578781D01*
X127599611Y-74572500D01*
X127426389Y-74572500D01*
X127386728Y-74578781D01*
X127255302Y-74599597D01*
X127090552Y-74653128D01*
X126936211Y-74731768D01*
X126889755Y-74765521D01*
X126796072Y-74833586D01*
X126796070Y-74833588D01*
X126796069Y-74833588D01*
X126673588Y-74956069D01*
X126673581Y-74956078D01*
X126613317Y-75039023D01*
X126557987Y-75081689D01*
X126488374Y-75087667D01*
X126426579Y-75055061D01*
X126412683Y-75039023D01*
X126352418Y-74956078D01*
X126352414Y-74956072D01*
X126229928Y-74833586D01*
X126089788Y-74731768D01*
X125935445Y-74653127D01*
X125770701Y-74599598D01*
X125770699Y-74599597D01*
X125770698Y-74599597D01*
X125639271Y-74578781D01*
X125599611Y-74572500D01*
X125426389Y-74572500D01*
X125386728Y-74578781D01*
X125255302Y-74599597D01*
X125090552Y-74653128D01*
X124936211Y-74731768D01*
X124889755Y-74765521D01*
X124796072Y-74833586D01*
X124796070Y-74833588D01*
X124796069Y-74833588D01*
X124673588Y-74956069D01*
X124673588Y-74956070D01*
X124673586Y-74956072D01*
X124673582Y-74956078D01*
X124571768Y-75096211D01*
X124493128Y-75250552D01*
X124439597Y-75415302D01*
X124438708Y-75420914D01*
X124408774Y-75484046D01*
X124403917Y-75489188D01*
X124220105Y-75673000D01*
X123863000Y-75673000D01*
X123863000Y-75626922D01*
X123839148Y-75537905D01*
X123793070Y-75458095D01*
X123727905Y-75392930D01*
X123648095Y-75346852D01*
X123559078Y-75323000D01*
X123466922Y-75323000D01*
X123377905Y-75346852D01*
X123298095Y-75392930D01*
X123232930Y-75458095D01*
X123186852Y-75537905D01*
X123163000Y-75626922D01*
X123163000Y-75673000D01*
X122805893Y-75673000D01*
X122622082Y-75489189D01*
X122588597Y-75427866D01*
X122587290Y-75420905D01*
X122586402Y-75415300D01*
X122586402Y-75415299D01*
X122532871Y-75250550D01*
X122454231Y-75096211D01*
X122352414Y-74956072D01*
X122229928Y-74833586D01*
X122136245Y-74765521D01*
X122136243Y-74765519D01*
X122089791Y-74731770D01*
X122089790Y-74731769D01*
X122089788Y-74731768D01*
X121935445Y-74653127D01*
X121853881Y-74626625D01*
X123173733Y-74626625D01*
X123173733Y-74626626D01*
X123513000Y-74965893D01*
X123513001Y-74965893D01*
X123852266Y-74626626D01*
X123852266Y-74626625D01*
X123770586Y-74600086D01*
X123599571Y-74573000D01*
X123426429Y-74573000D01*
X123255414Y-74600086D01*
X123173733Y-74626625D01*
X121853881Y-74626625D01*
X121770701Y-74599598D01*
X121770699Y-74599597D01*
X121770698Y-74599597D01*
X121639271Y-74578781D01*
X121599611Y-74572500D01*
X121426389Y-74572500D01*
X121386728Y-74578781D01*
X121255302Y-74599597D01*
X121090552Y-74653128D01*
X120936211Y-74731768D01*
X120889755Y-74765521D01*
X120796072Y-74833586D01*
X120796070Y-74833588D01*
X120796069Y-74833588D01*
X120673588Y-74956069D01*
X120673581Y-74956078D01*
X120613317Y-75039023D01*
X120557987Y-75081689D01*
X120488374Y-75087667D01*
X120426579Y-75055061D01*
X120412683Y-75039023D01*
X120352418Y-74956078D01*
X120352414Y-74956072D01*
X120229928Y-74833586D01*
X120089788Y-74731768D01*
X119935445Y-74653127D01*
X119770701Y-74599598D01*
X119770699Y-74599597D01*
X119770698Y-74599597D01*
X119639271Y-74578781D01*
X119599611Y-74572500D01*
X119426389Y-74572500D01*
X119386728Y-74578781D01*
X119255302Y-74599597D01*
X119090552Y-74653128D01*
X118936211Y-74731768D01*
X118889755Y-74765521D01*
X118796072Y-74833586D01*
X118796070Y-74833588D01*
X118796069Y-74833588D01*
X118673588Y-74956069D01*
X118673588Y-74956070D01*
X118673586Y-74956072D01*
X118673582Y-74956078D01*
X118571768Y-75096211D01*
X118493128Y-75250552D01*
X118439597Y-75415302D01*
X118427895Y-75489188D01*
X118412500Y-75586389D01*
X118412500Y-75759611D01*
X118439598Y-75930701D01*
X118493127Y-76095445D01*
X118571768Y-76249788D01*
X118673586Y-76389928D01*
X118796072Y-76512414D01*
X118796078Y-76512418D01*
X118879023Y-76572683D01*
X118921689Y-76628013D01*
X118927667Y-76697626D01*
X118895061Y-76759421D01*
X118879023Y-76773317D01*
X118796078Y-76833581D01*
X118796069Y-76833588D01*
X118673588Y-76956069D01*
X118673588Y-76956070D01*
X118673586Y-76956072D01*
X118673582Y-76956078D01*
X118571768Y-77096211D01*
X118493128Y-77250552D01*
X118439597Y-77415302D01*
X118412500Y-77586389D01*
X118412500Y-77759610D01*
X118430365Y-77872410D01*
X118439598Y-77930701D01*
X118493127Y-78095445D01*
X118571768Y-78249788D01*
X118673586Y-78389928D01*
X118796072Y-78512414D01*
X118936212Y-78614232D01*
X119090555Y-78692873D01*
X119255299Y-78746402D01*
X119426389Y-78773500D01*
X119426390Y-78773500D01*
X119599610Y-78773500D01*
X119599611Y-78773500D01*
X119770701Y-78746402D01*
X119935445Y-78692873D01*
X120089788Y-78614232D01*
X120229928Y-78512414D01*
X120352414Y-78389928D01*
X120412682Y-78306975D01*
X120468012Y-78264311D01*
X120537626Y-78258332D01*
X120599421Y-78290938D01*
X120613315Y-78306973D01*
X120673586Y-78389928D01*
X120796072Y-78512414D01*
X120936212Y-78614232D01*
X120996551Y-78644976D01*
X121047346Y-78692948D01*
X121064142Y-78760769D01*
X121041606Y-78826904D01*
X121027937Y-78843141D01*
X120034899Y-79836181D01*
X119973576Y-79869666D01*
X119947218Y-79872500D01*
X116878783Y-79872500D01*
X116811744Y-79852815D01*
X116791102Y-79836181D01*
X114949819Y-77994898D01*
X114916334Y-77933575D01*
X114913500Y-77907217D01*
X114913500Y-77754902D01*
X114876553Y-77521631D01*
X114803566Y-77297003D01*
X114725608Y-77144003D01*
X114696343Y-77086567D01*
X114557517Y-76895490D01*
X114390510Y-76728483D01*
X114199433Y-76589657D01*
X114166118Y-76572682D01*
X113988996Y-76482433D01*
X113764368Y-76409446D01*
X113531097Y-76372500D01*
X113531092Y-76372500D01*
X113294908Y-76372500D01*
X113294903Y-76372500D01*
X113061631Y-76409446D01*
X112837003Y-76482433D01*
X112626566Y-76589657D01*
X112545750Y-76648374D01*
X112435490Y-76728483D01*
X112435488Y-76728485D01*
X112435487Y-76728485D01*
X112268485Y-76895487D01*
X112268485Y-76895488D01*
X112268483Y-76895490D01*
X112224463Y-76956078D01*
X112129657Y-77086566D01*
X112022433Y-77297003D01*
X111949446Y-77521631D01*
X111912500Y-77754902D01*
X111912500Y-77991097D01*
X111949446Y-78224368D01*
X112022433Y-78448996D01*
X112114340Y-78629372D01*
X112129657Y-78659433D01*
X112268483Y-78850510D01*
X112435490Y-79017517D01*
X112626567Y-79156343D01*
X112725991Y-79207002D01*
X112837003Y-79263566D01*
X112837005Y-79263566D01*
X112837008Y-79263568D01*
X112928652Y-79293345D01*
X113061631Y-79336553D01*
X113294903Y-79373500D01*
X113294908Y-79373500D01*
X113447218Y-79373500D01*
X113514257Y-79393185D01*
X113534899Y-79409819D01*
X115775215Y-81650137D01*
X115775219Y-81650140D01*
X115939079Y-81759628D01*
X115939085Y-81759631D01*
X115939086Y-81759632D01*
X116121165Y-81835052D01*
X116282389Y-81867121D01*
X116314457Y-81873499D01*
X116314458Y-81873500D01*
X116314459Y-81873500D01*
X116314460Y-81873500D01*
X116511541Y-81873500D01*
X119208500Y-81873500D01*
X119275539Y-81893185D01*
X119321294Y-81945989D01*
X119332500Y-81997500D01*
X119332500Y-83612800D01*
X119312815Y-83679839D01*
X119303506Y-83692365D01*
X119177949Y-83865182D01*
X119173484Y-83873946D01*
X119125509Y-83924742D01*
X119057688Y-83941536D01*
X118991553Y-83918998D01*
X118952516Y-83873946D01*
X118948050Y-83865182D01*
X118823109Y-83693213D01*
X118672786Y-83542890D01*
X118500820Y-83417951D01*
X118311414Y-83321444D01*
X118311413Y-83321443D01*
X118311412Y-83321443D01*
X118109243Y-83255754D01*
X118109241Y-83255753D01*
X118109240Y-83255753D01*
X117947957Y-83230208D01*
X117899287Y-83222500D01*
X117686713Y-83222500D01*
X117638042Y-83230208D01*
X117476760Y-83255753D01*
X117274585Y-83321444D01*
X117085179Y-83417951D01*
X116913213Y-83542890D01*
X116762890Y-83693213D01*
X116637949Y-83865182D01*
X116633484Y-83873946D01*
X116585509Y-83924742D01*
X116517688Y-83941536D01*
X116451553Y-83918998D01*
X116412516Y-83873946D01*
X116408050Y-83865182D01*
X116283109Y-83693213D01*
X116132786Y-83542890D01*
X115960820Y-83417951D01*
X115771414Y-83321444D01*
X115771413Y-83321443D01*
X115771412Y-83321443D01*
X115569243Y-83255754D01*
X115569241Y-83255753D01*
X115569240Y-83255753D01*
X115407957Y-83230208D01*
X115359287Y-83222500D01*
X115146713Y-83222500D01*
X115098042Y-83230208D01*
X114936760Y-83255753D01*
X114734585Y-83321444D01*
X114545179Y-83417951D01*
X114373213Y-83542890D01*
X114222890Y-83693213D01*
X114097951Y-83865179D01*
X114001444Y-84054585D01*
X113935753Y-84256760D01*
X113902500Y-84466713D01*
X113902500Y-84679286D01*
X113935753Y-84889239D01*
X113987722Y-85049182D01*
X113989717Y-85119023D01*
X113953637Y-85178856D01*
X113890936Y-85209684D01*
X113869791Y-85211500D01*
X111557517Y-85211500D01*
X111490478Y-85191815D01*
X111488626Y-85190602D01*
X111402868Y-85133300D01*
X111402859Y-85133295D01*
X111248082Y-85069184D01*
X111248074Y-85069182D01*
X111083771Y-85036500D01*
X111083767Y-85036500D01*
X110916233Y-85036500D01*
X110916228Y-85036500D01*
X110751925Y-85069182D01*
X110751917Y-85069184D01*
X110597139Y-85133295D01*
X110457837Y-85226373D01*
X110339373Y-85344837D01*
X110246295Y-85484139D01*
X110182184Y-85638917D01*
X110182182Y-85638925D01*
X110149500Y-85803228D01*
X108548210Y-85803228D01*
X108585246Y-85689243D01*
X108618500Y-85479287D01*
X108618500Y-85266713D01*
X108585246Y-85056757D01*
X108519557Y-84854588D01*
X108423051Y-84665184D01*
X108423049Y-84665181D01*
X108423048Y-84665179D01*
X108298109Y-84493213D01*
X108147792Y-84342896D01*
X108147784Y-84342890D01*
X107983204Y-84223316D01*
X107940540Y-84167989D01*
X107934561Y-84098376D01*
X107967166Y-84036580D01*
X107983199Y-84022686D01*
X108147792Y-83903104D01*
X108298104Y-83752792D01*
X108298106Y-83752788D01*
X108298109Y-83752786D01*
X108423048Y-83580820D01*
X108423047Y-83580820D01*
X108423051Y-83580816D01*
X108519557Y-83391412D01*
X108585246Y-83189243D01*
X108618500Y-82979287D01*
X108618500Y-82766713D01*
X108585246Y-82556757D01*
X108519557Y-82354588D01*
X108423051Y-82165184D01*
X108423049Y-82165181D01*
X108423048Y-82165179D01*
X108298109Y-81993213D01*
X108147790Y-81842894D01*
X108147785Y-81842890D01*
X107982781Y-81723008D01*
X107940115Y-81667678D01*
X107934136Y-81598065D01*
X107966741Y-81536270D01*
X107982781Y-81522371D01*
X108147466Y-81402721D01*
X108297723Y-81252464D01*
X108297727Y-81252459D01*
X108422620Y-81080557D01*
X108519096Y-80891215D01*
X108525014Y-80873001D01*
X108525014Y-80873000D01*
X105760986Y-80873000D01*
X105760985Y-80873001D01*
X105766903Y-80891215D01*
X105863379Y-81080557D01*
X105988272Y-81252459D01*
X105988276Y-81252464D01*
X106138535Y-81402723D01*
X106138540Y-81402727D01*
X106303218Y-81522372D01*
X106345884Y-81577701D01*
X106351863Y-81647315D01*
X106319258Y-81709110D01*
X106303218Y-81723008D01*
X106138214Y-81842890D01*
X106138209Y-81842894D01*
X105987890Y-81993213D01*
X105862951Y-82165179D01*
X105766444Y-82354585D01*
X105700753Y-82556760D01*
X105667500Y-82766713D01*
X97613500Y-82766713D01*
X97613500Y-80310465D01*
X106668000Y-80310465D01*
X106668000Y-80435535D01*
X106700370Y-80556343D01*
X106762905Y-80664657D01*
X106851343Y-80753095D01*
X106959657Y-80815630D01*
X107080465Y-80848000D01*
X107205535Y-80848000D01*
X107326343Y-80815630D01*
X107434657Y-80753095D01*
X107523095Y-80664657D01*
X107585630Y-80556343D01*
X107618000Y-80435535D01*
X107618000Y-80310465D01*
X107585630Y-80189657D01*
X107523095Y-80081343D01*
X107434657Y-79992905D01*
X107326343Y-79930370D01*
X107205535Y-79898000D01*
X107080465Y-79898000D01*
X106959657Y-79930370D01*
X106851343Y-79992905D01*
X106762905Y-80081343D01*
X106700370Y-80189657D01*
X106668000Y-80310465D01*
X97613500Y-80310465D01*
X97613500Y-77222983D01*
X105667500Y-77222983D01*
X105667500Y-78523001D01*
X105667501Y-78523018D01*
X105678000Y-78625796D01*
X105678001Y-78625799D01*
X105733185Y-78792331D01*
X105733187Y-78792336D01*
X105754509Y-78826904D01*
X105825288Y-78941656D01*
X105949344Y-79065712D01*
X106096279Y-79156342D01*
X106104558Y-79161448D01*
X106151283Y-79213396D01*
X106162506Y-79282358D01*
X106134663Y-79346441D01*
X106127144Y-79354668D01*
X105988271Y-79493541D01*
X105863379Y-79665442D01*
X105766903Y-79854784D01*
X105760985Y-79872998D01*
X105760986Y-79873000D01*
X108525014Y-79873000D01*
X108525014Y-79872998D01*
X108519096Y-79854784D01*
X108422620Y-79665442D01*
X108297727Y-79493540D01*
X108297723Y-79493535D01*
X108158856Y-79354668D01*
X108125371Y-79293345D01*
X108130355Y-79223653D01*
X108172227Y-79167720D01*
X108181441Y-79161448D01*
X108187331Y-79157814D01*
X108187334Y-79157814D01*
X108336656Y-79065712D01*
X108460712Y-78941656D01*
X108552814Y-78792334D01*
X108607999Y-78625797D01*
X108618500Y-78523009D01*
X108618499Y-77222992D01*
X108607999Y-77120203D01*
X108552814Y-76953666D01*
X108460712Y-76804344D01*
X108336656Y-76680288D01*
X108187334Y-76588186D01*
X108020797Y-76533001D01*
X108020795Y-76533000D01*
X107918010Y-76522500D01*
X106367998Y-76522500D01*
X106367981Y-76522501D01*
X106265203Y-76533000D01*
X106265200Y-76533001D01*
X106098668Y-76588185D01*
X106098663Y-76588187D01*
X105949342Y-76680289D01*
X105825289Y-76804342D01*
X105733187Y-76953663D01*
X105733185Y-76953668D01*
X105729259Y-76965517D01*
X105678001Y-77120203D01*
X105678001Y-77120204D01*
X105678000Y-77120204D01*
X105667500Y-77222983D01*
X97613500Y-77222983D01*
X97613500Y-68376479D01*
X97613695Y-68369526D01*
X97620477Y-68248766D01*
X97621968Y-68222222D01*
X98112500Y-68222222D01*
X98112500Y-68523775D01*
X98112501Y-68523792D01*
X98151861Y-68822765D01*
X98229913Y-69114059D01*
X98345314Y-69392660D01*
X98345318Y-69392670D01*
X98496099Y-69653830D01*
X98679679Y-69893077D01*
X98679685Y-69893084D01*
X98892914Y-70106313D01*
X98892921Y-70106319D01*
X99132168Y-70289899D01*
X99393328Y-70440680D01*
X99393329Y-70440680D01*
X99393332Y-70440682D01*
X99579072Y-70517618D01*
X99671939Y-70556085D01*
X99671940Y-70556085D01*
X99671942Y-70556086D01*
X99963232Y-70634137D01*
X100262217Y-70673499D01*
X100262224Y-70673499D01*
X100563776Y-70673499D01*
X100563783Y-70673499D01*
X100862768Y-70634137D01*
X101154058Y-70556086D01*
X101432668Y-70440682D01*
X101693832Y-70289899D01*
X101933080Y-70106318D01*
X102146319Y-69893079D01*
X102329900Y-69653831D01*
X102480683Y-69392667D01*
X102596087Y-69114057D01*
X102674138Y-68822767D01*
X102713500Y-68523782D01*
X102713500Y-68222216D01*
X102674138Y-67923231D01*
X102663708Y-67884304D01*
X117712500Y-67884304D01*
X117712500Y-68061695D01*
X117747103Y-68235658D01*
X117747106Y-68235667D01*
X117814983Y-68399540D01*
X117814990Y-68399553D01*
X117913535Y-68547034D01*
X117913538Y-68547038D01*
X118038961Y-68672461D01*
X118038965Y-68672464D01*
X118186446Y-68771009D01*
X118186459Y-68771016D01*
X118309363Y-68821923D01*
X118350334Y-68838894D01*
X118350336Y-68838894D01*
X118350341Y-68838896D01*
X118524304Y-68873499D01*
X118524307Y-68873500D01*
X118524309Y-68873500D01*
X118701693Y-68873500D01*
X118701694Y-68873499D01*
X118759682Y-68861964D01*
X118875658Y-68838896D01*
X118875661Y-68838894D01*
X118875666Y-68838894D01*
X119039547Y-68771013D01*
X119187035Y-68672464D01*
X119312464Y-68547035D01*
X119411013Y-68399547D01*
X119478894Y-68235666D01*
X119481569Y-68222222D01*
X119513499Y-68061695D01*
X119513500Y-68061693D01*
X119513500Y-67884306D01*
X119513499Y-67884304D01*
X147512500Y-67884304D01*
X147512500Y-68061695D01*
X147547103Y-68235658D01*
X147547106Y-68235667D01*
X147614983Y-68399540D01*
X147614990Y-68399553D01*
X147713535Y-68547034D01*
X147713538Y-68547038D01*
X147838961Y-68672461D01*
X147838965Y-68672464D01*
X147986446Y-68771009D01*
X147986459Y-68771016D01*
X148109363Y-68821923D01*
X148150334Y-68838894D01*
X148150336Y-68838894D01*
X148150341Y-68838896D01*
X148324304Y-68873499D01*
X148324307Y-68873500D01*
X148324309Y-68873500D01*
X148501693Y-68873500D01*
X148501694Y-68873499D01*
X148559682Y-68861964D01*
X148675658Y-68838896D01*
X148675661Y-68838894D01*
X148675666Y-68838894D01*
X148839547Y-68771013D01*
X148987035Y-68672464D01*
X149112464Y-68547035D01*
X149211013Y-68399547D01*
X149278894Y-68235666D01*
X149281569Y-68222222D01*
X158112500Y-68222222D01*
X158112500Y-68523775D01*
X158112501Y-68523792D01*
X158151861Y-68822765D01*
X158229913Y-69114059D01*
X158345314Y-69392660D01*
X158345318Y-69392670D01*
X158496099Y-69653830D01*
X158679679Y-69893077D01*
X158679685Y-69893084D01*
X158892914Y-70106313D01*
X158892921Y-70106319D01*
X159132168Y-70289899D01*
X159393328Y-70440680D01*
X159393329Y-70440680D01*
X159393332Y-70440682D01*
X159579072Y-70517618D01*
X159671939Y-70556085D01*
X159671940Y-70556085D01*
X159671942Y-70556086D01*
X159963232Y-70634137D01*
X160262217Y-70673499D01*
X160262224Y-70673499D01*
X160563776Y-70673499D01*
X160563783Y-70673499D01*
X160862768Y-70634137D01*
X161154058Y-70556086D01*
X161432668Y-70440682D01*
X161693832Y-70289899D01*
X161933080Y-70106318D01*
X162146319Y-69893079D01*
X162329900Y-69653831D01*
X162480683Y-69392667D01*
X162596087Y-69114057D01*
X162674138Y-68822767D01*
X162713500Y-68523782D01*
X162713500Y-68222216D01*
X162674138Y-67923231D01*
X162596087Y-67631941D01*
X162480683Y-67353331D01*
X162460107Y-67317693D01*
X162329900Y-67092167D01*
X162146320Y-66852920D01*
X162146314Y-66852913D01*
X161933085Y-66639684D01*
X161933078Y-66639678D01*
X161693831Y-66456098D01*
X161432671Y-66305317D01*
X161432661Y-66305313D01*
X161154060Y-66189912D01*
X160862766Y-66111860D01*
X160563793Y-66072500D01*
X160563788Y-66072499D01*
X160563783Y-66072499D01*
X160262217Y-66072499D01*
X160262211Y-66072499D01*
X160262206Y-66072500D01*
X159963233Y-66111860D01*
X159671939Y-66189912D01*
X159393338Y-66305313D01*
X159393328Y-66305317D01*
X159132168Y-66456098D01*
X158892921Y-66639678D01*
X158892914Y-66639684D01*
X158679685Y-66852913D01*
X158679679Y-66852920D01*
X158496099Y-67092167D01*
X158345318Y-67353327D01*
X158345314Y-67353337D01*
X158229913Y-67631938D01*
X158151861Y-67923232D01*
X158112501Y-68222205D01*
X158112500Y-68222222D01*
X149281569Y-68222222D01*
X149287189Y-68193966D01*
X149287189Y-68193965D01*
X149313500Y-68061693D01*
X149313500Y-67884306D01*
X149313499Y-67884304D01*
X149278896Y-67710341D01*
X149278893Y-67710332D01*
X149211016Y-67546459D01*
X149211009Y-67546446D01*
X149112464Y-67398965D01*
X149112461Y-67398961D01*
X148987038Y-67273538D01*
X148987034Y-67273535D01*
X148839553Y-67174990D01*
X148839540Y-67174983D01*
X148675667Y-67107106D01*
X148675658Y-67107103D01*
X148501694Y-67072500D01*
X148501691Y-67072500D01*
X148324309Y-67072500D01*
X148324306Y-67072500D01*
X148150341Y-67107103D01*
X148150332Y-67107106D01*
X147986459Y-67174983D01*
X147986446Y-67174990D01*
X147838965Y-67273535D01*
X147838961Y-67273538D01*
X147713538Y-67398961D01*
X147713535Y-67398965D01*
X147614990Y-67546446D01*
X147614983Y-67546459D01*
X147547106Y-67710332D01*
X147547103Y-67710341D01*
X147512500Y-67884304D01*
X119513499Y-67884304D01*
X119478896Y-67710341D01*
X119478893Y-67710332D01*
X119411016Y-67546459D01*
X119411009Y-67546446D01*
X119312464Y-67398965D01*
X119312461Y-67398961D01*
X119187038Y-67273538D01*
X119187034Y-67273535D01*
X119039553Y-67174990D01*
X119039540Y-67174983D01*
X118875667Y-67107106D01*
X118875658Y-67107103D01*
X118701694Y-67072500D01*
X118701691Y-67072500D01*
X118524309Y-67072500D01*
X118524306Y-67072500D01*
X118350341Y-67107103D01*
X118350332Y-67107106D01*
X118186459Y-67174983D01*
X118186446Y-67174990D01*
X118038965Y-67273535D01*
X118038961Y-67273538D01*
X117913538Y-67398961D01*
X117913535Y-67398965D01*
X117814990Y-67546446D01*
X117814983Y-67546459D01*
X117747106Y-67710332D01*
X117747103Y-67710341D01*
X117712500Y-67884304D01*
X102663708Y-67884304D01*
X102596087Y-67631941D01*
X102480683Y-67353331D01*
X102460107Y-67317693D01*
X102329900Y-67092167D01*
X102146320Y-66852920D01*
X102146314Y-66852913D01*
X101933085Y-66639684D01*
X101933078Y-66639678D01*
X101693831Y-66456098D01*
X101432671Y-66305317D01*
X101432661Y-66305313D01*
X101154060Y-66189912D01*
X100862766Y-66111860D01*
X100563793Y-66072500D01*
X100563788Y-66072499D01*
X100563783Y-66072499D01*
X100262217Y-66072499D01*
X100262211Y-66072499D01*
X100262206Y-66072500D01*
X99963233Y-66111860D01*
X99671939Y-66189912D01*
X99393338Y-66305313D01*
X99393328Y-66305317D01*
X99132168Y-66456098D01*
X98892921Y-66639678D01*
X98892914Y-66639684D01*
X98679685Y-66852913D01*
X98679679Y-66852920D01*
X98496099Y-67092167D01*
X98345318Y-67353327D01*
X98345314Y-67353337D01*
X98229913Y-67631938D01*
X98151861Y-67923232D01*
X98112501Y-68222205D01*
X98112500Y-68222222D01*
X97621968Y-68222222D01*
X97630713Y-68066494D01*
X97632267Y-68052700D01*
X97682523Y-67756914D01*
X97685616Y-67743362D01*
X97695130Y-67710341D01*
X97768673Y-67455067D01*
X97773265Y-67441946D01*
X97888078Y-67164761D01*
X97894097Y-67152262D01*
X98039232Y-66889663D01*
X98046625Y-66877897D01*
X98046631Y-66877889D01*
X98220239Y-66633210D01*
X98228899Y-66622352D01*
X98428824Y-66398635D01*
X98438636Y-66388823D01*
X98662357Y-66188893D01*
X98673211Y-66180238D01*
X98917903Y-66006620D01*
X98929669Y-65999228D01*
X99192263Y-65854096D01*
X99204762Y-65848077D01*
X99481951Y-65733262D01*
X99495068Y-65728672D01*
X99783369Y-65645613D01*
X99796915Y-65642522D01*
X100092701Y-65592266D01*
X100106495Y-65590712D01*
X100409529Y-65573694D01*
X100416482Y-65573499D01*
X100452883Y-65573499D01*
X160373118Y-65573499D01*
X160409519Y-65573499D01*
X160416472Y-65573694D01*
G37*
%TD.AperFunction*%
%TD*%
M02*
