%TF.GenerationSoftware,KiCad,Pcbnew,10.0.1*%
%TF.CreationDate,2026-09-02T21:13:54-04:00*%
%TF.ProjectId,TMR-26-1-14 ODrive S1 Breakout Board V1.2,544d522d-3236-42d3-912d-3134204f4472,rev?*%
%TF.SameCoordinates,Original*%
%TF.FileFunction,Legend,Top*%
%TF.FilePolarity,Positive*%
%FSLAX46Y46*%
G04 Gerber Fmt 4.6, Leading zero omitted, Abs format (unit mm)*
G04 Created by KiCad (PCBNEW 10.0.1) date 2026-09-02 21:13:54*
%MOMM*%
%LPD*%
G01*
G04 APERTURE LIST*
%ADD10C,0.100000*%
%ADD11C,0.150000*%
%ADD12C,0.158750*%
%ADD13C,0.120000*%
%ADD14C,0.152400*%
%ADD15C,0.508000*%
%ADD16C,0.000000*%
%ADD17C,0.200000*%
G04 APERTURE END LIST*
D10*
X147913000Y-106873000D02*
X160413000Y-106873000D01*
X160413000Y-103373000D02*
X160913000Y-103373000D01*
X160913000Y-100373000D02*
X162913000Y-100373000D01*
X162913000Y-100373000D02*
X162913000Y-98373000D01*
X160413000Y-106873000D02*
X160413000Y-103373000D01*
X147913000Y-98373000D02*
X147913000Y-106873000D01*
X162913000Y-98373000D02*
X147913000Y-98373000D01*
X160913000Y-103373000D02*
X160913000Y-100373000D01*
D11*
X123380157Y-95619554D02*
X122480157Y-95619554D01*
X122908728Y-95619554D02*
X122908728Y-95105268D01*
X123380157Y-95105268D02*
X122480157Y-95105268D01*
X123123014Y-94719554D02*
X123123014Y-94290983D01*
X123380157Y-94805268D02*
X122480157Y-94505268D01*
X122480157Y-94505268D02*
X123380157Y-94205268D01*
X123380157Y-93476696D02*
X123380157Y-93905268D01*
X123380157Y-93905268D02*
X122480157Y-93905268D01*
X123380157Y-92748125D02*
X123380157Y-93176697D01*
X123380157Y-93176697D02*
X122480157Y-93176697D01*
X123465871Y-92662412D02*
X123465871Y-91976697D01*
X123294442Y-91248126D02*
X123337300Y-91290983D01*
X123337300Y-91290983D02*
X123380157Y-91419555D01*
X123380157Y-91419555D02*
X123380157Y-91505269D01*
X123380157Y-91505269D02*
X123337300Y-91633840D01*
X123337300Y-91633840D02*
X123251585Y-91719555D01*
X123251585Y-91719555D02*
X123165871Y-91762412D01*
X123165871Y-91762412D02*
X122994442Y-91805269D01*
X122994442Y-91805269D02*
X122865871Y-91805269D01*
X122865871Y-91805269D02*
X122694442Y-91762412D01*
X122694442Y-91762412D02*
X122608728Y-91719555D01*
X122608728Y-91719555D02*
X122523014Y-91633840D01*
X122523014Y-91633840D02*
X122480157Y-91505269D01*
X122480157Y-91505269D02*
X122480157Y-91419555D01*
X122480157Y-91419555D02*
X122523014Y-91290983D01*
X122523014Y-91290983D02*
X122565871Y-91248126D01*
X109321207Y-102409486D02*
X108987874Y-101933295D01*
X108749779Y-102409486D02*
X108749779Y-101409486D01*
X108749779Y-101409486D02*
X109130731Y-101409486D01*
X109130731Y-101409486D02*
X109225969Y-101457105D01*
X109225969Y-101457105D02*
X109273588Y-101504724D01*
X109273588Y-101504724D02*
X109321207Y-101599962D01*
X109321207Y-101599962D02*
X109321207Y-101742819D01*
X109321207Y-101742819D02*
X109273588Y-101838057D01*
X109273588Y-101838057D02*
X109225969Y-101885676D01*
X109225969Y-101885676D02*
X109130731Y-101933295D01*
X109130731Y-101933295D02*
X108749779Y-101933295D01*
X109702160Y-102361867D02*
X109845017Y-102409486D01*
X109845017Y-102409486D02*
X110083112Y-102409486D01*
X110083112Y-102409486D02*
X110178350Y-102361867D01*
X110178350Y-102361867D02*
X110225969Y-102314247D01*
X110225969Y-102314247D02*
X110273588Y-102219009D01*
X110273588Y-102219009D02*
X110273588Y-102123771D01*
X110273588Y-102123771D02*
X110225969Y-102028533D01*
X110225969Y-102028533D02*
X110178350Y-101980914D01*
X110178350Y-101980914D02*
X110083112Y-101933295D01*
X110083112Y-101933295D02*
X109892636Y-101885676D01*
X109892636Y-101885676D02*
X109797398Y-101838057D01*
X109797398Y-101838057D02*
X109749779Y-101790438D01*
X109749779Y-101790438D02*
X109702160Y-101695200D01*
X109702160Y-101695200D02*
X109702160Y-101599962D01*
X109702160Y-101599962D02*
X109749779Y-101504724D01*
X109749779Y-101504724D02*
X109797398Y-101457105D01*
X109797398Y-101457105D02*
X109892636Y-101409486D01*
X109892636Y-101409486D02*
X110130731Y-101409486D01*
X110130731Y-101409486D02*
X110273588Y-101457105D01*
X111130731Y-101742819D02*
X111130731Y-102409486D01*
X110892636Y-101361867D02*
X110654541Y-102076152D01*
X110654541Y-102076152D02*
X111273588Y-102076152D01*
X111797398Y-101838057D02*
X111702160Y-101790438D01*
X111702160Y-101790438D02*
X111654541Y-101742819D01*
X111654541Y-101742819D02*
X111606922Y-101647581D01*
X111606922Y-101647581D02*
X111606922Y-101599962D01*
X111606922Y-101599962D02*
X111654541Y-101504724D01*
X111654541Y-101504724D02*
X111702160Y-101457105D01*
X111702160Y-101457105D02*
X111797398Y-101409486D01*
X111797398Y-101409486D02*
X111987874Y-101409486D01*
X111987874Y-101409486D02*
X112083112Y-101457105D01*
X112083112Y-101457105D02*
X112130731Y-101504724D01*
X112130731Y-101504724D02*
X112178350Y-101599962D01*
X112178350Y-101599962D02*
X112178350Y-101647581D01*
X112178350Y-101647581D02*
X112130731Y-101742819D01*
X112130731Y-101742819D02*
X112083112Y-101790438D01*
X112083112Y-101790438D02*
X111987874Y-101838057D01*
X111987874Y-101838057D02*
X111797398Y-101838057D01*
X111797398Y-101838057D02*
X111702160Y-101885676D01*
X111702160Y-101885676D02*
X111654541Y-101933295D01*
X111654541Y-101933295D02*
X111606922Y-102028533D01*
X111606922Y-102028533D02*
X111606922Y-102219009D01*
X111606922Y-102219009D02*
X111654541Y-102314247D01*
X111654541Y-102314247D02*
X111702160Y-102361867D01*
X111702160Y-102361867D02*
X111797398Y-102409486D01*
X111797398Y-102409486D02*
X111987874Y-102409486D01*
X111987874Y-102409486D02*
X112083112Y-102361867D01*
X112083112Y-102361867D02*
X112130731Y-102314247D01*
X112130731Y-102314247D02*
X112178350Y-102219009D01*
X112178350Y-102219009D02*
X112178350Y-102028533D01*
X112178350Y-102028533D02*
X112130731Y-101933295D01*
X112130731Y-101933295D02*
X112083112Y-101885676D01*
X112083112Y-101885676D02*
X111987874Y-101838057D01*
X113083112Y-101409486D02*
X112606922Y-101409486D01*
X112606922Y-101409486D02*
X112559303Y-101885676D01*
X112559303Y-101885676D02*
X112606922Y-101838057D01*
X112606922Y-101838057D02*
X112702160Y-101790438D01*
X112702160Y-101790438D02*
X112940255Y-101790438D01*
X112940255Y-101790438D02*
X113035493Y-101838057D01*
X113035493Y-101838057D02*
X113083112Y-101885676D01*
X113083112Y-101885676D02*
X113130731Y-101980914D01*
X113130731Y-101980914D02*
X113130731Y-102219009D01*
X113130731Y-102219009D02*
X113083112Y-102314247D01*
X113083112Y-102314247D02*
X113035493Y-102361867D01*
X113035493Y-102361867D02*
X112940255Y-102409486D01*
X112940255Y-102409486D02*
X112702160Y-102409486D01*
X112702160Y-102409486D02*
X112606922Y-102361867D01*
X112606922Y-102361867D02*
X112559303Y-102314247D01*
X113321208Y-102504724D02*
X114083112Y-102504724D01*
X114654541Y-101885676D02*
X114797398Y-101933295D01*
X114797398Y-101933295D02*
X114845017Y-101980914D01*
X114845017Y-101980914D02*
X114892636Y-102076152D01*
X114892636Y-102076152D02*
X114892636Y-102219009D01*
X114892636Y-102219009D02*
X114845017Y-102314247D01*
X114845017Y-102314247D02*
X114797398Y-102361867D01*
X114797398Y-102361867D02*
X114702160Y-102409486D01*
X114702160Y-102409486D02*
X114321208Y-102409486D01*
X114321208Y-102409486D02*
X114321208Y-101409486D01*
X114321208Y-101409486D02*
X114654541Y-101409486D01*
X114654541Y-101409486D02*
X114749779Y-101457105D01*
X114749779Y-101457105D02*
X114797398Y-101504724D01*
X114797398Y-101504724D02*
X114845017Y-101599962D01*
X114845017Y-101599962D02*
X114845017Y-101695200D01*
X114845017Y-101695200D02*
X114797398Y-101790438D01*
X114797398Y-101790438D02*
X114749779Y-101838057D01*
X114749779Y-101838057D02*
X114654541Y-101885676D01*
X114654541Y-101885676D02*
X114321208Y-101885676D01*
X128295057Y-95619554D02*
X127395057Y-95619554D01*
X127823628Y-95619554D02*
X127823628Y-95105268D01*
X128295057Y-95105268D02*
X127395057Y-95105268D01*
X128037914Y-94719554D02*
X128037914Y-94290983D01*
X128295057Y-94805268D02*
X127395057Y-94505268D01*
X127395057Y-94505268D02*
X128295057Y-94205268D01*
X128295057Y-93476696D02*
X128295057Y-93905268D01*
X128295057Y-93905268D02*
X127395057Y-93905268D01*
X128295057Y-92748125D02*
X128295057Y-93176697D01*
X128295057Y-93176697D02*
X127395057Y-93176697D01*
X128380771Y-92662412D02*
X128380771Y-91976697D01*
X128037914Y-91805269D02*
X128037914Y-91376698D01*
X128295057Y-91890983D02*
X127395057Y-91590983D01*
X127395057Y-91590983D02*
X128295057Y-91290983D01*
X145542819Y-89397398D02*
X145542819Y-89587874D01*
X145542819Y-89587874D02*
X145590438Y-89683112D01*
X145590438Y-89683112D02*
X145638057Y-89730731D01*
X145638057Y-89730731D02*
X145780914Y-89825969D01*
X145780914Y-89825969D02*
X145971390Y-89873588D01*
X145971390Y-89873588D02*
X146352342Y-89873588D01*
X146352342Y-89873588D02*
X146447580Y-89825969D01*
X146447580Y-89825969D02*
X146495200Y-89778350D01*
X146495200Y-89778350D02*
X146542819Y-89683112D01*
X146542819Y-89683112D02*
X146542819Y-89492636D01*
X146542819Y-89492636D02*
X146495200Y-89397398D01*
X146495200Y-89397398D02*
X146447580Y-89349779D01*
X146447580Y-89349779D02*
X146352342Y-89302160D01*
X146352342Y-89302160D02*
X146114247Y-89302160D01*
X146114247Y-89302160D02*
X146019009Y-89349779D01*
X146019009Y-89349779D02*
X145971390Y-89397398D01*
X145971390Y-89397398D02*
X145923771Y-89492636D01*
X145923771Y-89492636D02*
X145923771Y-89683112D01*
X145923771Y-89683112D02*
X145971390Y-89778350D01*
X145971390Y-89778350D02*
X146019009Y-89825969D01*
X146019009Y-89825969D02*
X146114247Y-89873588D01*
X120388057Y-90725969D02*
X120340438Y-90678350D01*
X120340438Y-90678350D02*
X120292819Y-90583112D01*
X120292819Y-90583112D02*
X120292819Y-90345017D01*
X120292819Y-90345017D02*
X120340438Y-90249779D01*
X120340438Y-90249779D02*
X120388057Y-90202160D01*
X120388057Y-90202160D02*
X120483295Y-90154541D01*
X120483295Y-90154541D02*
X120578533Y-90154541D01*
X120578533Y-90154541D02*
X120721390Y-90202160D01*
X120721390Y-90202160D02*
X121292819Y-90773588D01*
X121292819Y-90773588D02*
X121292819Y-90154541D01*
X120292819Y-89297398D02*
X120292819Y-89487874D01*
X120292819Y-89487874D02*
X120340438Y-89583112D01*
X120340438Y-89583112D02*
X120388057Y-89630731D01*
X120388057Y-89630731D02*
X120530914Y-89725969D01*
X120530914Y-89725969D02*
X120721390Y-89773588D01*
X120721390Y-89773588D02*
X121102342Y-89773588D01*
X121102342Y-89773588D02*
X121197580Y-89725969D01*
X121197580Y-89725969D02*
X121245200Y-89678350D01*
X121245200Y-89678350D02*
X121292819Y-89583112D01*
X121292819Y-89583112D02*
X121292819Y-89392636D01*
X121292819Y-89392636D02*
X121245200Y-89297398D01*
X121245200Y-89297398D02*
X121197580Y-89249779D01*
X121197580Y-89249779D02*
X121102342Y-89202160D01*
X121102342Y-89202160D02*
X120864247Y-89202160D01*
X120864247Y-89202160D02*
X120769009Y-89249779D01*
X120769009Y-89249779D02*
X120721390Y-89297398D01*
X120721390Y-89297398D02*
X120673771Y-89392636D01*
X120673771Y-89392636D02*
X120673771Y-89583112D01*
X120673771Y-89583112D02*
X120721390Y-89678350D01*
X120721390Y-89678350D02*
X120769009Y-89725969D01*
X120769009Y-89725969D02*
X120864247Y-89773588D01*
X99408207Y-74742819D02*
X99074874Y-74266628D01*
X98836779Y-74742819D02*
X98836779Y-73742819D01*
X98836779Y-73742819D02*
X99217731Y-73742819D01*
X99217731Y-73742819D02*
X99312969Y-73790438D01*
X99312969Y-73790438D02*
X99360588Y-73838057D01*
X99360588Y-73838057D02*
X99408207Y-73933295D01*
X99408207Y-73933295D02*
X99408207Y-74076152D01*
X99408207Y-74076152D02*
X99360588Y-74171390D01*
X99360588Y-74171390D02*
X99312969Y-74219009D01*
X99312969Y-74219009D02*
X99217731Y-74266628D01*
X99217731Y-74266628D02*
X98836779Y-74266628D01*
X99836779Y-74742819D02*
X99836779Y-73742819D01*
X100455826Y-74171390D02*
X100360588Y-74123771D01*
X100360588Y-74123771D02*
X100312969Y-74076152D01*
X100312969Y-74076152D02*
X100265350Y-73980914D01*
X100265350Y-73980914D02*
X100265350Y-73933295D01*
X100265350Y-73933295D02*
X100312969Y-73838057D01*
X100312969Y-73838057D02*
X100360588Y-73790438D01*
X100360588Y-73790438D02*
X100455826Y-73742819D01*
X100455826Y-73742819D02*
X100646302Y-73742819D01*
X100646302Y-73742819D02*
X100741540Y-73790438D01*
X100741540Y-73790438D02*
X100789159Y-73838057D01*
X100789159Y-73838057D02*
X100836778Y-73933295D01*
X100836778Y-73933295D02*
X100836778Y-73980914D01*
X100836778Y-73980914D02*
X100789159Y-74076152D01*
X100789159Y-74076152D02*
X100741540Y-74123771D01*
X100741540Y-74123771D02*
X100646302Y-74171390D01*
X100646302Y-74171390D02*
X100455826Y-74171390D01*
X100455826Y-74171390D02*
X100360588Y-74219009D01*
X100360588Y-74219009D02*
X100312969Y-74266628D01*
X100312969Y-74266628D02*
X100265350Y-74361866D01*
X100265350Y-74361866D02*
X100265350Y-74552342D01*
X100265350Y-74552342D02*
X100312969Y-74647580D01*
X100312969Y-74647580D02*
X100360588Y-74695200D01*
X100360588Y-74695200D02*
X100455826Y-74742819D01*
X100455826Y-74742819D02*
X100646302Y-74742819D01*
X100646302Y-74742819D02*
X100741540Y-74695200D01*
X100741540Y-74695200D02*
X100789159Y-74647580D01*
X100789159Y-74647580D02*
X100836778Y-74552342D01*
X100836778Y-74552342D02*
X100836778Y-74361866D01*
X100836778Y-74361866D02*
X100789159Y-74266628D01*
X100789159Y-74266628D02*
X100741540Y-74219009D01*
X100741540Y-74219009D02*
X100646302Y-74171390D01*
X101455826Y-73742819D02*
X101551064Y-73742819D01*
X101551064Y-73742819D02*
X101646302Y-73790438D01*
X101646302Y-73790438D02*
X101693921Y-73838057D01*
X101693921Y-73838057D02*
X101741540Y-73933295D01*
X101741540Y-73933295D02*
X101789159Y-74123771D01*
X101789159Y-74123771D02*
X101789159Y-74361866D01*
X101789159Y-74361866D02*
X101741540Y-74552342D01*
X101741540Y-74552342D02*
X101693921Y-74647580D01*
X101693921Y-74647580D02*
X101646302Y-74695200D01*
X101646302Y-74695200D02*
X101551064Y-74742819D01*
X101551064Y-74742819D02*
X101455826Y-74742819D01*
X101455826Y-74742819D02*
X101360588Y-74695200D01*
X101360588Y-74695200D02*
X101312969Y-74647580D01*
X101312969Y-74647580D02*
X101265350Y-74552342D01*
X101265350Y-74552342D02*
X101217731Y-74361866D01*
X101217731Y-74361866D02*
X101217731Y-74123771D01*
X101217731Y-74123771D02*
X101265350Y-73933295D01*
X101265350Y-73933295D02*
X101312969Y-73838057D01*
X101312969Y-73838057D02*
X101360588Y-73790438D01*
X101360588Y-73790438D02*
X101455826Y-73742819D01*
X102979636Y-74219009D02*
X103312969Y-74219009D01*
X103455826Y-74742819D02*
X102979636Y-74742819D01*
X102979636Y-74742819D02*
X102979636Y-73742819D01*
X102979636Y-73742819D02*
X103455826Y-73742819D01*
X103884398Y-74742819D02*
X103884398Y-73742819D01*
X103884398Y-73742819D02*
X104455826Y-74742819D01*
X104455826Y-74742819D02*
X104455826Y-73742819D01*
X105503445Y-74647580D02*
X105455826Y-74695200D01*
X105455826Y-74695200D02*
X105312969Y-74742819D01*
X105312969Y-74742819D02*
X105217731Y-74742819D01*
X105217731Y-74742819D02*
X105074874Y-74695200D01*
X105074874Y-74695200D02*
X104979636Y-74599961D01*
X104979636Y-74599961D02*
X104932017Y-74504723D01*
X104932017Y-74504723D02*
X104884398Y-74314247D01*
X104884398Y-74314247D02*
X104884398Y-74171390D01*
X104884398Y-74171390D02*
X104932017Y-73980914D01*
X104932017Y-73980914D02*
X104979636Y-73885676D01*
X104979636Y-73885676D02*
X105074874Y-73790438D01*
X105074874Y-73790438D02*
X105217731Y-73742819D01*
X105217731Y-73742819D02*
X105312969Y-73742819D01*
X105312969Y-73742819D02*
X105455826Y-73790438D01*
X105455826Y-73790438D02*
X105503445Y-73838057D01*
X120388057Y-82123839D02*
X120340438Y-82076220D01*
X120340438Y-82076220D02*
X120292819Y-81980982D01*
X120292819Y-81980982D02*
X120292819Y-81742887D01*
X120292819Y-81742887D02*
X120340438Y-81647649D01*
X120340438Y-81647649D02*
X120388057Y-81600030D01*
X120388057Y-81600030D02*
X120483295Y-81552411D01*
X120483295Y-81552411D02*
X120578533Y-81552411D01*
X120578533Y-81552411D02*
X120721390Y-81600030D01*
X120721390Y-81600030D02*
X121292819Y-82171458D01*
X121292819Y-82171458D02*
X121292819Y-81552411D01*
X120292819Y-80647649D02*
X120292819Y-81123839D01*
X120292819Y-81123839D02*
X120769009Y-81171458D01*
X120769009Y-81171458D02*
X120721390Y-81123839D01*
X120721390Y-81123839D02*
X120673771Y-81028601D01*
X120673771Y-81028601D02*
X120673771Y-80790506D01*
X120673771Y-80790506D02*
X120721390Y-80695268D01*
X120721390Y-80695268D02*
X120769009Y-80647649D01*
X120769009Y-80647649D02*
X120864247Y-80600030D01*
X120864247Y-80600030D02*
X121102342Y-80600030D01*
X121102342Y-80600030D02*
X121197580Y-80647649D01*
X121197580Y-80647649D02*
X121245200Y-80695268D01*
X121245200Y-80695268D02*
X121292819Y-80790506D01*
X121292819Y-80790506D02*
X121292819Y-81028601D01*
X121292819Y-81028601D02*
X121245200Y-81123839D01*
X121245200Y-81123839D02*
X121197580Y-81171458D01*
X127888057Y-90725969D02*
X127840438Y-90678350D01*
X127840438Y-90678350D02*
X127792819Y-90583112D01*
X127792819Y-90583112D02*
X127792819Y-90345017D01*
X127792819Y-90345017D02*
X127840438Y-90249779D01*
X127840438Y-90249779D02*
X127888057Y-90202160D01*
X127888057Y-90202160D02*
X127983295Y-90154541D01*
X127983295Y-90154541D02*
X128078533Y-90154541D01*
X128078533Y-90154541D02*
X128221390Y-90202160D01*
X128221390Y-90202160D02*
X128792819Y-90773588D01*
X128792819Y-90773588D02*
X128792819Y-90154541D01*
X127792819Y-89535493D02*
X127792819Y-89440255D01*
X127792819Y-89440255D02*
X127840438Y-89345017D01*
X127840438Y-89345017D02*
X127888057Y-89297398D01*
X127888057Y-89297398D02*
X127983295Y-89249779D01*
X127983295Y-89249779D02*
X128173771Y-89202160D01*
X128173771Y-89202160D02*
X128411866Y-89202160D01*
X128411866Y-89202160D02*
X128602342Y-89249779D01*
X128602342Y-89249779D02*
X128697580Y-89297398D01*
X128697580Y-89297398D02*
X128745200Y-89345017D01*
X128745200Y-89345017D02*
X128792819Y-89440255D01*
X128792819Y-89440255D02*
X128792819Y-89535493D01*
X128792819Y-89535493D02*
X128745200Y-89630731D01*
X128745200Y-89630731D02*
X128697580Y-89678350D01*
X128697580Y-89678350D02*
X128602342Y-89725969D01*
X128602342Y-89725969D02*
X128411866Y-89773588D01*
X128411866Y-89773588D02*
X128173771Y-89773588D01*
X128173771Y-89773588D02*
X127983295Y-89725969D01*
X127983295Y-89725969D02*
X127888057Y-89678350D01*
X127888057Y-89678350D02*
X127840438Y-89630731D01*
X127840438Y-89630731D02*
X127792819Y-89535493D01*
X122888057Y-90725969D02*
X122840438Y-90678350D01*
X122840438Y-90678350D02*
X122792819Y-90583112D01*
X122792819Y-90583112D02*
X122792819Y-90345017D01*
X122792819Y-90345017D02*
X122840438Y-90249779D01*
X122840438Y-90249779D02*
X122888057Y-90202160D01*
X122888057Y-90202160D02*
X122983295Y-90154541D01*
X122983295Y-90154541D02*
X123078533Y-90154541D01*
X123078533Y-90154541D02*
X123221390Y-90202160D01*
X123221390Y-90202160D02*
X123792819Y-90773588D01*
X123792819Y-90773588D02*
X123792819Y-90154541D01*
X123126152Y-89297398D02*
X123792819Y-89297398D01*
X122745200Y-89535493D02*
X123459485Y-89773588D01*
X123459485Y-89773588D02*
X123459485Y-89154541D01*
X143471390Y-89583112D02*
X143423771Y-89678350D01*
X143423771Y-89678350D02*
X143376152Y-89725969D01*
X143376152Y-89725969D02*
X143280914Y-89773588D01*
X143280914Y-89773588D02*
X143233295Y-89773588D01*
X143233295Y-89773588D02*
X143138057Y-89725969D01*
X143138057Y-89725969D02*
X143090438Y-89678350D01*
X143090438Y-89678350D02*
X143042819Y-89583112D01*
X143042819Y-89583112D02*
X143042819Y-89392636D01*
X143042819Y-89392636D02*
X143090438Y-89297398D01*
X143090438Y-89297398D02*
X143138057Y-89249779D01*
X143138057Y-89249779D02*
X143233295Y-89202160D01*
X143233295Y-89202160D02*
X143280914Y-89202160D01*
X143280914Y-89202160D02*
X143376152Y-89249779D01*
X143376152Y-89249779D02*
X143423771Y-89297398D01*
X143423771Y-89297398D02*
X143471390Y-89392636D01*
X143471390Y-89392636D02*
X143471390Y-89583112D01*
X143471390Y-89583112D02*
X143519009Y-89678350D01*
X143519009Y-89678350D02*
X143566628Y-89725969D01*
X143566628Y-89725969D02*
X143661866Y-89773588D01*
X143661866Y-89773588D02*
X143852342Y-89773588D01*
X143852342Y-89773588D02*
X143947580Y-89725969D01*
X143947580Y-89725969D02*
X143995200Y-89678350D01*
X143995200Y-89678350D02*
X144042819Y-89583112D01*
X144042819Y-89583112D02*
X144042819Y-89392636D01*
X144042819Y-89392636D02*
X143995200Y-89297398D01*
X143995200Y-89297398D02*
X143947580Y-89249779D01*
X143947580Y-89249779D02*
X143852342Y-89202160D01*
X143852342Y-89202160D02*
X143661866Y-89202160D01*
X143661866Y-89202160D02*
X143566628Y-89249779D01*
X143566628Y-89249779D02*
X143519009Y-89297398D01*
X143519009Y-89297398D02*
X143471390Y-89392636D01*
X144395057Y-96371683D02*
X144395057Y-95857398D01*
X145295057Y-96114540D02*
X144395057Y-96114540D01*
X145295057Y-95557398D02*
X144395057Y-95557398D01*
X144823628Y-95557398D02*
X144823628Y-95043112D01*
X145295057Y-95043112D02*
X144395057Y-95043112D01*
X144823628Y-94614541D02*
X144823628Y-94314541D01*
X145295057Y-94185969D02*
X145295057Y-94614541D01*
X145295057Y-94614541D02*
X144395057Y-94614541D01*
X144395057Y-94614541D02*
X144395057Y-94185969D01*
X145295057Y-93285969D02*
X144866485Y-93585969D01*
X145295057Y-93800255D02*
X144395057Y-93800255D01*
X144395057Y-93800255D02*
X144395057Y-93457398D01*
X144395057Y-93457398D02*
X144437914Y-93371683D01*
X144437914Y-93371683D02*
X144480771Y-93328826D01*
X144480771Y-93328826D02*
X144566485Y-93285969D01*
X144566485Y-93285969D02*
X144695057Y-93285969D01*
X144695057Y-93285969D02*
X144780771Y-93328826D01*
X144780771Y-93328826D02*
X144823628Y-93371683D01*
X144823628Y-93371683D02*
X144866485Y-93457398D01*
X144866485Y-93457398D02*
X144866485Y-93800255D01*
X145295057Y-92900255D02*
X144395057Y-92900255D01*
X144395057Y-92900255D02*
X145037914Y-92600255D01*
X145037914Y-92600255D02*
X144395057Y-92300255D01*
X144395057Y-92300255D02*
X145295057Y-92300255D01*
X144952200Y-91871684D02*
X144952200Y-91185970D01*
X153008238Y-70827819D02*
X153198714Y-70827819D01*
X153198714Y-70827819D02*
X153293952Y-70875438D01*
X153293952Y-70875438D02*
X153389190Y-70970676D01*
X153389190Y-70970676D02*
X153436809Y-71161152D01*
X153436809Y-71161152D02*
X153436809Y-71494485D01*
X153436809Y-71494485D02*
X153389190Y-71684961D01*
X153389190Y-71684961D02*
X153293952Y-71780200D01*
X153293952Y-71780200D02*
X153198714Y-71827819D01*
X153198714Y-71827819D02*
X153008238Y-71827819D01*
X153008238Y-71827819D02*
X152913000Y-71780200D01*
X152913000Y-71780200D02*
X152817762Y-71684961D01*
X152817762Y-71684961D02*
X152770143Y-71494485D01*
X152770143Y-71494485D02*
X152770143Y-71161152D01*
X152770143Y-71161152D02*
X152817762Y-70970676D01*
X152817762Y-70970676D02*
X152913000Y-70875438D01*
X152913000Y-70875438D02*
X153008238Y-70827819D01*
X153865381Y-71827819D02*
X153865381Y-70827819D01*
X153865381Y-70827819D02*
X154103476Y-70827819D01*
X154103476Y-70827819D02*
X154246333Y-70875438D01*
X154246333Y-70875438D02*
X154341571Y-70970676D01*
X154341571Y-70970676D02*
X154389190Y-71065914D01*
X154389190Y-71065914D02*
X154436809Y-71256390D01*
X154436809Y-71256390D02*
X154436809Y-71399247D01*
X154436809Y-71399247D02*
X154389190Y-71589723D01*
X154389190Y-71589723D02*
X154341571Y-71684961D01*
X154341571Y-71684961D02*
X154246333Y-71780200D01*
X154246333Y-71780200D02*
X154103476Y-71827819D01*
X154103476Y-71827819D02*
X153865381Y-71827819D01*
X155436809Y-71827819D02*
X155103476Y-71351628D01*
X154865381Y-71827819D02*
X154865381Y-70827819D01*
X154865381Y-70827819D02*
X155246333Y-70827819D01*
X155246333Y-70827819D02*
X155341571Y-70875438D01*
X155341571Y-70875438D02*
X155389190Y-70923057D01*
X155389190Y-70923057D02*
X155436809Y-71018295D01*
X155436809Y-71018295D02*
X155436809Y-71161152D01*
X155436809Y-71161152D02*
X155389190Y-71256390D01*
X155389190Y-71256390D02*
X155341571Y-71304009D01*
X155341571Y-71304009D02*
X155246333Y-71351628D01*
X155246333Y-71351628D02*
X154865381Y-71351628D01*
X155865381Y-71827819D02*
X155865381Y-70827819D01*
X156198714Y-70827819D02*
X156532047Y-71827819D01*
X156532047Y-71827819D02*
X156865380Y-70827819D01*
X157198714Y-71304009D02*
X157532047Y-71304009D01*
X157674904Y-71827819D02*
X157198714Y-71827819D01*
X157198714Y-71827819D02*
X157198714Y-70827819D01*
X157198714Y-70827819D02*
X157674904Y-70827819D01*
X159436809Y-71732580D02*
X159389190Y-71780200D01*
X159389190Y-71780200D02*
X159246333Y-71827819D01*
X159246333Y-71827819D02*
X159151095Y-71827819D01*
X159151095Y-71827819D02*
X159008238Y-71780200D01*
X159008238Y-71780200D02*
X158913000Y-71684961D01*
X158913000Y-71684961D02*
X158865381Y-71589723D01*
X158865381Y-71589723D02*
X158817762Y-71399247D01*
X158817762Y-71399247D02*
X158817762Y-71256390D01*
X158817762Y-71256390D02*
X158865381Y-71065914D01*
X158865381Y-71065914D02*
X158913000Y-70970676D01*
X158913000Y-70970676D02*
X159008238Y-70875438D01*
X159008238Y-70875438D02*
X159151095Y-70827819D01*
X159151095Y-70827819D02*
X159246333Y-70827819D01*
X159246333Y-70827819D02*
X159389190Y-70875438D01*
X159389190Y-70875438D02*
X159436809Y-70923057D01*
X159817762Y-71542104D02*
X160293952Y-71542104D01*
X159722524Y-71827819D02*
X160055857Y-70827819D01*
X160055857Y-70827819D02*
X160389190Y-71827819D01*
X160722524Y-71827819D02*
X160722524Y-70827819D01*
X160722524Y-70827819D02*
X161293952Y-71827819D01*
X161293952Y-71827819D02*
X161293952Y-70827819D01*
X163055857Y-71827819D02*
X162484429Y-71827819D01*
X162770143Y-71827819D02*
X162770143Y-70827819D01*
X162770143Y-70827819D02*
X162674905Y-70970676D01*
X162674905Y-70970676D02*
X162579667Y-71065914D01*
X162579667Y-71065914D02*
X162484429Y-71113533D01*
X125388057Y-90725969D02*
X125340438Y-90678350D01*
X125340438Y-90678350D02*
X125292819Y-90583112D01*
X125292819Y-90583112D02*
X125292819Y-90345017D01*
X125292819Y-90345017D02*
X125340438Y-90249779D01*
X125340438Y-90249779D02*
X125388057Y-90202160D01*
X125388057Y-90202160D02*
X125483295Y-90154541D01*
X125483295Y-90154541D02*
X125578533Y-90154541D01*
X125578533Y-90154541D02*
X125721390Y-90202160D01*
X125721390Y-90202160D02*
X126292819Y-90773588D01*
X126292819Y-90773588D02*
X126292819Y-90154541D01*
X125388057Y-89773588D02*
X125340438Y-89725969D01*
X125340438Y-89725969D02*
X125292819Y-89630731D01*
X125292819Y-89630731D02*
X125292819Y-89392636D01*
X125292819Y-89392636D02*
X125340438Y-89297398D01*
X125340438Y-89297398D02*
X125388057Y-89249779D01*
X125388057Y-89249779D02*
X125483295Y-89202160D01*
X125483295Y-89202160D02*
X125578533Y-89202160D01*
X125578533Y-89202160D02*
X125721390Y-89249779D01*
X125721390Y-89249779D02*
X126292819Y-89821207D01*
X126292819Y-89821207D02*
X126292819Y-89202160D01*
X120315538Y-95019303D02*
X120267919Y-95114541D01*
X120267919Y-95114541D02*
X120267919Y-95257398D01*
X120267919Y-95257398D02*
X120315538Y-95400255D01*
X120315538Y-95400255D02*
X120410776Y-95495493D01*
X120410776Y-95495493D02*
X120506014Y-95543112D01*
X120506014Y-95543112D02*
X120696490Y-95590731D01*
X120696490Y-95590731D02*
X120839347Y-95590731D01*
X120839347Y-95590731D02*
X121029823Y-95543112D01*
X121029823Y-95543112D02*
X121125061Y-95495493D01*
X121125061Y-95495493D02*
X121220300Y-95400255D01*
X121220300Y-95400255D02*
X121267919Y-95257398D01*
X121267919Y-95257398D02*
X121267919Y-95162160D01*
X121267919Y-95162160D02*
X121220300Y-95019303D01*
X121220300Y-95019303D02*
X121172680Y-94971684D01*
X121172680Y-94971684D02*
X120839347Y-94971684D01*
X120839347Y-94971684D02*
X120839347Y-95162160D01*
X121267919Y-94543112D02*
X120267919Y-94543112D01*
X120267919Y-94543112D02*
X121267919Y-93971684D01*
X121267919Y-93971684D02*
X120267919Y-93971684D01*
X121267919Y-93495493D02*
X120267919Y-93495493D01*
X120267919Y-93495493D02*
X120267919Y-93257398D01*
X120267919Y-93257398D02*
X120315538Y-93114541D01*
X120315538Y-93114541D02*
X120410776Y-93019303D01*
X120410776Y-93019303D02*
X120506014Y-92971684D01*
X120506014Y-92971684D02*
X120696490Y-92924065D01*
X120696490Y-92924065D02*
X120839347Y-92924065D01*
X120839347Y-92924065D02*
X121029823Y-92971684D01*
X121029823Y-92971684D02*
X121125061Y-93019303D01*
X121125061Y-93019303D02*
X121220300Y-93114541D01*
X121220300Y-93114541D02*
X121267919Y-93257398D01*
X121267919Y-93257398D02*
X121267919Y-93495493D01*
X130869819Y-90154541D02*
X130869819Y-90725969D01*
X130869819Y-90440255D02*
X129869819Y-90440255D01*
X129869819Y-90440255D02*
X130012676Y-90535493D01*
X130012676Y-90535493D02*
X130107914Y-90630731D01*
X130107914Y-90630731D02*
X130155533Y-90725969D01*
X130298390Y-89583112D02*
X130250771Y-89678350D01*
X130250771Y-89678350D02*
X130203152Y-89725969D01*
X130203152Y-89725969D02*
X130107914Y-89773588D01*
X130107914Y-89773588D02*
X130060295Y-89773588D01*
X130060295Y-89773588D02*
X129965057Y-89725969D01*
X129965057Y-89725969D02*
X129917438Y-89678350D01*
X129917438Y-89678350D02*
X129869819Y-89583112D01*
X129869819Y-89583112D02*
X129869819Y-89392636D01*
X129869819Y-89392636D02*
X129917438Y-89297398D01*
X129917438Y-89297398D02*
X129965057Y-89249779D01*
X129965057Y-89249779D02*
X130060295Y-89202160D01*
X130060295Y-89202160D02*
X130107914Y-89202160D01*
X130107914Y-89202160D02*
X130203152Y-89249779D01*
X130203152Y-89249779D02*
X130250771Y-89297398D01*
X130250771Y-89297398D02*
X130298390Y-89392636D01*
X130298390Y-89392636D02*
X130298390Y-89583112D01*
X130298390Y-89583112D02*
X130346009Y-89678350D01*
X130346009Y-89678350D02*
X130393628Y-89725969D01*
X130393628Y-89725969D02*
X130488866Y-89773588D01*
X130488866Y-89773588D02*
X130679342Y-89773588D01*
X130679342Y-89773588D02*
X130774580Y-89725969D01*
X130774580Y-89725969D02*
X130822200Y-89678350D01*
X130822200Y-89678350D02*
X130869819Y-89583112D01*
X130869819Y-89583112D02*
X130869819Y-89392636D01*
X130869819Y-89392636D02*
X130822200Y-89297398D01*
X130822200Y-89297398D02*
X130774580Y-89249779D01*
X130774580Y-89249779D02*
X130679342Y-89202160D01*
X130679342Y-89202160D02*
X130488866Y-89202160D01*
X130488866Y-89202160D02*
X130393628Y-89249779D01*
X130393628Y-89249779D02*
X130346009Y-89297398D01*
X130346009Y-89297398D02*
X130298390Y-89392636D01*
X115388057Y-82123839D02*
X115340438Y-82076220D01*
X115340438Y-82076220D02*
X115292819Y-81980982D01*
X115292819Y-81980982D02*
X115292819Y-81742887D01*
X115292819Y-81742887D02*
X115340438Y-81647649D01*
X115340438Y-81647649D02*
X115388057Y-81600030D01*
X115388057Y-81600030D02*
X115483295Y-81552411D01*
X115483295Y-81552411D02*
X115578533Y-81552411D01*
X115578533Y-81552411D02*
X115721390Y-81600030D01*
X115721390Y-81600030D02*
X116292819Y-82171458D01*
X116292819Y-82171458D02*
X116292819Y-81552411D01*
X116292819Y-81076220D02*
X116292819Y-80885744D01*
X116292819Y-80885744D02*
X116245200Y-80790506D01*
X116245200Y-80790506D02*
X116197580Y-80742887D01*
X116197580Y-80742887D02*
X116054723Y-80647649D01*
X116054723Y-80647649D02*
X115864247Y-80600030D01*
X115864247Y-80600030D02*
X115483295Y-80600030D01*
X115483295Y-80600030D02*
X115388057Y-80647649D01*
X115388057Y-80647649D02*
X115340438Y-80695268D01*
X115340438Y-80695268D02*
X115292819Y-80790506D01*
X115292819Y-80790506D02*
X115292819Y-80980982D01*
X115292819Y-80980982D02*
X115340438Y-81076220D01*
X115340438Y-81076220D02*
X115388057Y-81123839D01*
X115388057Y-81123839D02*
X115483295Y-81171458D01*
X115483295Y-81171458D02*
X115721390Y-81171458D01*
X115721390Y-81171458D02*
X115816628Y-81123839D01*
X115816628Y-81123839D02*
X115864247Y-81076220D01*
X115864247Y-81076220D02*
X115911866Y-80980982D01*
X115911866Y-80980982D02*
X115911866Y-80790506D01*
X115911866Y-80790506D02*
X115864247Y-80695268D01*
X115864247Y-80695268D02*
X115816628Y-80647649D01*
X115816628Y-80647649D02*
X115721390Y-80600030D01*
X97746333Y-93457104D02*
X98222523Y-93457104D01*
X97651095Y-93742819D02*
X97984428Y-92742819D01*
X97984428Y-92742819D02*
X98317761Y-93742819D01*
X98651095Y-93742819D02*
X98651095Y-92742819D01*
X98651095Y-92742819D02*
X98984428Y-93457104D01*
X98984428Y-93457104D02*
X99317761Y-92742819D01*
X99317761Y-92742819D02*
X99317761Y-93742819D01*
X99651095Y-92742819D02*
X100222523Y-92742819D01*
X99936809Y-93742819D02*
X99936809Y-92742819D01*
X100508238Y-92838057D02*
X100555857Y-92790438D01*
X100555857Y-92790438D02*
X100651095Y-92742819D01*
X100651095Y-92742819D02*
X100889190Y-92742819D01*
X100889190Y-92742819D02*
X100984428Y-92790438D01*
X100984428Y-92790438D02*
X101032047Y-92838057D01*
X101032047Y-92838057D02*
X101079666Y-92933295D01*
X101079666Y-92933295D02*
X101079666Y-93028533D01*
X101079666Y-93028533D02*
X101032047Y-93171390D01*
X101032047Y-93171390D02*
X100460619Y-93742819D01*
X100460619Y-93742819D02*
X101079666Y-93742819D01*
X102032047Y-93742819D02*
X101460619Y-93742819D01*
X101746333Y-93742819D02*
X101746333Y-92742819D01*
X101746333Y-92742819D02*
X101651095Y-92885676D01*
X101651095Y-92885676D02*
X101555857Y-92980914D01*
X101555857Y-92980914D02*
X101460619Y-93028533D01*
X102413000Y-92838057D02*
X102460619Y-92790438D01*
X102460619Y-92790438D02*
X102555857Y-92742819D01*
X102555857Y-92742819D02*
X102793952Y-92742819D01*
X102793952Y-92742819D02*
X102889190Y-92790438D01*
X102889190Y-92790438D02*
X102936809Y-92838057D01*
X102936809Y-92838057D02*
X102984428Y-92933295D01*
X102984428Y-92933295D02*
X102984428Y-93028533D01*
X102984428Y-93028533D02*
X102936809Y-93171390D01*
X102936809Y-93171390D02*
X102365381Y-93742819D01*
X102365381Y-93742819D02*
X102984428Y-93742819D01*
X103746333Y-93219009D02*
X103889190Y-93266628D01*
X103889190Y-93266628D02*
X103936809Y-93314247D01*
X103936809Y-93314247D02*
X103984428Y-93409485D01*
X103984428Y-93409485D02*
X103984428Y-93552342D01*
X103984428Y-93552342D02*
X103936809Y-93647580D01*
X103936809Y-93647580D02*
X103889190Y-93695200D01*
X103889190Y-93695200D02*
X103793952Y-93742819D01*
X103793952Y-93742819D02*
X103413000Y-93742819D01*
X103413000Y-93742819D02*
X103413000Y-92742819D01*
X103413000Y-92742819D02*
X103746333Y-92742819D01*
X103746333Y-92742819D02*
X103841571Y-92790438D01*
X103841571Y-92790438D02*
X103889190Y-92838057D01*
X103889190Y-92838057D02*
X103936809Y-92933295D01*
X103936809Y-92933295D02*
X103936809Y-93028533D01*
X103936809Y-93028533D02*
X103889190Y-93123771D01*
X103889190Y-93123771D02*
X103841571Y-93171390D01*
X103841571Y-93171390D02*
X103746333Y-93219009D01*
X103746333Y-93219009D02*
X103413000Y-93219009D01*
X104413000Y-93361866D02*
X105174905Y-93361866D01*
X105508238Y-92742819D02*
X105841571Y-93742819D01*
X105841571Y-93742819D02*
X106174904Y-92742819D01*
X133842819Y-81552411D02*
X133842819Y-82123839D01*
X133842819Y-81838125D02*
X132842819Y-81838125D01*
X132842819Y-81838125D02*
X132985676Y-81933363D01*
X132985676Y-81933363D02*
X133080914Y-82028601D01*
X133080914Y-82028601D02*
X133128533Y-82123839D01*
X132842819Y-80647649D02*
X132842819Y-81123839D01*
X132842819Y-81123839D02*
X133319009Y-81171458D01*
X133319009Y-81171458D02*
X133271390Y-81123839D01*
X133271390Y-81123839D02*
X133223771Y-81028601D01*
X133223771Y-81028601D02*
X133223771Y-80790506D01*
X133223771Y-80790506D02*
X133271390Y-80695268D01*
X133271390Y-80695268D02*
X133319009Y-80647649D01*
X133319009Y-80647649D02*
X133414247Y-80600030D01*
X133414247Y-80600030D02*
X133652342Y-80600030D01*
X133652342Y-80600030D02*
X133747580Y-80647649D01*
X133747580Y-80647649D02*
X133795200Y-80695268D01*
X133795200Y-80695268D02*
X133842819Y-80790506D01*
X133842819Y-80790506D02*
X133842819Y-81028601D01*
X133842819Y-81028601D02*
X133795200Y-81123839D01*
X133795200Y-81123839D02*
X133747580Y-81171458D01*
X109725969Y-77242819D02*
X109249779Y-77242819D01*
X109249779Y-77242819D02*
X109202160Y-77719009D01*
X109202160Y-77719009D02*
X109249779Y-77671390D01*
X109249779Y-77671390D02*
X109345017Y-77623771D01*
X109345017Y-77623771D02*
X109583112Y-77623771D01*
X109583112Y-77623771D02*
X109678350Y-77671390D01*
X109678350Y-77671390D02*
X109725969Y-77719009D01*
X109725969Y-77719009D02*
X109773588Y-77814247D01*
X109773588Y-77814247D02*
X109773588Y-78052342D01*
X109773588Y-78052342D02*
X109725969Y-78147580D01*
X109725969Y-78147580D02*
X109678350Y-78195200D01*
X109678350Y-78195200D02*
X109583112Y-78242819D01*
X109583112Y-78242819D02*
X109345017Y-78242819D01*
X109345017Y-78242819D02*
X109249779Y-78195200D01*
X109249779Y-78195200D02*
X109202160Y-78147580D01*
X110059303Y-77242819D02*
X110392636Y-78242819D01*
X110392636Y-78242819D02*
X110725969Y-77242819D01*
X115662819Y-78776220D02*
X116472342Y-78776220D01*
X116472342Y-78776220D02*
X116567580Y-78728601D01*
X116567580Y-78728601D02*
X116615200Y-78680982D01*
X116615200Y-78680982D02*
X116662819Y-78585744D01*
X116662819Y-78585744D02*
X116662819Y-78395268D01*
X116662819Y-78395268D02*
X116615200Y-78300030D01*
X116615200Y-78300030D02*
X116567580Y-78252411D01*
X116567580Y-78252411D02*
X116472342Y-78204792D01*
X116472342Y-78204792D02*
X115662819Y-78204792D01*
X115996152Y-77728601D02*
X116662819Y-77728601D01*
X116091390Y-77728601D02*
X116043771Y-77680982D01*
X116043771Y-77680982D02*
X115996152Y-77585744D01*
X115996152Y-77585744D02*
X115996152Y-77442887D01*
X115996152Y-77442887D02*
X116043771Y-77347649D01*
X116043771Y-77347649D02*
X116139009Y-77300030D01*
X116139009Y-77300030D02*
X116662819Y-77300030D01*
X116662819Y-76823839D02*
X115996152Y-76823839D01*
X115662819Y-76823839D02*
X115710438Y-76871458D01*
X115710438Y-76871458D02*
X115758057Y-76823839D01*
X115758057Y-76823839D02*
X115710438Y-76776220D01*
X115710438Y-76776220D02*
X115662819Y-76823839D01*
X115662819Y-76823839D02*
X115758057Y-76823839D01*
X115996152Y-76490506D02*
X115996152Y-76109554D01*
X116662819Y-76347649D02*
X115805676Y-76347649D01*
X115805676Y-76347649D02*
X115710438Y-76300030D01*
X115710438Y-76300030D02*
X115662819Y-76204792D01*
X115662819Y-76204792D02*
X115662819Y-76109554D01*
X116662819Y-75776220D02*
X115996152Y-75776220D01*
X115662819Y-75776220D02*
X115710438Y-75823839D01*
X115710438Y-75823839D02*
X115758057Y-75776220D01*
X115758057Y-75776220D02*
X115710438Y-75728601D01*
X115710438Y-75728601D02*
X115662819Y-75776220D01*
X115662819Y-75776220D02*
X115758057Y-75776220D01*
X116615200Y-74919078D02*
X116662819Y-75014316D01*
X116662819Y-75014316D02*
X116662819Y-75204792D01*
X116662819Y-75204792D02*
X116615200Y-75300030D01*
X116615200Y-75300030D02*
X116519961Y-75347649D01*
X116519961Y-75347649D02*
X116139009Y-75347649D01*
X116139009Y-75347649D02*
X116043771Y-75300030D01*
X116043771Y-75300030D02*
X115996152Y-75204792D01*
X115996152Y-75204792D02*
X115996152Y-75014316D01*
X115996152Y-75014316D02*
X116043771Y-74919078D01*
X116043771Y-74919078D02*
X116139009Y-74871459D01*
X116139009Y-74871459D02*
X116234247Y-74871459D01*
X116234247Y-74871459D02*
X116329485Y-75347649D01*
X116662819Y-74014316D02*
X115662819Y-74014316D01*
X116615200Y-74014316D02*
X116662819Y-74109554D01*
X116662819Y-74109554D02*
X116662819Y-74300030D01*
X116662819Y-74300030D02*
X116615200Y-74395268D01*
X116615200Y-74395268D02*
X116567580Y-74442887D01*
X116567580Y-74442887D02*
X116472342Y-74490506D01*
X116472342Y-74490506D02*
X116186628Y-74490506D01*
X116186628Y-74490506D02*
X116091390Y-74442887D01*
X116091390Y-74442887D02*
X116043771Y-74395268D01*
X116043771Y-74395268D02*
X115996152Y-74300030D01*
X115996152Y-74300030D02*
X115996152Y-74109554D01*
X115996152Y-74109554D02*
X116043771Y-74014316D01*
X116662819Y-72776220D02*
X115662819Y-72776220D01*
X115662819Y-72109554D02*
X115662819Y-71919078D01*
X115662819Y-71919078D02*
X115710438Y-71823840D01*
X115710438Y-71823840D02*
X115805676Y-71728602D01*
X115805676Y-71728602D02*
X115996152Y-71680983D01*
X115996152Y-71680983D02*
X116329485Y-71680983D01*
X116329485Y-71680983D02*
X116519961Y-71728602D01*
X116519961Y-71728602D02*
X116615200Y-71823840D01*
X116615200Y-71823840D02*
X116662819Y-71919078D01*
X116662819Y-71919078D02*
X116662819Y-72109554D01*
X116662819Y-72109554D02*
X116615200Y-72204792D01*
X116615200Y-72204792D02*
X116519961Y-72300030D01*
X116519961Y-72300030D02*
X116329485Y-72347649D01*
X116329485Y-72347649D02*
X115996152Y-72347649D01*
X115996152Y-72347649D02*
X115805676Y-72300030D01*
X115805676Y-72300030D02*
X115710438Y-72204792D01*
X115710438Y-72204792D02*
X115662819Y-72109554D01*
X116662819Y-70490506D02*
X115662819Y-70490506D01*
X116139009Y-70490506D02*
X116139009Y-69919078D01*
X116662819Y-69919078D02*
X115662819Y-69919078D01*
X116615200Y-69061935D02*
X116662819Y-69157173D01*
X116662819Y-69157173D02*
X116662819Y-69347649D01*
X116662819Y-69347649D02*
X116615200Y-69442887D01*
X116615200Y-69442887D02*
X116519961Y-69490506D01*
X116519961Y-69490506D02*
X116139009Y-69490506D01*
X116139009Y-69490506D02*
X116043771Y-69442887D01*
X116043771Y-69442887D02*
X115996152Y-69347649D01*
X115996152Y-69347649D02*
X115996152Y-69157173D01*
X115996152Y-69157173D02*
X116043771Y-69061935D01*
X116043771Y-69061935D02*
X116139009Y-69014316D01*
X116139009Y-69014316D02*
X116234247Y-69014316D01*
X116234247Y-69014316D02*
X116329485Y-69490506D01*
X116662819Y-68157173D02*
X116139009Y-68157173D01*
X116139009Y-68157173D02*
X116043771Y-68204792D01*
X116043771Y-68204792D02*
X115996152Y-68300030D01*
X115996152Y-68300030D02*
X115996152Y-68490506D01*
X115996152Y-68490506D02*
X116043771Y-68585744D01*
X116615200Y-68157173D02*
X116662819Y-68252411D01*
X116662819Y-68252411D02*
X116662819Y-68490506D01*
X116662819Y-68490506D02*
X116615200Y-68585744D01*
X116615200Y-68585744D02*
X116519961Y-68633363D01*
X116519961Y-68633363D02*
X116424723Y-68633363D01*
X116424723Y-68633363D02*
X116329485Y-68585744D01*
X116329485Y-68585744D02*
X116281866Y-68490506D01*
X116281866Y-68490506D02*
X116281866Y-68252411D01*
X116281866Y-68252411D02*
X116234247Y-68157173D01*
X116662819Y-67252411D02*
X115662819Y-67252411D01*
X116615200Y-67252411D02*
X116662819Y-67347649D01*
X116662819Y-67347649D02*
X116662819Y-67538125D01*
X116662819Y-67538125D02*
X116615200Y-67633363D01*
X116615200Y-67633363D02*
X116567580Y-67680982D01*
X116567580Y-67680982D02*
X116472342Y-67728601D01*
X116472342Y-67728601D02*
X116186628Y-67728601D01*
X116186628Y-67728601D02*
X116091390Y-67680982D01*
X116091390Y-67680982D02*
X116043771Y-67633363D01*
X116043771Y-67633363D02*
X115996152Y-67538125D01*
X115996152Y-67538125D02*
X115996152Y-67347649D01*
X115996152Y-67347649D02*
X116043771Y-67252411D01*
X116615200Y-66395268D02*
X116662819Y-66490506D01*
X116662819Y-66490506D02*
X116662819Y-66680982D01*
X116662819Y-66680982D02*
X116615200Y-66776220D01*
X116615200Y-66776220D02*
X116519961Y-66823839D01*
X116519961Y-66823839D02*
X116139009Y-66823839D01*
X116139009Y-66823839D02*
X116043771Y-66776220D01*
X116043771Y-66776220D02*
X115996152Y-66680982D01*
X115996152Y-66680982D02*
X115996152Y-66490506D01*
X115996152Y-66490506D02*
X116043771Y-66395268D01*
X116043771Y-66395268D02*
X116139009Y-66347649D01*
X116139009Y-66347649D02*
X116234247Y-66347649D01*
X116234247Y-66347649D02*
X116329485Y-66823839D01*
X116662819Y-65919077D02*
X115996152Y-65919077D01*
X116186628Y-65919077D02*
X116091390Y-65871458D01*
X116091390Y-65871458D02*
X116043771Y-65823839D01*
X116043771Y-65823839D02*
X115996152Y-65728601D01*
X115996152Y-65728601D02*
X115996152Y-65633363D01*
X152225969Y-80242819D02*
X151749779Y-80242819D01*
X151749779Y-80242819D02*
X151749779Y-79242819D01*
X109273588Y-103790438D02*
X109178350Y-103742819D01*
X109178350Y-103742819D02*
X109035493Y-103742819D01*
X109035493Y-103742819D02*
X108892636Y-103790438D01*
X108892636Y-103790438D02*
X108797398Y-103885676D01*
X108797398Y-103885676D02*
X108749779Y-103980914D01*
X108749779Y-103980914D02*
X108702160Y-104171390D01*
X108702160Y-104171390D02*
X108702160Y-104314247D01*
X108702160Y-104314247D02*
X108749779Y-104504723D01*
X108749779Y-104504723D02*
X108797398Y-104599961D01*
X108797398Y-104599961D02*
X108892636Y-104695200D01*
X108892636Y-104695200D02*
X109035493Y-104742819D01*
X109035493Y-104742819D02*
X109130731Y-104742819D01*
X109130731Y-104742819D02*
X109273588Y-104695200D01*
X109273588Y-104695200D02*
X109321207Y-104647580D01*
X109321207Y-104647580D02*
X109321207Y-104314247D01*
X109321207Y-104314247D02*
X109130731Y-104314247D01*
X109749779Y-104742819D02*
X109749779Y-103742819D01*
X109749779Y-103742819D02*
X110321207Y-104742819D01*
X110321207Y-104742819D02*
X110321207Y-103742819D01*
X110797398Y-104742819D02*
X110797398Y-103742819D01*
X110797398Y-103742819D02*
X111035493Y-103742819D01*
X111035493Y-103742819D02*
X111178350Y-103790438D01*
X111178350Y-103790438D02*
X111273588Y-103885676D01*
X111273588Y-103885676D02*
X111321207Y-103980914D01*
X111321207Y-103980914D02*
X111368826Y-104171390D01*
X111368826Y-104171390D02*
X111368826Y-104314247D01*
X111368826Y-104314247D02*
X111321207Y-104504723D01*
X111321207Y-104504723D02*
X111273588Y-104599961D01*
X111273588Y-104599961D02*
X111178350Y-104695200D01*
X111178350Y-104695200D02*
X111035493Y-104742819D01*
X111035493Y-104742819D02*
X110797398Y-104742819D01*
X148821207Y-92147580D02*
X148773588Y-92195200D01*
X148773588Y-92195200D02*
X148630731Y-92242819D01*
X148630731Y-92242819D02*
X148535493Y-92242819D01*
X148535493Y-92242819D02*
X148392636Y-92195200D01*
X148392636Y-92195200D02*
X148297398Y-92099961D01*
X148297398Y-92099961D02*
X148249779Y-92004723D01*
X148249779Y-92004723D02*
X148202160Y-91814247D01*
X148202160Y-91814247D02*
X148202160Y-91671390D01*
X148202160Y-91671390D02*
X148249779Y-91480914D01*
X148249779Y-91480914D02*
X148297398Y-91385676D01*
X148297398Y-91385676D02*
X148392636Y-91290438D01*
X148392636Y-91290438D02*
X148535493Y-91242819D01*
X148535493Y-91242819D02*
X148630731Y-91242819D01*
X148630731Y-91242819D02*
X148773588Y-91290438D01*
X148773588Y-91290438D02*
X148821207Y-91338057D01*
X149202160Y-91957104D02*
X149678350Y-91957104D01*
X149106922Y-92242819D02*
X149440255Y-91242819D01*
X149440255Y-91242819D02*
X149773588Y-92242819D01*
X150106922Y-92242819D02*
X150106922Y-91242819D01*
X150106922Y-91242819D02*
X150678350Y-92242819D01*
X150678350Y-92242819D02*
X150678350Y-91242819D01*
X150916446Y-92338057D02*
X151678350Y-92338057D01*
X152392636Y-92242819D02*
X151916446Y-92242819D01*
X151916446Y-92242819D02*
X151916446Y-91242819D01*
X131292819Y-81552411D02*
X131292819Y-82123839D01*
X131292819Y-81838125D02*
X130292819Y-81838125D01*
X130292819Y-81838125D02*
X130435676Y-81933363D01*
X130435676Y-81933363D02*
X130530914Y-82028601D01*
X130530914Y-82028601D02*
X130578533Y-82123839D01*
X130292819Y-81219077D02*
X130292819Y-80552411D01*
X130292819Y-80552411D02*
X131292819Y-80980982D01*
X136292819Y-90154541D02*
X136292819Y-90725969D01*
X136292819Y-90440255D02*
X135292819Y-90440255D01*
X135292819Y-90440255D02*
X135435676Y-90535493D01*
X135435676Y-90535493D02*
X135530914Y-90630731D01*
X135530914Y-90630731D02*
X135578533Y-90725969D01*
X135626152Y-89297398D02*
X136292819Y-89297398D01*
X135245200Y-89535493D02*
X135959485Y-89773588D01*
X135959485Y-89773588D02*
X135959485Y-89154541D01*
X151749779Y-77242819D02*
X151749779Y-76242819D01*
X151749779Y-76719009D02*
X152321207Y-76719009D01*
X152321207Y-77242819D02*
X152321207Y-76242819D01*
X138792819Y-90154541D02*
X138792819Y-90725969D01*
X138792819Y-90440255D02*
X137792819Y-90440255D01*
X137792819Y-90440255D02*
X137935676Y-90535493D01*
X137935676Y-90535493D02*
X138030914Y-90630731D01*
X138030914Y-90630731D02*
X138078533Y-90725969D01*
X137888057Y-89773588D02*
X137840438Y-89725969D01*
X137840438Y-89725969D02*
X137792819Y-89630731D01*
X137792819Y-89630731D02*
X137792819Y-89392636D01*
X137792819Y-89392636D02*
X137840438Y-89297398D01*
X137840438Y-89297398D02*
X137888057Y-89249779D01*
X137888057Y-89249779D02*
X137983295Y-89202160D01*
X137983295Y-89202160D02*
X138078533Y-89202160D01*
X138078533Y-89202160D02*
X138221390Y-89249779D01*
X138221390Y-89249779D02*
X138792819Y-89821207D01*
X138792819Y-89821207D02*
X138792819Y-89202160D01*
X109333588Y-79430438D02*
X109238350Y-79382819D01*
X109238350Y-79382819D02*
X109095493Y-79382819D01*
X109095493Y-79382819D02*
X108952636Y-79430438D01*
X108952636Y-79430438D02*
X108857398Y-79525676D01*
X108857398Y-79525676D02*
X108809779Y-79620914D01*
X108809779Y-79620914D02*
X108762160Y-79811390D01*
X108762160Y-79811390D02*
X108762160Y-79954247D01*
X108762160Y-79954247D02*
X108809779Y-80144723D01*
X108809779Y-80144723D02*
X108857398Y-80239961D01*
X108857398Y-80239961D02*
X108952636Y-80335200D01*
X108952636Y-80335200D02*
X109095493Y-80382819D01*
X109095493Y-80382819D02*
X109190731Y-80382819D01*
X109190731Y-80382819D02*
X109333588Y-80335200D01*
X109333588Y-80335200D02*
X109381207Y-80287580D01*
X109381207Y-80287580D02*
X109381207Y-79954247D01*
X109381207Y-79954247D02*
X109190731Y-79954247D01*
X109809779Y-80382819D02*
X109809779Y-79382819D01*
X109809779Y-79382819D02*
X110381207Y-80382819D01*
X110381207Y-80382819D02*
X110381207Y-79382819D01*
X110857398Y-80382819D02*
X110857398Y-79382819D01*
X110857398Y-79382819D02*
X111095493Y-79382819D01*
X111095493Y-79382819D02*
X111238350Y-79430438D01*
X111238350Y-79430438D02*
X111333588Y-79525676D01*
X111333588Y-79525676D02*
X111381207Y-79620914D01*
X111381207Y-79620914D02*
X111428826Y-79811390D01*
X111428826Y-79811390D02*
X111428826Y-79954247D01*
X111428826Y-79954247D02*
X111381207Y-80144723D01*
X111381207Y-80144723D02*
X111333588Y-80239961D01*
X111333588Y-80239961D02*
X111238350Y-80335200D01*
X111238350Y-80335200D02*
X111095493Y-80382819D01*
X111095493Y-80382819D02*
X110857398Y-80382819D01*
X119358057Y-80073839D02*
X119310438Y-80026220D01*
X119310438Y-80026220D02*
X119262819Y-79930982D01*
X119262819Y-79930982D02*
X119262819Y-79692887D01*
X119262819Y-79692887D02*
X119310438Y-79597649D01*
X119310438Y-79597649D02*
X119358057Y-79550030D01*
X119358057Y-79550030D02*
X119453295Y-79502411D01*
X119453295Y-79502411D02*
X119548533Y-79502411D01*
X119548533Y-79502411D02*
X119691390Y-79550030D01*
X119691390Y-79550030D02*
X120262819Y-80121458D01*
X120262819Y-80121458D02*
X120262819Y-79502411D01*
X120262819Y-79026220D02*
X120262819Y-78835744D01*
X120262819Y-78835744D02*
X120215200Y-78740506D01*
X120215200Y-78740506D02*
X120167580Y-78692887D01*
X120167580Y-78692887D02*
X120024723Y-78597649D01*
X120024723Y-78597649D02*
X119834247Y-78550030D01*
X119834247Y-78550030D02*
X119453295Y-78550030D01*
X119453295Y-78550030D02*
X119358057Y-78597649D01*
X119358057Y-78597649D02*
X119310438Y-78645268D01*
X119310438Y-78645268D02*
X119262819Y-78740506D01*
X119262819Y-78740506D02*
X119262819Y-78930982D01*
X119262819Y-78930982D02*
X119310438Y-79026220D01*
X119310438Y-79026220D02*
X119358057Y-79073839D01*
X119358057Y-79073839D02*
X119453295Y-79121458D01*
X119453295Y-79121458D02*
X119691390Y-79121458D01*
X119691390Y-79121458D02*
X119786628Y-79073839D01*
X119786628Y-79073839D02*
X119834247Y-79026220D01*
X119834247Y-79026220D02*
X119881866Y-78930982D01*
X119881866Y-78930982D02*
X119881866Y-78740506D01*
X119881866Y-78740506D02*
X119834247Y-78645268D01*
X119834247Y-78645268D02*
X119786628Y-78597649D01*
X119786628Y-78597649D02*
X119691390Y-78550030D01*
X148706152Y-89607649D02*
X149372819Y-89607649D01*
X148325200Y-89845744D02*
X149039485Y-90083839D01*
X149039485Y-90083839D02*
X149039485Y-89464792D01*
X151542819Y-81552411D02*
X151542819Y-82123839D01*
X151542819Y-81838125D02*
X150542819Y-81838125D01*
X150542819Y-81838125D02*
X150685676Y-81933363D01*
X150685676Y-81933363D02*
X150780914Y-82028601D01*
X150780914Y-82028601D02*
X150828533Y-82123839D01*
X132282819Y-95066922D02*
X132282819Y-95543112D01*
X132282819Y-95543112D02*
X132759009Y-95590731D01*
X132759009Y-95590731D02*
X132711390Y-95543112D01*
X132711390Y-95543112D02*
X132663771Y-95447874D01*
X132663771Y-95447874D02*
X132663771Y-95209779D01*
X132663771Y-95209779D02*
X132711390Y-95114541D01*
X132711390Y-95114541D02*
X132759009Y-95066922D01*
X132759009Y-95066922D02*
X132854247Y-95019303D01*
X132854247Y-95019303D02*
X133092342Y-95019303D01*
X133092342Y-95019303D02*
X133187580Y-95066922D01*
X133187580Y-95066922D02*
X133235200Y-95114541D01*
X133235200Y-95114541D02*
X133282819Y-95209779D01*
X133282819Y-95209779D02*
X133282819Y-95447874D01*
X133282819Y-95447874D02*
X133235200Y-95543112D01*
X133235200Y-95543112D02*
X133187580Y-95590731D01*
X132282819Y-94733588D02*
X133282819Y-94400255D01*
X133282819Y-94400255D02*
X132282819Y-94066922D01*
X108785969Y-87895057D02*
X108785969Y-86995057D01*
X108785969Y-87423628D02*
X109300255Y-87423628D01*
X109300255Y-87895057D02*
X109300255Y-86995057D01*
X109685969Y-87637914D02*
X110114541Y-87637914D01*
X109600255Y-87895057D02*
X109900255Y-86995057D01*
X109900255Y-86995057D02*
X110200255Y-87895057D01*
X110928827Y-87895057D02*
X110500255Y-87895057D01*
X110500255Y-87895057D02*
X110500255Y-86995057D01*
X111657398Y-87895057D02*
X111228826Y-87895057D01*
X111228826Y-87895057D02*
X111228826Y-86995057D01*
X111743112Y-87980771D02*
X112428826Y-87980771D01*
X113157397Y-87809342D02*
X113114540Y-87852200D01*
X113114540Y-87852200D02*
X112985968Y-87895057D01*
X112985968Y-87895057D02*
X112900254Y-87895057D01*
X112900254Y-87895057D02*
X112771683Y-87852200D01*
X112771683Y-87852200D02*
X112685968Y-87766485D01*
X112685968Y-87766485D02*
X112643111Y-87680771D01*
X112643111Y-87680771D02*
X112600254Y-87509342D01*
X112600254Y-87509342D02*
X112600254Y-87380771D01*
X112600254Y-87380771D02*
X112643111Y-87209342D01*
X112643111Y-87209342D02*
X112685968Y-87123628D01*
X112685968Y-87123628D02*
X112771683Y-87037914D01*
X112771683Y-87037914D02*
X112900254Y-86995057D01*
X112900254Y-86995057D02*
X112985968Y-86995057D01*
X112985968Y-86995057D02*
X113114540Y-87037914D01*
X113114540Y-87037914D02*
X113157397Y-87080771D01*
X110225969Y-96742819D02*
X109749779Y-96742819D01*
X109749779Y-96742819D02*
X109702160Y-97219009D01*
X109702160Y-97219009D02*
X109749779Y-97171390D01*
X109749779Y-97171390D02*
X109845017Y-97123771D01*
X109845017Y-97123771D02*
X110083112Y-97123771D01*
X110083112Y-97123771D02*
X110178350Y-97171390D01*
X110178350Y-97171390D02*
X110225969Y-97219009D01*
X110225969Y-97219009D02*
X110273588Y-97314247D01*
X110273588Y-97314247D02*
X110273588Y-97552342D01*
X110273588Y-97552342D02*
X110225969Y-97647580D01*
X110225969Y-97647580D02*
X110178350Y-97695200D01*
X110178350Y-97695200D02*
X110083112Y-97742819D01*
X110083112Y-97742819D02*
X109845017Y-97742819D01*
X109845017Y-97742819D02*
X109749779Y-97695200D01*
X109749779Y-97695200D02*
X109702160Y-97647580D01*
X110559303Y-96742819D02*
X110892636Y-97742819D01*
X110892636Y-97742819D02*
X111225969Y-96742819D01*
X109321207Y-100076152D02*
X108987874Y-99599961D01*
X108749779Y-100076152D02*
X108749779Y-99076152D01*
X108749779Y-99076152D02*
X109130731Y-99076152D01*
X109130731Y-99076152D02*
X109225969Y-99123771D01*
X109225969Y-99123771D02*
X109273588Y-99171390D01*
X109273588Y-99171390D02*
X109321207Y-99266628D01*
X109321207Y-99266628D02*
X109321207Y-99409485D01*
X109321207Y-99409485D02*
X109273588Y-99504723D01*
X109273588Y-99504723D02*
X109225969Y-99552342D01*
X109225969Y-99552342D02*
X109130731Y-99599961D01*
X109130731Y-99599961D02*
X108749779Y-99599961D01*
X109702160Y-100028533D02*
X109845017Y-100076152D01*
X109845017Y-100076152D02*
X110083112Y-100076152D01*
X110083112Y-100076152D02*
X110178350Y-100028533D01*
X110178350Y-100028533D02*
X110225969Y-99980913D01*
X110225969Y-99980913D02*
X110273588Y-99885675D01*
X110273588Y-99885675D02*
X110273588Y-99790437D01*
X110273588Y-99790437D02*
X110225969Y-99695199D01*
X110225969Y-99695199D02*
X110178350Y-99647580D01*
X110178350Y-99647580D02*
X110083112Y-99599961D01*
X110083112Y-99599961D02*
X109892636Y-99552342D01*
X109892636Y-99552342D02*
X109797398Y-99504723D01*
X109797398Y-99504723D02*
X109749779Y-99457104D01*
X109749779Y-99457104D02*
X109702160Y-99361866D01*
X109702160Y-99361866D02*
X109702160Y-99266628D01*
X109702160Y-99266628D02*
X109749779Y-99171390D01*
X109749779Y-99171390D02*
X109797398Y-99123771D01*
X109797398Y-99123771D02*
X109892636Y-99076152D01*
X109892636Y-99076152D02*
X110130731Y-99076152D01*
X110130731Y-99076152D02*
X110273588Y-99123771D01*
X111130731Y-99409485D02*
X111130731Y-100076152D01*
X110892636Y-99028533D02*
X110654541Y-99742818D01*
X110654541Y-99742818D02*
X111273588Y-99742818D01*
X111797398Y-99504723D02*
X111702160Y-99457104D01*
X111702160Y-99457104D02*
X111654541Y-99409485D01*
X111654541Y-99409485D02*
X111606922Y-99314247D01*
X111606922Y-99314247D02*
X111606922Y-99266628D01*
X111606922Y-99266628D02*
X111654541Y-99171390D01*
X111654541Y-99171390D02*
X111702160Y-99123771D01*
X111702160Y-99123771D02*
X111797398Y-99076152D01*
X111797398Y-99076152D02*
X111987874Y-99076152D01*
X111987874Y-99076152D02*
X112083112Y-99123771D01*
X112083112Y-99123771D02*
X112130731Y-99171390D01*
X112130731Y-99171390D02*
X112178350Y-99266628D01*
X112178350Y-99266628D02*
X112178350Y-99314247D01*
X112178350Y-99314247D02*
X112130731Y-99409485D01*
X112130731Y-99409485D02*
X112083112Y-99457104D01*
X112083112Y-99457104D02*
X111987874Y-99504723D01*
X111987874Y-99504723D02*
X111797398Y-99504723D01*
X111797398Y-99504723D02*
X111702160Y-99552342D01*
X111702160Y-99552342D02*
X111654541Y-99599961D01*
X111654541Y-99599961D02*
X111606922Y-99695199D01*
X111606922Y-99695199D02*
X111606922Y-99885675D01*
X111606922Y-99885675D02*
X111654541Y-99980913D01*
X111654541Y-99980913D02*
X111702160Y-100028533D01*
X111702160Y-100028533D02*
X111797398Y-100076152D01*
X111797398Y-100076152D02*
X111987874Y-100076152D01*
X111987874Y-100076152D02*
X112083112Y-100028533D01*
X112083112Y-100028533D02*
X112130731Y-99980913D01*
X112130731Y-99980913D02*
X112178350Y-99885675D01*
X112178350Y-99885675D02*
X112178350Y-99695199D01*
X112178350Y-99695199D02*
X112130731Y-99599961D01*
X112130731Y-99599961D02*
X112083112Y-99552342D01*
X112083112Y-99552342D02*
X111987874Y-99504723D01*
X113083112Y-99076152D02*
X112606922Y-99076152D01*
X112606922Y-99076152D02*
X112559303Y-99552342D01*
X112559303Y-99552342D02*
X112606922Y-99504723D01*
X112606922Y-99504723D02*
X112702160Y-99457104D01*
X112702160Y-99457104D02*
X112940255Y-99457104D01*
X112940255Y-99457104D02*
X113035493Y-99504723D01*
X113035493Y-99504723D02*
X113083112Y-99552342D01*
X113083112Y-99552342D02*
X113130731Y-99647580D01*
X113130731Y-99647580D02*
X113130731Y-99885675D01*
X113130731Y-99885675D02*
X113083112Y-99980913D01*
X113083112Y-99980913D02*
X113035493Y-100028533D01*
X113035493Y-100028533D02*
X112940255Y-100076152D01*
X112940255Y-100076152D02*
X112702160Y-100076152D01*
X112702160Y-100076152D02*
X112606922Y-100028533D01*
X112606922Y-100028533D02*
X112559303Y-99980913D01*
X113321208Y-100171390D02*
X114083112Y-100171390D01*
X114273589Y-99790437D02*
X114749779Y-99790437D01*
X114178351Y-100076152D02*
X114511684Y-99076152D01*
X114511684Y-99076152D02*
X114845017Y-100076152D01*
X141395057Y-96371683D02*
X141395057Y-95857398D01*
X142295057Y-96114540D02*
X141395057Y-96114540D01*
X142295057Y-95557398D02*
X141395057Y-95557398D01*
X141823628Y-95557398D02*
X141823628Y-95043112D01*
X142295057Y-95043112D02*
X141395057Y-95043112D01*
X141823628Y-94614541D02*
X141823628Y-94314541D01*
X142295057Y-94185969D02*
X142295057Y-94614541D01*
X142295057Y-94614541D02*
X141395057Y-94614541D01*
X141395057Y-94614541D02*
X141395057Y-94185969D01*
X142295057Y-93285969D02*
X141866485Y-93585969D01*
X142295057Y-93800255D02*
X141395057Y-93800255D01*
X141395057Y-93800255D02*
X141395057Y-93457398D01*
X141395057Y-93457398D02*
X141437914Y-93371683D01*
X141437914Y-93371683D02*
X141480771Y-93328826D01*
X141480771Y-93328826D02*
X141566485Y-93285969D01*
X141566485Y-93285969D02*
X141695057Y-93285969D01*
X141695057Y-93285969D02*
X141780771Y-93328826D01*
X141780771Y-93328826D02*
X141823628Y-93371683D01*
X141823628Y-93371683D02*
X141866485Y-93457398D01*
X141866485Y-93457398D02*
X141866485Y-93800255D01*
X142295057Y-92900255D02*
X141395057Y-92900255D01*
X141395057Y-92900255D02*
X142037914Y-92600255D01*
X142037914Y-92600255D02*
X141395057Y-92300255D01*
X141395057Y-92300255D02*
X142295057Y-92300255D01*
X141952200Y-91871684D02*
X141952200Y-91185970D01*
X142295057Y-91528827D02*
X141609342Y-91528827D01*
D12*
X117413000Y-78984652D02*
X117413000Y-79952271D01*
X117654905Y-79710366D02*
X117413000Y-79952271D01*
X117413000Y-79952271D02*
X117171095Y-79710366D01*
D11*
X115292819Y-90773588D02*
X115292819Y-90154541D01*
X115292819Y-90154541D02*
X115673771Y-90487874D01*
X115673771Y-90487874D02*
X115673771Y-90345017D01*
X115673771Y-90345017D02*
X115721390Y-90249779D01*
X115721390Y-90249779D02*
X115769009Y-90202160D01*
X115769009Y-90202160D02*
X115864247Y-90154541D01*
X115864247Y-90154541D02*
X116102342Y-90154541D01*
X116102342Y-90154541D02*
X116197580Y-90202160D01*
X116197580Y-90202160D02*
X116245200Y-90249779D01*
X116245200Y-90249779D02*
X116292819Y-90345017D01*
X116292819Y-90345017D02*
X116292819Y-90630731D01*
X116292819Y-90630731D02*
X116245200Y-90725969D01*
X116245200Y-90725969D02*
X116197580Y-90773588D01*
X115292819Y-89535493D02*
X115292819Y-89440255D01*
X115292819Y-89440255D02*
X115340438Y-89345017D01*
X115340438Y-89345017D02*
X115388057Y-89297398D01*
X115388057Y-89297398D02*
X115483295Y-89249779D01*
X115483295Y-89249779D02*
X115673771Y-89202160D01*
X115673771Y-89202160D02*
X115911866Y-89202160D01*
X115911866Y-89202160D02*
X116102342Y-89249779D01*
X116102342Y-89249779D02*
X116197580Y-89297398D01*
X116197580Y-89297398D02*
X116245200Y-89345017D01*
X116245200Y-89345017D02*
X116292819Y-89440255D01*
X116292819Y-89440255D02*
X116292819Y-89535493D01*
X116292819Y-89535493D02*
X116245200Y-89630731D01*
X116245200Y-89630731D02*
X116197580Y-89678350D01*
X116197580Y-89678350D02*
X116102342Y-89725969D01*
X116102342Y-89725969D02*
X115911866Y-89773588D01*
X115911866Y-89773588D02*
X115673771Y-89773588D01*
X115673771Y-89773588D02*
X115483295Y-89725969D01*
X115483295Y-89725969D02*
X115388057Y-89678350D01*
X115388057Y-89678350D02*
X115340438Y-89630731D01*
X115340438Y-89630731D02*
X115292819Y-89535493D01*
X141292819Y-90154541D02*
X141292819Y-90725969D01*
X141292819Y-90440255D02*
X140292819Y-90440255D01*
X140292819Y-90440255D02*
X140435676Y-90535493D01*
X140435676Y-90535493D02*
X140530914Y-90630731D01*
X140530914Y-90630731D02*
X140578533Y-90725969D01*
X140292819Y-89535493D02*
X140292819Y-89440255D01*
X140292819Y-89440255D02*
X140340438Y-89345017D01*
X140340438Y-89345017D02*
X140388057Y-89297398D01*
X140388057Y-89297398D02*
X140483295Y-89249779D01*
X140483295Y-89249779D02*
X140673771Y-89202160D01*
X140673771Y-89202160D02*
X140911866Y-89202160D01*
X140911866Y-89202160D02*
X141102342Y-89249779D01*
X141102342Y-89249779D02*
X141197580Y-89297398D01*
X141197580Y-89297398D02*
X141245200Y-89345017D01*
X141245200Y-89345017D02*
X141292819Y-89440255D01*
X141292819Y-89440255D02*
X141292819Y-89535493D01*
X141292819Y-89535493D02*
X141245200Y-89630731D01*
X141245200Y-89630731D02*
X141197580Y-89678350D01*
X141197580Y-89678350D02*
X141102342Y-89725969D01*
X141102342Y-89725969D02*
X140911866Y-89773588D01*
X140911866Y-89773588D02*
X140673771Y-89773588D01*
X140673771Y-89773588D02*
X140483295Y-89725969D01*
X140483295Y-89725969D02*
X140388057Y-89678350D01*
X140388057Y-89678350D02*
X140340438Y-89630731D01*
X140340438Y-89630731D02*
X140292819Y-89535493D01*
D12*
X149413000Y-79734652D02*
X149413000Y-80702271D01*
X149654905Y-80460366D02*
X149413000Y-80702271D01*
X149413000Y-80702271D02*
X149171095Y-80460366D01*
D11*
X152981238Y-95827819D02*
X153171714Y-95827819D01*
X153171714Y-95827819D02*
X153266952Y-95875438D01*
X153266952Y-95875438D02*
X153362190Y-95970676D01*
X153362190Y-95970676D02*
X153409809Y-96161152D01*
X153409809Y-96161152D02*
X153409809Y-96494485D01*
X153409809Y-96494485D02*
X153362190Y-96684961D01*
X153362190Y-96684961D02*
X153266952Y-96780200D01*
X153266952Y-96780200D02*
X153171714Y-96827819D01*
X153171714Y-96827819D02*
X152981238Y-96827819D01*
X152981238Y-96827819D02*
X152886000Y-96780200D01*
X152886000Y-96780200D02*
X152790762Y-96684961D01*
X152790762Y-96684961D02*
X152743143Y-96494485D01*
X152743143Y-96494485D02*
X152743143Y-96161152D01*
X152743143Y-96161152D02*
X152790762Y-95970676D01*
X152790762Y-95970676D02*
X152886000Y-95875438D01*
X152886000Y-95875438D02*
X152981238Y-95827819D01*
X153838381Y-96827819D02*
X153838381Y-95827819D01*
X153838381Y-95827819D02*
X154076476Y-95827819D01*
X154076476Y-95827819D02*
X154219333Y-95875438D01*
X154219333Y-95875438D02*
X154314571Y-95970676D01*
X154314571Y-95970676D02*
X154362190Y-96065914D01*
X154362190Y-96065914D02*
X154409809Y-96256390D01*
X154409809Y-96256390D02*
X154409809Y-96399247D01*
X154409809Y-96399247D02*
X154362190Y-96589723D01*
X154362190Y-96589723D02*
X154314571Y-96684961D01*
X154314571Y-96684961D02*
X154219333Y-96780200D01*
X154219333Y-96780200D02*
X154076476Y-96827819D01*
X154076476Y-96827819D02*
X153838381Y-96827819D01*
X155409809Y-96827819D02*
X155076476Y-96351628D01*
X154838381Y-96827819D02*
X154838381Y-95827819D01*
X154838381Y-95827819D02*
X155219333Y-95827819D01*
X155219333Y-95827819D02*
X155314571Y-95875438D01*
X155314571Y-95875438D02*
X155362190Y-95923057D01*
X155362190Y-95923057D02*
X155409809Y-96018295D01*
X155409809Y-96018295D02*
X155409809Y-96161152D01*
X155409809Y-96161152D02*
X155362190Y-96256390D01*
X155362190Y-96256390D02*
X155314571Y-96304009D01*
X155314571Y-96304009D02*
X155219333Y-96351628D01*
X155219333Y-96351628D02*
X154838381Y-96351628D01*
X155838381Y-96827819D02*
X155838381Y-95827819D01*
X156171714Y-95827819D02*
X156505047Y-96827819D01*
X156505047Y-96827819D02*
X156838380Y-95827819D01*
X157171714Y-96304009D02*
X157505047Y-96304009D01*
X157647904Y-96827819D02*
X157171714Y-96827819D01*
X157171714Y-96827819D02*
X157171714Y-95827819D01*
X157171714Y-95827819D02*
X157647904Y-95827819D01*
X159409809Y-96732580D02*
X159362190Y-96780200D01*
X159362190Y-96780200D02*
X159219333Y-96827819D01*
X159219333Y-96827819D02*
X159124095Y-96827819D01*
X159124095Y-96827819D02*
X158981238Y-96780200D01*
X158981238Y-96780200D02*
X158886000Y-96684961D01*
X158886000Y-96684961D02*
X158838381Y-96589723D01*
X158838381Y-96589723D02*
X158790762Y-96399247D01*
X158790762Y-96399247D02*
X158790762Y-96256390D01*
X158790762Y-96256390D02*
X158838381Y-96065914D01*
X158838381Y-96065914D02*
X158886000Y-95970676D01*
X158886000Y-95970676D02*
X158981238Y-95875438D01*
X158981238Y-95875438D02*
X159124095Y-95827819D01*
X159124095Y-95827819D02*
X159219333Y-95827819D01*
X159219333Y-95827819D02*
X159362190Y-95875438D01*
X159362190Y-95875438D02*
X159409809Y-95923057D01*
X159790762Y-96542104D02*
X160266952Y-96542104D01*
X159695524Y-96827819D02*
X160028857Y-95827819D01*
X160028857Y-95827819D02*
X160362190Y-96827819D01*
X160695524Y-96827819D02*
X160695524Y-95827819D01*
X160695524Y-95827819D02*
X161266952Y-96827819D01*
X161266952Y-96827819D02*
X161266952Y-95827819D01*
X162457429Y-95923057D02*
X162505048Y-95875438D01*
X162505048Y-95875438D02*
X162600286Y-95827819D01*
X162600286Y-95827819D02*
X162838381Y-95827819D01*
X162838381Y-95827819D02*
X162933619Y-95875438D01*
X162933619Y-95875438D02*
X162981238Y-95923057D01*
X162981238Y-95923057D02*
X163028857Y-96018295D01*
X163028857Y-96018295D02*
X163028857Y-96113533D01*
X163028857Y-96113533D02*
X162981238Y-96256390D01*
X162981238Y-96256390D02*
X162409810Y-96827819D01*
X162409810Y-96827819D02*
X163028857Y-96827819D01*
X108785969Y-82895057D02*
X108785969Y-81995057D01*
X108785969Y-82423628D02*
X109300255Y-82423628D01*
X109300255Y-82895057D02*
X109300255Y-81995057D01*
X109685969Y-82637914D02*
X110114541Y-82637914D01*
X109600255Y-82895057D02*
X109900255Y-81995057D01*
X109900255Y-81995057D02*
X110200255Y-82895057D01*
X110928827Y-82895057D02*
X110500255Y-82895057D01*
X110500255Y-82895057D02*
X110500255Y-81995057D01*
X111657398Y-82895057D02*
X111228826Y-82895057D01*
X111228826Y-82895057D02*
X111228826Y-81995057D01*
X111743112Y-82980771D02*
X112428826Y-82980771D01*
X112600254Y-82637914D02*
X113028826Y-82637914D01*
X112514540Y-82895057D02*
X112814540Y-81995057D01*
X112814540Y-81995057D02*
X113114540Y-82895057D01*
X108785969Y-85495057D02*
X108785969Y-84595057D01*
X108785969Y-85023628D02*
X109300255Y-85023628D01*
X109300255Y-85495057D02*
X109300255Y-84595057D01*
X109685969Y-85237914D02*
X110114541Y-85237914D01*
X109600255Y-85495057D02*
X109900255Y-84595057D01*
X109900255Y-84595057D02*
X110200255Y-85495057D01*
X110928827Y-85495057D02*
X110500255Y-85495057D01*
X110500255Y-85495057D02*
X110500255Y-84595057D01*
X111657398Y-85495057D02*
X111228826Y-85495057D01*
X111228826Y-85495057D02*
X111228826Y-84595057D01*
X111743112Y-85580771D02*
X112428826Y-85580771D01*
X112943111Y-85023628D02*
X113071683Y-85066485D01*
X113071683Y-85066485D02*
X113114540Y-85109342D01*
X113114540Y-85109342D02*
X113157397Y-85195057D01*
X113157397Y-85195057D02*
X113157397Y-85323628D01*
X113157397Y-85323628D02*
X113114540Y-85409342D01*
X113114540Y-85409342D02*
X113071683Y-85452200D01*
X113071683Y-85452200D02*
X112985968Y-85495057D01*
X112985968Y-85495057D02*
X112643111Y-85495057D01*
X112643111Y-85495057D02*
X112643111Y-84595057D01*
X112643111Y-84595057D02*
X112943111Y-84595057D01*
X112943111Y-84595057D02*
X113028826Y-84637914D01*
X113028826Y-84637914D02*
X113071683Y-84680771D01*
X113071683Y-84680771D02*
X113114540Y-84766485D01*
X113114540Y-84766485D02*
X113114540Y-84852200D01*
X113114540Y-84852200D02*
X113071683Y-84937914D01*
X113071683Y-84937914D02*
X113028826Y-84980771D01*
X113028826Y-84980771D02*
X112943111Y-85023628D01*
X112943111Y-85023628D02*
X112643111Y-85023628D01*
X117888057Y-82123839D02*
X117840438Y-82076220D01*
X117840438Y-82076220D02*
X117792819Y-81980982D01*
X117792819Y-81980982D02*
X117792819Y-81742887D01*
X117792819Y-81742887D02*
X117840438Y-81647649D01*
X117840438Y-81647649D02*
X117888057Y-81600030D01*
X117888057Y-81600030D02*
X117983295Y-81552411D01*
X117983295Y-81552411D02*
X118078533Y-81552411D01*
X118078533Y-81552411D02*
X118221390Y-81600030D01*
X118221390Y-81600030D02*
X118792819Y-82171458D01*
X118792819Y-82171458D02*
X118792819Y-81552411D01*
X117792819Y-81219077D02*
X117792819Y-80552411D01*
X117792819Y-80552411D02*
X118792819Y-80980982D01*
X122888057Y-82123839D02*
X122840438Y-82076220D01*
X122840438Y-82076220D02*
X122792819Y-81980982D01*
X122792819Y-81980982D02*
X122792819Y-81742887D01*
X122792819Y-81742887D02*
X122840438Y-81647649D01*
X122840438Y-81647649D02*
X122888057Y-81600030D01*
X122888057Y-81600030D02*
X122983295Y-81552411D01*
X122983295Y-81552411D02*
X123078533Y-81552411D01*
X123078533Y-81552411D02*
X123221390Y-81600030D01*
X123221390Y-81600030D02*
X123792819Y-82171458D01*
X123792819Y-82171458D02*
X123792819Y-81552411D01*
X122792819Y-81219077D02*
X122792819Y-80600030D01*
X122792819Y-80600030D02*
X123173771Y-80933363D01*
X123173771Y-80933363D02*
X123173771Y-80790506D01*
X123173771Y-80790506D02*
X123221390Y-80695268D01*
X123221390Y-80695268D02*
X123269009Y-80647649D01*
X123269009Y-80647649D02*
X123364247Y-80600030D01*
X123364247Y-80600030D02*
X123602342Y-80600030D01*
X123602342Y-80600030D02*
X123697580Y-80647649D01*
X123697580Y-80647649D02*
X123745200Y-80695268D01*
X123745200Y-80695268D02*
X123792819Y-80790506D01*
X123792819Y-80790506D02*
X123792819Y-81076220D01*
X123792819Y-81076220D02*
X123745200Y-81171458D01*
X123745200Y-81171458D02*
X123697580Y-81219077D01*
X117888057Y-90725969D02*
X117840438Y-90678350D01*
X117840438Y-90678350D02*
X117792819Y-90583112D01*
X117792819Y-90583112D02*
X117792819Y-90345017D01*
X117792819Y-90345017D02*
X117840438Y-90249779D01*
X117840438Y-90249779D02*
X117888057Y-90202160D01*
X117888057Y-90202160D02*
X117983295Y-90154541D01*
X117983295Y-90154541D02*
X118078533Y-90154541D01*
X118078533Y-90154541D02*
X118221390Y-90202160D01*
X118221390Y-90202160D02*
X118792819Y-90773588D01*
X118792819Y-90773588D02*
X118792819Y-90154541D01*
X118221390Y-89583112D02*
X118173771Y-89678350D01*
X118173771Y-89678350D02*
X118126152Y-89725969D01*
X118126152Y-89725969D02*
X118030914Y-89773588D01*
X118030914Y-89773588D02*
X117983295Y-89773588D01*
X117983295Y-89773588D02*
X117888057Y-89725969D01*
X117888057Y-89725969D02*
X117840438Y-89678350D01*
X117840438Y-89678350D02*
X117792819Y-89583112D01*
X117792819Y-89583112D02*
X117792819Y-89392636D01*
X117792819Y-89392636D02*
X117840438Y-89297398D01*
X117840438Y-89297398D02*
X117888057Y-89249779D01*
X117888057Y-89249779D02*
X117983295Y-89202160D01*
X117983295Y-89202160D02*
X118030914Y-89202160D01*
X118030914Y-89202160D02*
X118126152Y-89249779D01*
X118126152Y-89249779D02*
X118173771Y-89297398D01*
X118173771Y-89297398D02*
X118221390Y-89392636D01*
X118221390Y-89392636D02*
X118221390Y-89583112D01*
X118221390Y-89583112D02*
X118269009Y-89678350D01*
X118269009Y-89678350D02*
X118316628Y-89725969D01*
X118316628Y-89725969D02*
X118411866Y-89773588D01*
X118411866Y-89773588D02*
X118602342Y-89773588D01*
X118602342Y-89773588D02*
X118697580Y-89725969D01*
X118697580Y-89725969D02*
X118745200Y-89678350D01*
X118745200Y-89678350D02*
X118792819Y-89583112D01*
X118792819Y-89583112D02*
X118792819Y-89392636D01*
X118792819Y-89392636D02*
X118745200Y-89297398D01*
X118745200Y-89297398D02*
X118697580Y-89249779D01*
X118697580Y-89249779D02*
X118602342Y-89202160D01*
X118602342Y-89202160D02*
X118411866Y-89202160D01*
X118411866Y-89202160D02*
X118316628Y-89249779D01*
X118316628Y-89249779D02*
X118269009Y-89297398D01*
X118269009Y-89297398D02*
X118221390Y-89392636D01*
X136392819Y-81552411D02*
X136392819Y-82123839D01*
X136392819Y-81838125D02*
X135392819Y-81838125D01*
X135392819Y-81838125D02*
X135535676Y-81933363D01*
X135535676Y-81933363D02*
X135630914Y-82028601D01*
X135630914Y-82028601D02*
X135678533Y-82123839D01*
X135392819Y-81219077D02*
X135392819Y-80600030D01*
X135392819Y-80600030D02*
X135773771Y-80933363D01*
X135773771Y-80933363D02*
X135773771Y-80790506D01*
X135773771Y-80790506D02*
X135821390Y-80695268D01*
X135821390Y-80695268D02*
X135869009Y-80647649D01*
X135869009Y-80647649D02*
X135964247Y-80600030D01*
X135964247Y-80600030D02*
X136202342Y-80600030D01*
X136202342Y-80600030D02*
X136297580Y-80647649D01*
X136297580Y-80647649D02*
X136345200Y-80695268D01*
X136345200Y-80695268D02*
X136392819Y-80790506D01*
X136392819Y-80790506D02*
X136392819Y-81076220D01*
X136392819Y-81076220D02*
X136345200Y-81171458D01*
X136345200Y-81171458D02*
X136297580Y-81219077D01*
X125388057Y-82123839D02*
X125340438Y-82076220D01*
X125340438Y-82076220D02*
X125292819Y-81980982D01*
X125292819Y-81980982D02*
X125292819Y-81742887D01*
X125292819Y-81742887D02*
X125340438Y-81647649D01*
X125340438Y-81647649D02*
X125388057Y-81600030D01*
X125388057Y-81600030D02*
X125483295Y-81552411D01*
X125483295Y-81552411D02*
X125578533Y-81552411D01*
X125578533Y-81552411D02*
X125721390Y-81600030D01*
X125721390Y-81600030D02*
X126292819Y-82171458D01*
X126292819Y-82171458D02*
X126292819Y-81552411D01*
X126292819Y-80600030D02*
X126292819Y-81171458D01*
X126292819Y-80885744D02*
X125292819Y-80885744D01*
X125292819Y-80885744D02*
X125435676Y-80980982D01*
X125435676Y-80980982D02*
X125530914Y-81076220D01*
X125530914Y-81076220D02*
X125578533Y-81171458D01*
X148512000Y-98803043D02*
X148702476Y-98803043D01*
X148702476Y-98803043D02*
X148797714Y-98850662D01*
X148797714Y-98850662D02*
X148892952Y-98945900D01*
X148892952Y-98945900D02*
X148940571Y-99136376D01*
X148940571Y-99136376D02*
X148940571Y-99469709D01*
X148940571Y-99469709D02*
X148892952Y-99660185D01*
X148892952Y-99660185D02*
X148797714Y-99755424D01*
X148797714Y-99755424D02*
X148702476Y-99803043D01*
X148702476Y-99803043D02*
X148512000Y-99803043D01*
X148512000Y-99803043D02*
X148416762Y-99755424D01*
X148416762Y-99755424D02*
X148321524Y-99660185D01*
X148321524Y-99660185D02*
X148273905Y-99469709D01*
X148273905Y-99469709D02*
X148273905Y-99136376D01*
X148273905Y-99136376D02*
X148321524Y-98945900D01*
X148321524Y-98945900D02*
X148416762Y-98850662D01*
X148416762Y-98850662D02*
X148512000Y-98803043D01*
X149369143Y-99803043D02*
X149369143Y-98803043D01*
X149369143Y-98803043D02*
X149607238Y-98803043D01*
X149607238Y-98803043D02*
X149750095Y-98850662D01*
X149750095Y-98850662D02*
X149845333Y-98945900D01*
X149845333Y-98945900D02*
X149892952Y-99041138D01*
X149892952Y-99041138D02*
X149940571Y-99231614D01*
X149940571Y-99231614D02*
X149940571Y-99374471D01*
X149940571Y-99374471D02*
X149892952Y-99564947D01*
X149892952Y-99564947D02*
X149845333Y-99660185D01*
X149845333Y-99660185D02*
X149750095Y-99755424D01*
X149750095Y-99755424D02*
X149607238Y-99803043D01*
X149607238Y-99803043D02*
X149369143Y-99803043D01*
X150369143Y-99803043D02*
X150369143Y-99136376D01*
X150369143Y-99326852D02*
X150416762Y-99231614D01*
X150416762Y-99231614D02*
X150464381Y-99183995D01*
X150464381Y-99183995D02*
X150559619Y-99136376D01*
X150559619Y-99136376D02*
X150654857Y-99136376D01*
X150988191Y-99803043D02*
X150988191Y-99136376D01*
X150988191Y-98803043D02*
X150940572Y-98850662D01*
X150940572Y-98850662D02*
X150988191Y-98898281D01*
X150988191Y-98898281D02*
X151035810Y-98850662D01*
X151035810Y-98850662D02*
X150988191Y-98803043D01*
X150988191Y-98803043D02*
X150988191Y-98898281D01*
X151369143Y-99136376D02*
X151607238Y-99803043D01*
X151607238Y-99803043D02*
X151845333Y-99136376D01*
X152607238Y-99755424D02*
X152512000Y-99803043D01*
X152512000Y-99803043D02*
X152321524Y-99803043D01*
X152321524Y-99803043D02*
X152226286Y-99755424D01*
X152226286Y-99755424D02*
X152178667Y-99660185D01*
X152178667Y-99660185D02*
X152178667Y-99279233D01*
X152178667Y-99279233D02*
X152226286Y-99183995D01*
X152226286Y-99183995D02*
X152321524Y-99136376D01*
X152321524Y-99136376D02*
X152512000Y-99136376D01*
X152512000Y-99136376D02*
X152607238Y-99183995D01*
X152607238Y-99183995D02*
X152654857Y-99279233D01*
X152654857Y-99279233D02*
X152654857Y-99374471D01*
X152654857Y-99374471D02*
X152178667Y-99469709D01*
X153797715Y-99755424D02*
X153940572Y-99803043D01*
X153940572Y-99803043D02*
X154178667Y-99803043D01*
X154178667Y-99803043D02*
X154273905Y-99755424D01*
X154273905Y-99755424D02*
X154321524Y-99707804D01*
X154321524Y-99707804D02*
X154369143Y-99612566D01*
X154369143Y-99612566D02*
X154369143Y-99517328D01*
X154369143Y-99517328D02*
X154321524Y-99422090D01*
X154321524Y-99422090D02*
X154273905Y-99374471D01*
X154273905Y-99374471D02*
X154178667Y-99326852D01*
X154178667Y-99326852D02*
X153988191Y-99279233D01*
X153988191Y-99279233D02*
X153892953Y-99231614D01*
X153892953Y-99231614D02*
X153845334Y-99183995D01*
X153845334Y-99183995D02*
X153797715Y-99088757D01*
X153797715Y-99088757D02*
X153797715Y-98993519D01*
X153797715Y-98993519D02*
X153845334Y-98898281D01*
X153845334Y-98898281D02*
X153892953Y-98850662D01*
X153892953Y-98850662D02*
X153988191Y-98803043D01*
X153988191Y-98803043D02*
X154226286Y-98803043D01*
X154226286Y-98803043D02*
X154369143Y-98850662D01*
X155321524Y-99803043D02*
X154750096Y-99803043D01*
X155035810Y-99803043D02*
X155035810Y-98803043D01*
X155035810Y-98803043D02*
X154940572Y-98945900D01*
X154940572Y-98945900D02*
X154845334Y-99041138D01*
X154845334Y-99041138D02*
X154750096Y-99088757D01*
X156845334Y-99279233D02*
X156988191Y-99326852D01*
X156988191Y-99326852D02*
X157035810Y-99374471D01*
X157035810Y-99374471D02*
X157083429Y-99469709D01*
X157083429Y-99469709D02*
X157083429Y-99612566D01*
X157083429Y-99612566D02*
X157035810Y-99707804D01*
X157035810Y-99707804D02*
X156988191Y-99755424D01*
X156988191Y-99755424D02*
X156892953Y-99803043D01*
X156892953Y-99803043D02*
X156512001Y-99803043D01*
X156512001Y-99803043D02*
X156512001Y-98803043D01*
X156512001Y-98803043D02*
X156845334Y-98803043D01*
X156845334Y-98803043D02*
X156940572Y-98850662D01*
X156940572Y-98850662D02*
X156988191Y-98898281D01*
X156988191Y-98898281D02*
X157035810Y-98993519D01*
X157035810Y-98993519D02*
X157035810Y-99088757D01*
X157035810Y-99088757D02*
X156988191Y-99183995D01*
X156988191Y-99183995D02*
X156940572Y-99231614D01*
X156940572Y-99231614D02*
X156845334Y-99279233D01*
X156845334Y-99279233D02*
X156512001Y-99279233D01*
X157512001Y-99803043D02*
X157512001Y-99136376D01*
X157512001Y-99326852D02*
X157559620Y-99231614D01*
X157559620Y-99231614D02*
X157607239Y-99183995D01*
X157607239Y-99183995D02*
X157702477Y-99136376D01*
X157702477Y-99136376D02*
X157797715Y-99136376D01*
X158512001Y-99755424D02*
X158416763Y-99803043D01*
X158416763Y-99803043D02*
X158226287Y-99803043D01*
X158226287Y-99803043D02*
X158131049Y-99755424D01*
X158131049Y-99755424D02*
X158083430Y-99660185D01*
X158083430Y-99660185D02*
X158083430Y-99279233D01*
X158083430Y-99279233D02*
X158131049Y-99183995D01*
X158131049Y-99183995D02*
X158226287Y-99136376D01*
X158226287Y-99136376D02*
X158416763Y-99136376D01*
X158416763Y-99136376D02*
X158512001Y-99183995D01*
X158512001Y-99183995D02*
X158559620Y-99279233D01*
X158559620Y-99279233D02*
X158559620Y-99374471D01*
X158559620Y-99374471D02*
X158083430Y-99469709D01*
X159416763Y-99803043D02*
X159416763Y-99279233D01*
X159416763Y-99279233D02*
X159369144Y-99183995D01*
X159369144Y-99183995D02*
X159273906Y-99136376D01*
X159273906Y-99136376D02*
X159083430Y-99136376D01*
X159083430Y-99136376D02*
X158988192Y-99183995D01*
X159416763Y-99755424D02*
X159321525Y-99803043D01*
X159321525Y-99803043D02*
X159083430Y-99803043D01*
X159083430Y-99803043D02*
X158988192Y-99755424D01*
X158988192Y-99755424D02*
X158940573Y-99660185D01*
X158940573Y-99660185D02*
X158940573Y-99564947D01*
X158940573Y-99564947D02*
X158988192Y-99469709D01*
X158988192Y-99469709D02*
X159083430Y-99422090D01*
X159083430Y-99422090D02*
X159321525Y-99422090D01*
X159321525Y-99422090D02*
X159416763Y-99374471D01*
X159892954Y-99803043D02*
X159892954Y-98803043D01*
X159988192Y-99422090D02*
X160273906Y-99803043D01*
X160273906Y-99136376D02*
X159892954Y-99517328D01*
X160845335Y-99803043D02*
X160750097Y-99755424D01*
X160750097Y-99755424D02*
X160702478Y-99707804D01*
X160702478Y-99707804D02*
X160654859Y-99612566D01*
X160654859Y-99612566D02*
X160654859Y-99326852D01*
X160654859Y-99326852D02*
X160702478Y-99231614D01*
X160702478Y-99231614D02*
X160750097Y-99183995D01*
X160750097Y-99183995D02*
X160845335Y-99136376D01*
X160845335Y-99136376D02*
X160988192Y-99136376D01*
X160988192Y-99136376D02*
X161083430Y-99183995D01*
X161083430Y-99183995D02*
X161131049Y-99231614D01*
X161131049Y-99231614D02*
X161178668Y-99326852D01*
X161178668Y-99326852D02*
X161178668Y-99612566D01*
X161178668Y-99612566D02*
X161131049Y-99707804D01*
X161131049Y-99707804D02*
X161083430Y-99755424D01*
X161083430Y-99755424D02*
X160988192Y-99803043D01*
X160988192Y-99803043D02*
X160845335Y-99803043D01*
X162035811Y-99136376D02*
X162035811Y-99803043D01*
X161607240Y-99136376D02*
X161607240Y-99660185D01*
X161607240Y-99660185D02*
X161654859Y-99755424D01*
X161654859Y-99755424D02*
X161750097Y-99803043D01*
X161750097Y-99803043D02*
X161892954Y-99803043D01*
X161892954Y-99803043D02*
X161988192Y-99755424D01*
X161988192Y-99755424D02*
X162035811Y-99707804D01*
X162369145Y-99136376D02*
X162750097Y-99136376D01*
X162512002Y-98803043D02*
X162512002Y-99660185D01*
X162512002Y-99660185D02*
X162559621Y-99755424D01*
X162559621Y-99755424D02*
X162654859Y-99803043D01*
X162654859Y-99803043D02*
X162750097Y-99803043D01*
X148654857Y-100889177D02*
X148797714Y-100936796D01*
X148797714Y-100936796D02*
X148845333Y-100984415D01*
X148845333Y-100984415D02*
X148892952Y-101079653D01*
X148892952Y-101079653D02*
X148892952Y-101222510D01*
X148892952Y-101222510D02*
X148845333Y-101317748D01*
X148845333Y-101317748D02*
X148797714Y-101365368D01*
X148797714Y-101365368D02*
X148702476Y-101412987D01*
X148702476Y-101412987D02*
X148321524Y-101412987D01*
X148321524Y-101412987D02*
X148321524Y-100412987D01*
X148321524Y-100412987D02*
X148654857Y-100412987D01*
X148654857Y-100412987D02*
X148750095Y-100460606D01*
X148750095Y-100460606D02*
X148797714Y-100508225D01*
X148797714Y-100508225D02*
X148845333Y-100603463D01*
X148845333Y-100603463D02*
X148845333Y-100698701D01*
X148845333Y-100698701D02*
X148797714Y-100793939D01*
X148797714Y-100793939D02*
X148750095Y-100841558D01*
X148750095Y-100841558D02*
X148654857Y-100889177D01*
X148654857Y-100889177D02*
X148321524Y-100889177D01*
X149464381Y-101412987D02*
X149369143Y-101365368D01*
X149369143Y-101365368D02*
X149321524Y-101317748D01*
X149321524Y-101317748D02*
X149273905Y-101222510D01*
X149273905Y-101222510D02*
X149273905Y-100936796D01*
X149273905Y-100936796D02*
X149321524Y-100841558D01*
X149321524Y-100841558D02*
X149369143Y-100793939D01*
X149369143Y-100793939D02*
X149464381Y-100746320D01*
X149464381Y-100746320D02*
X149607238Y-100746320D01*
X149607238Y-100746320D02*
X149702476Y-100793939D01*
X149702476Y-100793939D02*
X149750095Y-100841558D01*
X149750095Y-100841558D02*
X149797714Y-100936796D01*
X149797714Y-100936796D02*
X149797714Y-101222510D01*
X149797714Y-101222510D02*
X149750095Y-101317748D01*
X149750095Y-101317748D02*
X149702476Y-101365368D01*
X149702476Y-101365368D02*
X149607238Y-101412987D01*
X149607238Y-101412987D02*
X149464381Y-101412987D01*
X150654857Y-101412987D02*
X150654857Y-100889177D01*
X150654857Y-100889177D02*
X150607238Y-100793939D01*
X150607238Y-100793939D02*
X150512000Y-100746320D01*
X150512000Y-100746320D02*
X150321524Y-100746320D01*
X150321524Y-100746320D02*
X150226286Y-100793939D01*
X150654857Y-101365368D02*
X150559619Y-101412987D01*
X150559619Y-101412987D02*
X150321524Y-101412987D01*
X150321524Y-101412987D02*
X150226286Y-101365368D01*
X150226286Y-101365368D02*
X150178667Y-101270129D01*
X150178667Y-101270129D02*
X150178667Y-101174891D01*
X150178667Y-101174891D02*
X150226286Y-101079653D01*
X150226286Y-101079653D02*
X150321524Y-101032034D01*
X150321524Y-101032034D02*
X150559619Y-101032034D01*
X150559619Y-101032034D02*
X150654857Y-100984415D01*
X151131048Y-101412987D02*
X151131048Y-100746320D01*
X151131048Y-100936796D02*
X151178667Y-100841558D01*
X151178667Y-100841558D02*
X151226286Y-100793939D01*
X151226286Y-100793939D02*
X151321524Y-100746320D01*
X151321524Y-100746320D02*
X151416762Y-100746320D01*
X152178667Y-101412987D02*
X152178667Y-100412987D01*
X152178667Y-101365368D02*
X152083429Y-101412987D01*
X152083429Y-101412987D02*
X151892953Y-101412987D01*
X151892953Y-101412987D02*
X151797715Y-101365368D01*
X151797715Y-101365368D02*
X151750096Y-101317748D01*
X151750096Y-101317748D02*
X151702477Y-101222510D01*
X151702477Y-101222510D02*
X151702477Y-100936796D01*
X151702477Y-100936796D02*
X151750096Y-100841558D01*
X151750096Y-100841558D02*
X151797715Y-100793939D01*
X151797715Y-100793939D02*
X151892953Y-100746320D01*
X151892953Y-100746320D02*
X152083429Y-100746320D01*
X152083429Y-100746320D02*
X152178667Y-100793939D01*
X153273906Y-100412987D02*
X153607239Y-101412987D01*
X153607239Y-101412987D02*
X153940572Y-100412987D01*
X154797715Y-101412987D02*
X154226287Y-101412987D01*
X154512001Y-101412987D02*
X154512001Y-100412987D01*
X154512001Y-100412987D02*
X154416763Y-100555844D01*
X154416763Y-100555844D02*
X154321525Y-100651082D01*
X154321525Y-100651082D02*
X154226287Y-100698701D01*
X155226287Y-101317748D02*
X155273906Y-101365368D01*
X155273906Y-101365368D02*
X155226287Y-101412987D01*
X155226287Y-101412987D02*
X155178668Y-101365368D01*
X155178668Y-101365368D02*
X155226287Y-101317748D01*
X155226287Y-101317748D02*
X155226287Y-101412987D01*
X155654858Y-100508225D02*
X155702477Y-100460606D01*
X155702477Y-100460606D02*
X155797715Y-100412987D01*
X155797715Y-100412987D02*
X156035810Y-100412987D01*
X156035810Y-100412987D02*
X156131048Y-100460606D01*
X156131048Y-100460606D02*
X156178667Y-100508225D01*
X156178667Y-100508225D02*
X156226286Y-100603463D01*
X156226286Y-100603463D02*
X156226286Y-100698701D01*
X156226286Y-100698701D02*
X156178667Y-100841558D01*
X156178667Y-100841558D02*
X155607239Y-101412987D01*
X155607239Y-101412987D02*
X156226286Y-101412987D01*
X148321524Y-103022931D02*
X148321524Y-102022931D01*
X148321524Y-102022931D02*
X148559619Y-102022931D01*
X148559619Y-102022931D02*
X148702476Y-102070550D01*
X148702476Y-102070550D02*
X148797714Y-102165788D01*
X148797714Y-102165788D02*
X148845333Y-102261026D01*
X148845333Y-102261026D02*
X148892952Y-102451502D01*
X148892952Y-102451502D02*
X148892952Y-102594359D01*
X148892952Y-102594359D02*
X148845333Y-102784835D01*
X148845333Y-102784835D02*
X148797714Y-102880073D01*
X148797714Y-102880073D02*
X148702476Y-102975312D01*
X148702476Y-102975312D02*
X148559619Y-103022931D01*
X148559619Y-103022931D02*
X148321524Y-103022931D01*
X149702476Y-102975312D02*
X149607238Y-103022931D01*
X149607238Y-103022931D02*
X149416762Y-103022931D01*
X149416762Y-103022931D02*
X149321524Y-102975312D01*
X149321524Y-102975312D02*
X149273905Y-102880073D01*
X149273905Y-102880073D02*
X149273905Y-102499121D01*
X149273905Y-102499121D02*
X149321524Y-102403883D01*
X149321524Y-102403883D02*
X149416762Y-102356264D01*
X149416762Y-102356264D02*
X149607238Y-102356264D01*
X149607238Y-102356264D02*
X149702476Y-102403883D01*
X149702476Y-102403883D02*
X149750095Y-102499121D01*
X149750095Y-102499121D02*
X149750095Y-102594359D01*
X149750095Y-102594359D02*
X149273905Y-102689597D01*
X150131048Y-102975312D02*
X150226286Y-103022931D01*
X150226286Y-103022931D02*
X150416762Y-103022931D01*
X150416762Y-103022931D02*
X150512000Y-102975312D01*
X150512000Y-102975312D02*
X150559619Y-102880073D01*
X150559619Y-102880073D02*
X150559619Y-102832454D01*
X150559619Y-102832454D02*
X150512000Y-102737216D01*
X150512000Y-102737216D02*
X150416762Y-102689597D01*
X150416762Y-102689597D02*
X150273905Y-102689597D01*
X150273905Y-102689597D02*
X150178667Y-102641978D01*
X150178667Y-102641978D02*
X150131048Y-102546740D01*
X150131048Y-102546740D02*
X150131048Y-102499121D01*
X150131048Y-102499121D02*
X150178667Y-102403883D01*
X150178667Y-102403883D02*
X150273905Y-102356264D01*
X150273905Y-102356264D02*
X150416762Y-102356264D01*
X150416762Y-102356264D02*
X150512000Y-102403883D01*
X150988191Y-103022931D02*
X150988191Y-102356264D01*
X150988191Y-102022931D02*
X150940572Y-102070550D01*
X150940572Y-102070550D02*
X150988191Y-102118169D01*
X150988191Y-102118169D02*
X151035810Y-102070550D01*
X151035810Y-102070550D02*
X150988191Y-102022931D01*
X150988191Y-102022931D02*
X150988191Y-102118169D01*
X151892952Y-102356264D02*
X151892952Y-103165788D01*
X151892952Y-103165788D02*
X151845333Y-103261026D01*
X151845333Y-103261026D02*
X151797714Y-103308645D01*
X151797714Y-103308645D02*
X151702476Y-103356264D01*
X151702476Y-103356264D02*
X151559619Y-103356264D01*
X151559619Y-103356264D02*
X151464381Y-103308645D01*
X151892952Y-102975312D02*
X151797714Y-103022931D01*
X151797714Y-103022931D02*
X151607238Y-103022931D01*
X151607238Y-103022931D02*
X151512000Y-102975312D01*
X151512000Y-102975312D02*
X151464381Y-102927692D01*
X151464381Y-102927692D02*
X151416762Y-102832454D01*
X151416762Y-102832454D02*
X151416762Y-102546740D01*
X151416762Y-102546740D02*
X151464381Y-102451502D01*
X151464381Y-102451502D02*
X151512000Y-102403883D01*
X151512000Y-102403883D02*
X151607238Y-102356264D01*
X151607238Y-102356264D02*
X151797714Y-102356264D01*
X151797714Y-102356264D02*
X151892952Y-102403883D01*
X152369143Y-102356264D02*
X152369143Y-103022931D01*
X152369143Y-102451502D02*
X152416762Y-102403883D01*
X152416762Y-102403883D02*
X152512000Y-102356264D01*
X152512000Y-102356264D02*
X152654857Y-102356264D01*
X152654857Y-102356264D02*
X152750095Y-102403883D01*
X152750095Y-102403883D02*
X152797714Y-102499121D01*
X152797714Y-102499121D02*
X152797714Y-103022931D01*
X153654857Y-102975312D02*
X153559619Y-103022931D01*
X153559619Y-103022931D02*
X153369143Y-103022931D01*
X153369143Y-103022931D02*
X153273905Y-102975312D01*
X153273905Y-102975312D02*
X153226286Y-102880073D01*
X153226286Y-102880073D02*
X153226286Y-102499121D01*
X153226286Y-102499121D02*
X153273905Y-102403883D01*
X153273905Y-102403883D02*
X153369143Y-102356264D01*
X153369143Y-102356264D02*
X153559619Y-102356264D01*
X153559619Y-102356264D02*
X153654857Y-102403883D01*
X153654857Y-102403883D02*
X153702476Y-102499121D01*
X153702476Y-102499121D02*
X153702476Y-102594359D01*
X153702476Y-102594359D02*
X153226286Y-102689597D01*
X154131048Y-103022931D02*
X154131048Y-102356264D01*
X154131048Y-102546740D02*
X154178667Y-102451502D01*
X154178667Y-102451502D02*
X154226286Y-102403883D01*
X154226286Y-102403883D02*
X154321524Y-102356264D01*
X154321524Y-102356264D02*
X154416762Y-102356264D01*
X154750096Y-102927692D02*
X154797715Y-102975312D01*
X154797715Y-102975312D02*
X154750096Y-103022931D01*
X154750096Y-103022931D02*
X154702477Y-102975312D01*
X154702477Y-102975312D02*
X154750096Y-102927692D01*
X154750096Y-102927692D02*
X154750096Y-103022931D01*
X154750096Y-102403883D02*
X154797715Y-102451502D01*
X154797715Y-102451502D02*
X154750096Y-102499121D01*
X154750096Y-102499121D02*
X154702477Y-102451502D01*
X154702477Y-102451502D02*
X154750096Y-102403883D01*
X154750096Y-102403883D02*
X154750096Y-102499121D01*
X155845334Y-102022931D02*
X156416762Y-102022931D01*
X156131048Y-103022931D02*
X156131048Y-102022931D01*
X156750096Y-103022931D02*
X156750096Y-102356264D01*
X156750096Y-102546740D02*
X156797715Y-102451502D01*
X156797715Y-102451502D02*
X156845334Y-102403883D01*
X156845334Y-102403883D02*
X156940572Y-102356264D01*
X156940572Y-102356264D02*
X157035810Y-102356264D01*
X157369144Y-103022931D02*
X157369144Y-102356264D01*
X157369144Y-102022931D02*
X157321525Y-102070550D01*
X157321525Y-102070550D02*
X157369144Y-102118169D01*
X157369144Y-102118169D02*
X157416763Y-102070550D01*
X157416763Y-102070550D02*
X157369144Y-102022931D01*
X157369144Y-102022931D02*
X157369144Y-102118169D01*
X157797715Y-102975312D02*
X157892953Y-103022931D01*
X157892953Y-103022931D02*
X158083429Y-103022931D01*
X158083429Y-103022931D02*
X158178667Y-102975312D01*
X158178667Y-102975312D02*
X158226286Y-102880073D01*
X158226286Y-102880073D02*
X158226286Y-102832454D01*
X158226286Y-102832454D02*
X158178667Y-102737216D01*
X158178667Y-102737216D02*
X158083429Y-102689597D01*
X158083429Y-102689597D02*
X157940572Y-102689597D01*
X157940572Y-102689597D02*
X157845334Y-102641978D01*
X157845334Y-102641978D02*
X157797715Y-102546740D01*
X157797715Y-102546740D02*
X157797715Y-102499121D01*
X157797715Y-102499121D02*
X157845334Y-102403883D01*
X157845334Y-102403883D02*
X157940572Y-102356264D01*
X157940572Y-102356264D02*
X158083429Y-102356264D01*
X158083429Y-102356264D02*
X158178667Y-102403883D01*
X158512001Y-102356264D02*
X158892953Y-102356264D01*
X158654858Y-102022931D02*
X158654858Y-102880073D01*
X158654858Y-102880073D02*
X158702477Y-102975312D01*
X158702477Y-102975312D02*
X158797715Y-103022931D01*
X158797715Y-103022931D02*
X158892953Y-103022931D01*
X159654858Y-103022931D02*
X159654858Y-102499121D01*
X159654858Y-102499121D02*
X159607239Y-102403883D01*
X159607239Y-102403883D02*
X159512001Y-102356264D01*
X159512001Y-102356264D02*
X159321525Y-102356264D01*
X159321525Y-102356264D02*
X159226287Y-102403883D01*
X159654858Y-102975312D02*
X159559620Y-103022931D01*
X159559620Y-103022931D02*
X159321525Y-103022931D01*
X159321525Y-103022931D02*
X159226287Y-102975312D01*
X159226287Y-102975312D02*
X159178668Y-102880073D01*
X159178668Y-102880073D02*
X159178668Y-102784835D01*
X159178668Y-102784835D02*
X159226287Y-102689597D01*
X159226287Y-102689597D02*
X159321525Y-102641978D01*
X159321525Y-102641978D02*
X159559620Y-102641978D01*
X159559620Y-102641978D02*
X159654858Y-102594359D01*
X160131049Y-102356264D02*
X160131049Y-103022931D01*
X160131049Y-102451502D02*
X160178668Y-102403883D01*
X160178668Y-102403883D02*
X160273906Y-102356264D01*
X160273906Y-102356264D02*
X160416763Y-102356264D01*
X160416763Y-102356264D02*
X160512001Y-102403883D01*
X160512001Y-102403883D02*
X160559620Y-102499121D01*
X160559620Y-102499121D02*
X160559620Y-103022931D01*
X148321524Y-104632875D02*
X148321524Y-103632875D01*
X148321524Y-104109065D02*
X148892952Y-104109065D01*
X148892952Y-104632875D02*
X148892952Y-103632875D01*
X149321524Y-104585256D02*
X149416762Y-104632875D01*
X149416762Y-104632875D02*
X149607238Y-104632875D01*
X149607238Y-104632875D02*
X149702476Y-104585256D01*
X149702476Y-104585256D02*
X149750095Y-104490017D01*
X149750095Y-104490017D02*
X149750095Y-104442398D01*
X149750095Y-104442398D02*
X149702476Y-104347160D01*
X149702476Y-104347160D02*
X149607238Y-104299541D01*
X149607238Y-104299541D02*
X149464381Y-104299541D01*
X149464381Y-104299541D02*
X149369143Y-104251922D01*
X149369143Y-104251922D02*
X149321524Y-104156684D01*
X149321524Y-104156684D02*
X149321524Y-104109065D01*
X149321524Y-104109065D02*
X149369143Y-104013827D01*
X149369143Y-104013827D02*
X149464381Y-103966208D01*
X149464381Y-103966208D02*
X149607238Y-103966208D01*
X149607238Y-103966208D02*
X149702476Y-104013827D01*
X150178667Y-104632875D02*
X150178667Y-103966208D01*
X150178667Y-103632875D02*
X150131048Y-103680494D01*
X150131048Y-103680494D02*
X150178667Y-103728113D01*
X150178667Y-103728113D02*
X150226286Y-103680494D01*
X150226286Y-103680494D02*
X150178667Y-103632875D01*
X150178667Y-103632875D02*
X150178667Y-103728113D01*
X151083428Y-103966208D02*
X151083428Y-104632875D01*
X150654857Y-103966208D02*
X150654857Y-104490017D01*
X150654857Y-104490017D02*
X150702476Y-104585256D01*
X150702476Y-104585256D02*
X150797714Y-104632875D01*
X150797714Y-104632875D02*
X150940571Y-104632875D01*
X150940571Y-104632875D02*
X151035809Y-104585256D01*
X151035809Y-104585256D02*
X151083428Y-104537636D01*
X151559619Y-103966208D02*
X151559619Y-104632875D01*
X151559619Y-104061446D02*
X151607238Y-104013827D01*
X151607238Y-104013827D02*
X151702476Y-103966208D01*
X151702476Y-103966208D02*
X151845333Y-103966208D01*
X151845333Y-103966208D02*
X151940571Y-104013827D01*
X151940571Y-104013827D02*
X151988190Y-104109065D01*
X151988190Y-104109065D02*
X151988190Y-104632875D01*
X152892952Y-103966208D02*
X152892952Y-104775732D01*
X152892952Y-104775732D02*
X152845333Y-104870970D01*
X152845333Y-104870970D02*
X152797714Y-104918589D01*
X152797714Y-104918589D02*
X152702476Y-104966208D01*
X152702476Y-104966208D02*
X152559619Y-104966208D01*
X152559619Y-104966208D02*
X152464381Y-104918589D01*
X152892952Y-104585256D02*
X152797714Y-104632875D01*
X152797714Y-104632875D02*
X152607238Y-104632875D01*
X152607238Y-104632875D02*
X152512000Y-104585256D01*
X152512000Y-104585256D02*
X152464381Y-104537636D01*
X152464381Y-104537636D02*
X152416762Y-104442398D01*
X152416762Y-104442398D02*
X152416762Y-104156684D01*
X152416762Y-104156684D02*
X152464381Y-104061446D01*
X152464381Y-104061446D02*
X152512000Y-104013827D01*
X152512000Y-104013827D02*
X152607238Y-103966208D01*
X152607238Y-103966208D02*
X152797714Y-103966208D01*
X152797714Y-103966208D02*
X152892952Y-104013827D01*
X148321524Y-106242819D02*
X148321524Y-105242819D01*
X148321524Y-105242819D02*
X148559619Y-105242819D01*
X148559619Y-105242819D02*
X148702476Y-105290438D01*
X148702476Y-105290438D02*
X148797714Y-105385676D01*
X148797714Y-105385676D02*
X148845333Y-105480914D01*
X148845333Y-105480914D02*
X148892952Y-105671390D01*
X148892952Y-105671390D02*
X148892952Y-105814247D01*
X148892952Y-105814247D02*
X148845333Y-106004723D01*
X148845333Y-106004723D02*
X148797714Y-106099961D01*
X148797714Y-106099961D02*
X148702476Y-106195200D01*
X148702476Y-106195200D02*
X148559619Y-106242819D01*
X148559619Y-106242819D02*
X148321524Y-106242819D01*
X149750095Y-106242819D02*
X149750095Y-105719009D01*
X149750095Y-105719009D02*
X149702476Y-105623771D01*
X149702476Y-105623771D02*
X149607238Y-105576152D01*
X149607238Y-105576152D02*
X149416762Y-105576152D01*
X149416762Y-105576152D02*
X149321524Y-105623771D01*
X149750095Y-106195200D02*
X149654857Y-106242819D01*
X149654857Y-106242819D02*
X149416762Y-106242819D01*
X149416762Y-106242819D02*
X149321524Y-106195200D01*
X149321524Y-106195200D02*
X149273905Y-106099961D01*
X149273905Y-106099961D02*
X149273905Y-106004723D01*
X149273905Y-106004723D02*
X149321524Y-105909485D01*
X149321524Y-105909485D02*
X149416762Y-105861866D01*
X149416762Y-105861866D02*
X149654857Y-105861866D01*
X149654857Y-105861866D02*
X149750095Y-105814247D01*
X150083429Y-105576152D02*
X150464381Y-105576152D01*
X150226286Y-105242819D02*
X150226286Y-106099961D01*
X150226286Y-106099961D02*
X150273905Y-106195200D01*
X150273905Y-106195200D02*
X150369143Y-106242819D01*
X150369143Y-106242819D02*
X150464381Y-106242819D01*
X151178667Y-106195200D02*
X151083429Y-106242819D01*
X151083429Y-106242819D02*
X150892953Y-106242819D01*
X150892953Y-106242819D02*
X150797715Y-106195200D01*
X150797715Y-106195200D02*
X150750096Y-106099961D01*
X150750096Y-106099961D02*
X150750096Y-105719009D01*
X150750096Y-105719009D02*
X150797715Y-105623771D01*
X150797715Y-105623771D02*
X150892953Y-105576152D01*
X150892953Y-105576152D02*
X151083429Y-105576152D01*
X151083429Y-105576152D02*
X151178667Y-105623771D01*
X151178667Y-105623771D02*
X151226286Y-105719009D01*
X151226286Y-105719009D02*
X151226286Y-105814247D01*
X151226286Y-105814247D02*
X150750096Y-105909485D01*
X151654858Y-106147580D02*
X151702477Y-106195200D01*
X151702477Y-106195200D02*
X151654858Y-106242819D01*
X151654858Y-106242819D02*
X151607239Y-106195200D01*
X151607239Y-106195200D02*
X151654858Y-106147580D01*
X151654858Y-106147580D02*
X151654858Y-106242819D01*
X151654858Y-105623771D02*
X151702477Y-105671390D01*
X151702477Y-105671390D02*
X151654858Y-105719009D01*
X151654858Y-105719009D02*
X151607239Y-105671390D01*
X151607239Y-105671390D02*
X151654858Y-105623771D01*
X151654858Y-105623771D02*
X151654858Y-105719009D01*
X152892953Y-106242819D02*
X152892953Y-105242819D01*
X152892953Y-105242819D02*
X153226286Y-105957104D01*
X153226286Y-105957104D02*
X153559619Y-105242819D01*
X153559619Y-105242819D02*
X153559619Y-106242819D01*
X154464381Y-106242819D02*
X154464381Y-105719009D01*
X154464381Y-105719009D02*
X154416762Y-105623771D01*
X154416762Y-105623771D02*
X154321524Y-105576152D01*
X154321524Y-105576152D02*
X154131048Y-105576152D01*
X154131048Y-105576152D02*
X154035810Y-105623771D01*
X154464381Y-106195200D02*
X154369143Y-106242819D01*
X154369143Y-106242819D02*
X154131048Y-106242819D01*
X154131048Y-106242819D02*
X154035810Y-106195200D01*
X154035810Y-106195200D02*
X153988191Y-106099961D01*
X153988191Y-106099961D02*
X153988191Y-106004723D01*
X153988191Y-106004723D02*
X154035810Y-105909485D01*
X154035810Y-105909485D02*
X154131048Y-105861866D01*
X154131048Y-105861866D02*
X154369143Y-105861866D01*
X154369143Y-105861866D02*
X154464381Y-105814247D01*
X154845334Y-105576152D02*
X155083429Y-106242819D01*
X155321524Y-105576152D02*
X155083429Y-106242819D01*
X155083429Y-106242819D02*
X154988191Y-106480914D01*
X154988191Y-106480914D02*
X154940572Y-106528533D01*
X154940572Y-106528533D02*
X154845334Y-106576152D01*
X156416763Y-105338057D02*
X156464382Y-105290438D01*
X156464382Y-105290438D02*
X156559620Y-105242819D01*
X156559620Y-105242819D02*
X156797715Y-105242819D01*
X156797715Y-105242819D02*
X156892953Y-105290438D01*
X156892953Y-105290438D02*
X156940572Y-105338057D01*
X156940572Y-105338057D02*
X156988191Y-105433295D01*
X156988191Y-105433295D02*
X156988191Y-105528533D01*
X156988191Y-105528533D02*
X156940572Y-105671390D01*
X156940572Y-105671390D02*
X156369144Y-106242819D01*
X156369144Y-106242819D02*
X156988191Y-106242819D01*
X157607239Y-105242819D02*
X157702477Y-105242819D01*
X157702477Y-105242819D02*
X157797715Y-105290438D01*
X157797715Y-105290438D02*
X157845334Y-105338057D01*
X157845334Y-105338057D02*
X157892953Y-105433295D01*
X157892953Y-105433295D02*
X157940572Y-105623771D01*
X157940572Y-105623771D02*
X157940572Y-105861866D01*
X157940572Y-105861866D02*
X157892953Y-106052342D01*
X157892953Y-106052342D02*
X157845334Y-106147580D01*
X157845334Y-106147580D02*
X157797715Y-106195200D01*
X157797715Y-106195200D02*
X157702477Y-106242819D01*
X157702477Y-106242819D02*
X157607239Y-106242819D01*
X157607239Y-106242819D02*
X157512001Y-106195200D01*
X157512001Y-106195200D02*
X157464382Y-106147580D01*
X157464382Y-106147580D02*
X157416763Y-106052342D01*
X157416763Y-106052342D02*
X157369144Y-105861866D01*
X157369144Y-105861866D02*
X157369144Y-105623771D01*
X157369144Y-105623771D02*
X157416763Y-105433295D01*
X157416763Y-105433295D02*
X157464382Y-105338057D01*
X157464382Y-105338057D02*
X157512001Y-105290438D01*
X157512001Y-105290438D02*
X157607239Y-105242819D01*
X158321525Y-105338057D02*
X158369144Y-105290438D01*
X158369144Y-105290438D02*
X158464382Y-105242819D01*
X158464382Y-105242819D02*
X158702477Y-105242819D01*
X158702477Y-105242819D02*
X158797715Y-105290438D01*
X158797715Y-105290438D02*
X158845334Y-105338057D01*
X158845334Y-105338057D02*
X158892953Y-105433295D01*
X158892953Y-105433295D02*
X158892953Y-105528533D01*
X158892953Y-105528533D02*
X158845334Y-105671390D01*
X158845334Y-105671390D02*
X158273906Y-106242819D01*
X158273906Y-106242819D02*
X158892953Y-106242819D01*
X159750096Y-105242819D02*
X159559620Y-105242819D01*
X159559620Y-105242819D02*
X159464382Y-105290438D01*
X159464382Y-105290438D02*
X159416763Y-105338057D01*
X159416763Y-105338057D02*
X159321525Y-105480914D01*
X159321525Y-105480914D02*
X159273906Y-105671390D01*
X159273906Y-105671390D02*
X159273906Y-106052342D01*
X159273906Y-106052342D02*
X159321525Y-106147580D01*
X159321525Y-106147580D02*
X159369144Y-106195200D01*
X159369144Y-106195200D02*
X159464382Y-106242819D01*
X159464382Y-106242819D02*
X159654858Y-106242819D01*
X159654858Y-106242819D02*
X159750096Y-106195200D01*
X159750096Y-106195200D02*
X159797715Y-106147580D01*
X159797715Y-106147580D02*
X159845334Y-106052342D01*
X159845334Y-106052342D02*
X159845334Y-105814247D01*
X159845334Y-105814247D02*
X159797715Y-105719009D01*
X159797715Y-105719009D02*
X159750096Y-105671390D01*
X159750096Y-105671390D02*
X159654858Y-105623771D01*
X159654858Y-105623771D02*
X159464382Y-105623771D01*
X159464382Y-105623771D02*
X159369144Y-105671390D01*
X159369144Y-105671390D02*
X159321525Y-105719009D01*
X159321525Y-105719009D02*
X159273906Y-105814247D01*
X142942819Y-82171458D02*
X142942819Y-81504792D01*
X142942819Y-81504792D02*
X143942819Y-81933363D01*
X141282819Y-82028601D02*
X141282819Y-81838125D01*
X141282819Y-81838125D02*
X141235200Y-81742887D01*
X141235200Y-81742887D02*
X141187580Y-81695268D01*
X141187580Y-81695268D02*
X141044723Y-81600030D01*
X141044723Y-81600030D02*
X140854247Y-81552411D01*
X140854247Y-81552411D02*
X140473295Y-81552411D01*
X140473295Y-81552411D02*
X140378057Y-81600030D01*
X140378057Y-81600030D02*
X140330438Y-81647649D01*
X140330438Y-81647649D02*
X140282819Y-81742887D01*
X140282819Y-81742887D02*
X140282819Y-81933363D01*
X140282819Y-81933363D02*
X140330438Y-82028601D01*
X140330438Y-82028601D02*
X140378057Y-82076220D01*
X140378057Y-82076220D02*
X140473295Y-82123839D01*
X140473295Y-82123839D02*
X140711390Y-82123839D01*
X140711390Y-82123839D02*
X140806628Y-82076220D01*
X140806628Y-82076220D02*
X140854247Y-82028601D01*
X140854247Y-82028601D02*
X140901866Y-81933363D01*
X140901866Y-81933363D02*
X140901866Y-81742887D01*
X140901866Y-81742887D02*
X140854247Y-81647649D01*
X140854247Y-81647649D02*
X140806628Y-81600030D01*
X140806628Y-81600030D02*
X140711390Y-81552411D01*
X138942819Y-81552411D02*
X138942819Y-82123839D01*
X138942819Y-81838125D02*
X137942819Y-81838125D01*
X137942819Y-81838125D02*
X138085676Y-81933363D01*
X138085676Y-81933363D02*
X138180914Y-82028601D01*
X138180914Y-82028601D02*
X138228533Y-82123839D01*
X138942819Y-80600030D02*
X138942819Y-81171458D01*
X138942819Y-80885744D02*
X137942819Y-80885744D01*
X137942819Y-80885744D02*
X138085676Y-80980982D01*
X138085676Y-80980982D02*
X138180914Y-81076220D01*
X138180914Y-81076220D02*
X138228533Y-81171458D01*
X117367819Y-103992047D02*
X116367819Y-103992047D01*
X116367819Y-103992047D02*
X117367819Y-103420619D01*
X117367819Y-103420619D02*
X116367819Y-103420619D01*
X116844009Y-102944428D02*
X116844009Y-102611095D01*
X117367819Y-102468238D02*
X117367819Y-102944428D01*
X117367819Y-102944428D02*
X116367819Y-102944428D01*
X116367819Y-102944428D02*
X116367819Y-102468238D01*
X116367819Y-101849190D02*
X116367819Y-101658714D01*
X116367819Y-101658714D02*
X116415438Y-101563476D01*
X116415438Y-101563476D02*
X116510676Y-101468238D01*
X116510676Y-101468238D02*
X116701152Y-101420619D01*
X116701152Y-101420619D02*
X117034485Y-101420619D01*
X117034485Y-101420619D02*
X117224961Y-101468238D01*
X117224961Y-101468238D02*
X117320200Y-101563476D01*
X117320200Y-101563476D02*
X117367819Y-101658714D01*
X117367819Y-101658714D02*
X117367819Y-101849190D01*
X117367819Y-101849190D02*
X117320200Y-101944428D01*
X117320200Y-101944428D02*
X117224961Y-102039666D01*
X117224961Y-102039666D02*
X117034485Y-102087285D01*
X117034485Y-102087285D02*
X116701152Y-102087285D01*
X116701152Y-102087285D02*
X116510676Y-102039666D01*
X116510676Y-102039666D02*
X116415438Y-101944428D01*
X116415438Y-101944428D02*
X116367819Y-101849190D01*
X116844009Y-100230142D02*
X116844009Y-99896809D01*
X117367819Y-99753952D02*
X117367819Y-100230142D01*
X117367819Y-100230142D02*
X116367819Y-100230142D01*
X116367819Y-100230142D02*
X116367819Y-99753952D01*
X117367819Y-99325380D02*
X116367819Y-99325380D01*
X116367819Y-99325380D02*
X117367819Y-98753952D01*
X117367819Y-98753952D02*
X116367819Y-98753952D01*
X117272580Y-97706333D02*
X117320200Y-97753952D01*
X117320200Y-97753952D02*
X117367819Y-97896809D01*
X117367819Y-97896809D02*
X117367819Y-97992047D01*
X117367819Y-97992047D02*
X117320200Y-98134904D01*
X117320200Y-98134904D02*
X117224961Y-98230142D01*
X117224961Y-98230142D02*
X117129723Y-98277761D01*
X117129723Y-98277761D02*
X116939247Y-98325380D01*
X116939247Y-98325380D02*
X116796390Y-98325380D01*
X116796390Y-98325380D02*
X116605914Y-98277761D01*
X116605914Y-98277761D02*
X116510676Y-98230142D01*
X116510676Y-98230142D02*
X116415438Y-98134904D01*
X116415438Y-98134904D02*
X116367819Y-97992047D01*
X116367819Y-97992047D02*
X116367819Y-97896809D01*
X116367819Y-97896809D02*
X116415438Y-97753952D01*
X116415438Y-97753952D02*
X116463057Y-97706333D01*
X145492819Y-81600030D02*
X145492819Y-82076220D01*
X145492819Y-82076220D02*
X145969009Y-82123839D01*
X145969009Y-82123839D02*
X145921390Y-82076220D01*
X145921390Y-82076220D02*
X145873771Y-81980982D01*
X145873771Y-81980982D02*
X145873771Y-81742887D01*
X145873771Y-81742887D02*
X145921390Y-81647649D01*
X145921390Y-81647649D02*
X145969009Y-81600030D01*
X145969009Y-81600030D02*
X146064247Y-81552411D01*
X146064247Y-81552411D02*
X146302342Y-81552411D01*
X146302342Y-81552411D02*
X146397580Y-81600030D01*
X146397580Y-81600030D02*
X146445200Y-81647649D01*
X146445200Y-81647649D02*
X146492819Y-81742887D01*
X146492819Y-81742887D02*
X146492819Y-81980982D01*
X146492819Y-81980982D02*
X146445200Y-82076220D01*
X146445200Y-82076220D02*
X146397580Y-82123839D01*
X128692819Y-81552411D02*
X128692819Y-82123839D01*
X128692819Y-81838125D02*
X127692819Y-81838125D01*
X127692819Y-81838125D02*
X127835676Y-81933363D01*
X127835676Y-81933363D02*
X127930914Y-82028601D01*
X127930914Y-82028601D02*
X127978533Y-82123839D01*
X128692819Y-81076220D02*
X128692819Y-80885744D01*
X128692819Y-80885744D02*
X128645200Y-80790506D01*
X128645200Y-80790506D02*
X128597580Y-80742887D01*
X128597580Y-80742887D02*
X128454723Y-80647649D01*
X128454723Y-80647649D02*
X128264247Y-80600030D01*
X128264247Y-80600030D02*
X127883295Y-80600030D01*
X127883295Y-80600030D02*
X127788057Y-80647649D01*
X127788057Y-80647649D02*
X127740438Y-80695268D01*
X127740438Y-80695268D02*
X127692819Y-80790506D01*
X127692819Y-80790506D02*
X127692819Y-80980982D01*
X127692819Y-80980982D02*
X127740438Y-81076220D01*
X127740438Y-81076220D02*
X127788057Y-81123839D01*
X127788057Y-81123839D02*
X127883295Y-81171458D01*
X127883295Y-81171458D02*
X128121390Y-81171458D01*
X128121390Y-81171458D02*
X128216628Y-81123839D01*
X128216628Y-81123839D02*
X128264247Y-81076220D01*
X128264247Y-81076220D02*
X128311866Y-80980982D01*
X128311866Y-80980982D02*
X128311866Y-80790506D01*
X128311866Y-80790506D02*
X128264247Y-80695268D01*
X128264247Y-80695268D02*
X128216628Y-80647649D01*
X128216628Y-80647649D02*
X128121390Y-80600030D01*
X150468057Y-90083839D02*
X150420438Y-90036220D01*
X150420438Y-90036220D02*
X150372819Y-89940982D01*
X150372819Y-89940982D02*
X150372819Y-89702887D01*
X150372819Y-89702887D02*
X150420438Y-89607649D01*
X150420438Y-89607649D02*
X150468057Y-89560030D01*
X150468057Y-89560030D02*
X150563295Y-89512411D01*
X150563295Y-89512411D02*
X150658533Y-89512411D01*
X150658533Y-89512411D02*
X150801390Y-89560030D01*
X150801390Y-89560030D02*
X151372819Y-90131458D01*
X151372819Y-90131458D02*
X151372819Y-89512411D01*
X148042819Y-82171458D02*
X148042819Y-81552411D01*
X148042819Y-81552411D02*
X148423771Y-81885744D01*
X148423771Y-81885744D02*
X148423771Y-81742887D01*
X148423771Y-81742887D02*
X148471390Y-81647649D01*
X148471390Y-81647649D02*
X148519009Y-81600030D01*
X148519009Y-81600030D02*
X148614247Y-81552411D01*
X148614247Y-81552411D02*
X148852342Y-81552411D01*
X148852342Y-81552411D02*
X148947580Y-81600030D01*
X148947580Y-81600030D02*
X148995200Y-81647649D01*
X148995200Y-81647649D02*
X149042819Y-81742887D01*
X149042819Y-81742887D02*
X149042819Y-82028601D01*
X149042819Y-82028601D02*
X148995200Y-82123839D01*
X148995200Y-82123839D02*
X148947580Y-82171458D01*
X129895057Y-95871683D02*
X129895057Y-95357398D01*
X130795057Y-95614540D02*
X129895057Y-95614540D01*
X130795057Y-95057398D02*
X129895057Y-95057398D01*
X130323628Y-95057398D02*
X130323628Y-94543112D01*
X130795057Y-94543112D02*
X129895057Y-94543112D01*
X130323628Y-94114541D02*
X130323628Y-93814541D01*
X130795057Y-93685969D02*
X130795057Y-94114541D01*
X130795057Y-94114541D02*
X129895057Y-94114541D01*
X129895057Y-94114541D02*
X129895057Y-93685969D01*
X130795057Y-92785969D02*
X130366485Y-93085969D01*
X130795057Y-93300255D02*
X129895057Y-93300255D01*
X129895057Y-93300255D02*
X129895057Y-92957398D01*
X129895057Y-92957398D02*
X129937914Y-92871683D01*
X129937914Y-92871683D02*
X129980771Y-92828826D01*
X129980771Y-92828826D02*
X130066485Y-92785969D01*
X130066485Y-92785969D02*
X130195057Y-92785969D01*
X130195057Y-92785969D02*
X130280771Y-92828826D01*
X130280771Y-92828826D02*
X130323628Y-92871683D01*
X130323628Y-92871683D02*
X130366485Y-92957398D01*
X130366485Y-92957398D02*
X130366485Y-93300255D01*
X130795057Y-92400255D02*
X129895057Y-92400255D01*
X129895057Y-92400255D02*
X130537914Y-92100255D01*
X130537914Y-92100255D02*
X129895057Y-91800255D01*
X129895057Y-91800255D02*
X130795057Y-91800255D01*
X130452200Y-91371684D02*
X130452200Y-90685970D01*
X130795057Y-91028827D02*
X130109342Y-91028827D01*
X148262819Y-79002411D02*
X148262819Y-79573839D01*
X148262819Y-79288125D02*
X147262819Y-79288125D01*
X147262819Y-79288125D02*
X147405676Y-79383363D01*
X147405676Y-79383363D02*
X147500914Y-79478601D01*
X147500914Y-79478601D02*
X147548533Y-79573839D01*
X125795057Y-95619554D02*
X124895057Y-95619554D01*
X125323628Y-95619554D02*
X125323628Y-95105268D01*
X125795057Y-95105268D02*
X124895057Y-95105268D01*
X125537914Y-94719554D02*
X125537914Y-94290983D01*
X125795057Y-94805268D02*
X124895057Y-94505268D01*
X124895057Y-94505268D02*
X125795057Y-94205268D01*
X125795057Y-93476696D02*
X125795057Y-93905268D01*
X125795057Y-93905268D02*
X124895057Y-93905268D01*
X125795057Y-92748125D02*
X125795057Y-93176697D01*
X125795057Y-93176697D02*
X124895057Y-93176697D01*
X125880771Y-92662412D02*
X125880771Y-91976697D01*
X125323628Y-91462412D02*
X125366485Y-91333840D01*
X125366485Y-91333840D02*
X125409342Y-91290983D01*
X125409342Y-91290983D02*
X125495057Y-91248126D01*
X125495057Y-91248126D02*
X125623628Y-91248126D01*
X125623628Y-91248126D02*
X125709342Y-91290983D01*
X125709342Y-91290983D02*
X125752200Y-91333840D01*
X125752200Y-91333840D02*
X125795057Y-91419555D01*
X125795057Y-91419555D02*
X125795057Y-91762412D01*
X125795057Y-91762412D02*
X124895057Y-91762412D01*
X124895057Y-91762412D02*
X124895057Y-91462412D01*
X124895057Y-91462412D02*
X124937914Y-91376698D01*
X124937914Y-91376698D02*
X124980771Y-91333840D01*
X124980771Y-91333840D02*
X125066485Y-91290983D01*
X125066485Y-91290983D02*
X125152200Y-91290983D01*
X125152200Y-91290983D02*
X125237914Y-91333840D01*
X125237914Y-91333840D02*
X125280771Y-91376698D01*
X125280771Y-91376698D02*
X125323628Y-91462412D01*
X125323628Y-91462412D02*
X125323628Y-91762412D01*
X133792819Y-90154541D02*
X133792819Y-90725969D01*
X133792819Y-90440255D02*
X132792819Y-90440255D01*
X132792819Y-90440255D02*
X132935676Y-90535493D01*
X132935676Y-90535493D02*
X133030914Y-90630731D01*
X133030914Y-90630731D02*
X133078533Y-90725969D01*
X132792819Y-89297398D02*
X132792819Y-89487874D01*
X132792819Y-89487874D02*
X132840438Y-89583112D01*
X132840438Y-89583112D02*
X132888057Y-89630731D01*
X132888057Y-89630731D02*
X133030914Y-89725969D01*
X133030914Y-89725969D02*
X133221390Y-89773588D01*
X133221390Y-89773588D02*
X133602342Y-89773588D01*
X133602342Y-89773588D02*
X133697580Y-89725969D01*
X133697580Y-89725969D02*
X133745200Y-89678350D01*
X133745200Y-89678350D02*
X133792819Y-89583112D01*
X133792819Y-89583112D02*
X133792819Y-89392636D01*
X133792819Y-89392636D02*
X133745200Y-89297398D01*
X133745200Y-89297398D02*
X133697580Y-89249779D01*
X133697580Y-89249779D02*
X133602342Y-89202160D01*
X133602342Y-89202160D02*
X133364247Y-89202160D01*
X133364247Y-89202160D02*
X133269009Y-89249779D01*
X133269009Y-89249779D02*
X133221390Y-89297398D01*
X133221390Y-89297398D02*
X133173771Y-89392636D01*
X133173771Y-89392636D02*
X133173771Y-89583112D01*
X133173771Y-89583112D02*
X133221390Y-89678350D01*
X133221390Y-89678350D02*
X133269009Y-89725969D01*
X133269009Y-89725969D02*
X133364247Y-89773588D01*
X137867819Y-107063476D02*
X137867819Y-106492048D01*
X138867819Y-106777762D02*
X137867819Y-106777762D01*
X138867819Y-106158714D02*
X137867819Y-106158714D01*
X138867819Y-105730143D02*
X138344009Y-105730143D01*
X138344009Y-105730143D02*
X138248771Y-105777762D01*
X138248771Y-105777762D02*
X138201152Y-105873000D01*
X138201152Y-105873000D02*
X138201152Y-106015857D01*
X138201152Y-106015857D02*
X138248771Y-106111095D01*
X138248771Y-106111095D02*
X138296390Y-106158714D01*
X138820200Y-104873000D02*
X138867819Y-104968238D01*
X138867819Y-104968238D02*
X138867819Y-105158714D01*
X138867819Y-105158714D02*
X138820200Y-105253952D01*
X138820200Y-105253952D02*
X138724961Y-105301571D01*
X138724961Y-105301571D02*
X138344009Y-105301571D01*
X138344009Y-105301571D02*
X138248771Y-105253952D01*
X138248771Y-105253952D02*
X138201152Y-105158714D01*
X138201152Y-105158714D02*
X138201152Y-104968238D01*
X138201152Y-104968238D02*
X138248771Y-104873000D01*
X138248771Y-104873000D02*
X138344009Y-104825381D01*
X138344009Y-104825381D02*
X138439247Y-104825381D01*
X138439247Y-104825381D02*
X138534485Y-105301571D01*
X138867819Y-104396809D02*
X138201152Y-104396809D01*
X138391628Y-104396809D02*
X138296390Y-104349190D01*
X138296390Y-104349190D02*
X138248771Y-104301571D01*
X138248771Y-104301571D02*
X138201152Y-104206333D01*
X138201152Y-104206333D02*
X138201152Y-104111095D01*
X138867819Y-103777761D02*
X138201152Y-103777761D01*
X138296390Y-103777761D02*
X138248771Y-103730142D01*
X138248771Y-103730142D02*
X138201152Y-103634904D01*
X138201152Y-103634904D02*
X138201152Y-103492047D01*
X138201152Y-103492047D02*
X138248771Y-103396809D01*
X138248771Y-103396809D02*
X138344009Y-103349190D01*
X138344009Y-103349190D02*
X138867819Y-103349190D01*
X138344009Y-103349190D02*
X138248771Y-103301571D01*
X138248771Y-103301571D02*
X138201152Y-103206333D01*
X138201152Y-103206333D02*
X138201152Y-103063476D01*
X138201152Y-103063476D02*
X138248771Y-102968237D01*
X138248771Y-102968237D02*
X138344009Y-102920618D01*
X138344009Y-102920618D02*
X138867819Y-102920618D01*
X138867819Y-102444428D02*
X138201152Y-102444428D01*
X137867819Y-102444428D02*
X137915438Y-102492047D01*
X137915438Y-102492047D02*
X137963057Y-102444428D01*
X137963057Y-102444428D02*
X137915438Y-102396809D01*
X137915438Y-102396809D02*
X137867819Y-102444428D01*
X137867819Y-102444428D02*
X137963057Y-102444428D01*
X138820200Y-102015857D02*
X138867819Y-101920619D01*
X138867819Y-101920619D02*
X138867819Y-101730143D01*
X138867819Y-101730143D02*
X138820200Y-101634905D01*
X138820200Y-101634905D02*
X138724961Y-101587286D01*
X138724961Y-101587286D02*
X138677342Y-101587286D01*
X138677342Y-101587286D02*
X138582104Y-101634905D01*
X138582104Y-101634905D02*
X138534485Y-101730143D01*
X138534485Y-101730143D02*
X138534485Y-101873000D01*
X138534485Y-101873000D02*
X138486866Y-101968238D01*
X138486866Y-101968238D02*
X138391628Y-102015857D01*
X138391628Y-102015857D02*
X138344009Y-102015857D01*
X138344009Y-102015857D02*
X138248771Y-101968238D01*
X138248771Y-101968238D02*
X138201152Y-101873000D01*
X138201152Y-101873000D02*
X138201152Y-101730143D01*
X138201152Y-101730143D02*
X138248771Y-101634905D01*
X138201152Y-101301571D02*
X138201152Y-100920619D01*
X137867819Y-101158714D02*
X138724961Y-101158714D01*
X138724961Y-101158714D02*
X138820200Y-101111095D01*
X138820200Y-101111095D02*
X138867819Y-101015857D01*
X138867819Y-101015857D02*
X138867819Y-100920619D01*
X138867819Y-100444428D02*
X138820200Y-100539666D01*
X138820200Y-100539666D02*
X138772580Y-100587285D01*
X138772580Y-100587285D02*
X138677342Y-100634904D01*
X138677342Y-100634904D02*
X138391628Y-100634904D01*
X138391628Y-100634904D02*
X138296390Y-100587285D01*
X138296390Y-100587285D02*
X138248771Y-100539666D01*
X138248771Y-100539666D02*
X138201152Y-100444428D01*
X138201152Y-100444428D02*
X138201152Y-100301571D01*
X138201152Y-100301571D02*
X138248771Y-100206333D01*
X138248771Y-100206333D02*
X138296390Y-100158714D01*
X138296390Y-100158714D02*
X138391628Y-100111095D01*
X138391628Y-100111095D02*
X138677342Y-100111095D01*
X138677342Y-100111095D02*
X138772580Y-100158714D01*
X138772580Y-100158714D02*
X138820200Y-100206333D01*
X138820200Y-100206333D02*
X138867819Y-100301571D01*
X138867819Y-100301571D02*
X138867819Y-100444428D01*
X138867819Y-99682523D02*
X138201152Y-99682523D01*
X138391628Y-99682523D02*
X138296390Y-99634904D01*
X138296390Y-99634904D02*
X138248771Y-99587285D01*
X138248771Y-99587285D02*
X138201152Y-99492047D01*
X138201152Y-99492047D02*
X138201152Y-99396809D01*
X137867819Y-98444427D02*
X137867819Y-97872999D01*
X138867819Y-98158713D02*
X137867819Y-98158713D01*
X138820200Y-97158713D02*
X138867819Y-97253951D01*
X138867819Y-97253951D02*
X138867819Y-97444427D01*
X138867819Y-97444427D02*
X138820200Y-97539665D01*
X138820200Y-97539665D02*
X138724961Y-97587284D01*
X138724961Y-97587284D02*
X138344009Y-97587284D01*
X138344009Y-97587284D02*
X138248771Y-97539665D01*
X138248771Y-97539665D02*
X138201152Y-97444427D01*
X138201152Y-97444427D02*
X138201152Y-97253951D01*
X138201152Y-97253951D02*
X138248771Y-97158713D01*
X138248771Y-97158713D02*
X138344009Y-97111094D01*
X138344009Y-97111094D02*
X138439247Y-97111094D01*
X138439247Y-97111094D02*
X138534485Y-97587284D01*
X138820200Y-96730141D02*
X138867819Y-96634903D01*
X138867819Y-96634903D02*
X138867819Y-96444427D01*
X138867819Y-96444427D02*
X138820200Y-96349189D01*
X138820200Y-96349189D02*
X138724961Y-96301570D01*
X138724961Y-96301570D02*
X138677342Y-96301570D01*
X138677342Y-96301570D02*
X138582104Y-96349189D01*
X138582104Y-96349189D02*
X138534485Y-96444427D01*
X138534485Y-96444427D02*
X138534485Y-96587284D01*
X138534485Y-96587284D02*
X138486866Y-96682522D01*
X138486866Y-96682522D02*
X138391628Y-96730141D01*
X138391628Y-96730141D02*
X138344009Y-96730141D01*
X138344009Y-96730141D02*
X138248771Y-96682522D01*
X138248771Y-96682522D02*
X138201152Y-96587284D01*
X138201152Y-96587284D02*
X138201152Y-96444427D01*
X138201152Y-96444427D02*
X138248771Y-96349189D01*
X138201152Y-96015855D02*
X138201152Y-95634903D01*
X137867819Y-95872998D02*
X138724961Y-95872998D01*
X138724961Y-95872998D02*
X138820200Y-95825379D01*
X138820200Y-95825379D02*
X138867819Y-95730141D01*
X138867819Y-95730141D02*
X138867819Y-95634903D01*
X138867819Y-94539664D02*
X137867819Y-94539664D01*
X137867819Y-94539664D02*
X137867819Y-94158712D01*
X137867819Y-94158712D02*
X137915438Y-94063474D01*
X137915438Y-94063474D02*
X137963057Y-94015855D01*
X137963057Y-94015855D02*
X138058295Y-93968236D01*
X138058295Y-93968236D02*
X138201152Y-93968236D01*
X138201152Y-93968236D02*
X138296390Y-94015855D01*
X138296390Y-94015855D02*
X138344009Y-94063474D01*
X138344009Y-94063474D02*
X138391628Y-94158712D01*
X138391628Y-94158712D02*
X138391628Y-94539664D01*
X138867819Y-93539664D02*
X138201152Y-93539664D01*
X137867819Y-93539664D02*
X137915438Y-93587283D01*
X137915438Y-93587283D02*
X137963057Y-93539664D01*
X137963057Y-93539664D02*
X137915438Y-93492045D01*
X137915438Y-93492045D02*
X137867819Y-93539664D01*
X137867819Y-93539664D02*
X137963057Y-93539664D01*
X138201152Y-93063474D02*
X138867819Y-93063474D01*
X138296390Y-93063474D02*
X138248771Y-93015855D01*
X138248771Y-93015855D02*
X138201152Y-92920617D01*
X138201152Y-92920617D02*
X138201152Y-92777760D01*
X138201152Y-92777760D02*
X138248771Y-92682522D01*
X138248771Y-92682522D02*
X138344009Y-92634903D01*
X138344009Y-92634903D02*
X138867819Y-92634903D01*
X138820200Y-92206331D02*
X138867819Y-92111093D01*
X138867819Y-92111093D02*
X138867819Y-91920617D01*
X138867819Y-91920617D02*
X138820200Y-91825379D01*
X138820200Y-91825379D02*
X138724961Y-91777760D01*
X138724961Y-91777760D02*
X138677342Y-91777760D01*
X138677342Y-91777760D02*
X138582104Y-91825379D01*
X138582104Y-91825379D02*
X138534485Y-91920617D01*
X138534485Y-91920617D02*
X138534485Y-92063474D01*
X138534485Y-92063474D02*
X138486866Y-92158712D01*
X138486866Y-92158712D02*
X138391628Y-92206331D01*
X138391628Y-92206331D02*
X138344009Y-92206331D01*
X138344009Y-92206331D02*
X138248771Y-92158712D01*
X138248771Y-92158712D02*
X138201152Y-92063474D01*
X138201152Y-92063474D02*
X138201152Y-91920617D01*
X138201152Y-91920617D02*
X138248771Y-91825379D01*
%TO.C,J10*%
D13*
X139553000Y-94463000D02*
X139553000Y-107283000D01*
X139553000Y-107283000D02*
X147273000Y-107283000D01*
X140213000Y-99973000D02*
X139553000Y-99973000D01*
X140213000Y-103383000D02*
X140213000Y-99973000D01*
X140663000Y-104983000D02*
X146163000Y-104983000D01*
X140663000Y-107283000D02*
X140663000Y-104983000D01*
X140773000Y-94463000D02*
X139553000Y-94463000D01*
X140773000Y-97363000D02*
X140773000Y-94463000D01*
X141053000Y-97363000D02*
X140773000Y-97363000D01*
X141313000Y-99973000D02*
X141313000Y-103383000D01*
X141313000Y-103383000D02*
X140213000Y-103383000D01*
X141763000Y-96373000D02*
X142563000Y-96373000D01*
X141813000Y-99973000D02*
X141313000Y-99973000D01*
X141813000Y-104983000D02*
X141813000Y-99973000D01*
X142163000Y-96773000D02*
X141763000Y-96373000D01*
X142563000Y-96373000D02*
X142163000Y-96773000D01*
X143013000Y-101373000D02*
X143813000Y-101373000D01*
X143013000Y-103173000D02*
X143013000Y-101373000D01*
X143813000Y-101373000D02*
X143813000Y-103173000D01*
X143813000Y-103173000D02*
X143013000Y-103173000D01*
X145013000Y-99973000D02*
X145513000Y-99973000D01*
X145013000Y-104983000D02*
X145013000Y-99973000D01*
X145513000Y-99973000D02*
X145513000Y-103383000D01*
X145513000Y-103383000D02*
X146613000Y-103383000D01*
X146053000Y-94463000D02*
X146053000Y-97363000D01*
X146053000Y-97363000D02*
X145773000Y-97363000D01*
X146163000Y-104983000D02*
X146163000Y-107283000D01*
X146613000Y-99973000D02*
X147273000Y-99973000D01*
X146613000Y-103383000D02*
X146613000Y-99973000D01*
X147273000Y-94463000D02*
X146053000Y-94463000D01*
X147273000Y-107283000D02*
X147273000Y-94463000D01*
%TO.C,J2*%
X118053000Y-93963000D02*
X118053000Y-106783000D01*
X118053000Y-106783000D02*
X135773000Y-106783000D01*
X119163000Y-104483000D02*
X134663000Y-104483000D01*
X119163000Y-106783000D02*
X119163000Y-104483000D01*
X119273000Y-93963000D02*
X118053000Y-93963000D01*
X119273000Y-96863000D02*
X119273000Y-93963000D01*
X119553000Y-96863000D02*
X119273000Y-96863000D01*
X120263000Y-95873000D02*
X121063000Y-95873000D01*
X120463000Y-99473000D02*
X118053000Y-99473000D01*
X120463000Y-104483000D02*
X120463000Y-99473000D01*
X120663000Y-96273000D02*
X120263000Y-95873000D01*
X121063000Y-95873000D02*
X120663000Y-96273000D01*
X122113000Y-99473000D02*
X122113000Y-104483000D01*
X122613000Y-99473000D02*
X122113000Y-99473000D01*
X122613000Y-102883000D02*
X122613000Y-99473000D01*
X123713000Y-99473000D02*
X123713000Y-102883000D01*
X123713000Y-102883000D02*
X122613000Y-102883000D01*
X124213000Y-99473000D02*
X123713000Y-99473000D01*
X124213000Y-104483000D02*
X124213000Y-99473000D01*
X126113000Y-100873000D02*
X127713000Y-100873000D01*
X126113000Y-102673000D02*
X126113000Y-100873000D01*
X127713000Y-100873000D02*
X127713000Y-102673000D01*
X127713000Y-102673000D02*
X126113000Y-102673000D01*
X129613000Y-99473000D02*
X130113000Y-99473000D01*
X129613000Y-104483000D02*
X129613000Y-99473000D01*
X130113000Y-99473000D02*
X130113000Y-102883000D01*
X130113000Y-102883000D02*
X131213000Y-102883000D01*
X131213000Y-99473000D02*
X131713000Y-99473000D01*
X131213000Y-102883000D02*
X131213000Y-99473000D01*
X131713000Y-99473000D02*
X131713000Y-104483000D01*
X133363000Y-99473000D02*
X135773000Y-99473000D01*
X133363000Y-104483000D02*
X133363000Y-99473000D01*
X134553000Y-93963000D02*
X134553000Y-96863000D01*
X134553000Y-96863000D02*
X134273000Y-96863000D01*
X134663000Y-104483000D02*
X134663000Y-106783000D01*
X135773000Y-93963000D02*
X134553000Y-93963000D01*
X135773000Y-106783000D02*
X135773000Y-93963000D01*
%TO.C,J4*%
X97548000Y-94513000D02*
X97548000Y-107233000D01*
X97548000Y-95623000D02*
X99848000Y-95623000D01*
X97548000Y-107233000D02*
X110368000Y-107233000D01*
X99848000Y-95623000D02*
X99848000Y-106123000D01*
X99848000Y-98173000D02*
X104858000Y-98173000D01*
X99848000Y-103573000D02*
X104858000Y-103573000D01*
X99848000Y-106123000D02*
X97548000Y-106123000D01*
X101448000Y-96573000D02*
X104858000Y-96573000D01*
X101448000Y-97673000D02*
X101448000Y-96573000D01*
X101448000Y-104073000D02*
X101448000Y-105173000D01*
X101448000Y-105173000D02*
X104858000Y-105173000D01*
X101658000Y-100073000D02*
X103458000Y-100073000D01*
X101658000Y-101673000D02*
X101658000Y-100073000D01*
X103458000Y-100073000D02*
X103458000Y-101673000D01*
X103458000Y-101673000D02*
X101658000Y-101673000D01*
X104858000Y-96573000D02*
X104858000Y-94513000D01*
X104858000Y-97673000D02*
X101448000Y-97673000D01*
X104858000Y-98173000D02*
X104858000Y-97673000D01*
X104858000Y-103573000D02*
X104858000Y-104073000D01*
X104858000Y-104073000D02*
X101448000Y-104073000D01*
X104858000Y-105173000D02*
X104858000Y-107233000D01*
X107468000Y-95733000D02*
X110368000Y-95733000D01*
X107468000Y-96013000D02*
X107468000Y-95733000D01*
X107468000Y-106013000D02*
X107468000Y-105733000D01*
X108058000Y-97123000D02*
X108458000Y-96723000D01*
X108458000Y-96723000D02*
X108458000Y-97523000D01*
X108458000Y-97523000D02*
X108058000Y-97123000D01*
X110368000Y-94513000D02*
X97548000Y-94513000D01*
X110368000Y-95733000D02*
X110368000Y-94513000D01*
X110368000Y-106013000D02*
X107468000Y-106013000D01*
X110368000Y-107233000D02*
X110368000Y-106013000D01*
%TO.C,J1*%
X113873000Y-83193000D02*
X113873000Y-88493000D01*
X149543000Y-83193000D02*
X113873000Y-83193000D01*
X149543000Y-83193000D02*
X149543000Y-85843000D01*
X149543000Y-85843000D02*
X152193000Y-85843000D01*
X150813000Y-83193000D02*
X152193000Y-83193000D01*
X152193000Y-83193000D02*
X152193000Y-84573000D01*
X152193000Y-85843000D02*
X152193000Y-88493000D01*
X152193000Y-88493000D02*
X113873000Y-88493000D01*
%TO.C,J8*%
D14*
X152806000Y-85580400D02*
X152806000Y-88862331D01*
X152806000Y-89204469D02*
X152806000Y-91862330D01*
X152806000Y-92204468D02*
X152806000Y-95486400D01*
X152806000Y-95486400D02*
X162965999Y-95486400D01*
X162965999Y-85580400D02*
X152806000Y-85580400D01*
X162965999Y-95486400D02*
X162965999Y-85580400D01*
D15*
X154294000Y-84691400D02*
G75*
G02*
X153532000Y-84691400I-381000J0D01*
G01*
X153532000Y-84691400D02*
G75*
G02*
X154294000Y-84691400I381000J0D01*
G01*
%TO.C,J7*%
D14*
X152833001Y-73580400D02*
X152833001Y-76862331D01*
X152833001Y-77204469D02*
X152833001Y-79862330D01*
X152833001Y-80204468D02*
X152833001Y-83486400D01*
X152833001Y-83486400D02*
X162993000Y-83486400D01*
X162993000Y-73580400D02*
X152833001Y-73580400D01*
X162993000Y-83486400D02*
X162993000Y-73580400D01*
D15*
X154321001Y-72691400D02*
G75*
G02*
X153559001Y-72691400I-381000J0D01*
G01*
X153559001Y-72691400D02*
G75*
G02*
X154321001Y-72691400I381000J0D01*
G01*
D16*
%TO.C,G\u002A\u002A\u002A*%
G36*
X111450381Y-74105818D02*
G01*
X111479305Y-74115082D01*
X111488326Y-74135444D01*
X111488625Y-74143313D01*
X111483805Y-74166403D01*
X111463031Y-74178340D01*
X111416835Y-74182629D01*
X111381342Y-74183000D01*
X111319878Y-74181605D01*
X111289472Y-74175074D01*
X111281527Y-74159885D01*
X111284438Y-74143313D01*
X111297808Y-74118796D01*
X111328305Y-74106903D01*
X111386741Y-74103634D01*
X111391721Y-74103625D01*
X111450381Y-74105818D01*
G37*
G36*
X109526478Y-71513040D02*
G01*
X109541627Y-71563871D01*
X109562172Y-71636839D01*
X109581231Y-71706880D01*
X109637056Y-71914968D01*
X109483172Y-72007187D01*
X109414175Y-72047915D01*
X109358787Y-72079445D01*
X109325212Y-72097163D01*
X109319275Y-72099407D01*
X109321817Y-72081652D01*
X109335239Y-72032540D01*
X109357680Y-71958300D01*
X109387274Y-71865161D01*
X109411010Y-71792775D01*
X109445407Y-71690582D01*
X109475616Y-71603607D01*
X109499442Y-71537944D01*
X109514694Y-71499688D01*
X109519081Y-71492467D01*
X109526478Y-71513040D01*
G37*
G36*
X109139788Y-72691671D02*
G01*
X109173546Y-72734401D01*
X109221743Y-72798631D01*
X109280219Y-72878859D01*
X109319597Y-72933918D01*
X109502053Y-73190813D01*
X109438660Y-73188474D01*
X109391503Y-73184779D01*
X109317377Y-73176797D01*
X109228595Y-73165911D01*
X109179115Y-73159342D01*
X109095379Y-73147156D01*
X109027496Y-73135869D01*
X108984346Y-73127037D01*
X108973772Y-73123355D01*
X108975751Y-73102002D01*
X108988540Y-73052823D01*
X109009105Y-72984820D01*
X109034407Y-72906999D01*
X109061413Y-72828364D01*
X109087084Y-72757917D01*
X109108387Y-72704664D01*
X109122284Y-72677608D01*
X109124629Y-72675949D01*
X109139788Y-72691671D01*
G37*
G36*
X114545914Y-73907566D02*
G01*
X114552212Y-73917946D01*
X114553470Y-73942946D01*
X114549658Y-73987986D01*
X114540745Y-74058484D01*
X114526702Y-74159859D01*
X114516520Y-74232610D01*
X114504153Y-74312521D01*
X114492369Y-74361044D01*
X114477979Y-74386298D01*
X114457791Y-74396403D01*
X114451743Y-74397474D01*
X114425698Y-74397751D01*
X114415588Y-74381912D01*
X114417520Y-74340148D01*
X114420254Y-74318099D01*
X114438074Y-74182591D01*
X114452155Y-74081356D01*
X114463720Y-74009290D01*
X114473994Y-73961289D01*
X114484199Y-73932251D01*
X114495560Y-73917072D01*
X114509298Y-73910647D01*
X114518320Y-73908996D01*
X114534607Y-73906389D01*
X114545914Y-73907566D01*
G37*
G36*
X108403247Y-73077248D02*
G01*
X108455052Y-73083117D01*
X108531748Y-73093127D01*
X108626160Y-73106376D01*
X108658956Y-73111153D01*
X108757961Y-73125629D01*
X108841938Y-73137768D01*
X108903569Y-73146523D01*
X108935538Y-73150848D01*
X108938288Y-73151125D01*
X108934840Y-73168647D01*
X108920214Y-73216590D01*
X108896644Y-73288025D01*
X108866361Y-73376021D01*
X108859972Y-73394211D01*
X108774327Y-73637297D01*
X108484445Y-73642789D01*
X108382329Y-73643747D01*
X108295975Y-73642698D01*
X108232329Y-73639871D01*
X108198335Y-73635499D01*
X108194563Y-73633135D01*
X108200619Y-73611430D01*
X108216925Y-73560481D01*
X108240684Y-73488526D01*
X108269099Y-73403803D01*
X108299377Y-73314551D01*
X108328719Y-73229007D01*
X108354330Y-73155410D01*
X108373414Y-73101998D01*
X108383176Y-73077009D01*
X108383507Y-73076427D01*
X108403247Y-73077248D01*
G37*
G36*
X107239820Y-72926715D02*
G01*
X107313659Y-72935147D01*
X107400742Y-72946197D01*
X107492416Y-72958684D01*
X107580027Y-72971429D01*
X107654920Y-72983252D01*
X107708442Y-72992971D01*
X107731938Y-72999407D01*
X107732110Y-72999558D01*
X107732925Y-73021676D01*
X107728601Y-73076243D01*
X107719853Y-73156457D01*
X107707400Y-73255514D01*
X107697415Y-73328513D01*
X107652471Y-73647219D01*
X107357970Y-73647219D01*
X107254974Y-73646274D01*
X107167695Y-73643673D01*
X107103027Y-73639762D01*
X107067866Y-73634892D01*
X107063494Y-73632336D01*
X107066206Y-73603686D01*
X107073563Y-73545224D01*
X107084455Y-73464601D01*
X107097771Y-73369471D01*
X107112403Y-73267484D01*
X107127239Y-73166292D01*
X107141169Y-73073547D01*
X107153084Y-72996901D01*
X107161872Y-72944006D01*
X107166424Y-72922513D01*
X107166493Y-72922424D01*
X107187880Y-72922080D01*
X107239820Y-72926715D01*
G37*
G36*
X111533169Y-73954797D02*
G01*
X111525574Y-73981066D01*
X111509151Y-73995929D01*
X111474487Y-74002618D01*
X111412171Y-74004363D01*
X111388670Y-74004407D01*
X111325330Y-74004353D01*
X111283717Y-74008824D01*
X111258044Y-74024763D01*
X111242527Y-74059117D01*
X111231379Y-74118830D01*
X111219233Y-74207805D01*
X111206306Y-74302063D01*
X111347466Y-74302063D01*
X111424362Y-74303683D01*
X111468083Y-74310804D01*
X111485085Y-74326817D01*
X111481826Y-74355116D01*
X111476580Y-74369893D01*
X111463272Y-74385354D01*
X111432864Y-74394931D01*
X111377978Y-74399835D01*
X111291235Y-74401278D01*
X111285584Y-74401282D01*
X111106633Y-74401282D01*
X111117268Y-74346711D01*
X111124423Y-74303466D01*
X111134792Y-74232720D01*
X111146669Y-74146357D01*
X111152945Y-74098664D01*
X111177985Y-73905188D01*
X111360319Y-73905188D01*
X111542653Y-73905188D01*
X111533169Y-73954797D01*
G37*
G36*
X107240103Y-73905558D02*
G01*
X107295185Y-73907943D01*
X107325447Y-73914250D01*
X107338319Y-73926389D01*
X107341236Y-73946269D01*
X107341281Y-73953599D01*
X107335545Y-73986261D01*
X107310861Y-74001991D01*
X107266867Y-74008170D01*
X107192453Y-74014328D01*
X107164549Y-74207805D01*
X107150785Y-74297233D01*
X107139008Y-74354248D01*
X107126773Y-74385878D01*
X107111636Y-74399149D01*
X107097230Y-74401282D01*
X107075656Y-74397896D01*
X107065522Y-74381633D01*
X107064719Y-74343336D01*
X107070128Y-74283478D01*
X107079418Y-74202203D01*
X107089759Y-74122755D01*
X107095335Y-74085041D01*
X107108229Y-74004407D01*
X107036239Y-74004407D01*
X106988183Y-74001001D01*
X106968047Y-73985477D01*
X106964250Y-73954797D01*
X106965559Y-73931815D01*
X106974442Y-73917320D01*
X106998334Y-73909357D01*
X107044668Y-73905969D01*
X107120878Y-73905200D01*
X107152766Y-73905188D01*
X107240103Y-73905558D01*
G37*
G36*
X109700728Y-73905558D02*
G01*
X109755810Y-73907943D01*
X109786072Y-73914250D01*
X109798944Y-73926389D01*
X109801861Y-73946269D01*
X109801906Y-73953599D01*
X109796170Y-73986261D01*
X109771486Y-74001991D01*
X109727492Y-74008170D01*
X109653078Y-74014328D01*
X109625174Y-74207805D01*
X109611410Y-74297233D01*
X109599633Y-74354248D01*
X109587398Y-74385878D01*
X109572261Y-74399149D01*
X109557855Y-74401282D01*
X109536281Y-74397896D01*
X109526147Y-74381633D01*
X109525344Y-74343336D01*
X109530753Y-74283478D01*
X109540043Y-74202203D01*
X109550384Y-74122755D01*
X109555960Y-74085041D01*
X109568854Y-74004407D01*
X109496864Y-74004407D01*
X109448808Y-74001001D01*
X109428672Y-73985477D01*
X109424875Y-73954797D01*
X109426184Y-73931815D01*
X109435067Y-73917320D01*
X109458959Y-73909357D01*
X109505293Y-73905969D01*
X109581503Y-73905200D01*
X109613391Y-73905188D01*
X109700728Y-73905558D01*
G37*
G36*
X111868403Y-73905964D02*
G01*
X111923074Y-73909067D01*
X111951163Y-73915663D01*
X111959214Y-73926914D01*
X111957076Y-73936576D01*
X111946369Y-73974382D01*
X111945031Y-73986186D01*
X111927571Y-73998188D01*
X111884591Y-74004234D01*
X111874955Y-74004407D01*
X111840672Y-74005135D01*
X111817166Y-74011807D01*
X111801146Y-74031148D01*
X111789322Y-74069887D01*
X111778403Y-74134751D01*
X111765742Y-74227649D01*
X111753553Y-74311427D01*
X111742556Y-74363168D01*
X111730019Y-74390327D01*
X111713214Y-74400358D01*
X111702159Y-74401282D01*
X111678373Y-74397464D01*
X111668949Y-74379291D01*
X111670964Y-74336682D01*
X111674799Y-74307024D01*
X111685347Y-74227261D01*
X111696454Y-74138695D01*
X111700072Y-74108586D01*
X111712370Y-74004407D01*
X111640185Y-74004407D01*
X111588673Y-73999966D01*
X111569954Y-73981862D01*
X111577670Y-73942923D01*
X111580045Y-73936576D01*
X111592914Y-73921477D01*
X111622314Y-73911972D01*
X111675470Y-73906933D01*
X111759605Y-73905228D01*
X111780605Y-73905188D01*
X111868403Y-73905964D01*
G37*
G36*
X108756303Y-73915548D02*
G01*
X108820444Y-73948805D01*
X108856938Y-74008224D01*
X108869209Y-74097068D01*
X108869250Y-74103709D01*
X108854874Y-74219387D01*
X108812596Y-74307908D01*
X108743685Y-74367880D01*
X108649415Y-74397908D01*
X108597781Y-74401282D01*
X108527173Y-74397469D01*
X108480275Y-74382801D01*
X108441707Y-74352574D01*
X108412000Y-74315026D01*
X108397304Y-74269836D01*
X108393031Y-74201957D01*
X108393000Y-74192839D01*
X108394455Y-74178751D01*
X108472139Y-74178751D01*
X108483989Y-74241716D01*
X108503558Y-74270880D01*
X108555380Y-74297737D01*
X108623485Y-74302123D01*
X108692268Y-74285187D01*
X108741168Y-74253355D01*
X108777337Y-74195673D01*
X108790111Y-74127718D01*
X108778261Y-74064753D01*
X108758692Y-74035590D01*
X108706870Y-74008732D01*
X108638765Y-74004347D01*
X108569982Y-74021283D01*
X108521082Y-74053114D01*
X108484913Y-74110796D01*
X108472139Y-74178751D01*
X108394455Y-74178751D01*
X108404892Y-74077701D01*
X108441533Y-73993136D01*
X108504373Y-73937589D01*
X108594861Y-73909505D01*
X108661094Y-73905188D01*
X108756303Y-73915548D01*
G37*
G36*
X113869066Y-73914806D02*
G01*
X113936268Y-73945613D01*
X113975046Y-74000538D01*
X113988805Y-74082510D01*
X113988938Y-74093439D01*
X113975134Y-74212501D01*
X113934104Y-74303139D01*
X113866422Y-74364723D01*
X113772658Y-74396620D01*
X113709889Y-74401282D01*
X113641067Y-74398851D01*
X113598364Y-74388637D01*
X113568360Y-74366253D01*
X113555187Y-74350740D01*
X113512429Y-74266338D01*
X113501499Y-74170203D01*
X113501598Y-74169720D01*
X113582294Y-74169720D01*
X113590134Y-74231086D01*
X113621652Y-74274622D01*
X113679819Y-74297038D01*
X113752641Y-74299857D01*
X113820626Y-74283704D01*
X113848436Y-74267336D01*
X113886283Y-74216177D01*
X113904378Y-74150119D01*
X113900519Y-74085084D01*
X113879391Y-74043645D01*
X113825627Y-74011183D01*
X113755855Y-74004437D01*
X113683911Y-74022956D01*
X113638810Y-74051444D01*
X113598866Y-74105325D01*
X113582294Y-74169720D01*
X113501598Y-74169720D01*
X113521393Y-74072902D01*
X113571108Y-73985000D01*
X113592145Y-73961583D01*
X113629318Y-73929405D01*
X113667959Y-73912399D01*
X113722675Y-73905934D01*
X113770032Y-73905188D01*
X113869066Y-73914806D01*
G37*
G36*
X114327692Y-73905599D02*
G01*
X114382204Y-73908013D01*
X114411399Y-73914199D01*
X114422463Y-73925928D01*
X114422581Y-73944969D01*
X114421919Y-73949836D01*
X114408986Y-73981323D01*
X114374460Y-73996518D01*
X114342495Y-74000564D01*
X114306363Y-74004747D01*
X114282252Y-74015030D01*
X114266280Y-74038852D01*
X114254568Y-74083655D01*
X114243233Y-74156877D01*
X114236984Y-74202844D01*
X114223913Y-74293433D01*
X114212478Y-74351560D01*
X114200169Y-74384232D01*
X114184480Y-74398457D01*
X114165955Y-74401282D01*
X114134757Y-74394816D01*
X114128272Y-74386399D01*
X114131244Y-74361253D01*
X114138818Y-74306741D01*
X114149607Y-74232731D01*
X114154801Y-74197953D01*
X114165386Y-74119485D01*
X114171530Y-74057039D01*
X114172399Y-74020107D01*
X114170908Y-74014398D01*
X114146021Y-74007451D01*
X114099607Y-74004412D01*
X114097523Y-74004407D01*
X114054457Y-74000884D01*
X114040609Y-73984012D01*
X114043612Y-73954797D01*
X114049616Y-73931757D01*
X114062162Y-73917249D01*
X114089086Y-73909302D01*
X114138223Y-73905942D01*
X114217410Y-73905197D01*
X114240678Y-73905188D01*
X114327692Y-73905599D01*
G37*
G36*
X114968187Y-73905830D02*
G01*
X115012907Y-73909375D01*
X115033741Y-73918247D01*
X115038590Y-73934873D01*
X115037075Y-73949836D01*
X115029645Y-73974050D01*
X115009826Y-73988852D01*
X114968500Y-73997803D01*
X114897301Y-74004407D01*
X114795083Y-74020075D01*
X114726653Y-74051175D01*
X114688109Y-74100708D01*
X114675548Y-74171674D01*
X114675531Y-74174963D01*
X114685113Y-74236097D01*
X114717310Y-74275352D01*
X114777300Y-74296185D01*
X114865855Y-74302063D01*
X114930527Y-74303196D01*
X114964987Y-74309311D01*
X114978697Y-74324482D01*
X114981125Y-74351672D01*
X114979245Y-74377001D01*
X114968004Y-74391800D01*
X114939002Y-74398895D01*
X114883840Y-74401114D01*
X114833737Y-74401282D01*
X114756254Y-74400032D01*
X114707466Y-74394309D01*
X114676406Y-74381152D01*
X114652110Y-74357599D01*
X114646594Y-74350740D01*
X114603836Y-74266338D01*
X114592905Y-74170203D01*
X114612799Y-74072902D01*
X114662514Y-73985000D01*
X114683552Y-73961583D01*
X114715758Y-73932639D01*
X114748183Y-73915742D01*
X114792635Y-73907691D01*
X114860924Y-73905287D01*
X114891682Y-73905188D01*
X114968187Y-73905830D01*
G37*
G36*
X107691786Y-73908068D02*
G01*
X107745524Y-73919540D01*
X107780758Y-73943850D01*
X107807960Y-73985243D01*
X107808343Y-73985982D01*
X107834565Y-74078976D01*
X107824766Y-74183485D01*
X107799399Y-74254785D01*
X107754116Y-74331470D01*
X107697273Y-74377357D01*
X107619279Y-74398281D01*
X107558606Y-74401282D01*
X107488075Y-74397999D01*
X107442466Y-74385210D01*
X107407340Y-74358502D01*
X107402645Y-74353623D01*
X107359703Y-74281041D01*
X107344514Y-74192692D01*
X107345827Y-74182015D01*
X107420656Y-74182015D01*
X107438326Y-74236147D01*
X107484690Y-74276972D01*
X107549780Y-74300147D01*
X107623627Y-74301326D01*
X107667814Y-74289736D01*
X107702809Y-74260098D01*
X107734961Y-74207903D01*
X107755190Y-74149789D01*
X107758000Y-74124454D01*
X107740330Y-74070322D01*
X107693966Y-74029497D01*
X107628877Y-74006322D01*
X107555030Y-74005143D01*
X107510842Y-74016733D01*
X107475847Y-74046371D01*
X107443696Y-74098566D01*
X107423466Y-74156681D01*
X107420656Y-74182015D01*
X107345827Y-74182015D01*
X107355911Y-74099989D01*
X107392727Y-74014346D01*
X107443347Y-73955447D01*
X107491968Y-73923055D01*
X107547619Y-73908143D01*
X107609071Y-73905188D01*
X107691786Y-73908068D01*
G37*
G36*
X110152411Y-73908068D02*
G01*
X110206149Y-73919540D01*
X110241383Y-73943850D01*
X110268585Y-73985243D01*
X110268968Y-73985982D01*
X110295190Y-74078976D01*
X110285391Y-74183485D01*
X110260024Y-74254785D01*
X110214741Y-74331470D01*
X110157898Y-74377357D01*
X110079904Y-74398281D01*
X110019231Y-74401282D01*
X109948700Y-74397999D01*
X109903091Y-74385210D01*
X109867965Y-74358502D01*
X109863270Y-74353623D01*
X109820328Y-74281041D01*
X109805139Y-74192692D01*
X109806452Y-74182015D01*
X109881281Y-74182015D01*
X109898951Y-74236147D01*
X109945315Y-74276972D01*
X110010405Y-74300147D01*
X110084252Y-74301326D01*
X110128439Y-74289736D01*
X110163434Y-74260098D01*
X110195586Y-74207903D01*
X110215815Y-74149789D01*
X110218625Y-74124454D01*
X110200955Y-74070322D01*
X110154591Y-74029497D01*
X110089502Y-74006322D01*
X110015655Y-74005143D01*
X109971467Y-74016733D01*
X109936472Y-74046371D01*
X109904321Y-74098566D01*
X109884091Y-74156681D01*
X109881281Y-74182015D01*
X109806452Y-74182015D01*
X109816536Y-74099989D01*
X109853352Y-74014346D01*
X109903972Y-73955447D01*
X109952593Y-73923055D01*
X110008244Y-73908143D01*
X110069696Y-73905188D01*
X110152411Y-73908068D01*
G37*
G36*
X112811474Y-73908068D02*
G01*
X112865212Y-73919540D01*
X112900446Y-73943850D01*
X112927648Y-73985243D01*
X112928031Y-73985982D01*
X112954252Y-74078976D01*
X112944454Y-74183485D01*
X112919087Y-74254785D01*
X112873804Y-74331470D01*
X112816961Y-74377357D01*
X112738966Y-74398281D01*
X112678294Y-74401282D01*
X112607763Y-74397999D01*
X112562154Y-74385210D01*
X112527028Y-74358502D01*
X112522332Y-74353623D01*
X112479391Y-74281041D01*
X112464201Y-74192692D01*
X112465514Y-74182015D01*
X112540344Y-74182015D01*
X112558014Y-74236147D01*
X112604377Y-74276972D01*
X112669467Y-74300147D01*
X112743314Y-74301326D01*
X112787502Y-74289736D01*
X112822497Y-74260098D01*
X112854648Y-74207903D01*
X112874878Y-74149789D01*
X112877688Y-74124454D01*
X112860018Y-74070322D01*
X112813654Y-74029497D01*
X112748564Y-74006322D01*
X112674717Y-74005143D01*
X112630530Y-74016733D01*
X112595534Y-74046371D01*
X112563383Y-74098566D01*
X112543154Y-74156681D01*
X112540344Y-74182015D01*
X112465514Y-74182015D01*
X112475598Y-74099989D01*
X112512414Y-74014346D01*
X112563035Y-73955447D01*
X112611655Y-73923055D01*
X112667307Y-73908143D01*
X112728759Y-73905188D01*
X112811474Y-73908068D01*
G37*
G36*
X109378846Y-73912461D02*
G01*
X109385188Y-73921577D01*
X109382304Y-73955861D01*
X109374661Y-74016529D01*
X109363767Y-74093741D01*
X109351132Y-74177660D01*
X109338266Y-74258447D01*
X109326679Y-74326263D01*
X109317879Y-74371271D01*
X109314261Y-74383822D01*
X109292423Y-74400684D01*
X109262549Y-74389334D01*
X109222074Y-74347508D01*
X109168433Y-74272944D01*
X109141315Y-74231249D01*
X109090574Y-74152569D01*
X109056095Y-74106612D01*
X109033684Y-74094713D01*
X109019151Y-74118207D01*
X109008302Y-74178431D01*
X108996946Y-74276719D01*
X108996886Y-74277258D01*
X108987297Y-74346558D01*
X108975622Y-74384575D01*
X108958428Y-74399690D01*
X108946062Y-74401282D01*
X108915323Y-74388097D01*
X108908938Y-74371385D01*
X108911938Y-74334107D01*
X108919874Y-74271345D01*
X108931147Y-74193200D01*
X108944159Y-74109773D01*
X108957312Y-74031165D01*
X108969007Y-73967477D01*
X108977646Y-73928810D01*
X108979964Y-73922486D01*
X109000463Y-73906226D01*
X109028419Y-73916666D01*
X109066809Y-73956418D01*
X109118604Y-74028095D01*
X109143805Y-74066386D01*
X109188978Y-74134170D01*
X109226159Y-74186033D01*
X109250348Y-74215215D01*
X109256626Y-74218957D01*
X109263433Y-74196570D01*
X109273685Y-74145039D01*
X109285405Y-74074536D01*
X109287945Y-74057759D01*
X109301065Y-73979343D01*
X109313589Y-73932847D01*
X109328508Y-73910666D01*
X109347912Y-73905188D01*
X109378846Y-73912461D01*
G37*
G36*
X108212632Y-73907791D02*
G01*
X108278591Y-73918432D01*
X108318024Y-73941352D01*
X108337422Y-73980796D01*
X108343274Y-74041007D01*
X108343391Y-74055403D01*
X108326547Y-74150136D01*
X108297590Y-74201936D01*
X108251790Y-74263885D01*
X108294248Y-74332583D01*
X108336706Y-74401282D01*
X108277516Y-74401282D01*
X108231449Y-74392603D01*
X108195746Y-74360139D01*
X108177348Y-74331828D01*
X108142400Y-74284331D01*
X108104132Y-74264814D01*
X108074046Y-74262375D01*
X108031634Y-74258041D01*
X108020832Y-74241943D01*
X108023768Y-74230987D01*
X108034274Y-74199354D01*
X108035813Y-74191299D01*
X108053306Y-74185851D01*
X108096411Y-74183086D01*
X108106570Y-74183000D01*
X108186705Y-74172265D01*
X108241038Y-74142879D01*
X108265142Y-74099075D01*
X108254592Y-74045084D01*
X108253324Y-74042656D01*
X108233546Y-74020183D01*
X108198002Y-74008463D01*
X108136077Y-74004524D01*
X108116725Y-74004407D01*
X108000597Y-74004407D01*
X107975309Y-74202844D01*
X107963151Y-74293073D01*
X107952772Y-74350935D01*
X107941724Y-74383526D01*
X107927556Y-74397942D01*
X107907822Y-74401278D01*
X107906836Y-74401282D01*
X107886879Y-74400019D01*
X107875486Y-74391285D01*
X107871972Y-74367659D01*
X107875652Y-74321720D01*
X107885841Y-74246050D01*
X107889881Y-74217727D01*
X107902860Y-74128337D01*
X107915094Y-74046584D01*
X107924602Y-73985610D01*
X107927250Y-73969680D01*
X107938392Y-73905188D01*
X108113657Y-73905188D01*
X108212632Y-73907791D01*
G37*
G36*
X112268104Y-73905891D02*
G01*
X112322985Y-73909449D01*
X112356499Y-73918034D01*
X112377805Y-73933818D01*
X112393615Y-73955216D01*
X112415840Y-74020962D01*
X112413344Y-74099595D01*
X112388195Y-74174719D01*
X112361028Y-74213535D01*
X112317365Y-74260012D01*
X112361020Y-74330647D01*
X112404674Y-74401282D01*
X112346650Y-74401282D01*
X112301912Y-74392767D01*
X112268419Y-74360628D01*
X112251222Y-74331828D01*
X112219318Y-74284546D01*
X112183211Y-74265058D01*
X112150736Y-74262375D01*
X112107901Y-74258523D01*
X112095027Y-74242267D01*
X112098032Y-74222688D01*
X112115699Y-74194730D01*
X112156186Y-74183805D01*
X112181055Y-74183000D01*
X112253048Y-74172016D01*
X112307062Y-74143375D01*
X112337374Y-74103540D01*
X112338260Y-74058978D01*
X112318094Y-74028219D01*
X112285135Y-74013701D01*
X112231186Y-74005927D01*
X112169914Y-74004842D01*
X112114982Y-74010390D01*
X112080059Y-74022516D01*
X112074747Y-74029211D01*
X112068650Y-74059174D01*
X112059196Y-74117861D01*
X112048058Y-74194629D01*
X112043555Y-74227649D01*
X112031157Y-74311967D01*
X112019803Y-74364059D01*
X112006934Y-74391224D01*
X111989989Y-74400759D01*
X111982669Y-74401282D01*
X111951033Y-74386596D01*
X111945661Y-74366555D01*
X111948675Y-74332829D01*
X111956278Y-74270158D01*
X111967173Y-74188845D01*
X111975040Y-74133391D01*
X111987180Y-74048463D01*
X111996866Y-73978528D01*
X112002854Y-73932702D01*
X112004177Y-73920071D01*
X112022718Y-73913507D01*
X112072050Y-73908423D01*
X112143282Y-73905557D01*
X112182699Y-73905188D01*
X112268104Y-73905891D01*
G37*
G36*
X110695554Y-73913295D02*
G01*
X110712719Y-73942189D01*
X110729930Y-73998726D01*
X110743756Y-74058977D01*
X110759949Y-74133851D01*
X110773161Y-74193950D01*
X110781012Y-74228474D01*
X110781799Y-74231622D01*
X110792422Y-74223634D01*
X110816953Y-74186874D01*
X110851243Y-74127911D01*
X110875686Y-74082894D01*
X110928157Y-73988812D01*
X110967745Y-73931400D01*
X110996583Y-73910593D01*
X111016804Y-73926322D01*
X111030540Y-73978522D01*
X111039924Y-74067125D01*
X111040687Y-74077726D01*
X111047264Y-74167709D01*
X111053921Y-74252029D01*
X111059471Y-74315811D01*
X111060670Y-74328020D01*
X111063305Y-74376822D01*
X111054070Y-74396686D01*
X111027815Y-74397790D01*
X111025524Y-74397474D01*
X111003237Y-74390434D01*
X110989186Y-74371398D01*
X110980448Y-74331788D01*
X110974096Y-74263028D01*
X110972688Y-74242532D01*
X110962766Y-74093703D01*
X110884863Y-74239532D01*
X110832335Y-74330098D01*
X110790742Y-74384088D01*
X110758956Y-74402736D01*
X110742321Y-74395811D01*
X110733097Y-74372756D01*
X110718220Y-74321328D01*
X110700649Y-74251892D01*
X110697731Y-74239570D01*
X110663515Y-74093703D01*
X110607084Y-74247492D01*
X110574945Y-74328568D01*
X110549065Y-74377017D01*
X110525897Y-74398673D01*
X110513623Y-74401282D01*
X110482796Y-74396939D01*
X110476594Y-74391582D01*
X110482674Y-74370186D01*
X110499284Y-74318713D01*
X110523975Y-74244594D01*
X110554300Y-74155257D01*
X110558315Y-74143535D01*
X110595194Y-74039704D01*
X110623736Y-73969090D01*
X110646384Y-73926712D01*
X110665585Y-73907594D01*
X110675386Y-73905188D01*
X110695554Y-73913295D01*
G37*
G36*
X113390947Y-73915042D02*
G01*
X113430274Y-73932786D01*
X113447115Y-73964647D01*
X113447111Y-74013765D01*
X113444560Y-74033066D01*
X113437033Y-74107117D01*
X113433671Y-74188213D01*
X113433700Y-74204139D01*
X113423703Y-74289101D01*
X113392964Y-74348006D01*
X113371244Y-74372876D01*
X113347457Y-74388491D01*
X113312365Y-74396999D01*
X113256731Y-74400546D01*
X113171318Y-74401280D01*
X113163747Y-74401282D01*
X112976437Y-74401282D01*
X112988063Y-74326867D01*
X112994005Y-74287359D01*
X113082795Y-74287359D01*
X113101036Y-74297852D01*
X113146502Y-74301713D01*
X113182305Y-74302063D01*
X113249230Y-74299948D01*
X113302826Y-74294529D01*
X113322549Y-74290018D01*
X113349531Y-74262275D01*
X113353938Y-74242532D01*
X113339962Y-74207776D01*
X113295515Y-74188516D01*
X113223330Y-74183000D01*
X113175970Y-74178203D01*
X113157292Y-74159913D01*
X113155500Y-74144350D01*
X113161536Y-74121064D01*
X113185860Y-74107986D01*
X113237793Y-74101120D01*
X113259680Y-74099701D01*
X113321336Y-74093992D01*
X113352742Y-74083309D01*
X113363328Y-74063519D01*
X113363859Y-74054016D01*
X113359075Y-74031724D01*
X113338784Y-74018731D01*
X113294079Y-74011701D01*
X113242233Y-74008483D01*
X113120606Y-74002637D01*
X113107109Y-74117623D01*
X113097999Y-74186715D01*
X113088776Y-74243366D01*
X113083531Y-74267336D01*
X113082795Y-74287359D01*
X112994005Y-74287359D01*
X112996353Y-74271746D01*
X113007895Y-74192426D01*
X113020494Y-74104022D01*
X113023341Y-74083782D01*
X113046994Y-73915110D01*
X113222272Y-73909347D01*
X113323493Y-73908276D01*
X113390947Y-73915042D01*
G37*
G36*
X115410075Y-73905662D02*
G01*
X115459929Y-73908602D01*
X115485807Y-73916279D01*
X115495566Y-73930968D01*
X115497063Y-73953995D01*
X115495145Y-73977983D01*
X115484086Y-73992839D01*
X115455920Y-74001217D01*
X115402686Y-74005772D01*
X115333352Y-74008565D01*
X115252499Y-74012272D01*
X115203136Y-74017947D01*
X115177065Y-74027913D01*
X115166089Y-74044495D01*
X115163601Y-74056677D01*
X115163578Y-74078879D01*
X115176753Y-74092428D01*
X115211211Y-74100337D01*
X115275038Y-74105615D01*
X115298712Y-74107000D01*
X115390101Y-74116292D01*
X115443759Y-74131882D01*
X115458237Y-74144027D01*
X115475807Y-74203593D01*
X115469843Y-74275180D01*
X115442330Y-74340414D01*
X115436091Y-74348996D01*
X115413923Y-74374008D01*
X115389110Y-74389443D01*
X115352053Y-74397600D01*
X115293158Y-74400778D01*
X115217810Y-74401282D01*
X115133673Y-74400861D01*
X115081557Y-74398189D01*
X115053795Y-74391153D01*
X115042718Y-74377639D01*
X115040661Y-74355534D01*
X115040656Y-74352445D01*
X115042417Y-74329005D01*
X115052856Y-74314261D01*
X115079710Y-74305783D01*
X115130714Y-74301139D01*
X115213603Y-74297897D01*
X115214289Y-74297874D01*
X115297410Y-74294653D01*
X115348596Y-74290060D01*
X115375585Y-74281629D01*
X115386114Y-74266894D01*
X115387922Y-74243388D01*
X115387922Y-74242532D01*
X115385349Y-74215665D01*
X115371648Y-74200156D01*
X115337850Y-74192111D01*
X115274982Y-74187640D01*
X115259698Y-74186905D01*
X115189136Y-74180644D01*
X115132938Y-74170320D01*
X115105909Y-74159671D01*
X115084976Y-74120102D01*
X115080339Y-74061080D01*
X115090931Y-73998839D01*
X115115685Y-73949615D01*
X115120031Y-73944875D01*
X115146173Y-73924841D01*
X115181832Y-73912794D01*
X115236807Y-73906867D01*
X115320895Y-73905194D01*
X115328391Y-73905188D01*
X115410075Y-73905662D01*
G37*
G36*
X108892028Y-65570043D02*
G01*
X108900457Y-65624625D01*
X108912066Y-65710754D01*
X108926367Y-65824468D01*
X108942870Y-65961805D01*
X108961087Y-66118805D01*
X108980528Y-66291506D01*
X108995609Y-66428854D01*
X109016065Y-66613404D01*
X109036137Y-66787444D01*
X109055271Y-66946645D01*
X109072910Y-67086677D01*
X109088499Y-67203211D01*
X109101482Y-67291917D01*
X109111303Y-67348465D01*
X109115946Y-67366472D01*
X109145384Y-67422693D01*
X109181100Y-67458772D01*
X109227062Y-67474083D01*
X109287242Y-67468000D01*
X109365610Y-67439896D01*
X109466136Y-67389144D01*
X109592791Y-67315119D01*
X109644991Y-67282998D01*
X109755697Y-67214169D01*
X109869513Y-67143300D01*
X109975812Y-67077011D01*
X110063970Y-67021927D01*
X110095919Y-67001916D01*
X110260948Y-66898420D01*
X110142499Y-67122624D01*
X110051394Y-67295505D01*
X109955019Y-67479179D01*
X109855115Y-67670266D01*
X109753424Y-67865387D01*
X109651688Y-68061162D01*
X109551651Y-68254211D01*
X109455053Y-68441154D01*
X109363638Y-68618612D01*
X109279146Y-68783204D01*
X109203321Y-68931552D01*
X109137905Y-69060276D01*
X109084639Y-69165995D01*
X109045266Y-69245330D01*
X109021528Y-69294901D01*
X109015536Y-69308894D01*
X108990668Y-69413614D01*
X108995913Y-69497136D01*
X109029533Y-69556785D01*
X109089789Y-69589889D01*
X109174942Y-69593776D01*
X109198499Y-69590139D01*
X109221672Y-69581106D01*
X109257142Y-69559477D01*
X109307096Y-69523461D01*
X109373720Y-69471270D01*
X109459201Y-69401115D01*
X109565726Y-69311204D01*
X109695480Y-69199751D01*
X109850652Y-69064964D01*
X110001760Y-68932821D01*
X110737191Y-68288229D01*
X110730916Y-68575071D01*
X110728844Y-68688625D01*
X110728913Y-68769821D01*
X110731878Y-68825965D01*
X110738492Y-68864362D01*
X110749508Y-68892320D01*
X110765680Y-68917142D01*
X110766290Y-68917964D01*
X110820444Y-68965354D01*
X110865957Y-68979898D01*
X110898401Y-68978038D01*
X110965174Y-68970154D01*
X111061492Y-68956951D01*
X111182574Y-68939130D01*
X111323635Y-68917398D01*
X111479891Y-68892457D01*
X111645834Y-68865133D01*
X111810247Y-68837863D01*
X111962272Y-68813052D01*
X112097484Y-68791389D01*
X112211457Y-68773567D01*
X112299765Y-68760277D01*
X112357983Y-68752211D01*
X112381684Y-68750061D01*
X112381859Y-68750110D01*
X112374046Y-68766891D01*
X112345413Y-68812007D01*
X112298532Y-68881726D01*
X112235971Y-68972321D01*
X112160299Y-69080062D01*
X112074087Y-69201217D01*
X112002039Y-69301438D01*
X111907930Y-69432641D01*
X111821107Y-69555324D01*
X111744392Y-69665371D01*
X111680608Y-69758667D01*
X111632579Y-69831095D01*
X111603128Y-69878540D01*
X111595026Y-69894861D01*
X111595461Y-69957112D01*
X111633678Y-70007617D01*
X111669379Y-70029559D01*
X111707141Y-70038423D01*
X111781971Y-70046832D01*
X111891255Y-70054598D01*
X112032375Y-70061535D01*
X112198316Y-70067327D01*
X112679143Y-70081428D01*
X112407950Y-70246445D01*
X112314330Y-70303884D01*
X112232111Y-70355217D01*
X112167566Y-70396457D01*
X112126972Y-70423618D01*
X112116705Y-70431514D01*
X112113353Y-70455060D01*
X112113176Y-70516027D01*
X112116191Y-70614708D01*
X112122411Y-70751401D01*
X112131853Y-70926401D01*
X112144531Y-71140003D01*
X112160459Y-71392503D01*
X112179655Y-71684197D01*
X112184107Y-71750529D01*
X112199190Y-71973125D01*
X112213634Y-72183490D01*
X112227203Y-72378372D01*
X112239661Y-72554519D01*
X112250772Y-72708679D01*
X112260302Y-72837599D01*
X112268015Y-72938027D01*
X112273674Y-73006711D01*
X112277046Y-73040398D01*
X112277719Y-73043334D01*
X112281302Y-73023348D01*
X112289785Y-72967820D01*
X112302639Y-72880525D01*
X112319336Y-72765235D01*
X112339345Y-72625724D01*
X112362140Y-72465765D01*
X112387192Y-72289131D01*
X112413971Y-72099596D01*
X112441949Y-71900933D01*
X112470598Y-71696915D01*
X112499389Y-71491316D01*
X112527793Y-71287909D01*
X112555283Y-71090467D01*
X112581328Y-70902763D01*
X112605400Y-70728572D01*
X112626972Y-70571665D01*
X112645514Y-70435817D01*
X112660498Y-70324801D01*
X112671395Y-70242390D01*
X112677676Y-70192358D01*
X112679044Y-70178601D01*
X112685623Y-70172971D01*
X112707058Y-70168271D01*
X112746040Y-70164455D01*
X112805258Y-70161474D01*
X112887404Y-70159280D01*
X112995169Y-70157827D01*
X113131243Y-70157065D01*
X113298318Y-70156947D01*
X113499085Y-70157426D01*
X113736234Y-70158453D01*
X113795461Y-70158758D01*
X114033969Y-70160036D01*
X114236157Y-70161250D01*
X114405394Y-70162540D01*
X114545047Y-70164049D01*
X114658484Y-70165919D01*
X114749073Y-70168293D01*
X114820181Y-70171312D01*
X114875176Y-70175118D01*
X114917426Y-70179855D01*
X114950299Y-70185663D01*
X114977162Y-70192686D01*
X115001383Y-70201064D01*
X115025707Y-70210690D01*
X115166381Y-70288397D01*
X115290321Y-70399220D01*
X115394071Y-70538877D01*
X115474176Y-70703085D01*
X115508897Y-70809563D01*
X115529383Y-70917785D01*
X115541646Y-71053450D01*
X115545785Y-71205193D01*
X115541899Y-71361651D01*
X115530084Y-71511461D01*
X115510439Y-71643259D01*
X115501347Y-71684609D01*
X115429706Y-71911463D01*
X115332871Y-72112772D01*
X115212491Y-72286110D01*
X115070212Y-72429050D01*
X114929027Y-72527293D01*
X114875298Y-72558164D01*
X114837800Y-72579868D01*
X114826691Y-72586448D01*
X114835632Y-72603382D01*
X114863615Y-72649616D01*
X114908115Y-72721135D01*
X114966606Y-72813922D01*
X115036563Y-72923962D01*
X115115463Y-73047238D01*
X115158218Y-73113736D01*
X115495350Y-73637297D01*
X115094906Y-73642683D01*
X114971927Y-73643912D01*
X114861985Y-73644203D01*
X114771443Y-73643606D01*
X114706664Y-73642170D01*
X114674011Y-73639944D01*
X114671983Y-73639443D01*
X114656657Y-73620491D01*
X114624829Y-73571416D01*
X114579252Y-73496804D01*
X114522676Y-73401238D01*
X114457850Y-73289302D01*
X114387527Y-73165580D01*
X114385943Y-73162768D01*
X114122382Y-72694719D01*
X113698472Y-72694719D01*
X113274563Y-72694719D01*
X113274562Y-72649274D01*
X113277207Y-72611776D01*
X113284276Y-72545095D01*
X113294470Y-72459318D01*
X113306488Y-72364534D01*
X113319033Y-72270831D01*
X113330806Y-72188298D01*
X113340506Y-72127024D01*
X113344566Y-72105676D01*
X113348003Y-72093401D01*
X113355170Y-72083642D01*
X113370300Y-72076049D01*
X113397623Y-72070275D01*
X113441372Y-72065970D01*
X113505778Y-72062786D01*
X113595075Y-72060375D01*
X113713492Y-72058386D01*
X113865263Y-72056473D01*
X113954260Y-72055444D01*
X114137005Y-72053124D01*
X114284774Y-72050251D01*
X114402282Y-72046006D01*
X114494239Y-72039570D01*
X114565358Y-72030121D01*
X114620352Y-72016841D01*
X114663933Y-71998911D01*
X114700812Y-71975509D01*
X114735702Y-71945816D01*
X114768550Y-71913784D01*
X114847994Y-71808967D01*
X114907131Y-71679369D01*
X114944373Y-71535058D01*
X114958136Y-71386103D01*
X114946834Y-71242573D01*
X114908880Y-71114537D01*
X114898013Y-71091794D01*
X114840982Y-71010420D01*
X114764197Y-70954772D01*
X114741182Y-70942988D01*
X114718397Y-70933410D01*
X114691676Y-70925812D01*
X114656855Y-70919963D01*
X114609770Y-70915634D01*
X114546256Y-70912598D01*
X114462149Y-70910624D01*
X114353286Y-70909485D01*
X114215500Y-70908950D01*
X114044628Y-70908791D01*
X113927622Y-70908782D01*
X113734883Y-70908885D01*
X113578086Y-70909310D01*
X113453484Y-70910228D01*
X113357333Y-70911810D01*
X113285886Y-70914227D01*
X113235399Y-70917652D01*
X113202125Y-70922254D01*
X113182320Y-70928206D01*
X113172237Y-70935678D01*
X113168469Y-70943508D01*
X113164191Y-70968618D01*
X113154970Y-71029739D01*
X113141275Y-71123564D01*
X113123575Y-71246788D01*
X113102340Y-71396104D01*
X113078039Y-71568207D01*
X113051141Y-71759789D01*
X113022115Y-71967546D01*
X112991430Y-72188170D01*
X112974165Y-72312727D01*
X112789409Y-73647219D01*
X112258080Y-73647219D01*
X112093709Y-73646866D01*
X111965199Y-73645684D01*
X111868726Y-73643483D01*
X111800468Y-73640077D01*
X111756603Y-73635278D01*
X111733309Y-73628898D01*
X111726750Y-73621134D01*
X111725629Y-73591699D01*
X111722439Y-73528025D01*
X111717439Y-73434557D01*
X111710889Y-73315740D01*
X111703048Y-73176018D01*
X111694174Y-73019835D01*
X111684528Y-72851636D01*
X111674368Y-72675865D01*
X111663955Y-72496967D01*
X111653546Y-72319385D01*
X111643401Y-72147565D01*
X111633780Y-71985949D01*
X111624942Y-71838984D01*
X111617146Y-71711113D01*
X111610652Y-71606780D01*
X111605718Y-71530430D01*
X111602604Y-71486508D01*
X111601702Y-71477512D01*
X111591866Y-71491455D01*
X111565403Y-71537543D01*
X111523964Y-71612695D01*
X111469201Y-71713829D01*
X111402769Y-71837864D01*
X111326318Y-71981719D01*
X111241502Y-72142312D01*
X111149974Y-72316561D01*
X111081961Y-72446609D01*
X110985398Y-72631410D01*
X110893487Y-72806983D01*
X110808020Y-72969929D01*
X110730788Y-73116849D01*
X110663582Y-73244341D01*
X110608194Y-73349007D01*
X110566415Y-73427446D01*
X110540036Y-73476258D01*
X110532071Y-73490365D01*
X110469867Y-73562791D01*
X110386023Y-73607367D01*
X110275808Y-73626295D01*
X110237923Y-73627301D01*
X110141880Y-73621637D01*
X110075835Y-73600729D01*
X110031269Y-73558897D01*
X109999664Y-73490460D01*
X109991103Y-73462739D01*
X109980693Y-73422059D01*
X109963422Y-73349443D01*
X109940487Y-73250298D01*
X109913086Y-73130034D01*
X109882418Y-72994057D01*
X109849681Y-72847775D01*
X109816073Y-72696597D01*
X109782792Y-72545930D01*
X109751036Y-72401182D01*
X109722004Y-72267761D01*
X109696893Y-72151075D01*
X109676902Y-72056532D01*
X109663229Y-71989539D01*
X109657072Y-71955505D01*
X109656965Y-71954601D01*
X109665170Y-71934025D01*
X109696103Y-71905746D01*
X109753484Y-71867133D01*
X109841032Y-71815555D01*
X109901125Y-71781958D01*
X109991538Y-71732764D01*
X110070343Y-71691260D01*
X110130693Y-71660951D01*
X110165741Y-71645338D01*
X110170821Y-71643991D01*
X110181414Y-71662285D01*
X110198604Y-71714454D01*
X110221037Y-71795493D01*
X110247357Y-71900395D01*
X110276208Y-72024153D01*
X110287447Y-72074602D01*
X110315590Y-72201055D01*
X110341552Y-72315019D01*
X110363939Y-72410579D01*
X110381354Y-72481821D01*
X110392401Y-72522833D01*
X110394913Y-72529833D01*
X110406252Y-72517785D01*
X110433644Y-72473788D01*
X110475199Y-72401294D01*
X110529030Y-72303755D01*
X110593249Y-72184622D01*
X110665967Y-72047348D01*
X110745298Y-71895384D01*
X110801916Y-71785692D01*
X110885358Y-71623728D01*
X110963791Y-71472300D01*
X111035249Y-71335147D01*
X111097762Y-71216010D01*
X111149364Y-71118630D01*
X111188086Y-71046745D01*
X111211961Y-71004097D01*
X111218503Y-70993912D01*
X111240799Y-70976960D01*
X111291814Y-70941991D01*
X111366718Y-70892193D01*
X111460682Y-70830753D01*
X111568877Y-70760860D01*
X111657297Y-70704275D01*
X112074016Y-70438649D01*
X112067602Y-70361176D01*
X112054789Y-70290223D01*
X112032380Y-70223041D01*
X112030614Y-70219211D01*
X112000040Y-70154719D01*
X111846627Y-70154719D01*
X111773285Y-70155547D01*
X111720180Y-70161765D01*
X111679958Y-70178973D01*
X111645266Y-70212773D01*
X111608749Y-70268766D01*
X111563055Y-70352551D01*
X111546997Y-70382922D01*
X111501119Y-70467858D01*
X111454160Y-70551707D01*
X111414645Y-70619314D01*
X111406734Y-70632216D01*
X111367030Y-70699354D01*
X111320935Y-70782158D01*
X111285541Y-70849015D01*
X111220734Y-70975270D01*
X110714719Y-71278318D01*
X110586960Y-71354162D01*
X110470282Y-71422146D01*
X110368967Y-71479876D01*
X110287298Y-71524959D01*
X110229557Y-71555002D01*
X110200026Y-71567611D01*
X110197197Y-71567534D01*
X110190080Y-71545509D01*
X110175258Y-71489487D01*
X110153878Y-71404160D01*
X110127090Y-71294220D01*
X110096041Y-71164356D01*
X110061881Y-71019261D01*
X110040782Y-70928625D01*
X110004576Y-70773897D01*
X109970063Y-70629126D01*
X109938529Y-70499509D01*
X109911264Y-70390245D01*
X109889556Y-70306532D01*
X109874694Y-70253568D01*
X109870041Y-70239761D01*
X109836248Y-70188011D01*
X109798253Y-70164847D01*
X109771666Y-70163191D01*
X109708447Y-70161740D01*
X109611653Y-70160507D01*
X109484340Y-70159501D01*
X109329563Y-70158733D01*
X109150378Y-70158212D01*
X108949841Y-70157950D01*
X108731007Y-70157957D01*
X108496934Y-70158244D01*
X108250676Y-70158820D01*
X108135574Y-70159180D01*
X106518850Y-70164641D01*
X106434687Y-70462297D01*
X106405735Y-70565447D01*
X106380990Y-70655045D01*
X106362329Y-70724182D01*
X106351627Y-70765954D01*
X106349809Y-70774836D01*
X106369009Y-70777284D01*
X106424757Y-70779606D01*
X106513911Y-70781770D01*
X106633333Y-70783743D01*
X106779881Y-70785491D01*
X106950416Y-70786982D01*
X107141797Y-70788182D01*
X107350885Y-70789060D01*
X107574539Y-70789581D01*
X107767565Y-70789719D01*
X109186037Y-70789719D01*
X109115890Y-70983196D01*
X109094979Y-71041162D01*
X109062390Y-71131881D01*
X109019780Y-71250725D01*
X108968805Y-71393067D01*
X108911121Y-71554279D01*
X108848386Y-71729734D01*
X108782255Y-71914803D01*
X108716331Y-72099407D01*
X108651007Y-72281901D01*
X108589393Y-72453089D01*
X108532827Y-72609317D01*
X108482647Y-72746933D01*
X108440193Y-72862285D01*
X108406802Y-72951721D01*
X108383813Y-73011587D01*
X108372564Y-73038233D01*
X108371987Y-73039121D01*
X108348050Y-73042791D01*
X108291984Y-73041646D01*
X108211003Y-73036115D01*
X108112318Y-73026626D01*
X108058095Y-73020472D01*
X107943795Y-73006551D01*
X107863316Y-72995520D01*
X107811033Y-72985894D01*
X107781320Y-72976187D01*
X107768554Y-72964914D01*
X107767109Y-72950588D01*
X107768375Y-72943960D01*
X107772893Y-72916229D01*
X107781916Y-72854379D01*
X107794792Y-72763242D01*
X107810868Y-72647650D01*
X107829492Y-72512438D01*
X107850011Y-72362436D01*
X107871772Y-72202479D01*
X107894123Y-72037399D01*
X107916412Y-71872027D01*
X107937985Y-71711198D01*
X107958191Y-71559744D01*
X107976377Y-71422498D01*
X107991889Y-71304291D01*
X108004077Y-71209957D01*
X108012287Y-71144329D01*
X108015866Y-71112240D01*
X108015969Y-71110297D01*
X108001973Y-71100558D01*
X107958056Y-71093663D01*
X107881322Y-71089388D01*
X107768877Y-71087508D01*
X107719889Y-71087375D01*
X107423810Y-71087375D01*
X107412735Y-71141946D01*
X107405500Y-71182217D01*
X107393430Y-71254757D01*
X107377288Y-71354620D01*
X107357837Y-71476865D01*
X107335838Y-71616546D01*
X107312054Y-71768720D01*
X107287248Y-71928444D01*
X107262182Y-72090774D01*
X107237618Y-72250766D01*
X107214319Y-72403477D01*
X107193047Y-72543962D01*
X107174564Y-72667278D01*
X107159634Y-72768482D01*
X107149017Y-72842630D01*
X107143477Y-72884778D01*
X107142844Y-72892037D01*
X107127089Y-72901837D01*
X107104538Y-72899268D01*
X107094586Y-72895864D01*
X107086196Y-72893611D01*
X107078342Y-72895756D01*
X107069998Y-72905548D01*
X107060139Y-72926235D01*
X107047738Y-72961065D01*
X107031771Y-73013286D01*
X107011210Y-73086146D01*
X106985031Y-73182893D01*
X106952208Y-73306776D01*
X106911714Y-73461041D01*
X106862523Y-73648939D01*
X106836987Y-73746438D01*
X106652399Y-74450891D01*
X106431293Y-74456502D01*
X106343029Y-74457443D01*
X106271556Y-74455731D01*
X106224811Y-74451725D01*
X106210433Y-74446580D01*
X106215666Y-74424681D01*
X106230497Y-74368715D01*
X106253788Y-74282824D01*
X106284404Y-74171150D01*
X106321205Y-74037835D01*
X106363057Y-73887019D01*
X106408821Y-73722844D01*
X106425716Y-73662411D01*
X106472368Y-73494973D01*
X106515234Y-73339803D01*
X106553215Y-73200976D01*
X106585214Y-73082564D01*
X106610133Y-72988643D01*
X106626873Y-72923286D01*
X106634338Y-72890568D01*
X106634536Y-72887558D01*
X106614275Y-72888919D01*
X106558227Y-72895073D01*
X106469944Y-72905573D01*
X106352980Y-72919975D01*
X106210887Y-72937833D01*
X106047218Y-72958702D01*
X105865526Y-72982136D01*
X105669365Y-73007692D01*
X105531246Y-73025826D01*
X105326690Y-73052630D01*
X105133682Y-73077657D01*
X104955853Y-73100455D01*
X104796832Y-73120570D01*
X104660248Y-73137550D01*
X104549733Y-73150942D01*
X104468915Y-73160293D01*
X104421426Y-73165151D01*
X104410120Y-73165679D01*
X104414865Y-73149892D01*
X104441989Y-73108494D01*
X104488094Y-73046047D01*
X104549781Y-72967117D01*
X104623651Y-72876267D01*
X104642589Y-72853469D01*
X104744501Y-72730408D01*
X104822955Y-72633119D01*
X104880606Y-72557486D01*
X104920106Y-72499394D01*
X104944110Y-72454726D01*
X104955269Y-72419365D01*
X104956238Y-72389196D01*
X104953029Y-72371863D01*
X104935783Y-72346645D01*
X104890635Y-72295256D01*
X104818594Y-72218717D01*
X104720664Y-72118051D01*
X104597852Y-71994278D01*
X104451167Y-71848420D01*
X104281613Y-71681498D01*
X104090197Y-71494534D01*
X104047236Y-71452743D01*
X103890609Y-71300292D01*
X103742726Y-71155986D01*
X103605996Y-71022198D01*
X103482830Y-70901306D01*
X103375638Y-70795684D01*
X103286829Y-70707709D01*
X103218813Y-70639756D01*
X103174002Y-70594201D01*
X103154804Y-70573420D01*
X103154250Y-70572451D01*
X103171170Y-70560038D01*
X103217697Y-70534162D01*
X103287479Y-70498155D01*
X103374165Y-70455353D01*
X103412475Y-70436920D01*
X103506738Y-70391568D01*
X103584221Y-70351144D01*
X103646026Y-70311483D01*
X103693258Y-70268416D01*
X103727021Y-70217777D01*
X103748419Y-70155398D01*
X103758555Y-70077114D01*
X103758534Y-69978756D01*
X103749459Y-69856158D01*
X103732435Y-69705152D01*
X103708565Y-69521572D01*
X103690518Y-69387383D01*
X103670283Y-69234708D01*
X103652377Y-69094975D01*
X103637363Y-68972945D01*
X103625802Y-68873384D01*
X103618256Y-68801053D01*
X103615287Y-68760716D01*
X103615776Y-68753922D01*
X103636861Y-68755005D01*
X103692232Y-68762456D01*
X103777132Y-68775510D01*
X103886808Y-68793400D01*
X104016503Y-68815359D01*
X104161462Y-68840620D01*
X104238814Y-68854362D01*
X104396163Y-68881809D01*
X104546488Y-68906746D01*
X104683836Y-68928282D01*
X104802254Y-68945529D01*
X104895792Y-68957595D01*
X104958496Y-68963592D01*
X104972815Y-68964094D01*
X105043834Y-68961336D01*
X105101921Y-68950095D01*
X105151763Y-68925921D01*
X105198051Y-68884365D01*
X105245474Y-68820976D01*
X105298722Y-68731304D01*
X105362483Y-68610900D01*
X105378995Y-68578655D01*
X105434420Y-68470414D01*
X105474942Y-68393402D01*
X105503612Y-68343454D01*
X105523479Y-68316402D01*
X105537591Y-68308080D01*
X105548998Y-68314321D01*
X105560526Y-68330608D01*
X105577673Y-68359182D01*
X105611989Y-68417619D01*
X105660842Y-68501386D01*
X105721595Y-68605954D01*
X105791615Y-68726790D01*
X105868267Y-68859364D01*
X105911541Y-68934328D01*
X105991481Y-69071559D01*
X106067412Y-69199396D01*
X106136520Y-69313294D01*
X106195991Y-69408706D01*
X106243012Y-69481087D01*
X106274771Y-69525890D01*
X106284442Y-69536891D01*
X106320438Y-69564163D01*
X106357819Y-69575635D01*
X106412046Y-69574626D01*
X106444245Y-69571199D01*
X106530896Y-69557270D01*
X106587283Y-69536554D01*
X106622806Y-69503668D01*
X106646008Y-69455646D01*
X106651697Y-69422393D01*
X106658741Y-69351940D01*
X106666986Y-69246747D01*
X106676280Y-69109273D01*
X106686468Y-68941978D01*
X106697397Y-68747320D01*
X106708913Y-68527758D01*
X106720864Y-68285753D01*
X106726685Y-68162861D01*
X106736905Y-67946080D01*
X106746725Y-67741331D01*
X106755972Y-67552006D01*
X106764470Y-67381497D01*
X106772047Y-67233197D01*
X106778530Y-67110499D01*
X106783743Y-67016794D01*
X106787514Y-66955477D01*
X106789670Y-66929938D01*
X106789832Y-66929411D01*
X106805346Y-66940559D01*
X106845071Y-66974922D01*
X106904439Y-67028383D01*
X106978882Y-67096827D01*
X107063833Y-67176140D01*
X107066299Y-67178459D01*
X107178788Y-67282637D01*
X107268526Y-67360765D01*
X107340369Y-67415300D01*
X107399173Y-67448702D01*
X107449797Y-67463431D01*
X107497095Y-67461946D01*
X107545927Y-67446706D01*
X107572396Y-67434716D01*
X107591852Y-67423834D01*
X107612491Y-67408299D01*
X107636230Y-67385446D01*
X107664986Y-67352612D01*
X107700677Y-67307134D01*
X107745220Y-67246349D01*
X107800533Y-67167593D01*
X107868532Y-67068204D01*
X107951136Y-66945518D01*
X108050261Y-66796872D01*
X108167825Y-66619603D01*
X108265018Y-66472669D01*
X108378519Y-66301310D01*
X108485607Y-66140296D01*
X108584272Y-65992602D01*
X108672505Y-65861205D01*
X108748296Y-65749083D01*
X108809636Y-65659211D01*
X108854515Y-65594566D01*
X108880924Y-65558125D01*
X108887269Y-65550969D01*
X108892028Y-65570043D01*
G37*
%TO.C,J9*%
D17*
X117513000Y-65573000D02*
X117513000Y-66723000D01*
X117513000Y-69323000D02*
X117513000Y-78273000D01*
X117513000Y-78273000D02*
X118513000Y-78273000D01*
D10*
D16*
X147513000Y-78673000D02*
X147512999Y-78673000D01*
X147512999Y-78673000D01*
X147512999Y-78673000D01*
X147512999Y-78673000D01*
X147512999Y-78673000D01*
X147512999Y-78673000D01*
X147512999Y-78673000D01*
X147512999Y-78672999D01*
X147512999Y-78672999D01*
X147512999Y-78672999D01*
X147512999Y-78672999D01*
X147512999Y-78672999D01*
X147513000Y-78672999D01*
X147513000Y-78672999D01*
X147513000Y-78672999D01*
X147513000Y-78672999D01*
X147513000Y-78672999D01*
X147513000Y-78672999D01*
X147513000Y-78672999D01*
X147513000Y-78672999D01*
X147513000Y-78672999D01*
X147513000Y-78672999D01*
X147513000Y-78672999D01*
X147513000Y-78672999D01*
X147513001Y-78672999D01*
X147513001Y-78672999D01*
X147513001Y-78672999D01*
X147513001Y-78672999D01*
X147513001Y-78672999D01*
X147513001Y-78672999D01*
X147513001Y-78673000D01*
X147513001Y-78673000D01*
X147513001Y-78673000D01*
X147513001Y-78673000D01*
X147513001Y-78673000D01*
X147513001Y-78673000D01*
X147513001Y-78673000D01*
X147513000Y-78673000D01*
X147513000Y-78673000D02*
X147513001Y-78673000D01*
X147513001Y-78673000D01*
X147513001Y-78673000D01*
X147513001Y-78673000D01*
X147513001Y-78673000D01*
X147513001Y-78673000D01*
X147513001Y-78673001D01*
X147513001Y-78673001D01*
X147513001Y-78673001D01*
X147513001Y-78673001D01*
X147513001Y-78673001D01*
X147513001Y-78673001D01*
X147513001Y-78673001D01*
X147513000Y-78673001D01*
X147513000Y-78673001D01*
X147513000Y-78673001D01*
X147513000Y-78673001D01*
X147513000Y-78673001D01*
X147513000Y-78673001D01*
X147513000Y-78673001D01*
X147513000Y-78673001D01*
X147513000Y-78673001D01*
X147513000Y-78673001D01*
X147513000Y-78673001D01*
X147513000Y-78673001D01*
X147512999Y-78673001D01*
X147512999Y-78673001D01*
X147512999Y-78673001D01*
X147512999Y-78673001D01*
X147512999Y-78673001D01*
X147512999Y-78673001D01*
X147512999Y-78673000D01*
X147512999Y-78673000D01*
X147512999Y-78673000D01*
X147512999Y-78673000D01*
X147512999Y-78673000D01*
X147512999Y-78673000D01*
X147513000Y-78673000D01*
D10*
D16*
X147513000Y-78773000D02*
X147512999Y-78773000D01*
X147512999Y-78773000D01*
X147512999Y-78773000D01*
X147512999Y-78773000D01*
X147512999Y-78773000D01*
X147512999Y-78773000D01*
X147512999Y-78773000D01*
X147512999Y-78772999D01*
X147512999Y-78772999D01*
X147512999Y-78772999D01*
X147512999Y-78772999D01*
X147512999Y-78772999D01*
X147513000Y-78772999D01*
X147513000Y-78772999D01*
X147513000Y-78772999D01*
X147513000Y-78772999D01*
X147513000Y-78772999D01*
X147513000Y-78772999D01*
X147513000Y-78772999D01*
X147513000Y-78772999D01*
X147513000Y-78772999D01*
X147513000Y-78772999D01*
X147513000Y-78772999D01*
X147513000Y-78772999D01*
X147513001Y-78772999D01*
X147513001Y-78772999D01*
X147513001Y-78772999D01*
X147513001Y-78772999D01*
X147513001Y-78772999D01*
X147513001Y-78772999D01*
X147513001Y-78773000D01*
X147513001Y-78773000D01*
X147513001Y-78773000D01*
X147513001Y-78773000D01*
X147513001Y-78773000D01*
X147513001Y-78773000D01*
X147513001Y-78773000D01*
X147513000Y-78773000D01*
X147513000Y-78773000D02*
X147513001Y-78773000D01*
X147513001Y-78773000D01*
X147513001Y-78773000D01*
X147513001Y-78773000D01*
X147513001Y-78773000D01*
X147513001Y-78773000D01*
X147513001Y-78773001D01*
X147513001Y-78773001D01*
X147513001Y-78773001D01*
X147513001Y-78773001D01*
X147513001Y-78773001D01*
X147513001Y-78773001D01*
X147513001Y-78773001D01*
X147513000Y-78773001D01*
X147513000Y-78773001D01*
X147513000Y-78773001D01*
X147513000Y-78773001D01*
X147513000Y-78773001D01*
X147513000Y-78773001D01*
X147513000Y-78773001D01*
X147513000Y-78773001D01*
X147513000Y-78773001D01*
X147513000Y-78773001D01*
X147513000Y-78773001D01*
X147513000Y-78773001D01*
X147512999Y-78773001D01*
X147512999Y-78773001D01*
X147512999Y-78773001D01*
X147512999Y-78773001D01*
X147512999Y-78773001D01*
X147512999Y-78773001D01*
X147512999Y-78773000D01*
X147512999Y-78773000D01*
X147512999Y-78773000D01*
X147512999Y-78773000D01*
X147512999Y-78773000D01*
X147512999Y-78773000D01*
X147513000Y-78773000D01*
D10*
D16*
X147513000Y-78773000D02*
X147512999Y-78773000D01*
X147512999Y-78773000D01*
X147512999Y-78773000D01*
X147512999Y-78773000D01*
X147512999Y-78773000D01*
X147512999Y-78773000D01*
X147512999Y-78773000D01*
X147512999Y-78772999D01*
X147512999Y-78772999D01*
X147512999Y-78772999D01*
X147512999Y-78772999D01*
X147512999Y-78772999D01*
X147513000Y-78772999D01*
X147513000Y-78772999D01*
X147513000Y-78772999D01*
X147513000Y-78772999D01*
X147513000Y-78772999D01*
X147513000Y-78772999D01*
X147513000Y-78772999D01*
X147513000Y-78772999D01*
X147513000Y-78772999D01*
X147513000Y-78772999D01*
X147513000Y-78772999D01*
X147513000Y-78772999D01*
X147513001Y-78772999D01*
X147513001Y-78772999D01*
X147513001Y-78772999D01*
X147513001Y-78772999D01*
X147513001Y-78772999D01*
X147513001Y-78772999D01*
X147513001Y-78773000D01*
X147513001Y-78773000D01*
X147513001Y-78773000D01*
X147513001Y-78773000D01*
X147513001Y-78773000D01*
X147513001Y-78773000D01*
X147513001Y-78773000D01*
X147513000Y-78773000D01*
X147513000Y-78773000D02*
X147513001Y-78773000D01*
X147513001Y-78773000D01*
X147513001Y-78773000D01*
X147513001Y-78773000D01*
X147513001Y-78773000D01*
X147513001Y-78773000D01*
X147513001Y-78773001D01*
X147513001Y-78773001D01*
X147513001Y-78773001D01*
X147513001Y-78773001D01*
X147513001Y-78773001D01*
X147513001Y-78773001D01*
X147513001Y-78773001D01*
X147513000Y-78773001D01*
X147513000Y-78773001D01*
X147513000Y-78773001D01*
X147513000Y-78773001D01*
X147513000Y-78773001D01*
X147513000Y-78773001D01*
X147513000Y-78773001D01*
X147513000Y-78773001D01*
X147513000Y-78773001D01*
X147513000Y-78773001D01*
X147513000Y-78773001D01*
X147513000Y-78773001D01*
X147512999Y-78773001D01*
X147512999Y-78773001D01*
X147512999Y-78773001D01*
X147512999Y-78773001D01*
X147512999Y-78773001D01*
X147512999Y-78773001D01*
X147512999Y-78773000D01*
X147512999Y-78773000D01*
X147512999Y-78773000D01*
X147512999Y-78773000D01*
X147512999Y-78773000D01*
X147512999Y-78773000D01*
X147513000Y-78773000D01*
D17*
X148513000Y-78273000D02*
X149513000Y-78273000D01*
X149513000Y-65573000D02*
X117513000Y-65573000D01*
X149513000Y-66723000D02*
X149513000Y-65573000D01*
X149513000Y-78273000D02*
X149513000Y-69323000D01*
D10*
X147513000Y-78673000D02*
G75*
G02*
X147513000Y-78773000I0J-50000D01*
G01*
X147513000Y-78673000D02*
G75*
G02*
X147513000Y-78773000I0J-50000D01*
G01*
X147513000Y-78773000D02*
G75*
G02*
X147513000Y-78673000I0J50000D01*
G01*
%TO.C,J3*%
D13*
X97833000Y-75263000D02*
X97833000Y-90483000D01*
X97833000Y-76373000D02*
X100133000Y-76373000D01*
X97833000Y-90483000D02*
X110653000Y-90483000D01*
X100133000Y-76373000D02*
X100133000Y-89373000D01*
X100133000Y-80173000D02*
X105143000Y-80173000D01*
X100133000Y-85573000D02*
X105143000Y-85573000D01*
X100133000Y-89373000D02*
X97833000Y-89373000D01*
X101733000Y-78573000D02*
X105143000Y-78573000D01*
X101733000Y-79673000D02*
X101733000Y-78573000D01*
X101733000Y-86073000D02*
X101733000Y-87173000D01*
X101733000Y-87173000D02*
X105143000Y-87173000D01*
X101943000Y-82073000D02*
X103743000Y-82073000D01*
X101943000Y-83673000D02*
X101943000Y-82073000D01*
X103743000Y-82073000D02*
X103743000Y-83673000D01*
X103743000Y-83673000D02*
X101943000Y-83673000D01*
X105143000Y-78573000D02*
X105143000Y-75263000D01*
X105143000Y-79673000D02*
X101733000Y-79673000D01*
X105143000Y-80173000D02*
X105143000Y-79673000D01*
X105143000Y-85573000D02*
X105143000Y-86073000D01*
X105143000Y-86073000D02*
X101733000Y-86073000D01*
X105143000Y-87173000D02*
X105143000Y-90483000D01*
X107753000Y-76483000D02*
X110653000Y-76483000D01*
X107753000Y-76763000D02*
X107753000Y-76483000D01*
X107753000Y-89263000D02*
X107753000Y-88983000D01*
X108343000Y-77873000D02*
X108743000Y-77473000D01*
X108743000Y-77473000D02*
X108743000Y-78273000D01*
X108743000Y-78273000D02*
X108343000Y-77873000D01*
X110653000Y-75263000D02*
X97833000Y-75263000D01*
X110653000Y-76483000D02*
X110653000Y-75263000D01*
X110653000Y-89263000D02*
X107753000Y-89263000D01*
X110653000Y-90483000D02*
X110653000Y-89263000D01*
%TD*%
M02*
