%TF.GenerationSoftware,KiCad,Pcbnew,10.0.1*%
%TF.CreationDate,2026-09-02T21:13:54-04:00*%
%TF.ProjectId,TMR-26-1-14 ODrive S1 Breakout Board V1.2,544d522d-3236-42d3-912d-3134204f4472,rev?*%
%TF.SameCoordinates,Original*%
%TF.FileFunction,Profile,NP*%
%FSLAX46Y46*%
G04 Gerber Fmt 4.6, Leading zero omitted, Abs format (unit mm)*
G04 Created by KiCad (PCBNEW 10.0.1) date 2026-09-02 21:13:54*
%MOMM*%
%LPD*%
G01*
G04 APERTURE LIST*
%TA.AperFunction,Profile*%
%ADD10C,0.250000*%
%TD*%
G04 APERTURE END LIST*
D10*
X103163000Y-112383433D02*
X103163000Y-109372998D01*
X102513000Y-68372999D02*
G75*
G02*
X98313000Y-68372999I-2100000J0D01*
G01*
X98313000Y-68372999D02*
G75*
G02*
X102513000Y-68372999I2100000J0D01*
G01*
X97413000Y-68373000D02*
X97413000Y-112372998D01*
X160413000Y-65372999D02*
G75*
G02*
X163413001Y-68372999I0J-3000001D01*
G01*
X160413000Y-65372999D02*
X100413001Y-65372999D01*
X162513000Y-112372999D02*
G75*
G02*
X158313000Y-112372999I-2100000J0D01*
G01*
X158313000Y-112372999D02*
G75*
G02*
X162513000Y-112372999I2100000J0D01*
G01*
X100413000Y-115372999D02*
G75*
G02*
X97413001Y-112372998I0J2999999D01*
G01*
X163413000Y-112372999D02*
G75*
G02*
X160413000Y-115373000I-3000000J-1D01*
G01*
X157663000Y-109372999D02*
X157663000Y-112397681D01*
X97413000Y-68373000D02*
G75*
G02*
X100413001Y-65373000I3000000J0D01*
G01*
X155663000Y-107372999D02*
G75*
G02*
X157663001Y-109372999I0J-2000001D01*
G01*
X162513000Y-68372999D02*
G75*
G02*
X158313000Y-68372999I-2100000J0D01*
G01*
X158313000Y-68372999D02*
G75*
G02*
X162513000Y-68372999I2100000J0D01*
G01*
X102513000Y-112372999D02*
G75*
G02*
X98313000Y-112372999I-2100000J0D01*
G01*
X98313000Y-112372999D02*
G75*
G02*
X102513000Y-112372999I2100000J0D01*
G01*
X163413000Y-112372999D02*
X163413000Y-68372999D01*
X103163000Y-109372998D02*
G75*
G02*
X105162999Y-107373000I2000000J-2D01*
G01*
X103163000Y-112383433D02*
G75*
G02*
X100412997Y-115372965I-3000000J33D01*
G01*
X155663000Y-107372999D02*
X105162999Y-107372999D01*
X160413000Y-115372999D02*
G75*
G02*
X157663000Y-112397681I250000J2989599D01*
G01*
M02*
