%TF.GenerationSoftware,KiCad,Pcbnew,10.0.1*%
%TF.CreationDate,2026-09-02T21:13:54-04:00*%
%TF.ProjectId,TMR-26-1-14 ODrive S1 Breakout Board V1.2,544d522d-3236-42d3-912d-3134204f4472,rev?*%
%TF.SameCoordinates,Original*%
%TF.FileFunction,Copper,L1,Top*%
%TF.FilePolarity,Positive*%
%FSLAX46Y46*%
G04 Gerber Fmt 4.6, Leading zero omitted, Abs format (unit mm)*
G04 Created by KiCad (PCBNEW 10.0.1) date 2026-09-02 21:13:54*
%MOMM*%
%LPD*%
G01*
G04 APERTURE LIST*
G04 Aperture macros list*
%AMRoundRect*
0 Rectangle with rounded corners*
0 $1 Rounding radius*
0 $2 $3 $4 $5 $6 $7 $8 $9 X,Y pos of 4 corners*
0 Add a 4 corners polygon primitive as box body*
4,1,4,$2,$3,$4,$5,$6,$7,$8,$9,$2,$3,0*
0 Add four circle primitives for the rounded corners*
1,1,$1+$1,$2,$3*
1,1,$1+$1,$4,$5*
1,1,$1+$1,$6,$7*
1,1,$1+$1,$8,$9*
0 Add four rect primitives between the rounded corners*
20,1,$1+$1,$2,$3,$4,$5,0*
20,1,$1+$1,$4,$5,$6,$7,0*
20,1,$1+$1,$6,$7,$8,$9,0*
20,1,$1+$1,$8,$9,$2,$3,0*%
G04 Aperture macros list end*
%TA.AperFunction,ComponentPad*%
%ADD10RoundRect,0.250000X-0.600000X-0.725000X0.600000X-0.725000X0.600000X0.725000X-0.600000X0.725000X0*%
%TD*%
%TA.AperFunction,ComponentPad*%
%ADD11O,1.700000X1.950000*%
%TD*%
%TA.AperFunction,ComponentPad*%
%ADD12RoundRect,0.250000X-0.725000X0.600000X-0.725000X-0.600000X0.725000X-0.600000X0.725000X0.600000X0*%
%TD*%
%TA.AperFunction,ComponentPad*%
%ADD13O,1.950000X1.700000*%
%TD*%
%TA.AperFunction,ComponentPad*%
%ADD14R,1.700000X1.700000*%
%TD*%
%TA.AperFunction,ComponentPad*%
%ADD15C,1.700000*%
%TD*%
%TA.AperFunction,ComponentPad*%
%ADD16C,1.574800*%
%TD*%
%TA.AperFunction,ComponentPad*%
%ADD17R,1.200000X1.200000*%
%TD*%
%TA.AperFunction,ComponentPad*%
%ADD18C,1.200000*%
%TD*%
%TA.AperFunction,ViaPad*%
%ADD19C,2.000000*%
%TD*%
%TA.AperFunction,ViaPad*%
%ADD20C,0.700000*%
%TD*%
%TA.AperFunction,Conductor*%
%ADD21C,1.000000*%
%TD*%
%TA.AperFunction,Conductor*%
%ADD22C,0.350000*%
%TD*%
G04 APERTURE END LIST*
D10*
%TO.P,J10,1,Pin_1*%
%TO.N,/G04\u002C THERMISTOR+*%
X142163000Y-97973000D03*
D11*
%TO.P,J10,2,Pin_2*%
%TO.N,/THERMISTOR-*%
X144663000Y-97973000D03*
%TD*%
D10*
%TO.P,J2,1,Pin_1*%
%TO.N,/GND*%
X120663000Y-97473000D03*
D11*
%TO.P,J2,2,Pin_2*%
%TO.N,/G02\u002C HALL_C*%
X123163000Y-97473000D03*
%TO.P,J2,3,Pin_3*%
%TO.N,/G11\u002C HALL_B\u002C ANALOG_IN*%
X125663000Y-97473000D03*
%TO.P,J2,4,Pin_4*%
%TO.N,/G01\u002C HALL_A\u002C ANALOG_IN*%
X128163000Y-97473000D03*
%TO.P,J2,5,Pin_5*%
%TO.N,/G04\u002C THERMISTOR+*%
X130663000Y-97473000D03*
%TO.P,J2,6,Pin_6*%
%TO.N,/5V (1)*%
X133163000Y-97473000D03*
%TD*%
D12*
%TO.P,J4,1,Pin_1*%
%TO.N,/5V (1)*%
X106858000Y-97123000D03*
D13*
%TO.P,J4,2,Pin_2*%
%TO.N,/G0\u002C (+)\u002C RS485_A*%
X106858000Y-99623000D03*
%TO.P,J4,3,Pin_3*%
%TO.N,/G0\u002C (\u002C)\u002C RS485_B*%
X106858000Y-102123000D03*
%TO.P,J4,4,Pin_4*%
%TO.N,/GND*%
X106858000Y-104623000D03*
%TD*%
D14*
%TO.P,J1,1,Pin_1*%
%TO.N,/CAN_H_1*%
X150813000Y-84573000D03*
D15*
%TO.P,J1,2,Pin_2*%
%TO.N,/CAN_L_1*%
X150813000Y-87113000D03*
%TO.P,J1,3,Pin_3*%
%TO.N,/CAN_H_2*%
X148273000Y-84573000D03*
%TO.P,J1,4,Pin_4*%
%TO.N,/CAN_L_2*%
X148273000Y-87113000D03*
%TO.P,J1,5,Pin_5*%
%TO.N,/12V IN (2)*%
X145733000Y-84573000D03*
%TO.P,J1,6,Pin_6*%
%TO.N,/3.3V (1)*%
X145733000Y-87113000D03*
%TO.P,J1,7,Pin_7*%
%TO.N,/G06\u002C UART_TX\u002C ERROR*%
X143193000Y-84573000D03*
%TO.P,J1,8,Pin_8*%
%TO.N,/G07\u002C UART_RX\u002C ENABLE*%
X143193000Y-87113000D03*
%TO.P,J1,9,Pin_9*%
%TO.N,/ISO_VDD*%
X140653000Y-84573000D03*
%TO.P,J1,10,Pin_10*%
%TO.N,/ISO_GND*%
X140653000Y-87113000D03*
%TO.P,J1,11,Pin_11*%
%TO.N,/G05\u002C DIR*%
X138113000Y-84573000D03*
%TO.P,J1,12,Pin_12*%
%TO.N,/G08\u002C STEP\u002C PWM_IN*%
X138113000Y-87113000D03*
%TO.P,J1,13,Pin_13*%
%TO.N,/G04\u002C THERMISTOR+*%
X135573000Y-84573000D03*
%TO.P,J1,14,Pin_14*%
%TO.N,/THERMISTOR-*%
X135573000Y-87113000D03*
%TO.P,J1,15,Pin_15*%
%TO.N,/5V (1)*%
X133033000Y-84573000D03*
%TO.P,J1,16,Pin_16*%
%TO.N,/GND*%
X133033000Y-87113000D03*
%TO.P,J1,17,Pin_17*%
%TO.N,/G03\u002C ENC0_A*%
X130493000Y-84573000D03*
%TO.P,J1,18,Pin_18*%
%TO.N,/G09\u002C ENC0_B*%
X130493000Y-87113000D03*
%TO.P,J1,19,Pin_19*%
%TO.N,/G02\u002C HALL_C*%
X127953000Y-84573000D03*
%TO.P,J1,20,Pin_20*%
%TO.N,/G10\u002C ENC0_Z*%
X127953000Y-87113000D03*
%TO.P,J1,21,Pin_21*%
%TO.N,/G01\u002C HALL_A\u002C ANALOG_IN*%
X125413000Y-84573000D03*
%TO.P,J1,22,Pin_22*%
%TO.N,/G11\u002C HALL_B\u002C ANALOG_IN*%
X125413000Y-87113000D03*
%TO.P,J1,23,Pin_23*%
%TO.N,/G0\u002C (+)\u002C RS485_A*%
X122873000Y-84573000D03*
%TO.P,J1,24,Pin_24*%
%TO.N,/G0\u002C (\u002C)\u002C RS485_B*%
X122873000Y-87113000D03*
%TO.P,J1,25,Pin_25*%
%TO.N,/5V (1)*%
X120333000Y-84573000D03*
%TO.P,J1,26,Pin_26*%
%TO.N,/GND*%
X120333000Y-87113000D03*
%TO.P,J1,27,Pin_27*%
%TO.N,/SPI_MOSI*%
X117793000Y-84573000D03*
%TO.P,J1,28,Pin_28*%
%TO.N,/SPI_MISO*%
X117793000Y-87113000D03*
%TO.P,J1,29,Pin_29*%
%TO.N,/SPI_SCK*%
X115253000Y-84573000D03*
%TO.P,J1,30,Pin_30*%
%TO.N,/G12\u002C SPI_nCS*%
X115253000Y-87113000D03*
%TD*%
D16*
%TO.P,J8,1,1*%
%TO.N,/CAN_H_2*%
X153913000Y-89033400D03*
%TO.P,J8,2,2*%
%TO.N,/CAN_L_2*%
X153913000Y-92033399D03*
%TD*%
%TO.P,J7,1,1*%
%TO.N,/CAN_H_1*%
X153940001Y-77033400D03*
%TO.P,J7,2,2*%
%TO.N,/CAN_L_1*%
X153940001Y-80033399D03*
%TD*%
D17*
%TO.P,J9,1,1*%
%TO.N,/CAN_H_1*%
X147513000Y-77673000D03*
D18*
%TO.P,J9,2,2*%
%TO.N,/CAN_L_1*%
X147513000Y-75673000D03*
%TO.P,J9,3,3*%
%TO.N,/CAN_H_2*%
X145513000Y-77673000D03*
%TO.P,J9,4,4*%
%TO.N,/CAN_L_2*%
X145513000Y-75673000D03*
%TO.P,J9,5,5*%
%TO.N,/12V IN (2)*%
X143513000Y-77673000D03*
%TO.P,J9,6,6*%
%TO.N,/3.3V (1)*%
X143513000Y-75673000D03*
%TO.P,J9,7,7*%
%TO.N,/G06\u002C UART_TX\u002C ERROR*%
X141513000Y-77673000D03*
%TO.P,J9,8,8*%
%TO.N,/G07\u002C UART_RX\u002C ENABLE*%
X141513000Y-75673000D03*
%TO.P,J9,9,9*%
%TO.N,/ISO_VDD*%
X139513000Y-77673000D03*
%TO.P,J9,10,10*%
%TO.N,/ISO_GND*%
X139513000Y-75673000D03*
%TO.P,J9,11,11*%
%TO.N,/G05\u002C DIR*%
X137513000Y-77673000D03*
%TO.P,J9,12,12*%
%TO.N,/G08\u002C STEP\u002C PWM_IN*%
X137513000Y-75673000D03*
%TO.P,J9,13,13*%
%TO.N,/G04\u002C THERMISTOR+*%
X135513000Y-77673000D03*
%TO.P,J9,14,14*%
%TO.N,/THERMISTOR-*%
X135513000Y-75673000D03*
%TO.P,J9,15,15*%
%TO.N,/5V (1)*%
X133513000Y-77673000D03*
%TO.P,J9,16,16*%
%TO.N,/GND*%
X133513000Y-75673000D03*
%TO.P,J9,17,17*%
%TO.N,/G03\u002C ENC0_A*%
X131513000Y-77673000D03*
%TO.P,J9,18,18*%
%TO.N,/G09\u002C ENC0_B*%
X131513000Y-75673000D03*
%TO.P,J9,19,19*%
%TO.N,/G02\u002C HALL_C*%
X129513000Y-77673000D03*
%TO.P,J9,20,20*%
%TO.N,/G10\u002C ENC0_Z*%
X129513000Y-75673000D03*
%TO.P,J9,21,21*%
%TO.N,/G01\u002C HALL_A\u002C ANALOG_IN*%
X127513000Y-77673000D03*
%TO.P,J9,22,22*%
%TO.N,/G11\u002C HALL_B\u002C ANALOG_IN*%
X127513000Y-75673000D03*
%TO.P,J9,23,23*%
%TO.N,/G0\u002C (+)\u002C RS485_A*%
X125513000Y-77673000D03*
%TO.P,J9,24,24*%
%TO.N,/G0\u002C (\u002C)\u002C RS485_B*%
X125513000Y-75673000D03*
%TO.P,J9,25,25*%
%TO.N,/5V (1)*%
X123513000Y-77673000D03*
%TO.P,J9,26,26*%
%TO.N,/GND*%
X123513000Y-75673000D03*
%TO.P,J9,27,27*%
%TO.N,/SPI_MOSI*%
X121513000Y-77673000D03*
%TO.P,J9,28,28*%
%TO.N,/SPI_MISO*%
X121513000Y-75673000D03*
%TO.P,J9,29,29*%
%TO.N,/SPI_SCK*%
X119513000Y-77673000D03*
%TO.P,J9,30,30*%
%TO.N,/G12\u002C SPI_nCS*%
X119513000Y-75673000D03*
%TD*%
D12*
%TO.P,J3,1,Pin_1*%
%TO.N,/5V (1)*%
X107143000Y-77873000D03*
D13*
%TO.P,J3,2,Pin_2*%
%TO.N,/GND*%
X107143000Y-80373000D03*
%TO.P,J3,3,Pin_3*%
%TO.N,/G01\u002C HALL_A\u002C ANALOG_IN*%
X107143000Y-82873000D03*
%TO.P,J3,4,Pin_4*%
%TO.N,/G11\u002C HALL_B\u002C ANALOG_IN*%
X107143000Y-85373000D03*
%TO.P,J3,5,Pin_5*%
%TO.N,/G02\u002C HALL_C*%
X107143000Y-87873000D03*
%TD*%
D19*
%TO.N,/5V (1)*%
X113413000Y-77873000D03*
D20*
%TO.N,/G01\u002C HALL_A\u002C ANALOG_IN*%
X111000000Y-85887000D03*
%TO.N,/G0\u002C (\u002C)\u002C RS485_B*%
X116413000Y-92873000D03*
%TO.N,/THERMISTOR-*%
X139913000Y-91373000D03*
%TO.N,/G0\u002C (+)\u002C RS485_A*%
X117000000Y-89500000D03*
X114000000Y-92500000D03*
%TO.N,/G02\u002C HALL_C*%
X118488000Y-92798000D03*
%TD*%
%TO.N,/5V (1)*%
D21*
X124064001Y-106571999D02*
X133163000Y-97473000D01*
X99913000Y-84873000D02*
X99913000Y-96873000D01*
X106111999Y-106571999D02*
X124064001Y-106571999D01*
X106913000Y-77873000D02*
X99913000Y-84873000D01*
X107143000Y-77873000D02*
X106913000Y-77873000D01*
X107143000Y-77873000D02*
X113413000Y-77873000D01*
X99913000Y-96873000D02*
X99913000Y-100373000D01*
X100163000Y-97123000D02*
X99913000Y-96873000D01*
X106858000Y-97123000D02*
X100163000Y-97123000D01*
X99913000Y-100373000D02*
X106111999Y-106571999D01*
%TO.N,/G04\u002C THERMISTOR+*%
D22*
X135513000Y-77673000D02*
X135513000Y-84513000D01*
X136763000Y-91373000D02*
X136799000Y-91337000D01*
X130663000Y-97473000D02*
X136763000Y-91373000D01*
X142163000Y-96773000D02*
X136763000Y-91373000D01*
X135513000Y-84513000D02*
X135573000Y-84573000D01*
X136799000Y-91337000D02*
X136799000Y-86474994D01*
X136799000Y-86474994D02*
X135573000Y-85248994D01*
X142163000Y-97973000D02*
X142163000Y-96773000D01*
X135573000Y-85248994D02*
X135573000Y-84573000D01*
%TO.N,/G03\u002C ENC0_A*%
X131513000Y-83553000D02*
X130493000Y-84573000D01*
X131513000Y-77673000D02*
X131513000Y-83553000D01*
%TO.N,/G01\u002C HALL_A\u002C ANALOG_IN*%
X110157000Y-85887000D02*
X107143000Y-82873000D01*
X127513000Y-77673000D02*
X127513000Y-82473000D01*
X127513000Y-82473000D02*
X125413000Y-84573000D01*
X128163000Y-97473000D02*
X126639000Y-95949000D01*
X126639000Y-86474994D02*
X125413000Y-85248994D01*
X111000000Y-85887000D02*
X110157000Y-85887000D01*
X125413000Y-85248994D02*
X125413000Y-84573000D01*
X126639000Y-95949000D02*
X126639000Y-86474994D01*
%TO.N,/G09\u002C ENC0_B*%
X129179000Y-84065174D02*
X129179000Y-85799000D01*
X130537000Y-82707174D02*
X129179000Y-84065174D01*
X129179000Y-85799000D02*
X130493000Y-87113000D01*
X131513000Y-75673000D02*
X130537000Y-76649000D01*
X130537000Y-76649000D02*
X130537000Y-82707174D01*
%TO.N,/G0\u002C (\u002C)\u002C RS485_B*%
X125513000Y-75673000D02*
X124537000Y-76649000D01*
X106858000Y-102123000D02*
X107163000Y-102123000D01*
X107163000Y-102123000D02*
X116413000Y-92873000D01*
X121647000Y-84065174D02*
X121647000Y-85887000D01*
X124537000Y-81175174D02*
X121647000Y-84065174D01*
X124537000Y-76649000D02*
X124537000Y-81175174D01*
X121647000Y-85887000D02*
X122873000Y-87113000D01*
%TO.N,/G06\u002C UART_TX\u002C ERROR*%
X141513000Y-77673000D02*
X141513000Y-82893000D01*
X141513000Y-82893000D02*
X143193000Y-84573000D01*
%TO.N,/SPI_MOSI*%
X121513000Y-77673000D02*
X121513000Y-80853000D01*
X121513000Y-80853000D02*
X117793000Y-84573000D01*
%TO.N,/THERMISTOR-*%
X134259000Y-85799000D02*
X135573000Y-87113000D01*
X134489000Y-83835174D02*
X134259000Y-84065174D01*
X139913000Y-93223000D02*
X139913000Y-91373000D01*
X144663000Y-97973000D02*
X139913000Y-93223000D01*
X134259000Y-84065174D02*
X134259000Y-85799000D01*
X135513000Y-75673000D02*
X134489000Y-76697000D01*
X134489000Y-76697000D02*
X134489000Y-83835174D01*
%TO.N,/12V IN (2)*%
X143513000Y-82353000D02*
X145733000Y-84573000D01*
X143513000Y-77673000D02*
X143513000Y-82353000D01*
%TO.N,/G0\u002C (+)\u002C RS485_A*%
X117000000Y-89500000D02*
X122219826Y-89500000D01*
X106858000Y-99623000D02*
X107163000Y-99623000D01*
X122219826Y-89500000D02*
X124099000Y-87620826D01*
X113981000Y-92500000D02*
X114000000Y-92500000D01*
X124099000Y-87620826D02*
X124099000Y-86474994D01*
X125513000Y-77673000D02*
X125513000Y-81933000D01*
X106858000Y-99623000D02*
X113981000Y-92500000D01*
X122873000Y-85248994D02*
X122873000Y-84573000D01*
X125513000Y-81933000D02*
X122873000Y-84573000D01*
X124099000Y-86474994D02*
X122873000Y-85248994D01*
%TO.N,/G08\u002C STEP\u002C PWM_IN*%
X136537000Y-83803174D02*
X136887000Y-84153174D01*
X137513000Y-75673000D02*
X136537000Y-76649000D01*
X136537000Y-76649000D02*
X136537000Y-83803174D01*
X136887000Y-84153174D02*
X136887000Y-85887000D01*
X136887000Y-85887000D02*
X138113000Y-87113000D01*
%TO.N,/G12\u002C SPI_nCS*%
X119513000Y-75673000D02*
X113913000Y-81273000D01*
X113913000Y-81273000D02*
X113913000Y-85773000D01*
X113913000Y-85773000D02*
X115253000Y-87113000D01*
%TO.N,/G07\u002C UART_RX\u002C ENABLE*%
X141513000Y-75673000D02*
X140537000Y-76649000D01*
X140537000Y-82669174D02*
X141967000Y-84099174D01*
X141967000Y-85887000D02*
X143193000Y-87113000D01*
X140537000Y-76649000D02*
X140537000Y-82669174D01*
X141967000Y-84099174D02*
X141967000Y-85887000D01*
%TO.N,/G11\u002C HALL_B\u002C ANALOG_IN*%
X125663000Y-97473000D02*
X125663000Y-87363000D01*
X126537000Y-76649000D02*
X126537000Y-81715174D01*
X125663000Y-87363000D02*
X125413000Y-87113000D01*
X124187000Y-85887000D02*
X125413000Y-87113000D01*
X107143000Y-85373000D02*
X112143000Y-90373000D01*
X126537000Y-81715174D02*
X124187000Y-84065174D01*
X127513000Y-75673000D02*
X126537000Y-76649000D01*
X112143000Y-90373000D02*
X122153000Y-90373000D01*
X124187000Y-84065174D02*
X124187000Y-85887000D01*
X122153000Y-90373000D02*
X125413000Y-87113000D01*
%TO.N,/G10\u002C ENC0_Z*%
X126639000Y-84147000D02*
X126639000Y-85799000D01*
X128537000Y-82249000D02*
X126639000Y-84147000D01*
X128537000Y-76649000D02*
X128537000Y-82249000D01*
X126639000Y-85799000D02*
X127953000Y-87113000D01*
X129513000Y-75673000D02*
X128537000Y-76649000D01*
%TO.N,/SPI_MISO*%
X116479000Y-84065174D02*
X116479000Y-85799000D01*
X121513000Y-75673000D02*
X120537000Y-76649000D01*
X120537000Y-76649000D02*
X120537000Y-80007174D01*
X116479000Y-85799000D02*
X117793000Y-87113000D01*
X120537000Y-80007174D02*
X116479000Y-84065174D01*
%TO.N,/ISO_GND*%
X138537000Y-83263174D02*
X139427000Y-84153174D01*
X139427000Y-84153174D02*
X139427000Y-85887000D01*
X139513000Y-75673000D02*
X138537000Y-76649000D01*
X139427000Y-85887000D02*
X140653000Y-87113000D01*
X138537000Y-76649000D02*
X138537000Y-83263174D01*
%TO.N,/G05\u002C DIR*%
X137513000Y-83973000D02*
X138113000Y-84573000D01*
X137513000Y-77673000D02*
X137513000Y-83973000D01*
%TO.N,/3.3V (1)*%
X144419000Y-85799000D02*
X145733000Y-87113000D01*
X144419000Y-84065174D02*
X144419000Y-85799000D01*
X143513000Y-75673000D02*
X142537000Y-76649000D01*
X142537000Y-76649000D02*
X142537000Y-82183174D01*
X142537000Y-82183174D02*
X144419000Y-84065174D01*
%TO.N,/G02\u002C HALL_C*%
X118488000Y-92798000D02*
X118338000Y-92798000D01*
X109913000Y-90873000D02*
X107143000Y-88103000D01*
X129513000Y-77673000D02*
X129513000Y-83013000D01*
X118488000Y-92798000D02*
X123163000Y-97473000D01*
X118338000Y-92798000D02*
X116413000Y-90873000D01*
X107143000Y-88103000D02*
X107143000Y-87873000D01*
X116413000Y-90873000D02*
X109913000Y-90873000D01*
X129513000Y-83013000D02*
X127953000Y-84573000D01*
%TO.N,/ISO_VDD*%
X139513000Y-77673000D02*
X139513000Y-83433000D01*
X139513000Y-83433000D02*
X140653000Y-84573000D01*
%TO.N,/SPI_SCK*%
X115253000Y-81933000D02*
X115253000Y-84573000D01*
X119513000Y-77673000D02*
X115253000Y-81933000D01*
%TO.N,/CAN_H_1*%
X150813000Y-80160401D02*
X150813000Y-84573000D01*
X147513000Y-77673000D02*
X147513000Y-81273000D01*
X153940001Y-77033400D02*
X150813000Y-80160401D01*
X147513000Y-81273000D02*
X150813000Y-84573000D01*
%TO.N,/CAN_L_1*%
X149587000Y-85887000D02*
X150813000Y-87113000D01*
X153940001Y-80033399D02*
X153940001Y-83985999D01*
X147513000Y-75673000D02*
X146537000Y-76649000D01*
X146537000Y-81103174D02*
X149587000Y-84153174D01*
X149587000Y-84153174D02*
X149587000Y-85887000D01*
X146537000Y-76649000D02*
X146537000Y-81103174D01*
X153940001Y-83985999D02*
X150813000Y-87113000D01*
%TO.N,/CAN_L_2*%
X153913000Y-92033399D02*
X153193399Y-92033399D01*
X146959000Y-85799000D02*
X148273000Y-87113000D01*
X144537000Y-76649000D02*
X144537000Y-81643174D01*
X144537000Y-81643174D02*
X146959000Y-84065174D01*
X145513000Y-75673000D02*
X144537000Y-76649000D01*
X146959000Y-84065174D02*
X146959000Y-85799000D01*
X153193399Y-92033399D02*
X148273000Y-87113000D01*
%TO.N,/CAN_H_2*%
X149499000Y-86474994D02*
X148273000Y-85248994D01*
X150999574Y-89033400D02*
X149499000Y-87532826D01*
X145513000Y-77673000D02*
X145513000Y-81813000D01*
X148273000Y-85248994D02*
X148273000Y-84573000D01*
X153913000Y-89033400D02*
X150999574Y-89033400D01*
X149499000Y-87532826D02*
X149499000Y-86474994D01*
X145513000Y-81813000D02*
X148273000Y-84573000D01*
%TD*%
M02*
