M48
; DRILL file KiCad 10.0.1 date 2026-09-02T21:13:33
; FORMAT={-:-/ absolute / metric / decimal}
; #@! TF.CreationDate,2026-09-02T21:13:33-04:00
; #@! TF.GenerationSoftware,Kicad,Pcbnew,10.0.1
; #@! TF.FileFunction,Plated,1,2,PTH
FMAT,2
METRIC
; #@! TA.AperFunction,Plated,PTH,ViaDrill
T1C0.350
; #@! TA.AperFunction,Plated,PTH,ComponentDrill
T2C0.700
; #@! TA.AperFunction,Plated,PTH,ComponentDrill
T3C0.950
; #@! TA.AperFunction,Plated,PTH,ViaDrill
T4C1.000
; #@! TA.AperFunction,Plated,PTH,ComponentDrill
T5C1.000
; #@! TA.AperFunction,Plated,PTH,ComponentDrill
T6C1.067
%
G90
G05
T1
X111.0Y-85.887
X114.0Y-92.5
X116.413Y-92.873
X117.0Y-89.5
X118.488Y-92.798
X139.913Y-91.373
T2
X119.513Y-75.673
X119.513Y-77.673
X121.513Y-75.673
X121.513Y-77.673
X123.513Y-75.673
X123.513Y-77.673
X125.513Y-75.673
X125.513Y-77.673
X127.513Y-75.673
X127.513Y-77.673
X129.513Y-75.673
X129.513Y-77.673
X131.513Y-75.673
X131.513Y-77.673
X133.513Y-75.673
X133.513Y-77.673
X135.513Y-75.673
X135.513Y-77.673
X137.513Y-75.673
X137.513Y-77.673
X139.513Y-75.673
X139.513Y-77.673
X141.513Y-75.673
X141.513Y-77.673
X143.513Y-75.673
X143.513Y-77.673
X145.513Y-75.673
X145.513Y-77.673
X147.513Y-75.673
X147.513Y-77.673
T3
X106.858Y-97.123
X106.858Y-99.623
X106.858Y-102.123
X106.858Y-104.623
X107.143Y-77.873
X107.143Y-80.373
X107.143Y-82.873
X107.143Y-85.373
X107.143Y-87.873
X120.663Y-97.473
X123.163Y-97.473
X125.663Y-97.473
X128.163Y-97.473
X130.663Y-97.473
X133.163Y-97.473
X142.163Y-97.973
X144.663Y-97.973
T4
X113.413Y-77.873
T5
X115.253Y-84.573
X115.253Y-87.113
X117.793Y-84.573
X117.793Y-87.113
X120.333Y-84.573
X120.333Y-87.113
X122.873Y-84.573
X122.873Y-87.113
X125.413Y-84.573
X125.413Y-87.113
X127.953Y-84.573
X127.953Y-87.113
X130.493Y-84.573
X130.493Y-87.113
X133.033Y-84.573
X133.033Y-87.113
X135.573Y-84.573
X135.573Y-87.113
X138.113Y-84.573
X138.113Y-87.113
X140.653Y-84.573
X140.653Y-87.113
X143.193Y-84.573
X143.193Y-87.113
X145.733Y-84.573
X145.733Y-87.113
X148.273Y-84.573
X148.273Y-87.113
X150.813Y-84.573
X150.813Y-87.113
T6
X153.913Y-89.033
X153.913Y-92.033
X153.94Y-77.033
X153.94Y-80.033
M30
